<?xml version="1.0" encoding="utf-8"?>
<!-- Generator: Adobe Illustrator 23.1.0, SVG Export Plug-In . SVG Version: 6.00 Build 0)  -->
<svg version="1.1" id="Layer_1" xmlns="http://www.w3.org/2000/svg" xmlns:xlink="http://www.w3.org/1999/xlink" x="0px" y="0px"
	 viewBox="0 0 500 500" enable-background="new 0 0 500 500" xml:space="preserve">
<g>
	<path fill="#272560" d="M301.85,404.1c-2.1,0-3.55,0-5.01,0c-27.94,0-55.88,0.09-83.83-0.1c-3.87-0.03-5.46,1.29-6.89,4.76
		c-17.96,43.54-61.95,70.99-106.51,66.69c-50.39-4.86-88.22-37.64-97.39-86.16c-7.6-40.23,4.27-74.99,35.44-101.58
		c31.35-26.74,67.51-32.29,106.53-19.11c2.44,0.82,4.83,1.8,8.01,2.99c0-2.8,0-4.97,0-7.13c0-76.67,0-153.33,0-230
		c0-9.47,2.79-11.82,12.06-9.44c3.37,0.86,6.66,2.54,9.59,4.45c6.05,3.93,11.84,4.12,17.81,0.03c10.66-7.3,21.32-7.16,31.94,0.13
		c5.77,3.96,11.54,3.86,17.29-0.07c10.65-7.28,21.3-7.3,31.94,0c5.75,3.95,11.52,4.02,17.29,0.06c10.85-7.44,21.62-7.31,32.43,0.15
		c5.55,3.83,11,3.3,16.88,0.06c4.49-2.47,9.48-4.39,14.49-5.47c4.51-0.97,7.53,1.61,7.66,6.62c0.05,1.87,0.03,3.75,0.03,5.62
		c0,84.73,0,169.45,0,254.18c0,2.39,0,4.77,0,7.85c2.71,0,4.71,0,6.72,0c19.88,0,39.76-0.03,59.63,0.01
		c29.07,0.05,49.5,20.5,49.55,49.62c0.05,28.87,0,57.73,0.02,86.6c0.01,12.18,4.8,17.81,16.81,19.7c3.72,0.59,6.42,2.7,5.47,6.27
		c-0.59,2.23-3.59,3.93-5.75,5.55c-0.72,0.54-2.19,0.1-3.31,0.1c-45.76,0-91.51,0.01-137.27-0.01
		c-32.06-0.01-51.63-19.52-51.63-51.41C301.84,411.73,301.85,408.37,301.85,404.1z M349.05,38.63c-0.98,0.23-1.58,0.22-1.99,0.49
		c-11.11,7.43-22.01,7.08-33-0.46c-5.57-3.82-11.29-3.1-16.81,0.64c-10.25,6.94-20.69,7.15-31,0.23
		c-6.38-4.29-12.38-4.29-18.77,0.01c-10.07,6.77-20.42,6.8-30.51,0.03c-6.38-4.29-12.15-3.91-18.86-0.24
		c-4.88,2.67-10.82,4.69-16.28,4.67c-5.64-0.03-11.27-2.88-17.38-4.63c-0.07,1.52-0.24,3.48-0.24,5.45
		c-0.01,75.91,0.03,151.83-0.1,227.74c-0.01,4.47,1.57,6.94,5.08,9.57c32.06,23.99,46.8,56.09,44.26,96.07
		c-0.17,2.74-0.46,5.46-0.82,9.63c10.4-7.06,15.33-15.71,15.93-26.8c0.31-5.79,0.07-11.62,0.08-17.43
		c0.05-26.72,18.13-44.9,44.8-44.95c23.07-0.04,46.13-0.01,69.2-0.01c2.16,0,4.31,0,6.42,0
		C349.05,211.44,349.05,125.16,349.05,38.63z M106.56,463.73c52.46,0.17,95.12-42.09,95.27-94.37
		c0.15-52.63-42.38-95.47-94.85-95.53C54.8,273.76,12,316.45,11.91,368.64C11.82,420.99,54.2,463.56,106.56,463.73z M302.93,310.77
		c-0.38,0.35-0.77,0.7-1.15,1.05c12.88,12.51,12.25,28.35,12.1,44.19c-0.2,20.41-0.1,40.83-0.03,61.25
		c0.07,22.27,15.22,37.29,37.55,37.31c37.67,0.03,75.33,0.01,113,0c1.76,0,3.52-0.18,3.79-0.2c-0.91-8.68-2.41-16.9-2.51-25.13
		c-0.32-25.66-0.92-51.35,0.1-76.97c1.06-26.51-16.92-42.47-41.46-41.73c-32.39,0.98-64.83,0.24-97.25,0.24
		C319.03,310.77,310.98,310.77,302.93,310.77z M227.44,391.46c25.63,0,49.86,0,74.31,0c0-17.89,0.55-35.32-0.16-52.69
		c-0.63-15.43-13.91-27.39-29.37-27.95c-15.49-0.56-28.94,10.48-31.19,25.89c-0.62,4.23-0.67,8.6-0.48,12.89
		C241.22,364.77,239.6,379.21,227.44,391.46z"/>
	<path fill="#FFFFFF" d="M349.05,38.63c0,86.53,0,172.81,0,260.03c-2.11,0-4.27,0-6.42,0c-23.07,0-46.13-0.03-69.2,0.01
		c-26.67,0.05-44.75,18.22-44.8,44.95c-0.01,5.81,0.24,11.63-0.08,17.43c-0.6,11.09-5.53,19.73-15.93,26.8
		c0.36-4.17,0.65-6.9,0.82-9.63c2.54-39.98-12.19-72.08-44.26-96.07c-3.51-2.63-5.09-5.1-5.08-9.57
		c0.14-75.91,0.09-151.83,0.1-227.74c0-1.97,0.17-3.94,0.24-5.45c6.11,1.75,11.74,4.6,17.38,4.63c5.46,0.03,11.4-2,16.28-4.67
		c6.71-3.67,12.48-4.05,18.86,0.24c10.09,6.78,20.44,6.75,30.51-0.03c6.39-4.3,12.39-4.29,18.77-0.01c10.3,6.92,20.75,6.7,31-0.23
		c5.52-3.74,11.24-4.45,16.81-0.64c10.99,7.53,21.88,7.89,33,0.46C347.47,38.84,348.07,38.86,349.05,38.63z M269.77,138.52
		c-15.72,0-31.45,0-47.17,0c-1.5,0-3-0.03-4.49,0.05c-3.72,0.21-6.08,2.13-6.14,5.91c-0.05,3.83,2.41,5.67,6.05,6.04
		c1.11,0.12,2.24,0.08,3.37,0.08c32.01,0,64.01,0.01,96.02-0.01c1.67,0,3.88,0.42,4.91-0.46c1.89-1.61,4.19-4.02,4.24-6.14
		c0.04-1.74-2.69-3.92-4.66-5.2c-1.2-0.78-3.28-0.27-4.96-0.27C301.22,138.52,285.5,138.52,269.77,138.52z M269.48,190.3
		c15.75,0,31.5,0,47.24,0c1.5,0,3.41,0.51,4.41-0.21c2.17-1.56,5.34-3.75,5.38-5.72c0.03-1.98-3.05-4.28-5.17-5.91
		c-0.96-0.74-2.9-0.25-4.4-0.25c-31.68-0.01-63.37-0.01-95.05,0.01c-1.68,0-3.83-0.47-4.94,0.37c-2,1.52-4.71,3.9-4.65,5.84
		c0.06,1.95,2.9,4.15,4.98,5.57c1.18,0.8,3.28,0.29,4.96,0.29C237.98,190.31,253.73,190.3,269.48,190.3z M269.33,229.97
		c16.66,0,33.33-0.02,49.99,0.02c3.71,0.01,6.79-0.81,7.52-5.04c0.76-4.4-2.32-7.02-8.41-7.03c-32.58-0.04-65.16-0.03-97.73,0
		c-5.95,0.01-9.07,2.19-8.75,6.24c0.42,5.27,4.22,5.86,8.52,5.84C236.75,229.94,253.04,229.98,269.33,229.97z M269.74,98.84
		c-16.31,0-32.62,0.02-48.94-0.01c-4.41-0.01-8.89,0.36-8.76,6.09c0.13,5.64,4.63,6,9.01,5.9c0.19,0,0.37,0,0.56,0
		c31.87,0,63.75,0,95.62-0.01c1.68,0,3.88,0.47,4.93-0.39c1.93-1.57,4.28-3.92,4.39-6.05c0.09-1.7-2.66-3.91-4.61-5.2
		c-1.21-0.79-3.28-0.33-4.96-0.33C301.24,98.84,285.49,98.84,269.74,98.84z M269.24,265.09c7.87,0,15.74,0,23.62,0
		c9.18-0.01,18.37,0.03,27.55-0.05c3.94-0.03,6.56-1.89,6.44-6.1c-0.11-3.89-2.61-5.56-6.31-5.66c-0.94-0.03-1.87-0.01-2.81-0.01
		c-32.24,0-64.48,0-96.72,0.01c-1.5,0-3.45-0.48-4.39,0.27c-1.86,1.47-4.33,3.64-4.36,5.55c-0.02,1.9,2.37,4.19,4.24,5.61
		c1.11,0.84,3.26,0.38,4.94,0.39C237.37,265.1,253.31,265.09,269.24,265.09z M195.22,150.61c5.49,0.03,8.71-1.99,8.6-5.82
		c-0.14-5.15-3.64-6.32-8.09-6.29c-5.95,0.04-9.1,1.98-8.86,6.06C187.17,149.8,190.93,150.66,195.22,150.61z M194.99,229.98
		c5.93,0,9.01-1.98,8.83-5.85c-0.23-5.18-3.85-6.23-8.23-6.23c-5.86,0-9.05,2.12-8.73,6.25
		C187.27,229.4,191.03,230.19,194.99,229.98z M195.23,190.3c4.24,0.1,8.31-0.66,8.51-5.8c0.19-5.14-3.69-6.26-8.03-6.3
		c-5.78-0.06-9.1,2.08-8.84,6.1C187.21,189.5,190.94,190.38,195.23,190.3z M195.18,110.81c4.26,0.16,8.32-0.59,8.57-5.72
		c0.25-5.18-3.6-6.26-7.98-6.26c-4.35,0-8.78,0.27-8.82,5.96C186.91,109.99,190.87,110.91,195.18,110.81z M195.84,253.26
		c-6.86-0.04-10.42,3.12-8.66,7.69c2.18,5.69,7.4,4.58,11.47,3.72c2.07-0.44,4.9-3.87,4.92-5.98
		C203.6,254.02,199.71,252.97,195.84,253.26z"/>
	<path fill="#F7F8F8" d="M106.56,463.73c-52.36-0.17-94.73-42.74-94.65-95.09c0.09-52.19,42.89-94.87,95.07-94.81
		c52.47,0.06,95.01,42.9,94.85,95.53C201.68,421.64,159.02,463.89,106.56,463.73z M106.77,360.46
		c-8.56-8.65-16.69-16.91-24.87-25.13c-8.29-8.32-11.33-9.61-14.48-5.74c-3.32,4.07-2.86,5.89,5.79,14.1
		c8.51,8.08,16.69,16.51,25.16,24.95c-1.76,1.86-3.01,3.23-4.33,4.55c-8.34,8.36-16.66,16.74-25.06,25.03
		c-3.15,3.1-5.17,6.5-1.4,10.12c3.75,3.6,7.15,1.43,10.17-1.7c3.52-3.64,7.15-7.16,10.69-10.78c5.99-6.12,11.94-12.26,18.11-18.62
		c2.28,2.17,3.77,3.55,5.21,4.98c8.5,8.47,16.96,16.96,25.48,25.41c2.78,2.76,6.02,3.44,8.93,0.53c2.87-2.87,2.36-6.14-0.41-8.95
		c-5.39-5.48-10.79-10.94-16.28-16.32c-4.65-4.55-9.43-8.95-14.85-14.09c3.33-2.97,5.8-4.98,8.05-7.21
		c7.73-7.65,15.4-15.35,23.04-23.07c2.74-2.77,3.41-6,0.57-8.96c-2.88-3.01-6.05-2.32-8.91,0.38c-1.09,1.03-2.13,2.11-3.19,3.17
		C125.32,341.98,116.43,350.83,106.77,360.46z"/>
	<path fill="#FFFFFF" d="M302.93,310.77c8.05,0,16.09,0,24.14,0c32.42,0,64.86,0.74,97.25-0.24c24.54-0.74,42.53,15.23,41.46,41.73
		c-1.03,25.62-0.43,51.32-0.1,76.97c0.1,8.23,1.6,16.45,2.51,25.13c-0.27,0.02-2.03,0.2-3.79,0.2c-37.67,0.02-75.33,0.03-113,0
		c-22.34-0.02-37.48-15.04-37.55-37.31c-0.07-20.42-0.17-40.84,0.03-61.25c0.15-15.84,0.78-31.68-12.1-44.19
		C302.17,311.47,302.55,311.12,302.93,310.77z M380.51,396.83c-0.09-12.46-9.08-21.72-20.77-23.18c-3.26-0.41-6.93-1.85-9.31-4.02
		c-3.14-2.87-3.61-7.64-0.63-10.71c2.43-2.5,6.47-4.65,9.86-4.73c4.97-0.13,8,3.71,8.59,8.78c0.52,4.47,2.61,7.24,7.28,6.41
		c4.77-0.85,5.42-4.62,4.71-8.7c-1.32-7.48-5.41-12.91-12-16.77c-1.73-1.01-2.52-3.52-3.98-5.13c-1.82-2.01-3.84-5.25-5.83-5.3
		c-1.95-0.05-5.3,3.04-5.66,5.15c-0.54,3.19-1.99,4.29-4.46,5.56c-7.22,3.72-11.24,9.79-11.86,17.88
		c-0.97,12.64,7.81,22.53,20.95,23.8c7.68,0.74,12.1,5.63,10.64,11.99c-1.14,4.98-4.49,7.76-9.54,8.07
		c-5.2,0.32-9.16-3.46-10.25-9.88c-0.67-3.95-2.54-6.42-6.61-5.98c-4.13,0.44-5.52,3.48-5.21,7.32c0.67,8.34,4.92,14.24,12.16,18.37
		c1.7,0.97,3.37,3.25,3.67,5.14c0.58,3.68,2.09,6.27,5.76,6.45c4.01,0.2,5.66-2.47,6.5-6.31c0.46-2.08,2.24-4.43,4.1-5.54
		C376.17,410.97,380.09,404.48,380.51,396.83z M420.39,342.07c-4.12,0-8.25,0-12.37,0c-3.92,0-6.77,1.74-6.92,5.77
		c-0.16,4.41,2.88,6.3,6.95,6.34c8.25,0.1,16.49,0.11,24.74-0.03c3.83-0.06,6.66-1.91,6.62-6.07c-0.03-4.12-2.73-5.94-6.66-6
		C428.63,342.03,424.51,342.08,420.39,342.07z M420.24,386.18c4.31,0,8.62,0.08,12.92-0.02c3.71-0.09,6.13-2,6.25-5.8
		c0.12-3.83-2.26-6.01-5.93-6.09c-8.8-0.19-17.61-0.19-26.41-0.01c-3.66,0.07-6.1,2.29-6,6.06c0.1,3.72,2.5,5.75,6.24,5.84
		C411.62,386.25,415.93,386.17,420.24,386.18z M420.03,406.33c-4.11,0-8.22-0.07-12.33,0.02c-3.91,0.08-6.62,2.01-6.61,6.04
		c0.01,3.73,2.54,5.75,6.24,5.79c8.59,0.09,17.19,0.09,25.78,0.01c3.67-0.04,6.22-1.89,6.3-5.71c0.08-4.11-2.58-6.02-6.49-6.12
		C428.63,406.26,424.33,406.34,420.03,406.33z"/>
	<path fill="#FFFFFF" d="M227.44,391.46c12.17-12.25,13.79-26.69,13.1-41.86c-0.19-4.28-0.14-8.66,0.48-12.89
		c2.25-15.42,15.7-26.45,31.19-25.89c15.46,0.56,28.74,12.52,29.37,27.95c0.71,17.38,0.16,34.8,0.16,52.69
		C277.3,391.46,253.06,391.46,227.44,391.46z"/>
	<path fill="#272560" d="M269.77,138.52c15.72,0,31.44,0,47.17,0.01c1.68,0,3.76-0.51,4.96,0.27c1.96,1.28,4.7,3.46,4.66,5.2
		c-0.05,2.12-2.35,4.52-4.24,6.14c-1.02,0.87-3.23,0.46-4.91,0.46c-32.01,0.02-64.01,0.01-96.02,0.01c-1.12,0-2.25,0.04-3.37-0.08
		c-3.63-0.38-6.1-2.21-6.05-6.04c0.05-3.78,2.42-5.7,6.14-5.91c1.49-0.08,2.99-0.05,4.49-0.05
		C238.33,138.52,254.05,138.52,269.77,138.52z"/>
	<path fill="#272560" d="M269.48,190.3c-15.75,0-31.5,0-47.24-0.01c-1.68,0-3.79,0.51-4.96-0.29c-2.08-1.42-4.92-3.62-4.98-5.57
		c-0.06-1.95,2.65-4.33,4.65-5.84c1.11-0.84,3.26-0.37,4.94-0.37c31.68-0.01,63.37-0.01,95.05-0.01c1.5,0,3.44-0.49,4.4,0.25
		c2.12,1.63,5.2,3.93,5.17,5.91c-0.03,1.97-3.2,4.16-5.38,5.72c-1,0.72-2.91,0.21-4.41,0.21C300.97,190.3,285.22,190.3,269.48,190.3
		z"/>
	<path fill="#272560" d="M269.33,229.97c-16.29,0-32.58-0.04-48.87,0.03c-4.3,0.02-8.09-0.58-8.52-5.84
		c-0.32-4.04,2.79-6.23,8.75-6.24c32.58-0.03,65.16-0.03,97.73,0c6.09,0.01,9.17,2.63,8.41,7.03c-0.73,4.23-3.81,5.05-7.52,5.04
		C302.66,229.95,286,229.97,269.33,229.97z"/>
	<path fill="#272560" d="M269.74,98.84c15.75,0,31.5-0.01,47.25,0.01c1.68,0,3.76-0.47,4.96,0.33c1.95,1.28,4.7,3.5,4.61,5.2
		c-0.11,2.13-2.46,4.47-4.39,6.05c-1.05,0.86-3.25,0.39-4.93,0.39c-31.87,0.01-63.75,0.01-95.62,0.01c-0.19,0-0.38,0-0.56,0
		c-4.38,0.1-8.89-0.26-9.01-5.9c-0.13-5.72,4.35-6.1,8.76-6.09C237.12,98.86,253.43,98.84,269.74,98.84z"/>
	<path fill="#272560" d="M269.24,265.09c-15.93,0-31.86,0.01-47.8-0.01c-1.68,0-3.83,0.45-4.94-0.39c-1.87-1.41-4.26-3.71-4.24-5.61
		c0.02-1.91,2.5-4.07,4.36-5.55c0.94-0.75,2.9-0.27,4.39-0.27c32.24-0.01,64.48-0.01,96.72-0.01c0.94,0,1.87-0.01,2.81,0.01
		c3.7,0.1,6.2,1.78,6.31,5.66c0.12,4.22-2.5,6.07-6.44,6.1c-9.18,0.08-18.37,0.04-27.55,0.05
		C284.98,265.1,277.11,265.09,269.24,265.09z"/>
	<path fill="#272560" d="M195.21,150.61c-4.28,0.04-8.05-0.81-8.35-6.05c-0.24-4.08,2.92-6.02,8.86-6.06
		c4.45-0.03,7.95,1.14,8.09,6.29C203.93,148.62,200.7,150.64,195.21,150.61z"/>
	<path fill="#272560" d="M194.99,229.98c-3.96,0.22-7.72-0.57-8.13-5.83c-0.32-4.13,2.88-6.25,8.73-6.25c4.37,0,8,1.05,8.23,6.23
		C204,227.99,200.92,229.98,194.99,229.98z"/>
	<path fill="#272560" d="M195.23,190.3c-4.28,0.07-8.02-0.81-8.36-6c-0.26-4.02,3.06-6.15,8.84-6.1c4.34,0.04,8.22,1.16,8.03,6.3
		C203.54,189.64,199.47,190.4,195.23,190.3z"/>
	<path fill="#272560" d="M195.18,110.81c-4.3,0.1-8.27-0.83-8.23-6.03c0.04-5.69,4.46-5.96,8.82-5.96c4.38,0,8.23,1.08,7.98,6.26
		C203.5,110.22,199.43,110.97,195.18,110.81z"/>
	<path fill="#272560" d="M195.84,253.26c3.86-0.3,7.76,0.76,7.72,5.43c-0.02,2.1-2.85,5.53-4.92,5.98
		c-4.07,0.87-9.28,1.98-11.47-3.72C185.43,256.38,188.98,253.23,195.84,253.26z"/>
	<path fill="#272560" d="M106.77,360.46c9.67-9.63,18.55-18.49,27.43-27.34c1.06-1.06,2.1-2.14,3.19-3.17
		c2.85-2.7,6.02-3.4,8.91-0.38c2.83,2.96,2.17,6.19-0.57,8.96c-7.65,7.72-15.32,15.43-23.04,23.07c-2.25,2.23-4.72,4.24-8.05,7.21
		c5.42,5.13,10.2,9.54,14.85,14.09c5.49,5.37,10.89,10.84,16.28,16.32c2.76,2.81,3.28,6.07,0.41,8.95
		c-2.91,2.92-6.15,2.23-8.93-0.53c-8.51-8.45-16.98-16.94-25.48-25.41c-1.44-1.43-2.93-2.8-5.21-4.98
		c-6.18,6.35-12.13,12.5-18.11,18.62c-3.54,3.62-7.17,7.14-10.69,10.78c-3.02,3.12-6.42,5.3-10.17,1.7
		c-3.77-3.62-1.75-7.01,1.4-10.12c8.4-8.29,16.72-16.67,25.06-25.03c1.31-1.31,2.56-2.69,4.33-4.55
		c-8.48-8.44-16.65-16.87-25.16-24.95c-8.65-8.21-9.1-10.02-5.79-14.1c3.15-3.87,6.2-2.58,14.48,5.74
		C90.08,343.55,98.21,351.81,106.77,360.46z"/>
	<path fill="#272560" d="M380.51,396.83c-0.42,7.64-4.34,14.13-11.89,18.68c-1.85,1.12-3.64,3.46-4.1,5.54
		c-0.85,3.84-2.49,6.51-6.5,6.31c-3.66-0.18-5.18-2.78-5.76-6.45c-0.3-1.89-1.97-4.17-3.67-5.14c-7.25-4.13-11.49-10.03-12.16-18.37
		c-0.31-3.84,1.08-6.88,5.21-7.32c4.08-0.43,5.94,2.03,6.61,5.98c1.08,6.42,5.05,10.2,10.25,9.88c5.05-0.31,8.4-3.1,9.54-8.07
		c1.46-6.35-2.96-11.25-10.64-11.99c-13.13-1.27-21.92-11.16-20.95-23.8c0.62-8.09,4.64-14.17,11.86-17.88
		c2.46-1.27,3.92-2.37,4.46-5.56c0.35-2.11,3.71-5.19,5.66-5.15c2,0.05,4.02,3.28,5.83,5.3c1.45,1.61,2.25,4.12,3.98,5.13
		c6.59,3.85,10.68,9.29,12,16.77c0.72,4.08,0.07,7.85-4.71,8.7c-4.67,0.83-6.77-1.95-7.28-6.41c-0.59-5.07-3.62-8.91-8.59-8.78
		c-3.38,0.09-7.43,2.23-9.86,4.73c-2.98,3.07-2.52,7.84,0.63,10.71c2.38,2.17,6.05,3.61,9.31,4.02
		C371.43,375.12,380.42,384.37,380.51,396.83z"/>
	<path fill="#272560" d="M420.39,342.08c4.12,0,8.25-0.04,12.37,0.02c3.93,0.06,6.63,1.88,6.66,6c0.03,4.16-2.79,6.01-6.62,6.07
		c-8.24,0.13-16.49,0.12-24.74,0.03c-4.07-0.05-7.12-1.93-6.95-6.34c0.15-4.04,3-5.77,6.92-5.77
		C412.14,342.07,416.26,342.07,420.39,342.08z"/>
	<path fill="#272560" d="M420.24,386.18c-4.31,0-8.62,0.08-12.92-0.03c-3.73-0.09-6.14-2.12-6.24-5.84c-0.1-3.77,2.34-5.99,6-6.06
		c8.8-0.18,17.61-0.18,26.41,0.01c3.67,0.08,6.05,2.26,5.93,6.09c-0.12,3.8-2.54,5.71-6.25,5.8
		C428.86,386.26,424.55,386.18,420.24,386.18z"/>
	<path fill="#272560" d="M420.03,406.33c4.3,0,8.6-0.08,12.89,0.03c3.91,0.1,6.56,2.01,6.49,6.12c-0.07,3.82-2.63,5.67-6.3,5.71
		c-8.59,0.08-17.19,0.09-25.78-0.01c-3.7-0.04-6.23-2.06-6.24-5.79c-0.01-4.03,2.7-5.96,6.61-6.04
		C411.81,406.26,415.92,406.33,420.03,406.33z"/>
</g>
</svg>
