<?xml version="1.0" encoding="utf-8"?>
<!-- Generator: Adobe Illustrator 23.1.0, SVG Export Plug-In . SVG Version: 6.00 Build 0)  -->
<svg version="1.1" id="Layer_1" xmlns="http://www.w3.org/2000/svg" xmlns:xlink="http://www.w3.org/1999/xlink" x="0px" y="0px"
	 viewBox="0 0 500 500" enable-background="new 0 0 500 500" xml:space="preserve">
<g>
	<g>
		<circle fill="#F05555" cx="429.17" cy="104.17" r="66.67"/>
		<path fill="#273339" d="M429.17,175c-39.06,0-70.83-31.77-70.83-70.83s31.77-70.83,70.83-70.83S500,65.11,500,104.17
			S468.23,175,429.17,175z M429.17,41.67c-34.47,0-62.5,28.03-62.5,62.5s28.03,62.5,62.5,62.5s62.5-28.03,62.5-62.5
			S463.63,41.67,429.17,41.67z"/>
	</g>
	<g>
		<path fill="#273339" d="M429.27,115.28c-0.6,0-1.21-0.13-1.77-0.39c-1.47-0.68-2.4-2.16-2.4-3.78V66.67c0-2.3,1.87-4.17,4.17-4.17
			c2.3,0,4.17,1.87,4.17,4.17v35.55l18.17-15.14c1.78-1.47,4.4-1.23,5.88,0.53c1.47,1.77,1.23,4.4-0.53,5.88l-25,20.83
			C431.18,114.95,430.23,115.28,429.27,115.28z"/>
	</g>
	<g>
		<path fill="#273339" d="M95.93,25H54.27c-2.3,0-4.17-1.87-4.17-4.17s1.87-4.17,4.17-4.17h41.67c2.3,0,4.17,1.87,4.17,4.17
			S98.23,25,95.93,25z"/>
	</g>
	<g>
		<path fill="#273339" d="M37.6,25h-8.33c-2.3,0-4.17-1.87-4.17-4.17s1.87-4.17,4.17-4.17h8.33c2.3,0,4.17,1.87,4.17,4.17
			S39.9,25,37.6,25z"/>
	</g>
	<g>
		<path fill="#273339" d="M445.93,483.33h-41.67c-2.3,0-4.17-1.87-4.17-4.17c0-2.3,1.87-4.17,4.17-4.17h41.67
			c2.3,0,4.17,1.87,4.17,4.17C450.1,481.47,448.23,483.33,445.93,483.33z"/>
	</g>
	<g>
		<path fill="#273339" d="M470.93,483.33h-8.33c-2.3,0-4.17-1.87-4.17-4.17c0-2.3,1.87-4.17,4.17-4.17h8.33
			c2.3,0,4.17,1.87,4.17,4.17C475.1,481.47,473.23,483.33,470.93,483.33z"/>
	</g>
	<g>
		<path fill="#273339" d="M55.73,301.27c-1.88,0-3.58-1.28-4.04-3.19c-3.82-15.79-5.75-31.97-5.75-48.08
			c0-112.58,91.59-204.17,204.17-204.17c30.53,0,59.92,6.6,87.36,19.62c2.08,0.98,2.97,3.47,1.98,5.55
			c-0.98,2.08-3.46,2.96-5.55,1.98c-26.32-12.48-54.5-18.81-83.78-18.81C142.12,54.17,54.27,142.02,54.27,250
			c0,15.46,1.86,30.98,5.52,46.13c0.54,2.23-0.83,4.49-3.08,5.02C56.38,301.24,56.05,301.27,55.73,301.27z"/>
	</g>
	<g>
		<path fill="#273339" d="M250.1,454.17c-30.53,0-59.92-6.6-87.36-19.62c-2.08-0.98-2.97-3.47-1.97-5.55
			c0.99-2.08,3.47-2.96,5.55-1.98c26.32,12.48,54.5,18.81,83.78,18.81c107.98,0,195.83-87.85,195.83-195.83
			c0-15.46-1.86-30.97-5.52-46.13c-0.54-2.23,0.83-4.49,3.07-5.03c2.22-0.55,4.49,0.83,5.03,3.07c3.82,15.79,5.75,31.97,5.75,48.08
			C454.27,362.57,362.67,454.17,250.1,454.17z"/>
	</g>
	<g>
		<path fill="#273339" d="M250.1,279.17c-39.06,0-70.83-31.77-70.83-70.83s31.78-70.83,70.83-70.83s70.83,31.77,70.83,70.83
			S289.16,279.17,250.1,279.17z M250.1,145.83c-34.47,0-62.5,28.03-62.5,62.5s28.03,62.5,62.5,62.5s62.5-28.03,62.5-62.5
			S284.57,145.83,250.1,145.83z"/>
	</g>
	<g>
		<path fill="#FFD742" d="M296.33,169.78l4.97-4.13c-12.23-14.65-30.62-23.98-51.19-23.98c-36.82,0-66.67,29.85-66.67,66.67h6.29
			C228.68,208.33,266.39,194.69,296.33,169.78z"/>
		<path fill="#273339" d="M189.72,212.5h-6.29c-2.3,0-4.17-1.87-4.17-4.17c0-39.06,31.78-70.83,70.83-70.83
			c21.05,0,40.88,9.29,54.39,25.48c0.71,0.85,1.05,1.94,0.95,3.05c-0.1,1.1-0.63,2.12-1.48,2.83l-4.97,4.13l0,0
			C268.37,198.47,229.57,212.5,189.72,212.5z M187.74,204.17h1.99c37.89,0,74.8-13.35,103.93-37.58l1.65-1.38
			c-11.78-12.36-28.03-19.38-45.22-19.38C217.04,145.83,189.89,171.64,187.74,204.17z M296.33,169.79h0.08H296.33z"/>
	</g>
	<g>
		<path fill="#273339" d="M250.13,324.73c-1.39,0-2.68-0.69-3.46-1.84l-25.02-37.19c-0.46-0.69-0.71-1.5-0.71-2.33l-0.01-13.29
			c0-1.39,0.69-2.68,1.84-3.46c1.16-0.77,2.61-0.92,3.9-0.41c14.99,6.1,31.81,6.13,46.88,0.05c1.28-0.51,2.73-0.37,3.89,0.41
			c1.15,0.77,1.83,2.07,1.83,3.45l0.01,13.16c0,0.83-0.24,1.63-0.7,2.33l-24.98,37.27C252.82,324.04,251.53,324.73,250.13,324.73
			L250.13,324.73z M229.27,282.11l20.85,30.99l20.82-31.07v-5.99c-13.54,4.18-28.17,4.15-41.67-0.04V282.11z"/>
	</g>
	<g>
		<path fill="#273339" d="M250.13,324.73L250.13,324.73h-29.2c-1.18,0-2.32-0.51-3.11-1.39c-0.79-0.88-1.17-2.07-1.04-3.24
			l4.17-37.19c0.19-1.73,1.45-3.17,3.15-3.58c1.7-0.4,3.48,0.27,4.45,1.73l21.57,32.04l21.51-32.12c0.98-1.45,2.75-2.13,4.45-1.73
			c1.7,0.42,2.96,1.85,3.15,3.58l4.17,37.27c0.13,1.18-0.24,2.36-1.04,3.24c-0.79,0.88-1.92,1.39-3.11,1.39L250.13,324.73
			L250.13,324.73z M257.93,316.4h16.67l-2.38-21.33L257.93,316.4z M225.59,316.4h16.71l-14.32-21.28L225.59,316.4z"/>
	</g>
	<g>
		<path fill="#273339" d="M250.13,324.73c-1.39,0-2.68-0.69-3.46-1.84L223.6,288.6l-47.06,20.91c-2.85,1.27-5.65,3.01-8.32,5.17
			c-1.79,1.45-4.42,1.17-5.86-0.62c-1.45-1.78-1.18-4.41,0.62-5.86c3.24-2.63,6.67-4.75,10.18-6.31l50.26-22.33
			c1.85-0.8,4.02-0.2,5.15,1.48l21.56,32.04l21.52-32.12c1.13-1.68,3.31-2.3,5.16-1.48l50.28,22.4c3.49,1.56,6.92,3.68,10.16,6.31
			c1.78,1.45,2.07,4.07,0.62,5.87c-1.44,1.78-4.08,2.07-5.87,0.62c-2.67-2.18-5.48-3.92-8.31-5.17l-47.08-20.98l-23.02,34.36
			C252.82,324.04,251.53,324.73,250.13,324.73L250.13,324.73z"/>
	</g>
	<g>
		<path fill="#273339" d="M250.13,429.17c-2.3,0-4.17-1.87-4.17-4.17V320.57c0-2.3,1.87-4.17,4.17-4.17s4.17,1.87,4.17,4.17V425
			C254.3,427.3,252.43,429.17,250.13,429.17z"/>
	</g>
	<g>
		<path fill="#273339" d="M350.13,396.78c-2.3,0-4.17-1.87-4.17-4.17v-48.86c0-14.79-8.73-28.23-22.23-34.26l-47.08-20.97
			l-23.02,34.36c-0.77,1.15-2.07,1.85-3.46,1.85l0,0c-1.39,0-2.68-0.69-3.46-1.84l-23.08-34.29l-47.06,20.91
			c-11.17,4.96-19.23,15.08-21.57,27.08c-0.45,2.25-2.61,3.72-4.89,3.29c-2.26-0.44-3.73-2.63-3.29-4.89
			c2.87-14.66,12.73-27.02,26.37-33.09l50.26-22.33c1.86-0.8,4.02-0.2,5.15,1.48l21.57,32.04l21.52-32.12
			c1.13-1.68,3.31-2.3,5.16-1.48l50.29,22.4c16.51,7.36,27.18,23.79,27.18,41.87v48.86C354.3,394.92,352.43,396.78,350.13,396.78z"
			/>
	</g>
	<g>
		<circle fill="#FFD742" cx="70.83" cy="395.83" r="66.67"/>
		<path fill="#273339" d="M70.83,466.67C31.78,466.67,0,434.89,0,395.83S31.77,325,70.83,325s70.83,31.77,70.83,70.83
			S109.89,466.67,70.83,466.67z M70.83,333.33c-34.47,0-62.5,28.03-62.5,62.5s28.03,62.5,62.5,62.5s62.5-28.03,62.5-62.5
			S105.3,333.33,70.83,333.33z"/>
	</g>
	<g>
		<path fill="#273339" d="M70.83,379.17c-2.3,0-4.17-1.87-4.17-4.17v-12.5c0-2.3,1.87-4.17,4.17-4.17c2.3,0,4.17,1.87,4.17,4.17V375
			C75,377.3,73.13,379.17,70.83,379.17z"/>
	</g>
	<g>
		<path fill="#273339" d="M70.83,433.33c-2.3,0-4.17-1.87-4.17-4.17v-12.5c0-2.3,1.87-4.17,4.17-4.17c2.3,0,4.17,1.87,4.17,4.17
			v12.5C75,431.47,73.13,433.33,70.83,433.33z"/>
	</g>
	<g>
		<path fill="#273339" d="M77.08,420.83H54.17c-2.3,0-4.17-1.87-4.17-4.17c0-2.3,1.87-4.17,4.17-4.17h22.92
			c3.45,0,6.25-2.8,6.25-6.25S80.53,400,77.08,400h-12.5C56.54,400,50,393.46,50,385.42c0-8.04,6.54-14.58,14.58-14.58h18.75
			c2.3,0,4.17,1.87,4.17,4.17s-1.87,4.17-4.17,4.17H64.58c-3.45,0-6.25,2.8-6.25,6.25s2.8,6.25,6.25,6.25h12.5
			c8.04,0,14.58,6.54,14.58,14.58S85.13,420.83,77.08,420.83z"/>
	</g>
</g>
</svg>
