<?xml version="1.0" encoding="utf-8"?>
<!-- Generator: Adobe Illustrator 23.0.5, SVG Export Plug-In . SVG Version: 6.00 Build 0)  -->
<svg version="1.1" id="Layer_1" xmlns="http://www.w3.org/2000/svg" xmlns:xlink="http://www.w3.org/1999/xlink" x="0px" y="0px"
	 viewBox="0 0 500 500" style="enable-background:new 0 0 500 500;" xml:space="preserve">
<style type="text/css">
	.st0{fill:#F05555;}
	.st1{fill:#273339;}
	.st2{fill:#FFD742;}
</style>
<g>
	<g>
		<circle class="st0" cx="429.2" cy="104.2" r="66.7"/>
		<path class="st1" d="M429.2,175c-39.1,0-70.8-31.8-70.8-70.8s31.8-70.8,70.8-70.8S500,65.1,500,104.2S468.2,175,429.2,175z
			 M429.2,41.7c-34.5,0-62.5,28-62.5,62.5s28,62.5,62.5,62.5s62.5-28,62.5-62.5S463.6,41.7,429.2,41.7z"/>
	</g>
	<g>
		<path class="st1" d="M429.3,115.3c-0.6,0-1.2-0.1-1.8-0.4c-1.5-0.7-2.4-2.2-2.4-3.8V66.7c0-2.3,1.9-4.2,4.2-4.2
			c2.3,0,4.2,1.9,4.2,4.2v35.6l18.2-15.1c1.8-1.5,4.4-1.2,5.9,0.5c1.5,1.8,1.2,4.4-0.5,5.9l-25,20.8
			C431.2,114.9,430.2,115.3,429.3,115.3z"/>
	</g>
	<g>
		<path class="st1" d="M95.9,25H54.3c-2.3,0-4.2-1.9-4.2-4.2s1.9-4.2,4.2-4.2h41.7c2.3,0,4.2,1.9,4.2,4.2S98.2,25,95.9,25z"/>
	</g>
	<g>
		<path class="st1" d="M37.6,25h-8.3c-2.3,0-4.2-1.9-4.2-4.2s1.9-4.2,4.2-4.2h8.3c2.3,0,4.2,1.9,4.2,4.2S39.9,25,37.6,25z"/>
	</g>
	<g>
		<path class="st1" d="M445.9,483.3h-41.7c-2.3,0-4.2-1.9-4.2-4.2c0-2.3,1.9-4.2,4.2-4.2h41.7c2.3,0,4.2,1.9,4.2,4.2
			C450.1,481.5,448.2,483.3,445.9,483.3z"/>
	</g>
	<g>
		<path class="st1" d="M470.9,483.3h-8.3c-2.3,0-4.2-1.9-4.2-4.2c0-2.3,1.9-4.2,4.2-4.2h8.3c2.3,0,4.2,1.9,4.2,4.2
			C475.1,481.5,473.2,483.3,470.9,483.3z"/>
	</g>
	<g>
		<path class="st1" d="M55.7,301.3c-1.9,0-3.6-1.3-4-3.2c-3.8-15.8-5.8-32-5.8-48.1c0-112.6,91.6-204.2,204.2-204.2
			c30.5,0,59.9,6.6,87.4,19.6c2.1,1,3,3.5,2,5.6c-1,2.1-3.5,3-5.5,2c-26.3-12.5-54.5-18.8-83.8-18.8C142.1,54.2,54.3,142,54.3,250
			c0,15.5,1.9,31,5.5,46.1c0.5,2.2-0.8,4.5-3.1,5C56.4,301.2,56,301.3,55.7,301.3z"/>
	</g>
	<g>
		<path class="st1" d="M250.1,454.2c-30.5,0-59.9-6.6-87.4-19.6c-2.1-1-3-3.5-2-5.5c1-2.1,3.5-3,5.6-2
			c26.3,12.5,54.5,18.8,83.8,18.8c108,0,195.8-87.9,195.8-195.8c0-15.5-1.9-31-5.5-46.1c-0.5-2.2,0.8-4.5,3.1-5
			c2.2-0.6,4.5,0.8,5,3.1c3.8,15.8,5.8,32,5.8,48.1C454.3,362.6,362.7,454.2,250.1,454.2z"/>
	</g>
	<g>
		<path class="st1" d="M250.1,279.2c-39.1,0-70.8-31.8-70.8-70.8s31.8-70.8,70.8-70.8s70.8,31.8,70.8,70.8S289.2,279.2,250.1,279.2z
			 M250.1,145.8c-34.5,0-62.5,28-62.5,62.5s28,62.5,62.5,62.5s62.5-28,62.5-62.5S284.6,145.8,250.1,145.8z"/>
	</g>
	<g>
		<path class="st2" d="M296.3,169.8l5-4.1c-12.2-14.6-30.6-24-51.2-24c-36.8,0-66.7,29.9-66.7,66.7h6.3
			C228.7,208.3,266.4,194.7,296.3,169.8z"/>
		<path class="st1" d="M189.7,212.5h-6.3c-2.3,0-4.2-1.9-4.2-4.2c0-39.1,31.8-70.8,70.8-70.8c21.1,0,40.9,9.3,54.4,25.5
			c0.7,0.9,1,1.9,1,3.1c-0.1,1.1-0.6,2.1-1.5,2.8l-5,4.1l0,0C268.4,198.5,229.6,212.5,189.7,212.5z M187.7,204.2h2
			c37.9,0,74.8-13.4,103.9-37.6l1.6-1.4c-11.8-12.4-28-19.4-45.2-19.4C217,145.8,189.9,171.6,187.7,204.2z M296.3,169.8L296.3,169.8
			L296.3,169.8z"/>
	</g>
	<g>
		<path class="st1" d="M250.1,324.7c-1.4,0-2.7-0.7-3.5-1.8l-25-37.2c-0.5-0.7-0.7-1.5-0.7-2.3l0-13.3c0-1.4,0.7-2.7,1.8-3.5
			c1.2-0.8,2.6-0.9,3.9-0.4c15,6.1,31.8,6.1,46.9,0c1.3-0.5,2.7-0.4,3.9,0.4c1.1,0.8,1.8,2.1,1.8,3.5l0,13.2c0,0.8-0.2,1.6-0.7,2.3
			l-25,37.3C252.8,324,251.5,324.7,250.1,324.7L250.1,324.7z M229.3,282.1l20.9,31l20.8-31.1v-6c-13.5,4.2-28.2,4.1-41.7,0V282.1z"
			/>
	</g>
	<g>
		<path class="st1" d="M250.1,324.7L250.1,324.7h-29.2c-1.2,0-2.3-0.5-3.1-1.4s-1.2-2.1-1-3.2l4.2-37.2c0.2-1.7,1.4-3.2,3.1-3.6
			c1.7-0.4,3.5,0.3,4.4,1.7l21.6,32l21.5-32.1c1-1.5,2.8-2.1,4.5-1.7c1.7,0.4,3,1.9,3.1,3.6l4.2,37.3c0.1,1.2-0.2,2.4-1,3.2
			c-0.8,0.9-1.9,1.4-3.1,1.4H250.1L250.1,324.7z M257.9,316.4h16.7l-2.4-21.3L257.9,316.4z M225.6,316.4h16.7L228,295.1L225.6,316.4
			z"/>
	</g>
	<g>
		<path class="st1" d="M250.1,324.7c-1.4,0-2.7-0.7-3.5-1.8l-23.1-34.3l-47.1,20.9c-2.9,1.3-5.6,3-8.3,5.2c-1.8,1.5-4.4,1.2-5.9-0.6
			c-1.4-1.8-1.2-4.4,0.6-5.9c3.2-2.6,6.7-4.8,10.2-6.3l50.3-22.3c1.9-0.8,4-0.2,5.1,1.5l21.6,32l21.5-32.1c1.1-1.7,3.3-2.3,5.2-1.5
			l50.3,22.4c3.5,1.6,6.9,3.7,10.2,6.3c1.8,1.5,2.1,4.1,0.6,5.9c-1.4,1.8-4.1,2.1-5.9,0.6c-2.7-2.2-5.5-3.9-8.3-5.2l-47.1-21
			l-23,34.4C252.8,324,251.5,324.7,250.1,324.7L250.1,324.7z"/>
	</g>
	<g>
		<path class="st1" d="M250.1,429.2c-2.3,0-4.2-1.9-4.2-4.2V320.6c0-2.3,1.9-4.2,4.2-4.2s4.2,1.9,4.2,4.2V425
			C254.3,427.3,252.4,429.2,250.1,429.2z"/>
	</g>
	<g>
		<path class="st1" d="M350.1,396.8c-2.3,0-4.2-1.9-4.2-4.2v-48.9c0-14.8-8.7-28.2-22.2-34.3l-47.1-21l-23,34.4
			c-0.8,1.1-2.1,1.9-3.5,1.9l0,0c-1.4,0-2.7-0.7-3.5-1.8l-23.1-34.3l-47.1,20.9c-11.2,5-19.2,15.1-21.6,27.1
			c-0.4,2.3-2.6,3.7-4.9,3.3c-2.3-0.4-3.7-2.6-3.3-4.9c2.9-14.7,12.7-27,26.4-33.1l50.3-22.3c1.9-0.8,4-0.2,5.1,1.5l21.6,32
			l21.5-32.1c1.1-1.7,3.3-2.3,5.2-1.5l50.3,22.4c16.5,7.4,27.2,23.8,27.2,41.9v48.9C354.3,394.9,352.4,396.8,350.1,396.8z"/>
	</g>
	<g>
		<circle class="st2" cx="70.8" cy="395.8" r="66.7"/>
		<path class="st1" d="M70.8,466.7C31.8,466.7,0,434.9,0,395.8S31.8,325,70.8,325s70.8,31.8,70.8,70.8S109.9,466.7,70.8,466.7z
			 M70.8,333.3c-34.5,0-62.5,28-62.5,62.5s28,62.5,62.5,62.5s62.5-28,62.5-62.5S105.3,333.3,70.8,333.3z"/>
	</g>
	<g>
		<path class="st1" d="M70.8,379.2c-2.3,0-4.2-1.9-4.2-4.2v-12.5c0-2.3,1.9-4.2,4.2-4.2c2.3,0,4.2,1.9,4.2,4.2V375
			C75,377.3,73.1,379.2,70.8,379.2z"/>
	</g>
	<g>
		<path class="st1" d="M70.8,433.3c-2.3,0-4.2-1.9-4.2-4.2v-12.5c0-2.3,1.9-4.2,4.2-4.2c2.3,0,4.2,1.9,4.2,4.2v12.5
			C75,431.5,73.1,433.3,70.8,433.3z"/>
	</g>
	<g>
		<path class="st1" d="M77.1,420.8H54.2c-2.3,0-4.2-1.9-4.2-4.2c0-2.3,1.9-4.2,4.2-4.2h22.9c3.4,0,6.3-2.8,6.3-6.3s-2.8-6.2-6.3-6.2
			H64.6c-8,0-14.6-6.5-14.6-14.6c0-8,6.5-14.6,14.6-14.6h18.8c2.3,0,4.2,1.9,4.2,4.2s-1.9,4.2-4.2,4.2H64.6c-3.5,0-6.3,2.8-6.3,6.3
			s2.8,6.3,6.3,6.3h12.5c8,0,14.6,6.5,14.6,14.6S85.1,420.8,77.1,420.8z"/>
	</g>
</g>
</svg>
