<?xml version="1.0" encoding="utf-8"?>
<!-- Generator: Adobe Illustrator 23.1.0, SVG Export Plug-In . SVG Version: 6.00 Build 0)  -->
<svg version="1.1" id="Layer_1" xmlns="http://www.w3.org/2000/svg" xmlns:xlink="http://www.w3.org/1999/xlink" x="0px" y="0px"
	 viewBox="0 0 500 300" style="enable-background:new 0 0 500 300;" xml:space="preserve">
<style type="text/css">
	.st0{fill:#F5F5F5;}
	.st1{fill:#E7E7E7;}
	.st2{fill:#D1D0D1;}
	.st3{fill:#CFCFD0;}
	.st4{fill:#463F67;}
	.st5{fill:#E9E9E9;}
	.st6{fill:#B7B5B8;}
	.st7{fill:#F6F6F6;}
	.st8{fill:#3A3862;}
	.st9{fill:#3A3761;}
	.st10{fill:#FBC76A;}
	.st11{fill:#FC6D61;}
	.st12{fill:#FACCBD;}
	.st13{fill:#ECC073;}
	.st14{fill:#D44439;}
	.st15{fill:#FEFEFE;}
</style>
<g>
	<path class="st0" d="M351.4,274.2c-71.5,0-143,0-214.5,0c-0.3-0.5-0.6-1.1-0.9-1.6c0.4-2.4,0-4.7-2-6.2c-2.5-2-4.9-4.2-7.6-5.9
		c-2.1-1.4-4.3-3.1-4.3-6.2c1.8-0.3,4.2,1.4,5.1-2.2c5.5-22.4,11.3-44.8,16.9-67.2c0.5,0,1,0.1,1.6,0.1c3.3,3.6,6.5,7.2,9.9,10.6
		c2.3,2.3,3.4,4.7,3.6,8c1.1,15,2.4,30,3.7,45c0.1,1.3-0.5,3.1,1.7,3.5c0.1,1,0.3,2.1,0.4,3.1c-0.2,2.9-0.4,5.9,0.2,8.8
		c-0.1,0.7-0.2,1.4-0.3,2.1c-0.3,1.2,0.1,1.9,1.4,2.1c11,0.1,22.1,0.5,33.1-0.2c0.3-0.2,0.5-0.5,0.8-0.7l0.2,0l-0.2,0
		c-0.1-0.2-0.2-0.5-0.3-0.7c-0.1-0.3-0.2-0.7-0.3-1c1.2-1,1.2-1.8-0.4-2.3l0,0c-0.2-0.3-0.5-0.6-0.7-0.9c0-0.2,0-0.4-0.1-0.6
		c-0.1-1.3-0.7-2.1-2.1-1.9c-0.7-0.1-1.4-0.3-2.1-0.4c-0.7-1.9-2.3-1.4-3.8-1.3c-0.2-0.1-0.5-0.1-0.7-0.1c-0.4-2-2-2-3.5-2.2
		c-3.1-0.5-4.1-2.3-3.2-5.1c1.3-0.4,3.4,0.5,3-2.3c-1.5-12.7-3-25.4-4.4-38.2c-0.2-2.1-0.4-4.3-0.7-6.4c-0.2-0.7-0.5-1.5-0.7-2.2
		c0.6-1.7,0.3-3.4,0-5.1c0.1-3.1-1.5-5.5-3.4-7.8c-8.2-10.1-16.4-20.2-24.6-30.3c1.8-4,0.8-8.3,1-12.4c0.2-1.8,0-3.7,1.2-5.3
		c0.7,0.5,1.4,0.2,2.2,0c4,2.7,7.6,6,12.3,7.6c2,0.6,3.3,1.8,4.1,3.6c0,1.6,0.2,3.1,0.1,4.7c-0.2,3.5,1.6,4.6,4.8,4.7
		c1.8,0,3.6-0.6,5.2,0.7c0.3,6.2-0.5,12.3,0.4,18.5c-0.1,1.3-0.9,2.7,0.7,3.6c1,0.6,2.1,0.7,2.7-0.7c0.9-7.3,0.4-14.6,0.4-21.9
		l0.1,0.3l0.3,0c0.5,0.2,0.5-0.1,0.5-0.5c2.7,0,5.3,0,8-0.1c4.8-0.3,8.9,1.6,13.1,3.4c1,0.4,1.9,1.4,3,1c4-1.4,7.9-3,11.9-4.6
		c14.3-0.3,28.6-0.3,42.9,0c2,2.2,5.2,0.2,7.4,2.1c5.6,4.8,10.9,0.6,16.2-0.8c0.9-0.2,1.8-0.4,2.6-0.5c3.5,0.1,6.9,0.2,10.4,0.4
		c0.1,6.7,0.2,13.3,0.4,20c0,1,0,2.1,1.4,2c1.2-0.1,2.4-0.5,2.6-2c0.1-0.8,0-1.7,0-2.5c0-5.9,0-11.7,0-17.6c0.1-0.2,0.2-0.4,0.2-0.6
		c0.7-0.1,1.4-0.4,2.1-0.4c9.7,0.5,8.9,0,8.6-9.3c0.3-0.4,0.6-0.9,1-1c6.2-2.3,12.2-4.7,17.3-9.1c1.5-1.2,2.1,0,2.2,1.5
		c0.1,3.5,0.2,7,0.2,10.6c0,1.6,0,3.3,2.3,3.4c-7,5.1-15,8.6-22.2,13.4c-1.7,0.7-3.4,1.3-4.6,2.8l-0.1,0.1c-0.2,0.2-0.4,0.4-0.6,0.5
		l-0.2,0.2c-0.2,0.2-0.4,0.4-0.5,0.5l-0.2,0.2c-1.1,0.8-1.7,1.9-1.9,3.2l0,0c-1.3,1.7-2.3,3.6-3,5.7c-6.4,12.4-12.8,24.9-19.3,37.2
		c-1.5,2.9-2.7,5.3,1.3,7c-0.3,2.1-1.2,2.7-3.5,2.8c-3.6,0.2-7.1,0.8-10.8,0.1c-4.2-0.8-5.9,0.4-7.3,4.1c-0.7,0.8-2,2-0.6,2.5
		c4.3,1.5,8.1,5.1,13.2,3.7c0,0.2,0,0.4,0.2,0.5c0.2,0.4,0.3,1.1,0.6,1.2c5.4,2.2,10.7,4.5,16.3,6c1.2,0.3,1.8-0.1,2.2-1.2
		c1.4-4.4,4.1-8.4,4.9-13.1c2.3,0.9,2.6-1,3.2-2.4c6.6-13.9,13.2-27.8,19.9-41.7c0.9-1.9,1.9-3.6,3.9-4.6c3.9-1.8,7.7-3.6,11.5-5.6
		c2-1,2.8-0.5,3.2,1.6c1.6,8.6,4.6,16.9,6.5,25.5c3.7,16.1,8.1,32.1,12.1,48.1c0.5,2,1.3,2.7,3.2,2.3c0.3,2.4-1.5,3-3.2,3.7
		c-3.5,1.4-7,2.7-10.4,4.2c-2.5,1.1-4.5,2.9-4,6.1c-0.2,0.4-0.3,0.9-0.5,1.3C351.7,273.7,351.6,274,351.4,274.2z"/>
	<path class="st1" d="M12.5,274.2c0-13.9,0-27.8,0-41.7c0-6.2,0.1-12.4,0-18.6c-0.1-3.1,1.2-4.1,4.1-4.1c6,0.1,11.9,0,17.9,0
		c1.2,1.2,2.7,0.8,4,0.5c1.2-0.3,2.3-0.9,3.3,0.2c0,3.5,0,7.1,0,10.6c0,3.1,2.3,2.6,4.2,2.6c1.9-0.1,4.6,0.8,4.5-2.6
		c-0.1-3.7,0.6-7.6-0.7-11.2c0-0.1,0.1-0.2,0.1-0.3c0-0.1-0.1-0.3-0.2-0.3c-5.1-0.1-10.2-0.1-15.3-0.2c0-10.7,0.1-21.4-0.1-32.1
		c0-2.8,0.9-4,3.8-3.8c2.7,0.2,5.4,0.2,8,0c3.3-0.3,4.8,0.9,4.4,4.3c-0.2,1.7,0,3.1,2.4,3.1c2.4,0,3-1.1,2.7-3.1
		c-0.6-3.6,1.1-4.6,4.5-4.3c3.6,0.3,7.3,0.1,10.9,0.1c0,10.8-0.1,21.7,0,32.5c0,2.5-0.7,3.5-3.3,3.4c-4.2-0.2-8.5-0.1-12.7-0.1
		c6.1,0.7,12.2,0.7,18.2,0.7c5,0,5,0,5,4.8c0,19.9,0,39.7,0,59.6C56.4,274.2,34.5,274.2,12.5,274.2z"/>
	<path class="st2" d="M78.4,274.2c0-19.9,0-39.7,0-59.6c0-4.8,0-4.8-5-4.8c-6.1,0-12.1,0-18.2-0.7c4.2,0,8.5-0.1,12.7,0.1
		c2.6,0.1,3.3-0.9,3.3-3.4c-0.1-10.8,0-21.7,0-32.5c3.2-0.2,6.5-0.6,6.4,4.2c0,1.8,0.2,3.4,2.8,3.1c2.6-0.3,1.8-2.2,1.8-3.6
		c0-2.3,0.1-3.9,3.2-3.8c3.2,0.1,3.5,1.7,3.4,4.2c-0.1,9.6,0,19.2,0,28.7c0,1.3-0.5,2.7,0.7,3.8c0,3.5,0.2,7,0,10.5
		c-0.1,3.2,2,2.7,3.9,2.6c1.8-0.1,4.4,0.9,4.2-2.6c-0.1-3.5,0-7,0-10.5c2.1,0,4.1,0,6.2,0c6.2,0,5.2-0.5,5.5,5.5
		c0.2,4-0.9,8.2,0.7,12.1c-1.8,6.9-3.6,13.7-5.3,20.6c-0.3,1.3-1.2,2.7,0.2,4c-0.2,3.7-2.5,7-2.2,10.9c-1,1.5-0.9,2.5,1.1,3
		c1.6,0.4,3.1,1,4.7,1.5c0,2.3,0.1,4.5,0.1,6.8C98.4,274.2,88.4,274.2,78.4,274.2z"/>
	<path class="st3" d="M399,274.2c-3.4,0-6.8,0-10.2,0c-0.3-0.6-0.9-0.7-1.5-0.7c-0.1-0.3-0.2-0.7-0.3-1.1c0.6-6.6,3-13.3-2.1-19.2
		c3.7-0.6,4.6-2.4,3.3-6c-1.4-4-2.3-8.2-3.3-12.3c-4.5-16.9-8.9-33.8-13.4-50.7c7.3,0,14.6,0,21.8,0c1.9,0.1,3.9-0.4,5.8,0.7
		c-0.4,4.9-0.9,9.8-0.7,14.7c0,0.8-0.1,1.6,0.7,2.2c0,4.4,0,8.8,0,13.2c-0.9,0.7-0.9,1.4,0,2.1c0,4.4,0,8.8,0,13.2
		c-0.6,0.3-0.7,0.9-0.7,1.5c1.1,4.6,0.6,9.3,0.7,13.9c-0.6,0.3-0.7,0.9-0.7,1.5c0,3.4,0.1,6.8,0,10.2c-0.2,2.9,1.1,3.8,3.9,3.7
		c9-0.1,17.9-0.1,26.9-0.1c0,0.5,0,1,0,1.5c-8.8,0-17.7,0.1-26.5,0c-2.6,0-3.8,0.6-3.6,3.4C399.2,268.6,399,271.4,399,274.2z"/>
	<path class="st2" d="M467.1,266.9c-0.5,2.4-1.5,4.8-1.5,7.3c-7.8,0-15.6,0-23.4,0c-2-8.5-3.9-17.1-5.9-25.6c11.7,0,23.4,0,35.1-0.1
		C470.2,254.7,467.7,260.6,467.1,266.9z"/>
	<path class="st0" d="M436.3,248.6c2,8.5,3.9,17.1,5.9,25.6c-4.4,0-8.8,0-13.2,0c0-3.9,0-7.8,0-11.7c0-0.5,0-1,0-1.5
		c0-4.6,0-9.3,0-13.9c0-0.5,0-1,0-1.5c0-4.6,0-9.3,0-13.9c0-0.5,0-1,0-1.5c0.6-4.4,1.5-8.8,0-13.2c0.3-0.1,0.6-0.1,0.9-0.2
		c1.3,2.3,1.6,4.8,2.1,7.3c0.2,1.2,0.5,1.7,1.9,1.1c6.1-2.6,10.4-11.4,8.7-17.8c-0.3-1.2-1.3-2.4-0.7-4c2.2,1.3,2.6,3.9,4.1,5.5
		c1.4,2.5,2,5.4,4.4,7.4c0,0,0,0,0,0c0.3,2.7,0.1,5.7,3.6,6.6c0,0.2,0,0.5,0,0.7c-0.2,0.2-0.5,0.5-0.7,0.7c-5.3,0-10.5,0-15.8,0
		c2.2,2.8,4.4,4.9,6.8,6.6c1.8,1.3,1.5,2.2,0,3.2c-1.5,1-3.1,1.9-3.6,3.9C436.5,240.3,434.9,244,436.3,248.6z"/>
	<path class="st1" d="M429,262.5c0,3.9,0,7.8,0,11.7c-10,0-20,0-30,0c0-2.8,0.2-5.6-0.1-8.3c-0.2-2.8,0.9-3.5,3.6-3.4
		C411.3,262.6,420.2,262.5,429,262.5z M417.2,268.2c-0.1-1.3-0.8-2-2.1-2c-1.5,0-2.2,0.8-2.1,2.3c0.1,1.5,1.1,2.1,2.5,2
		C416.7,270.3,417.2,269.5,417.2,268.2z"/>
	<path class="st4" d="M387,272.4c0.1,0.3,0.2,0.7,0.3,1c0,0.2,0,0.5,0,0.7c-11.7,0-23.4,0-35.1,0c-0.1-0.3-0.2-0.5-0.3-0.8
		c0.2-0.4,0.3-0.9,0.5-1.3C363.9,272.3,375.4,272.4,387,272.4z"/>
	<path class="st5" d="M108.4,274.2c0-2.3-0.1-4.5-0.1-6.8c0.4-0.1,0.9-0.3,1.3-0.4c2.5,2.4,5.9,2.2,8.9,3.3c2.2,1.6,5.4,0.5,7.4,2.6
		c0,0.5,0,1,0,1.4C120.1,274.2,114.3,274.2,108.4,274.2z"/>
	<path class="st4" d="M126,272.8c-2.1-2.1-5.2-1-7.4-2.6c0-0.4,0.1-0.8,0.1-1.1c0.3-0.3,0.5-0.6,0.8-0.8c5.3,1.5,10.6,3,16,4.6
		c0,0.5,0.1,0.9,0.1,1.4c-2,0-3.9,0-5.9,0C128.6,273.3,127.4,272.8,126,272.8z"/>
	<path class="st3" d="M126,272.8c1.4,0.1,2.6,0.5,3.7,1.4c-1.2,0-2.4,0-3.7,0C126,273.7,126,273.3,126,272.8z"/>
	<path class="st3" d="M135.5,274.2c0-0.5-0.1-0.9-0.1-1.4c0.2-0.1,0.4-0.2,0.7-0.2c0.3,0.5,0.6,1.1,0.9,1.6
		C136.5,274.2,136,274.2,135.5,274.2z"/>
	<path class="st6" d="M387.3,274.2c-0.1-0.2-0.1-0.5,0-0.7c0.6,0,1.2,0.1,1.5,0.7C388.3,274.2,387.8,274.2,387.3,274.2z"/>
	<path class="st3" d="M351.9,273.5c0.1,0.3,0.2,0.5,0.3,0.8c-0.2,0-0.5,0-0.7,0C351.6,274,351.7,273.7,351.9,273.5z"/>
	<path class="st7" d="M393.2,184.2c-7.3,0-14.6,0-21.8,0c-2.2-5.5-2.3-10.4,1.6-15.6c3.9-5.1,3.8-11.3,1.9-17.3
		c0.7-1.1,0.6-2.2,0.1-3.5c-4.6-10.9-8.9-22-13.7-32.9c-1.4-3.2-2.2-7.1-6.2-8.6c0.4-2.8-0.9-3.9-3.6-3.6c0-1.9,0-3.7-0.1-5.6
		c1.2-3.1,1.5-6.2,0.5-9.4c-0.1-0.5-0.3-1-0.4-1.5c0-2.7-1.1-4.8-3.5-6.1l0,0.2l0-0.2c-0.3-0.2-0.7-0.3-1-0.5c-0.5,0-0.9,0-1.4,0
		c-4.2-1.1-7.5,0.2-9.5,3.7c-0.1,0.2-0.2,0.4-0.3,0.6c-1.8,3.6,0,6.9,1,10.2c-0.1,1.5,1,2.3,2,3c0.8,3.5,4,4.8,6.2,7
		c-1.4,1-0.9,2.2-0.4,3.5c-8.3,8.4-16.6,16.8-24.9,25c-1.5,1.5-3.4,2.8-5.6,3.3c0.2-2.8-0.7-5.7,0.5-8.4c0.6,0,1.2,0.1,1.8,0.1
		c1.3,0,2.7,0.2,2.6-1.9c-0.1-1.9-1.5-1.5-2.6-1.5c-1.1,0-2.1,0.1-3.2,0.1c-0.2-0.1-0.4-0.2-0.6-0.3c0-8.2,0-16.3,0-24.5
		c0-4.3-2.7-7.3-7-7.4c-10.4-0.1-20.7,0-31.1,0c-3.2,0-4.8,4-6.9,3.7c-2.3-0.3-3.9-3.8-7.1-3.7c-10.1,0-20.2,0-30.3,0
		c-3,0-4.9,2.9-7.1,3.6c-1.9,0.5-4-3.6-7.3-3.6c-10.2,0.1-20.5,0-30.7,0.1c-3.8,0.1-6.5,2.5-6.6,6c-0.2,8.5-0.5,17,0.2,25.5
		c-0.9,0.2-1.9,0.4-2.8,0.4c-1.2,0-2.1,0.1-2.2,1.7c0,1.4,0.6,2,2,1.8c2.1-0.3,2.7,0.9,2.6,2.8c-0.1,2-0.1,4.1-0.2,6.1
		c-4.7-0.6-7.2-4.1-9.9-7.3c0.2-0.8-0.3-1.4-0.8-1.9c-5.8-5.7-11.6-11.4-17.4-17.2c-0.2-0.7-0.8-0.7-1.3-0.8c0-0.2,0-0.4,0-0.6
		c0.5-0.4,0.3-0.6-0.2-0.7c-0.2-0.1-0.4-0.2-0.7-0.3c0.1-0.4,0.1-0.8,0.2-1.2c2.2-3.5,5.8-6,7.2-10.1c1.3-1.5,1.6-3.3,1.6-5.2
		c0.1,0,0.3,0.1,0.4,0.1c1.5,0.5,2.9,1,4.4,1.6c0.8,0.3,1.7,0.7,2.1-0.4c0.4-1.1-0.7-1.4-1.4-1.7c-1.7-0.9-3.4-1.7-5.1-2.6
		c-0.8-2.1,0.7-5.6-3.6-5.3c-6.3-4.3-11.5-2.3-12.5,4.7c-0.1,0.2-0.1,0.4,0,0.7c-1.4,3.2-0.3,6.4,0,9.6c0,1.6,0,3.2,0,4.8
		c-2.7-0.2-4,0.8-3.6,3.6c-2.5,0.8-3.6,2.8-4.5,4.9c-4.6,10.8-9.2,21.6-13.6,32.5c-0.9,2.3-3.2,4.5-1.7,7.5
		c-1.9,5.8-2,11.8,1.5,16.9c3.7,5.4,4.2,10.1,2.2,16.5c-4.5,14.1-8,28.6-11.8,42.9c-1.7-4-0.5-8.1-0.7-12.1c-0.3-6,0.7-5.4-5.5-5.5
		c-2.1,0-4.1,0-6.2,0c-2.7,0-5.4,0-8.1,0c-1.2-1.1-0.7-2.5-0.7-3.8c0-9.6-0.1-19.2,0-28.7c0-2.5-0.2-4.1-3.4-4.2
		c-3.1-0.1-3.2,1.5-3.2,3.8c0,1.4,0.8,3.3-1.8,3.6c-2.6,0.3-2.8-1.4-2.8-3.1c0.1-4.8-3.2-4.4-6.4-4.2c-3.6,0-7.3,0.2-10.9-0.1
		c-3.4-0.3-5,0.7-4.5,4.3c0.3,2-0.3,3.2-2.7,3.1c-2.4,0-2.6-1.4-2.4-3.1c0.4-3.4-1-4.6-4.4-4.3c-2.7,0.2-5.4,0.2-8,0
		c-2.9-0.2-3.8,1-3.8,3.8c0.1,10.7,0.1,21.4,0.1,32.1c0,0.2,0,0.5,0,0.7c-6,0-11.9,0.1-17.9,0c-2.9,0-4.2,1-4.1,4.1
		c0.2,6.2,0,12.4,0,18.6c-2.6-0.9-1.9-3.4-2.3-5.2c-1.8-7.8-3.9-15.5-5.3-23.4c-1.8-9.8-4-19.5-3.4-29.5c0.4-5.9-0.5-11.8-1.3-17.7
		c-0.6-4.8,0.9-9.4,1.6-14c1.4-8.7,3.3-17.3,4.8-26c0.8-4.8,3.8-8.7,5-13.2c3.2-12.1,11-21.6,18-31.3c6.9-9.5,16.1-16.6,26-22.8
		c3.6-2.2,7.6-3.8,10.3-7.3c1.1-1.4,3-1.5,4.5-2.2c6-2.6,11.9-5.7,18.1-7.5c7.2-2.1,14.3-4.6,21.8-5.4c11.4-1.2,23-1.4,34.3-0.4
		c12.8,1.2,25.7,3.8,36.9,11.1c2.7,1.8,5.8,3.1,8.6,4.9c11.9,7.4,24.2,14.1,38.2,16.2c11.3,1.7,22.6,3.4,34.3,1.5
		c16-2.6,32.1-4.5,48-7.3c16.3-2.9,32.8-4.3,49.3-3c10.6,0.8,21.1,2.8,31.4,5.7c6,1.7,11.8,3.8,17.8,5.3c3.4,0.8,6.7,2.1,9.6,4.3
		c7.1,5.3,15.3,8.9,22.3,14.4c4.2,3.3,7.2,7.6,10.8,11.3c4.9,5.2,9.7,10.5,13.6,16.6c6.4,10.2,10.6,21.3,13.1,33
		c1.4,6.6,3.7,13.1,4.1,19.9c0,0.6,0.3,1.2,0.3,1.8c-0.4,7.4,0.6,14.8,0.8,22.2c-3.8-1.7-7-5.2-11.7-4.4c-1.2-0.1-2.1,0.3-3,1.1
		c-8.7,8.6-14.1,18.7-15.6,31c-0.3,2.3,0,4.8-0.9,7.4c-1.2-1-1.1-2.6-2.5-2.9c0,0,0,0,0,0c-0.4-3.1-1.3-5.9-3.5-8.1
		c-1.1-3-2.9-5.5-4.9-8c-4.1-5.2-6.6-6-12.8-4.2c0-2.8-0.1-5.6,0-8.4c0.1-2.1-0.8-2.9-2.8-2.7c-4.7,0.5-9.4-0.7-14.1-0.1
		c-2.7,0.4-5.5-0.1-8.2-0.7c0.4-3.5,1.6-6.8,2.7-10.1c0.6-2-0.2-2.4-1.8-2.4c0-1.1-0.1-2.2,0.5-3.2c2.3-4,3.4-8.5,4.9-12.8
		c0.4-1.1,1-2.6-0.2-3.2c-1.1-0.6-1.9,0.9-2.5,1.7c-2.2,3-4.3,6.2-6.8,9.8c-0.5-3.3-0.8-6-1.3-8.5c-0.2-1.1-0.2-2.8-1.6-3
		c-1.5-0.2-1.6,1.6-2.1,2.6c-0.8,1.6-1.3,3.4-1.2,5.3c0.1,1.9-0.1,3.6-2.4,1.4c-0.6-0.6-1.4-1.2-2.2-0.4c-0.7,0.7-0.2,1.6-0.2,2.4
		c0.2,2.7,2.8,4.6,2.6,7.4c-1.7-0.1-2.6,0.7-2,2.4c0.7,1.9,0.6,4,1.9,5.7C392.1,180.9,392.6,182.6,393.2,184.2z M108.4,110.7
		c0-12.8,0-25.6,0-38.4c0-2.6-0.7-3.8-3.5-3.8c-19.9,0.1-39.7,0.1-59.6,0c-2.4,0-3.5,0.7-3.5,3.3c0.1,25.6,0,51.2,0,76.8
		c0,2.9,1,4.1,4.1,4.1c19.6-0.1,39.3-0.1,58.9,0c2.9,0,3.7-0.8,3.7-3.7C108.3,136.3,108.4,123.5,108.4,110.7z M390.9,89.8
		c-5.1,0-10.2,0.1-15.3,0c-1.9,0-2.9,0.4-2.9,2.6c0.1,10.2,0.1,20.5,0,30.7c0,1.8,0.6,2.6,2.5,2.6c10.5-0.1,20.9-0.1,31.4,0
		c2.1,0,2.7-0.8,2.7-2.8c-0.1-10.1-0.1-20.2,0-30.3c0-2.4-1-2.9-3.1-2.8C401.1,89.9,396,89.8,390.9,89.8z M423.9,105.9
		c2.2,0,4.4-0.1,6.6,0c2.6,0.2,3.8-0.7,3.7-3.5c-0.1-4.8-0.1-9.5,0-14.3c0.1-2.5-0.8-3.6-3.4-3.5c-3.9,0.1-7.8,0-11.7,0
		c-5.2,0-5.2,0-5.4,5c0,0.5-0.1,1-0.3,1.4c-0.9,3.6-0.5,7.3-0.3,10.9c0.1,2.7,1.3,4.5,4.6,4C419.7,105.6,421.8,105.9,423.9,105.9z
		 M424,110.3c-2.8,0-5.6,0-8.4,0c-1.2,0-2.6,0.2-2.5,1.5c0.3,5.7-0.8,11.3,0,17c0.3,1.9,1.3,2.8,3.5,2.8c4.7-0.2,9.5-0.1,14.3,0
		c2.3,0,3.4-0.8,3.3-3.2c-0.1-2.7,0-5.4,0-8C434.1,110.3,434.1,110.3,424,110.3z"/>
	<path class="st7" d="M453.9,223.7c0-0.2,0-0.5,0-0.7c0.8-5.9,1.1-12,2.6-17.8c1.7-6.5,5.6-12.2,9.4-17.7c1-1.4,2.1-3.1,4.1-3.3
		c-1,4-2,7.9-2.9,11.9c-0.3,1.2-0.3,2.9,1.4,3.3c1.6,0.3,1.3-1.4,1.9-2.2c0.4-0.5,0.1-1.5,1.6-1.6c-0.8,3.4-0.6,6.8-0.6,10.2
		c0.1,4.8,5.8,11.9,10.2,12.8c-0.1,7.2-2.9,13.9-4.3,20.9c-1.7,8.4-4.4,16.6-7.4,24.6c-0.6,1.5-1.3,2.6-3,2.8
		c0.6-6.3,3.1-12.2,4.3-18.3c0.3-4.1,0.6-8.3-4.2-10.3c-0.1-1.5-1.3-1.9-2.3-2.6c-2.3-1.8-3.2-3.4-0.2-5.7c1.9-1.5,4.2-2.9,5.8-5.5
		c-5.8,0-11.2,0-16.5,0C453.9,224.2,453.9,224,453.9,223.7z"/>
	<path class="st1" d="M481.7,218.6c-4.4-0.9-10.1-8-10.2-12.8c-0.1-3.4-0.2-6.8,0.6-10.2c-1.5,0.1-1.2,1.1-1.6,1.6
		c-0.6,0.8-0.2,2.5-1.9,2.2c-1.8-0.4-1.7-2-1.4-3.3c0.9-4,1.9-8,2.9-11.9c1.1-1.3,2.4-2.5,2.2-4.4c4.8-0.8,7.9,2.7,11.7,4.4
		c1.9,1.4,3.8,2.8,5.6,4.3c-1.1,1.6-2.8,0.2-3.9,1.8c2.4,1.1,5.2,0.6,7.2,2.5c5.3,5.2,7.1,11.6,7.1,18.7c0,1.9-0.9,2-2.3,1.2
		c-1.1-0.7-2.1-1.7-3.6-1.4c-0.7-2.1-1.8-3.6-4.4-2.9c-3.6-7.6-7.7-14.8-12.3-21.9c-0.8,0.7-0.6,1.2-0.3,1.6
		c4.9,9.7,9.5,19.7,14,29.6c1.1,2.6,1.6,5.8,4.6,7.4c-0.4,2-1.4,1.4-2.6,0.7c-2.1-1.2-4.2-2.4-6.3-3.4c-3.2-1.6-3.9-4.3-3.6-7.5
		c-0.2-2.1,0.8-4.6-2.2-6.8c0.2,2.5-0.7,4.3,0.7,6.1C481.7,215.7,481.7,217.1,481.7,218.6z"/>
	<path class="st2" d="M495.6,225.2c-2.9-1.6-3.4-4.9-4.6-7.4c-4.5-10-9-19.9-14-29.6c-0.2-0.4-0.5-0.9,0.3-1.6
		c4.6,7,8.7,14.3,12.3,21.9c1.9,2.7,2.3,6,3.4,9c0.8,2.1,1.1,4.5,2.5,6.4C495.6,224.2,495.6,224.7,495.6,225.2z"/>
	<path class="st5" d="M495.6,223.7c-1.4-1.9-1.7-4.2-2.5-6.4c-1.2-3-1.5-6.3-3.4-9c2.6-0.7,3.6,0.8,4.4,2.9
		C497.7,215,497.5,219.3,495.6,223.7z"/>
	<path class="st7" d="M481.7,214.2c-1.4-1.8-0.4-3.6-0.7-6.1c3,2.2,1.9,4.7,2.2,6.8C482.7,214.7,482.2,214.5,481.7,214.2z"/>
	<path class="st8" d="M109.9,227.4c3.9-14.3,7.3-28.8,11.8-42.9c2-6.3,1.6-11.1-2.2-16.5c-3.5-5-3.5-11-1.5-16.9
		c8.9,1.8,17.9,3.4,26.8,5.3c2.4,0.5,5.2,0.3,7.3,2.1c8.2,10.1,16.4,20.2,24.6,30.3c1.9,2.3,3.5,4.7,3.4,7.8c-2.2,1.7-2.2,3.4,0,5.1
		c0.2,0.7,0.5,1.5,0.7,2.2c-2.2,2.2-2,4.4,0.7,6.4c1.5,12.7,2.9,25.5,4.4,38.2c0.3,2.8-1.7,1.9-3,2.3c0.1-0.1,0.2-0.2,0.2-0.3
		c0-0.6,0.1-1.5-0.6-1.5c-1.1-0.1-0.7,1-0.9,1.6c-1.8,0.6-3.6,0.4-5.4,0c-0.5-5.6-0.9-11.3-1.4-16.9c-0.4,0-0.8,0.1-1.1,0.1
		c-0.6,5.7,1.4,11.3,1.7,16.9c-1.4,0.7-2.9,0.9-4.4,0.2c-1.9,0.1-3.8-0.8-5.5,0.6c-0.3,0.2-0.6,0.3-0.8,0.5
		c-2.2-0.4-1.6-2.2-1.7-3.5c-1.3-15-2.6-30-3.7-45c-0.2-3.2-1.3-5.7-3.6-8c-3.5-3.4-6.6-7.1-9.9-10.6c0.2-7,2.9-13.6,3.2-20.5
		c-1.3,3.9-2.5,7.8-3.1,11.8c-0.4,2.9-2.2,5.5-1.7,8.6c-5.7,22.4-11.4,44.8-16.9,67.2c-0.9,3.5-3.2,1.9-5.1,2.2
		c-2.6-0.5-5.3-0.9-7.9-1.4c1.5-6,3.8-11.9,3.9-18.2c-2.2,5.9-4.4,11.7-4.7,18c-2.9-0.3-5.9-0.5-8.8-0.8c-1.4-1.3-0.5-2.7-0.2-4
		C106.3,241.1,108.1,234.3,109.9,227.4z M120,229.1c1.5-6.5,4.8-12.6,4.5-19.5C123.5,216.2,119.4,222.1,120,229.1z M172.4,222.6
		c0.4,0,0.9-0.1,1.3-0.1c-0.6-5.3-1.3-10.6-1.9-15.8c-0.4,0-0.7,0.1-1.1,0.1C170.5,212.1,171.4,217.3,172.4,222.6z M125.2,206.3
		c0.4,0.1,0.7,0.1,1.1,0.2c0.9-3.3,1.9-6.6,2.8-9.9c0.4-1.5,2.2-4.1,0.7-4.4c-2.3-0.6-1.4,2.5-1.8,3.9
		C126.8,199.4,126,202.9,125.2,206.3z M170,197.7c0,2.5-0.4,4.6,0.5,7.5C171.8,202.1,171.4,200.1,170,197.7z M173.9,232.2
		c0.3-2.2,1-3.4-0.6-4.7C172.7,229,172.6,230.2,173.9,232.2z M159.6,183.2c-0.5-1.6-1.1-2.4-2.8-2.4
		C157.3,182.2,157.7,183.2,159.6,183.2z M163,186.8c-0.7-0.1-1,0.2-0.9,0.5c0.1,0.4,0.4,0.8,0.8,1c0.5,0.2,0.9-0.1,0.8-0.7
		C163.6,187.2,163.2,186.9,163,186.8z M166.7,191.1c-0.2-0.2-0.5-0.6-0.9-0.7c-0.6-0.2-0.9,0.3-0.7,0.8c0.2,0.4,0.6,0.7,1,0.8
		C166.5,192.1,166.7,191.7,166.7,191.1z M130.7,187.3c0.2,0.1,0.5,0.3,0.6,0.2c0.1-0.1,0.2-0.4,0.3-0.6c-0.2-0.1-0.4-0.3-0.6-0.2
		C130.8,186.8,130.7,187.1,130.7,187.3z M155,177.8c-0.1-0.2-0.1-0.5-0.3-0.6c-0.1-0.1-0.4,0.1-0.6,0.2c0.1,0.2,0.1,0.5,0.3,0.6
		C154.5,178.1,154.8,177.9,155,177.8z M119.1,232c0-0.1,0.1-0.2,0.1-0.3c0,0-0.2-0.1-0.3-0.1c0,0.1-0.1,0.2-0.1,0.3
		C118.9,231.9,119,232,119.1,232z M169.7,196.1c0-0.1,0-0.2-0.1-0.3c0,0-0.2,0-0.3,0.1c0,0.1,0,0.2,0.1,0.3
		C169.5,196.1,169.6,196.1,169.7,196.1z"/>
	<path class="st9" d="M374.8,151.3c2,6.1,2,12.2-1.9,17.3c-3.9,5.2-3.8,10.1-1.6,15.6c4.5,16.9,8.9,33.8,13.4,50.7
		c1.1,4.1,1.9,8.3,3.3,12.3c1.3,3.6,0.5,5.4-3.3,6c-5.1,1.3-10.1,2.9-15,4.9c-1.9,0.5-2.8-0.3-3.2-2.3c-4-16-8.4-32-12.1-48.1
		c-2-8.6-5-16.8-6.5-25.5c-0.4-2.1-1.2-2.6-3.2-1.6c-3.8,2-7.6,3.8-11.5,5.6c-2.1,0.9-3,2.7-3.9,4.6c-6.6,13.9-13.2,27.8-19.9,41.7
		c-0.6,1.4-0.9,3.2-3.2,2.4c-4.9-2.8-9.9-5.3-15.4-6.8c-4-1.7-2.9-4.1-1.3-7c6.5-12.4,12.9-24.8,19.3-37.2c0.1,0.1,0.1,0.2,0.2,0.3
		c0.1,0.1,0.3,0.1,0.3,0.1c1.2-1.9,3-3.5,2.4-6.1c0,0,0,0,0,0c2-0.2,2.4-1.4,1.9-3.2c0,0,0.2-0.2,0.2-0.2c0.5,0.2,0.7,0,0.5-0.5
		c0,0,0.2-0.2,0.2-0.2c0.5,0.2,0.7,0,0.6-0.5c0,0,0.1-0.1,0.1-0.1c2.2,0.2,4-0.3,4.6-2.8c7.2-4.8,15.2-8.3,22.2-13.4
		c1.6-0.2,3.2-0.2,4.8-0.5C356.2,154.8,365.5,153.1,374.8,151.3z M332.4,174.7c-1.4,0-2.7,0.2-3.5,1.9
		C330.7,176.6,331.7,176,332.4,174.7c0.3-0.1,0.6-0.2,1-0.3c-0.1-0.1-0.1-0.2-0.2-0.3C332.9,174.3,332.6,174.5,332.4,174.7z
		 M372.8,226.6c-0.4,0.1-0.7,0.2-1.1,0.2c2.4,8.9,4.8,17.8,7.2,26.6c0.3-0.1,0.6-0.2,0.9-0.2C378.2,244.1,376,235.2,372.8,226.6z
		 M365.3,199.2c1.2,8.2,3,16.3,6.2,23.9C370.5,214.9,367.6,207.1,365.3,199.2z M343.4,164c-0.1,1.9-1,4.8-0.6,5.1
		c2.4,2.2,2.1,5.2,2.8,7.9c0.2,0.6,0.3,1.2,1.1,1.2c1.1-0.1,0.7-0.9,0.6-1.6C346.4,172.3,344.2,168.4,343.4,164z M308.1,207.9
		c2.1-4.3,5.2-8.2,6-13.1C311.6,199,308.9,203.1,308.1,207.9z M362.3,187.6c-1.2,3.7,0.8,6.5,2.4,9.4
		C364.9,193.6,363.6,190.6,362.3,187.6z M300,223.3c1.9-2,3.3-4.3,3.5-7.1C301.7,218.3,300.4,220.6,300,223.3z M304.5,214.6
		c0.7-1.7,3.3-2.6,2.4-5.7C305.4,210.8,304.6,212.5,304.5,214.6z M319.4,184c-1,1.3-2,2.1-0.9,4.1
		C319.1,186.7,319.9,185.8,319.4,184z M315.9,192.7c1.2-1.7,1.7-2.6,1.3-4.1C316.1,189.6,315.9,190.7,315.9,192.7z M299.4,225.4
		c-0.3-0.2-0.5-0.6-0.7-0.6c-0.2,0-0.5,0.4-0.6,0.6c-0.1,0.5,0.2,0.9,0.7,0.8C299.1,226.2,299.2,225.8,299.4,225.4z M326.7,178.1
		c0.1-0.2,0.3-0.5,0.2-0.6c-0.1-0.1-0.4-0.2-0.6-0.3c-0.1,0.2-0.3,0.5-0.2,0.6C326.2,178,326.5,178,326.7,178.1z M324.8,179.3
		c-0.1-0.2-0.1-0.5-0.3-0.6c-0.1-0.1-0.4,0.1-0.6,0.2c0.1,0.2,0.1,0.5,0.3,0.6C324.3,179.6,324.6,179.4,324.8,179.3z"/>
	<path class="st10" d="M374.8,151.3c-9.3,1.8-18.6,3.5-27.9,5.5c-1.6,0.4-3.2,0.3-4.8,0.5c-2.3-0.1-2.3-1.8-2.3-3.4
		c-0.1-3.5-0.1-7-0.2-10.6c0-1.5-0.7-2.7-2.2-1.5c-5.1,4.3-11.1,6.8-17.3,9.1c-0.4,0.1-0.7,0.7-1,1c-8,1.6-15.3,5.1-22.6,8.7
		c-1.1,0.2-2.5-0.3-3.1,1.2c-0.9,0.2-1.8,0.4-2.6,0.5c-3.7-0.4-4.2-4.4-6.7-6.1c-0.2-2,1.2-2.9,2.6-3.9c2.6-1.8,6-2.5,7.8-5.4
		c1-0.2,2.1,0,2.8-1c4.2-2.4,8.3-4.9,12.5-7.3c0.2-0.2,0.5-0.5,0.7-0.7c0.2-0.1,0.5-0.2,0.7-0.3c0.8,0,1.4-0.3,1.5-1.2l0,0
		c0.3-0.1,0.4-0.2,0.4-0.5c0.4,0.3,0.8,0.2,1.2-0.2c2.2-0.6,4-1.8,5.6-3.3c8.4-8.3,16.6-16.7,24.9-25c3.4-1.1,6.7-2.7,10.4-1.3
		c3.9,1.5,4.8,5.4,6.2,8.6c4.7,10.9,9.1,21.9,13.7,32.9C375.4,149.1,375.5,150.1,374.8,151.3z"/>
	<path class="st11" d="M294.5,147.1c-1.8,2.9-5.2,3.6-7.8,5.4c-1.5,1-2.8,1.8-2.6,3.9c-2.1,0.9-4.1,1-6.3,0.4
		c-0.8-0.2-2.7-0.2-2.1,0.8c1.8,3.4-1.3,2.5-2.4,2.8c-1.9,0.5-4,0.6-6,0.8c-14.3-0.3-28.6-0.3-42.9,0c-2-0.4-4.1-0.7-6.1-1.1
		c-0.7-0.1-2-0.1-1.4-1.5c1.1-2.3-0.9-1.5-1.6-1.5c-8.3,0-13.7-5.8-19.9-10c1.3-0.1,2.7-0.3,4-0.3c26.5,0,53,0,79.5,0
		C284,146.9,289.2,147,294.5,147.1z"/>
	<path class="st10" d="M152.1,158.6c-2.1-1.8-4.8-1.5-7.3-2.1c-8.9-1.9-17.9-3.6-26.8-5.3c-1.5-2.9,0.8-5.2,1.7-7.5
		c4.3-10.9,9-21.7,13.6-32.5c0.9-2.1,2.1-4.1,4.5-4.9c3.6-1.2,7-0.3,10.1,1.6c0.2,0.1,0.5,0.1,0.7,0.3c0,0.2,0.1,0.5,0.2,0.7
		c0.1,0.2,0.1,0.4,0,0.6c-0.1,0.5-0.2,0.9-0.3,1.4l0,0c-0.9,0.4-1.4,1.2-1.6,2.2l0.2,0l-0.2,0c-0.8,0.5-1.3,1.2-1.5,2.2l0,0
		c-1.2,0.7-1.7,1.8-1.9,3.2c-0.2,0.1-0.2,0.2-0.1,0.4c-1.9,3.4-1.9,6.8,0,10.2c0.3,0.9,0.6,1.8,0.8,2.7c1,2.3,1.5,5,3,6.9
		c2,2.5,2.1,6.5,5.9,7.7C152.8,150.3,153.8,154.6,152.1,158.6z"/>
	<path class="st12" d="M195.3,147.2c6.2,4.2,11.5,10,19.9,10c0.7,0,2.7-0.8,1.6,1.5c-0.6,1.3,0.6,1.3,1.4,1.5c2,0.4,4,0.7,6.1,1.1
		c-4,1.5-7.9,3.1-11.9,4.6c-1.1,0.4-2-0.6-3-1c-4.2-1.8-8.4-3.7-13.1-3.4c0.7-0.3,1.5-0.6,2.5-1.1c-7.6-3.1-14.9-6.1-22.2-9.1
		c-1.5-0.6-2.7-1-3.6,0.8c-0.9-1.8-2.2-2.9-4.1-3.6c-4.7-1.5-8.3-4.9-12.3-7.6c4-3.8,7.9-7.7,11.9-11.5c2.8,3.2,5.3,6.7,9.9,7.3
		c1,2.2,2.8,3.2,5.2,3.4c2.8,3,6.5,4.5,10,6.6C194,146.8,194.7,147,195.3,147.2z"/>
	<path class="st8" d="M168.4,129.4c-4,3.8-7.9,7.7-11.9,11.5c-0.7,0.2-1.4,0.5-2.2,0c-3.4-3.1-6.7-6.2-10.1-9.3
		c-0.3-0.9-0.6-1.8-0.8-2.7c0-3.4,0-6.8,0-10.2c-0.1-0.2,0-0.3,0.1-0.4c1.8-0.4,2.2-1.6,1.9-3.2c0,0,0,0,0,0
		c1.4-0.1,1.8-0.9,1.5-2.2l0.2,0c0,0-0.2,0-0.2,0c1.3-0.2,1.7-0.9,1.6-2.2c0,0,0,0,0,0c0.7,0.1,1.3,0.1,1.7-0.6
		c5.8,5.7,11.6,11.4,17.4,17.2C168.1,128,168.5,128.5,168.4,129.4z"/>
	<path class="st13" d="M369.9,258.2c4.9-2,9.9-3.7,15-4.9c5.1,5.9,2.7,12.7,2.1,19.2c-11.6-0.1-23.1-0.2-34.7-0.3
		c-0.5-3.3,1.5-5,4-6.1c3.4-1.6,6.9-2.8,10.4-4.2C368.3,261.2,370.1,260.6,369.9,258.2z M377,265.8c-0.2,1.3,0.1,2.8,1.7,2.5
		c1.2-0.2,3-0.7,2.8-2.7c-0.2-1.4-1.1-2.3-2.6-2.4C376.6,263,377.1,264.5,377,265.8z"/>
	<path class="st13" d="M290.8,228.2c5.5,1.5,10.5,4,15.4,6.8c-0.8,4.7-3.4,8.6-4.9,13.1c-1.2,0.7-1.4-0.3-2.3-0.8
		c-4.9-2.9-10.4-4.6-15.9-6.3c-0.2-0.1-0.6,0.6-1,0.9c-0.2-0.1-0.3-0.3-0.2-0.5c0-1.7-1.5-1.7-2.5-2.2c-3.4-1.4-6.8-2.7-10.1-4
		c1.3-3.7,3-4.9,7.3-4.1c3.7,0.7,7.2,0.1,10.8-0.1C289.7,230.9,290.6,230.2,290.8,228.2z M299,238.9c0-1.9-1.3-2.2-2.8-2.3
		c-1.4-0.1-2.5,0.3-2.4,1.8c0,1.6,0.9,2.7,2.6,2.8C297.9,241.4,298.8,240.6,299,238.9z"/>
	<path class="st13" d="M114.3,252.9c2.6,0.5,5.3,0.9,7.9,1.4c0,3.1,2.2,4.8,4.3,6.2c2.7,1.8,5.1,3.9,7.6,5.9c2,1.6,2.4,3.8,2,6.2
		c-0.2,0-0.5,0.1-0.7,0.2c-5.3-1.5-10.6-3-16-4.6c-0.2-0.1-0.5-0.1-0.7-0.2c-0.9-0.6-1.8-1.1-3-1c-0.4-0.1-0.8-0.2-1.2-0.3
		c-4-1.3-8-2.6-12-3.9c-0.3-3.8,2.1-7.1,2.2-10.9c2.9,0.3,5.9,0.5,8.8,0.8C113.8,252.8,114,252.9,114.3,252.9z M113.2,260.6
		c1-0.2,1.2-0.9,1.1-1.8c-0.3-3.2-2.5-2.2-4.4-2c-1.3,1.1-1.3,2.3-0.1,3.5l0,0c0.9,1.3,2,1.8,3.2,0.4L113.2,260.6z"/>
	<path class="st10" d="M194.1,259.5c0.7,0.1,1.4,0.3,2.1,0.4c0.2,1.2,0.9,1.8,2.1,1.9c0.1,0.2,0.2,0.4,0.1,0.6
		c0.2,0.3,0.5,0.6,0.7,0.9c0,0,0,0,0,0c-0.4,2-2,1.4-3.2,1.4c-9,0-17.9,0-26.9,0c-1.4,0-2.6-0.3-3.9-0.7c-0.6-2.9-0.4-5.9-0.2-8.8
		c4.8,0.5,9.3-1.2,13.9-1.8c1.8-0.2,2.7,0.2,2.6,1.9c-0.1,2.4,1.4,2.8,3,4c2.8,2.1,3.2-2,5.1-1.1c0.2,0,0.5,0,0.7,0.1
		c0.1,0.3,0.3,0.7,0.3,1c0.1,0.8-1.7,1.5-0.3,2.4c1.1,0.7,2-0.3,2.7-1.1C193.4,260.2,193.8,259.8,194.1,259.5z M172.4,256.6
		l-0.3-0.1c-2.8,0.5-2.3,2.5-1.4,4c0.9,1.6,2.8,1.8,4.1,0.6c1.5-1.4,1.6-3.2-0.5-4.4l-0.1-0.2l-0.2,0.1
		C173.4,256.1,172.9,256,172.4,256.6z"/>
	<path class="st11" d="M172.9,152c0.8-1.8,2.1-1.5,3.6-0.8c7.3,3,14.6,6,22.2,9.1c-1,0.4-1.8,0.8-2.5,1.1c-2.7,0-5.3,0-8,0.1
		c-0.2,0.2-0.3,0.3-0.5,0.5l-0.3,0c0,0-0.1-0.3-0.1-0.3c-0.4-0.1-0.8-0.1-1.2-0.2c-0.5,0-0.9,0-1.4,0c-0.5,0.2-1,0.4-1.5,0.7
		c-1.6-1.3-3.5-0.7-5.2-0.7c-3.2,0-5-1.2-4.8-4.7C173.1,155.1,173,153.6,172.9,152z"/>
	<path class="st11" d="M296.5,160.7c7.3-3.6,14.5-7.1,22.6-8.7c0.2,9.3,1,9.8-8.6,9.3c-0.7,0-1.4,0.2-2.1,0.4
		c-1.2-1.4-2.8-0.5-4.3-0.7C301.6,160.9,299.1,160.8,296.5,160.7z"/>
	<path class="st12" d="M267.1,161.2c2-0.2,4.1-0.3,6-0.8c1.2-0.3,4.2,0.6,2.4-2.8c-0.5-1,1.3-1.1,2.1-0.8c2.2,0.7,4.3,0.5,6.3-0.4
		c2.6,1.7,3,5.7,6.7,6.1c-5.3,1.4-10.6,5.7-16.2,0.9C272.4,161.4,269.2,163.4,267.1,161.2z"/>
	<path class="st9" d="M199.3,268c-11,0.7-22,0.3-33.1,0.2c0.2-0.7,0.4-1.4,0.7-2.1l-0.1-0.3c10.6,0,21.2,0,31.8,0l-0.1,0.3
		c0.3,0.2,0.5,0.5,0.8,0.7l0.1-0.1C199.3,267.1,199.3,267.6,199.3,268z"/>
	<path class="st13" d="M189.6,258.1c-1.9-0.9-2.3,3.2-5.1,1.1c-1.6-1.2-3.2-1.6-3-4c0.1-1.6-0.8-2.1-2.6-1.9
		c-4.6,0.6-9.1,2.3-13.9,1.8c-0.1-1-0.3-2.1-0.4-3.1c0.3-0.2,0.6-0.3,0.8-0.5c1.9,0.1,3.8,0.6,5.5-0.6c1.5,0.7,2.9,0.5,4.4-0.2
		c0.3,0,0.5,0,0.8-0.1c1.8,0.4,3.6,0.5,5.4,0c0.5,0,1-0.1,1.5-0.1c0,0.1,0,0.3-0.2,0.3c-0.9,2.7,0.2,4.5,3.2,5.1
		C187.7,256.2,189.3,256.1,189.6,258.1z"/>
	<path class="st4" d="M304.1,161c1.4,0.2,3-0.6,4.3,0.7c0,0.2-0.1,0.4-0.2,0.6c-0.6,0.1-1.3,0.4-1.3,1.1c-0.1,5.4-0.1,10.7,0,16.1
		c0,1,0.8,0.6,1.3,0.4c0,0.8,0.1,1.7,0,2.5c-0.1,1.5-1.3,1.9-2.6,2c-1.4,0.1-1.4-1.1-1.4-2c-0.1-6.7-0.3-13.3-0.4-20
		C303.9,161.9,304,161.4,304.1,161z"/>
	<path class="st4" d="M282.1,242c0.3-0.3,0.8-1,1-0.9c5.5,1.6,11,3.3,15.9,6.3c0.9,0.5,1.1,1.5,2.3,0.8c-0.4,1-1,1.5-2.2,1.2
		c-5.6-1.5-11-3.8-16.3-6C282.4,243.1,282.3,242.4,282.1,242z"/>
	<path class="st13" d="M144.3,131.6c3.4,3.1,6.7,6.2,10.1,9.3c-1.2,1.6-1,3.5-1.2,5.3c-3.7-1.1-3.9-5.1-5.9-7.7
		C145.7,136.6,145.2,134,144.3,131.6z"/>
	<path class="st4" d="M269.3,235.3c3.4,1.3,6.8,2.6,10.1,4c1,0.4,2.5,0.5,2.5,2.2c-5.1,1.4-8.9-2.2-13.2-3.7
		C267.2,237.2,268.6,236,269.3,235.3z"/>
	<path class="st4" d="M184.6,161.4c0.5,0,0.9,0,1.4,0c0,6.1,0,12.3,0,18.4c0,1.3-0.5,2.7,0.8,3.7c-0.6,1.4-1.7,1.3-2.7,0.7
		c-1.5-0.9-0.8-2.4-0.7-3.6c1.7-0.5,1.1-2,1.1-3.1C184.6,172.1,184.6,166.8,184.6,161.4z"/>
	<path class="st13" d="M198.6,265.8c-10.6,0-21.2,0-31.8,0c-0.2,0-0.5,0-0.7,0c-0.4,0.1-0.8,0.2-1.2,0.3c0.1-0.7,0.2-1.4,0.3-2.1
		c1.3,0.4,2.5,0.7,3.9,0.7c9,0,17.9,0,26.9,0c1.2,0,2.8,0.6,3.2-1.4c1.6,0.5,1.5,1.3,0.4,2.3C199.2,265.6,198.9,265.7,198.6,265.8z"
		/>
	<path class="st9" d="M184.6,161.4c0,5.3,0,10.7,0,16c0,1.1,0.6,2.5-1.1,3.1c-0.9-6.1-0.1-12.3-0.4-18.5
		C183.5,161.9,184.1,161.6,184.6,161.4z"/>
	<path class="st4" d="M144.2,184.9c-0.6-3.1,1.3-5.7,1.7-8.6c0.6-4,1.8-7.9,3.1-11.8c-0.3,7-3,13.6-3.2,20.5
		C145.2,185,144.7,184.9,144.2,184.9z"/>
	<path class="st9" d="M308.1,179.8c-0.5,0.1-1.3,0.6-1.3-0.4c0-5.4,0-10.7,0-16.1c0-0.7,0.7-0.9,1.3-1.1
		C308.1,168.1,308.1,174,308.1,179.8z"/>
	<path class="st9" d="M186.8,183.5c-1.3-1-0.8-2.4-0.8-3.7c-0.1-6.1,0-12.3,0-18.4c0.4,0.1,0.8,0.1,1.2,0.2
		C187.2,168.9,187.7,176.2,186.8,183.5z"/>
	<path class="st12" d="M304.1,161c-0.1,0.4-0.2,0.9-0.3,1.3c-3.5-0.1-6.9-0.2-10.4-0.4c0.6-1.5,2-1,3.1-1.2
		C299.1,160.8,301.6,160.9,304.1,161z"/>
	<path class="st13" d="M194.1,259.5c-0.3,0.3-0.7,0.7-1,1c-0.7,0.8-1.6,1.7-2.7,1.1c-1.4-0.8,0.4-1.5,0.3-2.4
		c-0.1-0.3-0.2-0.7-0.3-1C191.8,258.1,193.4,257.6,194.1,259.5z"/>
	<path class="st9" d="M181.5,210.3c-2.7-2-2.9-4.2-0.7-6.4C181,206.1,181.3,208.2,181.5,210.3z"/>
	<path class="st4" d="M311.8,178.2c0.6,2.6-1.2,4.2-2.4,6.1c0,0-0.2,0-0.3-0.1c-0.1-0.1-0.1-0.2-0.2-0.3
		C309.5,181.9,310.5,180,311.8,178.2z"/>
	<path class="st9" d="M180.1,201.8c-2.3-1.7-2.2-3.4,0-5.1C180.4,198.4,180.7,200.1,180.1,201.8z"/>
	<path class="st4" d="M319.8,170.7c-0.5,2.5-2.4,3-4.6,2.8C316.4,172,318.2,171.5,319.8,170.7z"/>
	<path class="st4" d="M313.6,175.1c0.5,1.7,0.1,2.9-1.9,3.2C312,177,312.5,175.9,313.6,175.1z"/>
	<path class="st13" d="M198.4,261.8c-1.2-0.1-1.9-0.7-2.1-1.9C197.7,259.7,198.2,260.5,198.4,261.8z"/>
	<path class="st4" d="M164.9,266.1c0.4-0.1,0.8-0.2,1.2-0.3c0.3,0.1,0.6,0.2,0.8,0.3c-0.2,0.7-0.4,1.4-0.7,2.1
		C165,268,164.6,267.3,164.9,266.1z"/>
	<path class="st14" d="M198.6,265.8c0.3-0.1,0.6-0.2,1-0.3c0.1,0.3,0.2,0.7,0.3,1c-0.2,0-0.3,0.1-0.5,0.2c0,0-0.1,0.1-0.1,0.1
		c-0.3-0.2-0.5-0.5-0.8-0.7L198.6,265.8z"/>
	<path class="st4" d="M315.1,173.7c0.1,0.5-0.1,0.7-0.6,0.5C314.7,174,314.9,173.9,315.1,173.7z"/>
	<path class="st4" d="M199.4,266.7c0.1-0.1,0.3-0.1,0.5-0.2c0.1,0.2,0.2,0.5,0.3,0.7c0,0,0,0.1,0,0.1c-0.3,0.2-0.5,0.5-0.8,0.7
		C199.3,267.6,199.3,267.1,199.4,266.7z"/>
	<polygon class="st13" points="200.1,267.3 200.1,267.2 200.3,267.2 	"/>
	<path class="st12" d="M187.6,161.9c0.2-0.2,0.3-0.3,0.5-0.5C188.1,161.8,188.1,162.1,187.6,161.9z"/>
	<path class="st13" d="M199.2,263.2c-0.2-0.3-0.5-0.6-0.7-0.9C198.7,262.6,198.9,262.9,199.2,263.2z"/>
	<path class="st4" d="M314.3,174.4c0.2,0.5,0,0.7-0.5,0.5C314,174.8,314.1,174.6,314.3,174.4z"/>
	<path class="st15" d="M49.8,209.9c1.3,3.7,0.7,7.5,0.7,11.2c0,3.4-2.6,2.5-4.5,2.6c-1.9,0.1-4.2,0.5-4.2-2.6c0-3.5,0-7.1,0-10.6
		C44.4,209.7,47.1,209.8,49.8,209.9z"/>
	<path class="st2" d="M49.8,209.9c-2.7-0.1-5.4-0.2-8,0.6c-1-1.1-2.1-0.5-3.3-0.2c-1.4,0.3-2.8,0.7-4-0.5c0-0.2,0-0.5,0-0.7
		c5.1,0.1,10.2,0.1,15.3,0.2c0.1,0,0.1,0.2,0.2,0.3C50,209.7,49.9,209.8,49.8,209.9z"/>
	<path class="st15" d="M89.3,209.8c2.7,0,5.4,0,8.1,0c0,3.5-0.1,7,0,10.5c0.1,3.6-2.4,2.6-4.2,2.6c-1.9,0.1-4,0.6-3.9-2.6
		C89.5,216.9,89.4,213.3,89.3,209.8z"/>
	<path class="st4" d="M102.5,262.9c4,1.3,8,2.6,12,3.9c-1.6,0.1-3.2,0.1-4.8,0.2c-0.4,0.1-0.9,0.3-1.3,0.4c-1.6-0.5-3.1-1.1-4.7-1.5
		C101.6,265.4,101.5,264.4,102.5,262.9z"/>
	<path class="st1" d="M404,184.2c2.7,0.6,5.5,1.1,8.2,0.7c4.7-0.7,9.4,0.6,14.1,0.1c2-0.2,2.9,0.6,2.8,2.7c-0.1,2.8,0,5.6,0,8.4
		c0,1.2,0,2.4,0,3.6c-10.3,0-20.5,0-30.8-0.1c-0.2-4.9,0.3-9.8,0.7-14.7C400.7,185.1,402.4,184.7,404,184.2z M417.2,192.9
		c-0.1-1.3-0.8-2-2.1-2c-1.5,0-2.2,0.8-2.2,2.3c0,1.3,0.8,2,2.1,2C416.5,195.1,417.2,194.3,417.2,192.9z"/>
	<path class="st1" d="M429,247.1c0,4.6,0,9.3,0,13.9c-9,0-17.9-0.1-26.9,0.1c-2.8,0-4-0.8-3.9-3.7c0.2-3.4,0-6.8,0-10.2
		C408.5,247.2,418.8,247.1,429,247.1z M417.3,253.4c-0.2-1-0.7-1.9-2-1.7c-1.2,0.2-2.4,0.7-2.3,2.2c0.1,1.3,0.9,1.9,2.1,1.9
		C416.5,255.9,417.2,255.1,417.3,253.4z"/>
	<path class="st1" d="M429,231.8c0,4.6,0,9.3,0,13.9c-10,0-20,0-30,0c-0.1-4.6,0.4-9.3-0.7-13.9C408.5,231.8,418.8,231.8,429,231.8z
		 M417.3,239.5c0-1.5-0.6-2.6-2.3-2.5c-1.5,0.1-2,1-2.1,2.4c-0.1,1.7,1,2.4,2.4,2.5C416.9,242,417.2,240.8,417.3,239.5z"/>
	<path class="st1" d="M429,217.1c1.5,4.4,0.6,8.8,0,13.2c-10,0-20,0-30,0c0-4.4,0-8.8,0-13.2C408.9,217.1,419,217.1,429,217.1z
		 M415,220.9c-1.5,0.1-2.2,1-2,2.4c0.2,1.5,1.1,2.5,2.6,2.5c1.6-0.1,1.7-1.4,1.7-2.7C417.2,221.6,416.4,220.9,415,220.9z"/>
	<path class="st1" d="M398.9,215c0-4.4,0-8.8,0-13.2c10,0,20.1,0,30.1,0c0.2,4.4-0.4,8.8,0.7,13.2C419.5,214.9,409.2,215,398.9,215z
		 M415.2,210.5c1.4-0.1,2.2-0.9,2-2.4c-0.1-1.3-0.9-1.9-2.2-1.9c-1.5,0-2.2,0.9-2.1,2.4C413.1,209.9,413.9,210.5,415.2,210.5z"/>
	<path class="st6" d="M404,184.2c-1.6,0.5-3.3,0.9-5,0.7c-1.8-1-3.8-0.5-5.8-0.7c-0.5-1.7-1-3.3-0.8-5.1c4.3-1.8,8.9-3.1,11.8-7.2
		c0.2,0,0.5-0.1,0.7-0.1c1.6,0,2.4,0.4,1.8,2.4C405.6,177.4,404.4,180.7,404,184.2z"/>
	<path class="st2" d="M398.9,215c10.3,0,20.5,0,30.8,0c0,0.7,0.1,1.3,0.1,2c-0.3,0.1-0.6,0.1-0.9,0.2c-10,0-20,0-30.1,0
		C398.1,216.4,398.1,215.7,398.9,215z"/>
	<path class="st2" d="M429,201.7c-10,0-20.1,0-30.1,0c-0.8-0.5-0.7-1.4-0.7-2.2c10.3,0,20.5,0,30.8,0.1C429,200.3,429,201,429,201.7
		z"/>
	<path class="st2" d="M398.9,230.3c10,0,20,0,30,0c0,0.5,0,1,0,1.5c-10.2,0-20.5,0-30.7,0C398.3,231.2,398.4,230.7,398.9,230.3z"/>
	<path class="st2" d="M399,245.7c10,0,20,0,30,0c0,0.5,0,1,0,1.5c-10.2,0-20.5,0-30.7,0C398.3,246.6,398.4,246,399,245.7z"/>
	<path class="st6" d="M467.1,238.3c4.9,2,4.5,6.1,4.2,10.3c-11.7,0-23.4,0-35.1,0.1c-1.4-4.6,0.2-8.4,4.3-10.3
		C449.5,238.3,458.3,238.3,467.1,238.3z"/>
	<path class="st6" d="M429,201.7c0-0.7,0-1.4,0-2.1c0-1.2,0-2.4,0-3.6c6.3-1.8,8.8-1,12.8,4.2c2,2.5,3.8,5,4.9,8
		c-0.3,0.3-0.6,0.5-0.9,0.8c-1.5-1.7-1.9-4.2-4.1-5.5c-0.6,1.6,0.4,2.7,0.7,4c1.8,6.4-2.6,15.3-8.7,17.8c-1.4,0.6-1.7,0.1-1.9-1.1
		c-0.5-2.5-0.8-5-2.1-7.3c0-0.7-0.1-1.3-0.1-2C428.7,210.6,429.2,206.1,429,201.7z"/>
	<path class="st2" d="M467.1,238.3c-8.8,0-17.7,0-26.5,0c0.4-2,2-2.9,3.5-3.9c1.6-1.1,1.8-2,0-3.2c-2.4-1.8-4.6-3.8-6.8-6.6
		c5.3,0,10.5,0,15.8,0c0,0,0.4,0,0.4,0l0.4,0c5.3,0,10.7,0,16.5,0c-1.6,2.6-3.8,4-5.8,5.5c-2.9,2.3-2.1,3.9,0.2,5.7
		C465.8,236.4,467,236.8,467.1,238.3z"/>
	<path class="st5" d="M472.2,179.8c0.2,1.9-1.1,3.1-2.2,4.4c-2.1,0.2-3.1,1.8-4.1,3.3c-3.8,5.5-7.7,11.2-9.4,17.7
		c-1.5,5.8-1.8,11.8-2.6,17.8c-3.6-0.9-3.4-3.8-3.6-6.6c1.3,0.3,1.2,1.9,2.5,2.9c0.9-2.6,0.7-5.1,0.9-7.4c1.5-12.3,6.9-22.4,15.6-31
		C470.1,180.1,471,179.7,472.2,179.8z"/>
	<path class="st3" d="M445.9,209.1c0.3-0.3,0.6-0.5,0.9-0.8c2.2,2.3,3.1,5.1,3.5,8.1C447.9,214.5,447.3,211.5,445.9,209.1z"/>
	<path class="st5" d="M453.9,224.5l-0.4,0c0,0-0.4,0-0.4,0c0.2-0.2,0.5-0.5,0.7-0.7C453.9,224,453.9,224.2,453.9,224.5z"/>
	<path class="st2" d="M417.2,268.2c0,1.3-0.5,2.1-1.8,2.3c-1.4,0.2-2.4-0.4-2.5-2c-0.1-1.5,0.7-2.3,2.1-2.3
		C416.4,266.2,417.1,266.9,417.2,268.2z"/>
	<path class="st8" d="M109.7,267c1.6-0.1,3.2-0.1,4.8-0.2c0.4,0.1,0.8,0.2,1.2,0.3c0.4,1.5,1.6,1.8,2.9,2l0,0c0,0.4-0.1,0.8-0.1,1.1
		C115.6,269.1,112.2,269.3,109.7,267z"/>
	<path class="st8" d="M118.7,268.1c0.2,0.1,0.5,0.1,0.7,0.2c-0.3,0.3-0.5,0.5-0.8,0.8c0,0,0,0,0,0
		C118.7,268.8,118.7,268.4,118.7,268.1z"/>
	<path class="st11" d="M193.4,146.6c-3.4-2-7.2-3.6-10-6.6c0-2.9,0.1-5.8,0-8.7c-0.1-2,0.3-3.3,2.7-3.2c1.6,0.1,2-1.1,1.9-2.4
		c-0.1-1.6-1.3-1.4-2.4-1.5c-2.3-0.1-4.6-0.3-6.8-0.4c-0.7-8.5-0.4-17-0.2-25.5c0.1-3.5,2.9-6,6.6-6c10.2-0.1,20.5,0,30.7-0.1
		c3.3,0,5.4,4.1,7.3,3.6c2.2-0.6,4.1-3.6,7.1-3.6c10.1,0,20.2,0,30.3,0c3.2,0,4.8,3.5,7.1,3.7c2.1,0.2,3.7-3.7,6.9-3.7
		c10.4,0,20.7-0.1,31.1,0c4.2,0.1,6.9,3.1,7,7.4c0.1,8.2,0,16.3,0,24.5c-0.8,0-1.7-0.1-2.5,0.2c-1.8,0.6-5-1.6-5.3,1.8
		c-0.3,3.1,3.2,1.6,4.7,2.6c0,0.5,0,1,0,1.5c-0.7,2.4-0.7,4.8,0,7.3c0,0.5,0,1,0.1,1.5c-4.2,2.4-8.3,4.9-12.5,7.3
		c-0.9-0.9-2-0.6-3.1-0.6c-32.6,0-65.1,0-97.7,0C195.4,145.5,193.9,144.9,193.4,146.6z M223.6,142.7c0-13.8,0-27.6,0-41.4
		C221.5,115.1,221.5,128.9,223.6,142.7z M268.3,103.5c-0.2,0-0.4,0-0.7,0c0,13.3,0,26.6,0,39.9c0.2,0,0.4,0,0.7,0
		C268.3,130.1,268.3,116.8,268.3,103.5z"/>
	<path class="st5" d="M108.4,110.7c0,12.8-0.1,25.6,0.1,38.4c0,2.9-0.8,3.7-3.7,3.7c-19.6-0.1-39.3-0.1-58.9,0
		c-3.1,0-4.1-1.2-4.1-4.1c0-25.6,0-51.2,0-76.8c0-2.6,1.1-3.3,3.5-3.3c19.9,0.1,39.7,0.1,59.6,0c2.8,0,3.5,1.2,3.5,3.8
		C108.4,85.1,108.4,97.9,108.4,110.7z M104.7,131.5c-0.6-5.3-0.8-10.7-0.7-16.1c1.9-3.3,0-6.7-0.1-10c-0.3-9.4,0.6-18.7,0.7-28.1
		c-0.1-5-0.2-5.1-5.1-5.1c-0.7,0-1.5,0-2.2,0c-7.4,0-14.8,0-22.1,0c-1.7,0-3.4-0.3-4.9,0.7c-7-0.9-14-0.6-21.1-0.7
		c-2,0-3.2,0.3-3.2,2.7c0.2,7.4,0,14.8-0.6,22.2c0.2,3.4,0.5,6.8,0.7,10.2c-3.9,1.5-4,2.4-0.8,5.2c0,2.9,0,5.9,0,8.8
		c0,3.2,0,6.3,0,9.5c0,4.9,0,9.7,0,14.6c0,1.6,0,2.8,2.1,3.1c7.4,0.9,14.7,1.1,22.1-0.1c5.6,1,11.2,0.7,16.8,0.7
		c5,0,9.9-0.1,14.9,0.1c2.5,0.1,3.5-0.9,3.4-3.4C104.7,141,104.7,136.2,104.7,131.5z"/>
	<path class="st5" d="M390.9,89.8c5.1,0,10.2,0.1,15.3,0c2.1,0,3.1,0.4,3.1,2.8c-0.1,10.1-0.1,20.2,0,30.3c0,2-0.6,2.8-2.7,2.8
		c-10.5-0.1-20.9-0.1-31.4,0c-1.9,0-2.5-0.8-2.5-2.6c0-10.2,0.1-20.5,0-30.7c0-2.2,1-2.6,2.9-2.6C380.6,89.9,385.7,89.8,390.9,89.8z
		 M405.6,108.1c0-4.3-0.1-8.5,0-12.8c0-1.8-0.6-2.6-2.5-2.6c-8,0.1-16.1,0.1-24.1,0c-2.1,0-2.7,0.9-2.7,2.8c0.1,8,0.1,16.1,0,24.1
		c0,2.1,0.8,3.1,3,3.1c7.9,0,15.8-0.1,23.8,0c1.9,0,2.6-0.7,2.5-2.6C405.5,116.2,405.6,112.1,405.6,108.1z"/>
	<path class="st5" d="M404.9,171.7c-0.2,0-0.5,0.1-0.7,0.1c-3.8-1.7-7.8-0.4-11.7-0.8c0.1-2.8-2.5-4.7-2.6-7.4
		c-0.1-0.8-0.6-1.7,0.2-2.4c0.8-0.7,1.6-0.2,2.2,0.4c2.3,2.2,2.5,0.5,2.4-1.4c-0.1-1.9,0.4-3.6,1.2-5.3c0.5-1,0.6-2.8,2.1-2.6
		c1.4,0.2,1.4,1.9,1.6,3c0.6,2.6,0.8,5.2,1.3,8.5c2.5-3.6,4.6-6.7,6.8-9.8c0.6-0.8,1.4-2.3,2.5-1.7c1.3,0.6,0.6,2.1,0.2,3.2
		c-1.5,4.3-2.6,8.8-4.9,12.8C404.8,169.5,404.8,170.6,404.9,171.7z"/>
	<path class="st5" d="M423.9,105.9c-2.1,0-4.2-0.3-6.2,0.1c-3.3,0.6-4.5-1.2-4.6-4c-0.2-3.6-0.6-7.3,0.3-10.9
		c0.1-0.5,0.2-0.9,0.3-1.4c0.2-5,0.2-5,5.4-5c3.9,0,7.8,0.1,11.7,0c2.6-0.1,3.5,1,3.4,3.5c-0.1,4.8-0.1,9.5,0,14.3
		c0.1,2.8-1.1,3.7-3.7,3.5C428.2,105.8,426,105.9,423.9,105.9z M423.7,103.7c0.2,0,0.5,0,0.7,0c8.5,0,8.5,0,8.2-8.5
		c-0.3-8.3-0.3-8.3-8.9-8.3c-9.9,0.1-8.5-1.3-8.6,8.4C415.1,103.7,415.1,103.7,423.7,103.7z"/>
	<path class="st12" d="M155.3,96.6c-1.3,4.1-4.9,6.6-7.2,10.1c0.2-1.5-0.1-2.6-1.8-2.9c-1.7-0.3-3.3-0.7-4.9-1.1c0-1.6,0-3.2,0-4.8
		c2.8-1.6-0.1-4.7,1.7-6.6c2.6,2.4,4.1,1.1,5.3-1.5c0.8,0,1.7,0,2.5,0c1.2,0.5,2.5,1,3.7,1.5C155.2,93.1,153.8,95,155.3,96.6z"/>
	<path class="st5" d="M424,110.3c10.1,0,10.1,0,10.1,10c0,2.7-0.1,5.4,0,8c0.1,2.4-1,3.2-3.3,3.2c-4.8-0.1-9.5-0.1-14.3,0
		c-2.2,0.1-3.2-0.8-3.5-2.8c-0.8-5.7,0.3-11.3,0-17c-0.1-1.3,1.4-1.5,2.5-1.5C418.4,110.3,421.2,110.3,424,110.3z M423.9,130.1
		c1.9,0,3.9-0.1,5.8,0c2.2,0.1,3.1-0.6,3-2.9c-0.1-3.8-0.1-7.5,0-11.3c0.1-2.2-0.9-3.3-2.9-3.3c-4.1-0.1-8.3-0.1-12.4,0
		c-1.2,0-2.4,0.6-2.1,2c0.6,2.3-0.3,4.5-0.2,6.8C415.2,130.1,415.1,130.1,423.9,130.1z"/>
	<path class="st12" d="M351.4,97.1c0,1.9,0,3.7,0.1,5.6c-2.1,0.5-4.2,1-6.4,1.5c-2.2-2.2-5.4-3.6-6.2-7c0-1.8-0.2-3.6,2.2-4.3
		c1-0.3,1.7-1.4,1.5-2.6c0.5-0.2,0.9-0.4,1.4-0.6c0.4,0.1,0.8,0.1,1.2,0.2c1.4,2.6,3.4,1.3,5.2,0.8
		C351.1,92.8,349.3,95.2,351.4,97.1z"/>
	<path class="st8" d="M350.5,90.7c-1.9,0.5-3.8,1.8-5.2-0.8c-0.2-1.1-0.7-0.9-1.2-0.2c-0.5,0.2-0.9,0.4-1.4,0.6
		c-0.1-0.8-0.6-1-1.2-1.1c-3,0.2-5.1-0.6-4.7-4.2c0-0.3-0.5-0.7-0.8-1.1c0.1-0.2,0.2-0.4,0.3-0.6c3.3-1,5.7-4,9.5-3.7
		c0.5,0,0.9,0,1.4,0c0.3,0.2,0.7,0.3,1,0.5l0,0.2c0,0,0-0.2,0-0.2c-0.1,2.8,2.8,3.8,3.5,6.1c0.1,0.5,0.3,1,0.4,1.5
		C351,88.5,351.8,90.1,350.5,90.7z"/>
	<path class="st4" d="M178.8,123.8c2.3,0.1,4.6,0.3,6.8,0.4c1.1,0.1,2.3-0.1,2.4,1.5c0.1,1.4-0.3,2.5-1.9,2.4
		c-2.4-0.1-2.7,1.3-2.7,3.2c0.1,2.9,0,5.8,0,8.7c-2.3-0.2-4.1-1.3-5.2-3.4c0.1-2,0.1-4.1,0.2-6.1c0.1-1.9-0.5-3-2.6-2.8
		c-1.4,0.2-2-0.5-2-1.8c0-1.5,0.9-1.7,2.2-1.7C177,124.3,177.9,124,178.8,123.8z"/>
	<path class="st10" d="M150.8,89.9c-0.8,0-1.7,0-2.5,0c-2-1.8-4.5-1.8-7-2.2c1-7,6.2-8.9,12.5-4.7c1.5,1.5,2.2,3.5,2.9,5.4
		c0,0.5,0,0.9,0.1,1.4c-0.3,0.3-0.5,0.5-0.8,0.8c-0.4,0.1-0.9,0.1-1.3,0.2C153.6,89.7,152.5,88.3,150.8,89.9z"/>
	<path class="st2" d="M392.4,171.1c3.9,0.4,7.9-0.9,11.7,0.8c-2.9,4.1-7.5,5.4-11.8,7.2c-1.4-1.6-1.3-3.8-1.9-5.7
		C389.8,171.7,390.7,171,392.4,171.1z"/>
	<path class="st4" d="M309.6,128.6c-1.5-1-5,0.5-4.7-2.6c0.3-3.4,3.5-1.2,5.3-1.8c0.8-0.3,1.7-0.1,2.5-0.2c0.2,0.1,0.4,0.2,0.6,0.3
		c0.4,2.2,2.6,0.6,3.7,1.7c-0.7,0.2-1.3,0.3-1.8,0.6c-0.3,0.1-0.3,0.6-0.5,0.9c-1.2,2.7-0.4,5.6-0.5,8.4c-0.3,0.3-0.7,0.5-1.2,0.2
		c-0.1,0.2-0.3,0.3-0.4,0.5c0,0,0,0,0,0c-0.8-0.1-1.4,0.2-1.5,1.2c-0.2,0.1-0.5,0.2-0.7,0.3C309.9,135,311.4,131.7,309.6,128.6z"/>
	<path class="st4" d="M345.1,104.2c2.1-0.5,4.2-1,6.4-1.5c2.7-0.3,4,0.9,3.6,3.6c-3.7-1.4-7,0.2-10.4,1.3
		C344.2,106.5,343.7,105.2,345.1,104.2z"/>
	<path class="st4" d="M141.3,102.8c1.6,0.4,3.3,0.8,4.9,1.1c1.7,0.3,2.1,1.4,1.8,2.9c-0.1,0.4-0.1,0.8-0.2,1.2
		c-3.2-1.8-6.5-2.8-10.1-1.6C137.4,103.6,138.7,102.5,141.3,102.8z"/>
	<path class="st4" d="M335.9,83.9c0.3,0.4,0.8,0.8,0.8,1.1c-0.4,3.6,1.7,4.4,4.7,4.2c-2.3,0.9-2.9,3.4-4.5,4.9
		C335.9,90.8,334,87.5,335.9,83.9z"/>
	<path class="st4" d="M141.3,87.7c2.4,0.4,5,0.4,7,2.2c-1.2,2.5-2.7,3.9-5.3,1.5c-1.4-0.6-0.4-2.5-1.7-3
		C141.2,88.1,141.2,87.9,141.3,87.7z"/>
	<path class="st9" d="M141.3,88.3c1.3,0.6,0.3,2.5,1.7,3c-1.8,1.9,1.1,5-1.7,6.6C140.9,94.8,139.8,91.5,141.3,88.3z"/>
	<path class="st6" d="M336.9,94.1c1.6-1.6,2.2-4,4.5-4.9c0.7,0,1.2,0.3,1.2,1.1c0.1,1.2-0.5,2.3-1.5,2.6c-2.4,0.7-2.1,2.5-2.2,4.3
		C337.9,96.4,336.8,95.6,336.9,94.1z"/>
	<path class="st4" d="M350.5,90.7c1.4-0.5,0.6-2.2,1.4-3c1.1,3.2,0.8,6.3-0.5,9.4C349.3,95.2,351.1,92.8,350.5,90.7z"/>
	<path class="st12" d="M156.8,89.8c0-0.5,0-0.9-0.1-1.4c0.2,0,0.4-0.1,0.6-0.1c1.7,0.9,3.4,1.7,5.1,2.6c0.7,0.4,1.8,0.6,1.4,1.7
		c-0.4,1.1-1.3,0.7-2.1,0.4c-1.5-0.5-2.9-1-4.4-1.6c0.6-0.1,1.1-0.3,1.7-0.4C158.3,90.6,157.5,90.2,156.8,89.8z"/>
	<path class="st9" d="M314.8,127.6c0.2-0.3,0.3-0.8,0.5-0.9c0.5-0.3,1.1-0.4,1.8-0.6c-1.1-1.1-3.3,0.5-3.7-1.7
		c1.1,0,2.1-0.1,3.2-0.1c1.1,0,2.5-0.3,2.6,1.5c0.1,2.1-1.3,1.9-2.6,1.9C316,127.7,315.4,127.7,314.8,127.6z"/>
	<path class="st4" d="M345.6,79.6c-3.8-0.3-6.2,2.7-9.5,3.7C338.1,79.7,341.4,78.5,345.6,79.6z"/>
	<path class="st4" d="M154.7,90.8c0.4-0.1,0.9-0.1,1.3-0.2c0.3,0.3,0.6,0.6,0.9,0.8c0,1.9-0.3,3.7-1.6,5.2c-1.5-1.5-0.1-3.5-0.8-5.2
		C154.7,91.2,154.7,91,154.7,90.8z"/>
	<path class="st4" d="M351.5,86.2c-0.6-2.3-3.6-3.4-3.5-6.1C350.4,81.4,351.5,83.5,351.5,86.2z"/>
	<path class="st13" d="M157.4,88.3c-0.2,0-0.4,0-0.6,0.1c-0.7-1.9-1.5-3.9-2.9-5.4C158.1,82.7,156.6,86.2,157.4,88.3z"/>
	<path class="st13" d="M156.9,91.4c-0.3-0.3-0.6-0.6-0.9-0.8c0.3-0.3,0.5-0.5,0.8-0.8c0.7,0.4,1.5,0.9,2.2,1.3
		c-0.6,0.1-1.1,0.3-1.7,0.4C157.2,91.5,157.1,91.5,156.9,91.4z"/>
	<path class="st4" d="M150.1,110.3c-0.4,0.7-1,0.7-1.7,0.6c0.1-0.5,0.2-0.9,0.3-1.4C149.4,109.5,149.9,109.6,150.1,110.3z"/>
	<path class="st12" d="M148.8,108.9c-0.1-0.2-0.2-0.4-0.2-0.7C149.1,108.3,149.2,108.5,148.8,108.9z"/>
	<path class="st4" d="M348,80.1c-0.3-0.2-0.7-0.3-1-0.5C347.3,79.7,347.7,79.9,348,80.1z"/>
	<path class="st4" d="M120,229.1c-0.7-7,3.5-12.9,4.5-19.5C124.9,216.5,121.5,222.6,120,229.1z"/>
	<path class="st4" d="M114.3,252.9c-0.2,0-0.5-0.1-0.7-0.1c0.2-6.4,2.5-12.2,4.7-18C118.1,241.1,115.7,246.9,114.3,252.9z"/>
	<path class="st4" d="M172.4,222.6c-1-5.2-1.9-10.5-1.7-15.8c0.4,0,0.7-0.1,1.1-0.1c0.6,5.3,1.3,10.6,1.9,15.8
		C173.3,222.5,172.8,222.5,172.4,222.6z"/>
	<path class="st4" d="M176.2,250.6c-0.3,0-0.6,0-0.8,0.1c-0.3-5.7-2.3-11.2-1.7-16.9c0.4,0,0.8-0.1,1.1-0.1
		C175.3,239.3,175.7,245,176.2,250.6z"/>
	<path class="st4" d="M125.2,206.3c0.9-3.4,1.6-6.9,2.7-10.3c0.5-1.4-0.5-4.4,1.8-3.9c1.5,0.4-0.3,2.9-0.7,4.4
		c-0.8,3.3-1.8,6.6-2.8,9.9C125.9,206.4,125.5,206.4,125.2,206.3z"/>
	<path class="st4" d="M170,197.7c1.5,2.4,1.9,4.4,0.5,7.5C169.6,202.3,170,200.2,170,197.7z"/>
	<path class="st4" d="M173.9,232.2c-1.3-2-1.1-3.2-0.6-4.7C174.8,228.8,174.2,230.1,173.9,232.2z"/>
	<path class="st4" d="M159.6,183.2c-1.9-0.1-2.3-1-2.8-2.4C158.5,180.9,159.1,181.7,159.6,183.2z"/>
	<path class="st4" d="M163,186.8c0.1,0.2,0.6,0.4,0.7,0.8c0.2,0.5-0.3,0.9-0.8,0.7c-0.4-0.2-0.7-0.6-0.8-1
		C162,186.9,162.3,186.6,163,186.8z"/>
	<path class="st4" d="M171,250.9c-1.7,1.2-3.6,0.7-5.5,0.6C167.2,250.1,169.2,251,171,250.9z"/>
	<path class="st4" d="M166.7,191.1c0.1,0.7-0.2,1-0.6,0.9c-0.4-0.1-0.8-0.4-1-0.8c-0.2-0.5,0.1-1,0.7-0.8
		C166.2,190.5,166.5,190.9,166.7,191.1z"/>
	<path class="st4" d="M183,250.5c-0.5,0-1,0.1-1.5,0.1c0.1-0.6-0.2-1.7,0.9-1.6C183.1,249,183,249.9,183,250.5z"/>
	<path class="st4" d="M130.7,187.3c0.1-0.2,0.1-0.5,0.3-0.6c0.1-0.1,0.4,0.1,0.6,0.2c-0.1,0.2-0.1,0.5-0.3,0.6
		C131.1,187.6,130.9,187.4,130.7,187.3z"/>
	<path class="st4" d="M155,177.8c-0.2,0.1-0.5,0.3-0.6,0.2c-0.1-0.1-0.2-0.4-0.3-0.6c0.2-0.1,0.5-0.3,0.6-0.2
		C154.9,177.3,154.9,177.6,155,177.8z"/>
	<path class="st4" d="M119.1,232c-0.1,0-0.3-0.1-0.3-0.1c0-0.1,0.1-0.2,0.1-0.3c0.1,0,0.3,0.1,0.3,0.1
		C119.2,231.8,119.1,231.9,119.1,232z"/>
	<path class="st4" d="M169.7,196.1c-0.1,0-0.2,0.1-0.3,0.1c-0.1-0.1-0.1-0.2-0.1-0.3c0.1,0,0.2-0.1,0.3-0.1
		C169.7,195.8,169.7,195.9,169.7,196.1z"/>
	<path class="st4" d="M372.8,226.6c3.3,8.6,5.4,17.6,7.1,26.6c-0.3,0.1-0.6,0.2-0.9,0.2c-2.4-8.9-4.8-17.8-7.2-26.6
		C372.1,226.7,372.4,226.6,372.8,226.6z"/>
	<path class="st4" d="M365.3,199.2c2.3,7.9,5.2,15.7,6.2,23.9C368.3,215.5,366.5,207.4,365.3,199.2z"/>
	<path class="st4" d="M343.4,164c0.8,4.4,3.1,8.2,3.9,12.6c0.1,0.7,0.5,1.5-0.6,1.6c-0.7,0.1-0.9-0.6-1.1-1.2
		c-0.7-2.7-0.4-5.6-2.8-7.9C342.4,168.8,343.2,165.9,343.4,164z"/>
	<path class="st4" d="M308.1,207.9c0.9-4.9,3.5-9,6-13.1C313.2,199.7,310.2,203.6,308.1,207.9z"/>
	<path class="st4" d="M362.3,187.6c1.3,3,2.6,6,2.4,9.4C363.1,194.1,361.1,191.3,362.3,187.6z"/>
	<path class="st4" d="M300,223.3c0.5-2.7,1.7-5,3.5-7.1C303.2,219.1,301.9,221.3,300,223.3z"/>
	<path class="st4" d="M304.5,214.6c0-2.1,0.8-3.8,2.4-5.7C307.8,211.9,305.2,212.8,304.5,214.6z"/>
	<path class="st4" d="M319.4,184c0.5,1.8-0.3,2.7-0.9,4.1C317.4,186.1,318.4,185.3,319.4,184z"/>
	<path class="st4" d="M315.9,192.7c0-2.1,0.2-3.1,1.3-4.1C317.6,190.1,317.1,191.1,315.9,192.7z"/>
	<path class="st4" d="M332.4,174.7c-0.7,1.2-1.7,1.9-3.5,1.9C329.7,174.9,331,174.7,332.4,174.7L332.4,174.7z"/>
	<path class="st4" d="M299.4,225.4c-0.2,0.4-0.3,0.8-0.6,0.9c-0.6,0.2-0.8-0.3-0.7-0.8c0-0.2,0.4-0.6,0.6-0.6
		C298.9,224.8,299.2,225.2,299.4,225.4z"/>
	<path class="st4" d="M326.7,178.1c-0.2-0.1-0.5-0.1-0.6-0.3c-0.1-0.1,0.1-0.4,0.2-0.6c0.2,0.1,0.5,0.1,0.6,0.3
		C327,177.6,326.8,177.9,326.7,178.1z"/>
	<path class="st4" d="M324.8,179.3c-0.2,0.1-0.5,0.3-0.6,0.2c-0.1-0.1-0.2-0.4-0.3-0.6c0.2-0.1,0.5-0.3,0.6-0.2
		C324.7,178.8,324.7,179.1,324.8,179.3z"/>
	<path class="st4" d="M332.4,174.7c0.3-0.2,0.5-0.4,0.8-0.5c0.1,0.1,0.1,0.2,0.2,0.3C333,174.5,332.7,174.6,332.4,174.7
		C332.4,174.7,332.4,174.7,332.4,174.7z"/>
	<path class="st14" d="M193.4,146.6c0.5-1.8,2-1.1,3-1.1c32.6,0,65.1,0,97.7,0c1.1,0,2.2-0.3,3.1,0.6c-0.7,1-1.8,0.7-2.8,1
		c-5.2-0.1-10.4-0.2-15.7-0.2c-26.5,0-53,0-79.5,0c-1.3,0-2.7,0.2-4,0.3C194.7,147,194,146.8,193.4,146.6z"/>
	<path class="st9" d="M309.6,128.6c1.8,3,0.3,6.4,0.8,9.5c-0.2,0.2-0.5,0.5-0.7,0.7c0-0.5,0-1-0.1-1.5c0-2.4,0-4.8,0-7.3
		C309.7,129.6,309.6,129.1,309.6,128.6z"/>
	<path class="st9" d="M311.2,137.9c0.1-0.9,0.7-1.2,1.5-1.2C312.6,137.6,312,137.8,311.2,137.9z"/>
	<path class="st9" d="M312.7,136.7c0.1-0.2,0.3-0.3,0.4-0.5C313.1,136.5,312.9,136.6,312.7,136.7z"/>
	<path class="st4" d="M143.4,118.8c0,3.4,0,6.8,0,10.2C141.6,125.6,141.5,122.2,143.4,118.8z"/>
	<path class="st4" d="M145.4,115.2c0.3,1.6-0.1,2.8-1.9,3.2C143.7,117,144.2,115.9,145.4,115.2z"/>
	<path class="st4" d="M147,113c0.3,1.3-0.1,2.1-1.5,2.2C145.7,114.3,146.1,113.5,147,113z"/>
	<path class="st4" d="M148.5,110.9c0.2,1.2-0.3,2-1.6,2.2C147.1,112.1,147.6,111.3,148.5,110.9z"/>
	<path class="st9" d="M377,265.8c0.1-1.2-0.4-2.8,1.8-2.6c1.5,0.1,2.4,1,2.6,2.4c0.3,2-1.5,2.5-2.8,2.7
		C377.1,268.5,376.8,267.1,377,265.8z"/>
	<path class="st8" d="M299,238.9c-0.1,1.7-1.1,2.5-2.6,2.4c-1.7-0.1-2.6-1.2-2.6-2.8c0-1.6,1-1.9,2.4-1.8
		C297.7,236.7,299,237.1,299,238.9z"/>
	<path class="st9" d="M109.9,256.8c1.9-0.2,4.1-1.2,4.4,2c-0.7,0.4-1.4,0.7-1.1,1.8c0,0-0.2,0.2-0.2,0.2c-1-0.6-2.1-0.4-3.2-0.4
		c0,0,0,0,0,0C109.8,259.2,109.9,258,109.9,256.8z"/>
	<path class="st4" d="M118.7,268.1c0,0.3,0,0.7-0.1,1c-1.3-0.2-2.6-0.5-2.9-2C116.9,267,117.8,267.5,118.7,268.1z"/>
	<path class="st4" d="M109.8,260.4c1.1,0,2.2-0.2,3.2,0.4C111.8,262.2,110.8,261.6,109.8,260.4z"/>
	<path class="st4" d="M109.9,256.8c0,1.2-0.1,2.4-0.1,3.5C108.6,259.2,108.6,258,109.9,256.8z"/>
	<path class="st4" d="M113.2,260.6c-0.4-1,0.3-1.4,1.1-1.8C114.4,259.7,114.2,260.4,113.2,260.6z"/>
	<path class="st8" d="M174.3,256.7c2.1,1.3,2,3,0.5,4.4c-1.3,1.2-3.1,1-4.1-0.6c-0.9-1.6-1.4-3.5,1.4-4c0,0.4-0.1,0.7,0,1.1
		c0.2,0.9-0.5,2.5,1.2,2.4c1.3,0,0.9-1.4,1-2.3C174.3,257.4,174.3,257.1,174.3,256.7z"/>
	<path class="st4" d="M174.3,256.7c0,0.4,0,0.7,0,1.1c-0.1,0.9,0.4,2.2-1,2.3c-1.7,0-1-1.5-1.2-2.4c-0.1-0.3,0-0.7,0-1.1
		c0,0,0.3,0.1,0.3,0.1c0.5,0,1,0,1.5,0l0.2-0.1L174.3,256.7z"/>
	<path class="st8" d="M173.9,256.6c-0.5,0-1,0-1.5,0C172.9,256,173.4,256.1,173.9,256.6z"/>
	<path class="st14" d="M166.9,266.1c-0.3-0.1-0.6-0.2-0.8-0.3c0.2,0,0.5,0,0.7,0C166.8,265.8,166.9,266.1,166.9,266.1z"/>
	<path class="st4" d="M198.5,266.1c0.3,0.2,0.5,0.5,0.8,0.7C199,266.6,198.8,266.3,198.5,266.1z"/>
	<path class="st2" d="M417.2,192.9c0,1.4-0.7,2.2-2.2,2.2c-1.3,0-2-0.7-2.1-2c0-1.5,0.7-2.3,2.2-2.3
		C416.4,190.9,417.1,191.6,417.2,192.9z"/>
	<path class="st2" d="M417.3,253.4c0,1.7-0.7,2.5-2.2,2.5c-1.3,0-2-0.6-2.1-1.9c-0.1-1.6,1-2.1,2.3-2.2
		C416.6,251.5,417.1,252.5,417.3,253.4z"/>
	<path class="st2" d="M417.3,239.5c0,1.3-0.4,2.5-2,2.4c-1.4-0.1-2.5-0.8-2.4-2.5c0.1-1.4,0.6-2.3,2.1-2.4
		C416.7,236.9,417.3,237.9,417.3,239.5z"/>
	<path class="st2" d="M415,220.9c1.5,0,2.2,0.8,2.3,2.2c0.1,1.3-0.1,2.6-1.7,2.7c-1.5,0.1-2.4-1-2.6-2.5
		C412.8,221.9,413.5,221,415,220.9z"/>
	<path class="st2" d="M415.2,210.5c-1.3,0-2.1-0.6-2.2-1.9c-0.1-1.4,0.6-2.3,2.1-2.4c1.3,0,2.1,0.6,2.2,1.9
		C417.3,209.6,416.6,210.4,415.2,210.5z"/>
	<path class="st14" d="M223.6,142.7c-2.2-13.8-2.1-27.6,0-41.4C223.6,115.1,223.6,128.9,223.6,142.7z"/>
	<ellipse class="st14" cx="268" cy="123.5" rx="0.5" ry="28.2"/>
	<path class="st4" d="M309.7,130.1c0,2.4,0,4.8,0,7.3C309,134.9,309,132.5,309.7,130.1z"/>
	<path class="st7" d="M69.6,148.4c-7.3,1.3-14.7,1-22.1,0.1c-2.1-0.2-2.1-1.5-2.1-3.1c0-4.9,0-9.7,0-14.6c0.8-0.1,2.1,0.2,2.5-0.3
		c3.5-4.4,8.9-6.7,12.2-11.3c1.6-2.3,3.6-4.3,5.7-6.1c4.6-3.9,9.1-8,13.1-12.5c1.3-1.5,2.2-3.2,3.8-4.4c6.4-4.8,11.9-10.5,17.5-16.1
		c1.3-1.2,2.3-3,4.5-2.7c-0.2,9.4-1,18.7-0.7,28.1c0.1,3.3,1.9,6.7,0.1,10c-1.3,0.1-2.5,0.5-3.2,1.5c-4.1,5.5-9.9,9.1-14.7,13.8
		c-4.5,4.4-8.1,9.6-13.4,13.2C71.1,145,69.4,146,69.6,148.4z"/>
	<path class="st7" d="M45.5,121.3c0-2.9,0-5.9,0-8.8c1.8-0.2,3.9-0.4,4.2-2.5c0.2-2-1.6-2.6-3.4-2.7c-0.2-3.4-0.5-6.8-0.7-10.2
		c1.7,0.3,2.6-0.9,3.7-1.9c4.1-3.9,8.1-8,12.3-11.9c3.3-3,7.5-5.6,8.8-10.4c1.5-1,3.3-0.7,4.9-0.7c7.4,0,14.8,0,22.1,0
		c0.1,2.1-0.9,3.9-2.6,5c-5.5,3.8-10,8.8-14.6,13.5c-7.9,8.1-16.8,15-25.1,22.5C52.1,116.1,49.8,120,45.5,121.3z"/>
	<path class="st15" d="M45.5,121.3c4.3-1.3,6.6-5.2,9.6-8c8.3-7.6,17.2-14.5,25.1-22.5c4.6-4.7,9.1-9.7,14.6-13.5
		c1.6-1.1,2.6-2.9,2.6-5c0.7,0,1.5,0,2.2,0c4.9,0,5,0.1,5.1,5.1c-2.2-0.3-3.2,1.5-4.5,2.7c-5.7,5.6-11.2,11.3-17.5,16.1
		c-1.6,1.2-2.5,2.9-3.8,4.4c-4,4.5-8.4,8.6-13.1,12.5c-2.1,1.8-4.1,3.8-5.7,6.1c-3.3,4.7-8.7,6.9-12.2,11.3
		c-0.4,0.5-1.6,0.2-2.5,0.3C45.5,127.6,45.5,124.5,45.5,121.3z"/>
	<path class="st15" d="M69.6,148.4c-0.2-2.3,1.5-3.4,3.1-4.5c5.3-3.6,8.9-8.8,13.4-13.2c4.8-4.7,10.6-8.3,14.7-13.8
		c0.7-0.9,2-1.4,3.2-1.5c-0.1,5.4,0.1,10.7,0.7,16.1c-0.5,0.1-1,0.2-1.3,0.4c-5.4,4.6-9.7,10.3-15.6,14.2c-0.9,0.6-1.2,1.8-1.3,2.9
		C80.8,149.1,75.2,149.4,69.6,148.4z"/>
	<path class="st15" d="M70.4,73c-1.3,4.8-5.4,7.4-8.8,10.4c-4.3,3.8-8.2,7.9-12.3,11.9c-1.1,1-2,2.2-3.7,1.9
		c0.7-7.4,0.9-14.8,0.6-22.2c-0.1-2.5,1.2-2.8,3.2-2.7C56.3,72.3,63.4,72,70.4,73z"/>
	<path class="st7" d="M86.4,149.1c0.1-1.1,0.5-2.3,1.3-2.9c6-3.9,10.3-9.7,15.6-14.2c0.3-0.3,0.9-0.3,1.3-0.4
		c0,4.7-0.1,9.5,0.1,14.2c0.1,2.5-0.9,3.5-3.4,3.4C96.4,149,91.4,149.1,86.4,149.1z"/>
	<path class="st2" d="M46.2,107.3c1.8,0.1,3.6,0.8,3.4,2.7c-0.2,2.1-2.4,2.3-4.2,2.5C42.2,109.7,42.4,108.8,46.2,107.3z"/>
	<path class="st7" d="M405.6,108.1c0,4-0.1,8,0,12.1c0,1.9-0.6,2.6-2.5,2.6c-7.9-0.1-15.8-0.1-23.8,0c-2.2,0-3-0.9-3-3.1
		c0-8,0.1-16.1,0-24.1c0-2,0.5-2.9,2.7-2.8c8,0.1,16.1,0.1,24.1,0c1.9,0,2.6,0.8,2.5,2.6C405.5,99.6,405.6,103.9,405.6,108.1z
		 M386.6,106.9c-0.2,2.9-0.4,5.3,3.9,5c3.1-0.3,5.4,0,5-4.3c-0.4-4.7-0.6-5.1-6.4-5.1C385.6,102.4,386.8,105.1,386.6,106.9z"/>
	<path class="st0" d="M423.7,103.7c-8.6,0-8.7,0-8.6-8.5c0.1-9.7-1.3-8.3,8.6-8.4c8.6-0.1,8.6,0,8.9,8.3c0.4,8.5,0.4,8.5-8.2,8.5
		C424.2,103.7,424,103.7,423.7,103.7z M428.3,96c0-5.4,0-5.5-4.2-5.4c-2.3,0.1-5.4-1.1-5.3,3.3c0.1,5.3,0.7,5.9,5,6.2
		C427.5,100.4,429.1,99.2,428.3,96z"/>
	<path class="st13" d="M154.7,90.8c0.1,0.2,0,0.4-0.2,0.6c-1.2-0.5-2.5-1-3.7-1.5C152.5,88.3,153.6,89.7,154.7,90.8z"/>
	<path class="st0" d="M423.9,130.1c-8.8,0-8.7,0-8.8-8.7c0-2.3,0.8-4.5,0.2-6.8c-0.3-1.3,0.8-1.9,2.1-2c4.1,0,8.3-0.1,12.4,0
		c2,0.1,3,1.1,2.9,3.3c-0.1,3.8-0.1,7.5,0,11.3c0.1,2.3-0.8,3-3,2.9C427.8,130,425.8,130.1,423.9,130.1z M423.6,125.5
		c3.1,0.7,5,0.2,4.8-3.8c-0.2-3.1-0.1-5.2-4.4-4.9c-3.2,0.2-4.9,0.5-4.6,4.3C419.6,123.9,419.2,126.7,423.6,125.5z"/>
	<path class="st6" d="M344,89.7c0.5-0.7,1-0.9,1.2,0.2C344.8,89.9,344.4,89.8,344,89.7z"/>
	<path class="st2" d="M386.6,106.9c0.3-1.8-1-4.5,2.5-4.5c5.8,0,5.9,0.5,6.4,5.1c0.4,4.3-1.9,4.1-5,4.3
		C386.2,112.2,386.3,109.8,386.6,106.9z"/>
	<path class="st2" d="M428.3,96c0.8,3.2-0.8,4.4-4.5,4.1c-4.3-0.3-4.9-0.9-5-6.2c-0.1-4.4,3-3.2,5.3-3.3
		C428.3,90.5,428.3,90.6,428.3,96z"/>
	<path class="st2" d="M423.6,125.5c-4.4,1.2-4-1.5-4.2-4.5c-0.3-3.8,1.4-4.1,4.6-4.3c4.2-0.3,4.2,1.8,4.4,4.9
		C428.6,125.7,426.7,126.2,423.6,125.5z"/>
</g>
</svg>
