<?xml version="1.0" encoding="utf-8"?>
<!-- Generator: Adobe Illustrator 23.0.5, SVG Export Plug-In . SVG Version: 6.00 Build 0)  -->
<svg version="1.1" id="Layer_1" xmlns="http://www.w3.org/2000/svg" xmlns:xlink="http://www.w3.org/1999/xlink" x="0px" y="0px"
	 viewBox="0 0 500 500" style="enable-background:new 0 0 500 500;" xml:space="preserve">
<style type="text/css">
	.st0{fill:#73C2FB;}
	.st1{fill:#28343A;}
	.st2{fill:#272460;}
	.st3{fill:#62A4CC;}
</style>
<g>
	<g>
		<g>
			<path class="st0" d="M482.2,119.5H170.9L145,138.4l-18.8-18.9H60.8c-7.8,0-14.2,6.4-14.2,14.2V170c0,7.8,6.4,14.2,14.2,14.2
				h421.4c7.8,0,14.2-6.4,14.2-14.2v-36.3C496.4,125.8,490,119.5,482.2,119.5z"/>
		</g>
	</g>
	<g>
		<g>
			<path class="st1" d="M482.2,116.2h-77.8c-1.8,0-3.3,1.5-3.3,3.3s1.5,3.3,3.3,3.3h77.8c6,0,10.9,4.9,10.9,10.9V170
				c0,6-4.9,10.9-10.9,10.9H60.8c-6,0-10.9-4.9-10.9-10.9v-36.3c0-6,4.9-10.9,10.9-10.9h64l17.8,17.9c1.1,1.2,3,1.3,4.3,0.3
				l25.1-18.2h202.1c1.8,0,3.3-1.5,3.3-3.3s-1.5-3.3-3.3-3.3H170.9c-0.7,0-1.4,0.2-1.9,0.6L145.3,134l-16.8-16.9
				c-0.6-0.6-1.5-1-2.3-1H60.8c-9.7,0-17.5,7.9-17.5,17.5v36.3c0,9.7,7.9,17.5,17.5,17.5h421.4c9.7,0,17.5-7.9,17.5-17.5v-36.3
				C499.7,124,491.9,116.2,482.2,116.2z"/>
		</g>
	</g>
	<g>
		<g>
			<path class="st0" d="M464.6,184.2H71.7v45.3l13.6,48.2l39.8,2.2l-37.6,59.7l-3.8,15.3l-7.5,30.4l-4.5,18.1v77.5
				c0,8.7,7.1,15.8,15.8,15.8h209.6l25.5-17.8l23.6-19.9l17.7,17.7l77.5,20h7.4c8.7,0,15.8-7.1,15.8-15.8V347.1l-38.8,10.2
				l27.4-47.1l-18.8-79.9l30.3,9.7L464.6,184.2L464.6,184.2z"/>
		</g>
	</g>
	<g>
		<g>
			<path class="st1" d="M466.5,242.6c0.9-0.6,1.4-1.6,1.4-2.7v-55.8c0-1.8-1.5-3.3-3.3-3.3H71.7c-1.8,0-3.3,1.5-3.3,3.3v45.3
				c0,0.3,0,0.6,0.1,0.9l13.6,48.2c0.4,1.4,1.6,2.3,3,2.4l34.2,1.9l-34.6,54.9c-0.2,0.3-0.3,0.6-0.4,1l-3.8,15.3
				c-0.4,1.8,0.7,3.6,2.4,4c1.8,0.5,3.6-0.6,4-2.4l3.7-14.8l37.3-59.3c0.6-1,0.7-2.2,0.1-3.3c-0.5-1-1.6-1.7-2.8-1.8l-37.4-2.1
				L75,229v-41.6h386.3v47.9l-26-8.3c-1.1-0.4-2.4-0.1-3.3,0.7c-0.9,0.8-1.3,2-1,3.2l18.5,78.6l-26.7,46c-0.7,1.2-0.6,2.6,0.2,3.7
				c0.8,1.1,2.2,1.5,3.5,1.2l34.7-9.1v129.5c0,6.9-5.6,12.5-12.5,12.5h-7l-76.2-19.7l-17-17c-1.2-1.2-3.2-1.3-4.5-0.2l-23.5,19.8
				l-24.5,17.1H87.5c-6.9,0-12.5-5.6-12.5-12.5v-77.1l4.4-17.8c0.4-1.8-0.7-3.6-2.4-4c-1.8-0.4-3.6,0.6-4,2.4l-4.5,18.1
				c-0.1,0.3-0.1,0.5-0.1,0.8v77.5c0,10.5,8.6,19.1,19.1,19.1h209.6c0.7,0,1.3-0.2,1.9-0.6l25.5-17.8c0.1-0.1,0.2-0.1,0.2-0.2
				l21.3-18l15.5,15.5c0.4,0.4,0.9,0.7,1.5,0.9l77.5,20c0.3,0.1,0.5,0.1,0.8,0.1h7.4c10.5,0,19.1-8.6,19.1-19.1V347.1
				c0-1-0.5-2-1.3-2.6s-1.9-0.9-2.9-0.6l-31.1,8.1l23.4-40.2c0.4-0.7,0.5-1.6,0.4-2.4l-17.5-74.2l24.7,7.9
				C464.6,243.4,465.7,243.2,466.5,242.6z"/>
		</g>
	</g>
	<g>
		<g>
			<rect x="198.3" y="119.5" class="st2" width="150.4" height="64.7"/>
		</g>
	</g>
	<g>
		<g>
			<path class="st1" d="M348.7,116.2H198.3c-1.8,0-3.3,1.5-3.3,3.3v64.7c0,1.8,1.5,3.3,3.3,3.3h150.4c1.8,0,3.3-1.5,3.3-3.3v-64.7
				C352,117.6,350.5,116.2,348.7,116.2z M345.4,180.8H201.6v-58h143.8V180.8z"/>
		</g>
	</g>
	<g>
		<g>
			<polygon class="st2" points="198.3,184.2 198.3,283.9 243.9,251.6 259.4,283.9 277.9,267.1 299.4,283.9 322.9,265.2 348.7,283.9 
				348.7,184.2 			"/>
		</g>
	</g>
	<g>
		<g>
			<path class="st1" d="M348.7,180.9H198.3c-1.8,0-3.3,1.5-3.3,3.3v99.7c0,1.2,0.7,2.4,1.8,3c1.1,0.6,2.4,0.5,3.4-0.2l42.4-30
				l13.8,28.7c0.5,0.9,1.3,1.6,2.4,1.8c0.2,0,0.4,0.1,0.6,0.1c0.8,0,1.6-0.3,2.2-0.9l16.4-14.9l19.3,15.1c1.2,1,2.9,0.9,4.1,0
				l21.6-17.1l23.8,17.2c1,0.7,2.3,0.8,3.5,0.3c1.1-0.6,1.8-1.7,1.8-3v-99.7C352,182.4,350.5,180.9,348.7,180.9z M345.4,277.4
				l-20.5-14.9c-1.2-0.9-2.8-0.8-4,0.1l-21.5,17l-19.5-15.2c-0.6-0.5-1.3-0.7-2-0.7c-0.8,0-1.6,0.3-2.2,0.9l-15.2,13.8l-13.5-28.3
				c-0.4-0.9-1.2-1.5-2.2-1.8s-1.9-0.1-2.8,0.5l-40.4,28.6v-90h143.8L345.4,277.4L345.4,277.4z"/>
		</g>
	</g>
	<g>
		<g>
			<path class="st2" d="M236.6,433.8H117.4c-4.3,0-7.8,3.5-7.8,7.8v11.3c0,4.3,3.5,7.8,7.8,7.8h119.2c4.3,0,7.8-3.5,7.8-7.8v-11.3
				C244.4,437.3,240.9,433.8,236.6,433.8z"/>
		</g>
	</g>
	<g>
		<g>
			<path class="st1" d="M236.6,430.5H117.4c-6.1,0-11.1,5-11.1,11.1v11.3c0,6.1,5,11.1,11.1,11.1h119.2c6.1,0,11.1-5,11.1-11.1
				v-11.3C247.7,435.5,242.8,430.5,236.6,430.5z M241.1,452.9c0,2.5-2,4.5-4.5,4.5H117.4c-2.5,0-4.5-2-4.5-4.5v-11.3
				c0-2.5,2-4.5,4.5-4.5h119.2c2.5,0,4.5,2,4.5,4.5V452.9L241.1,452.9z"/>
		</g>
	</g>
	<g>
		<g>
			<path class="st2" d="M71.9,24.7c-2.2,25.6-28.8,29.6-28.8,29.6C66,55.4,71.7,85.4,71.7,85.4C72.2,64,101.2,54,101.2,54
				C79.5,52.7,71.9,24.7,71.9,24.7z"/>
		</g>
	</g>
	<g>
		<g>
			<path class="st1" d="M101.4,50.7c-19-1.1-26.2-26.6-26.2-26.8c-0.4-1.5-1.9-2.6-3.5-2.4c-1.6,0.1-2.9,1.4-3,3
				c-1.9,22.6-25,26.5-26,26.6c-1.7,0.3-2.9,1.8-2.8,3.5s1.5,3.1,3.2,3.1C63,58.6,68.4,85.7,68.5,86c0.3,1.6,1.7,2.7,3.3,2.7
				c0.1,0,0.2,0,0.3,0c1.7-0.1,3-1.5,3-3.2c0.4-18.8,26.9-28.3,27.2-28.3c1.5-0.5,2.4-2,2.2-3.6C104.3,52,102.9,50.8,101.4,50.7z
				 M71.4,73.6c-3-6.9-8.2-15.3-16.8-19.6c6.5-3.1,14.2-8.7,18.1-18.3c3.4,6.8,9.3,15.2,18.4,19.3C84.5,58.6,75.9,64.7,71.4,73.6z"
				/>
		</g>
	</g>
	<g>
		<g>
			<path class="st2" d="M24,62.3C22.4,80.3,3.6,83.2,3.6,83.2c16.2,0.8,20.2,22,20.2,22C24.1,90.1,44.6,83,44.6,83
				C29.3,82.1,24,62.3,24,62.3z"/>
		</g>
	</g>
	<g>
		<g>
			<path class="st1" d="M44.8,79.7c-12.8-0.8-17.6-18.1-17.7-18.3c-0.4-1.5-1.9-2.6-3.5-2.4c-1.6,0.1-2.9,1.4-3,3
				C19.4,77.2,3.8,79.8,3.1,79.9c-1.7,0.3-2.9,1.8-2.8,3.4c0.1,1.7,1.5,3.1,3.2,3.1c13.3,0.6,17.1,19.1,17.1,19.3
				c0.3,1.6,1.7,2.7,3.3,2.7c0.1,0,0.2,0,0.3,0c1.7-0.1,3-1.5,3-3.2c0.3-12.6,18.4-19.1,18.6-19.2c1.5-0.5,2.4-2,2.2-3.6
				C47.7,80.9,46.4,79.8,44.8,79.7z M23.6,94.7c-2-4.2-5.2-8.7-9.8-11.7c4.1-2.3,8.2-5.8,10.8-10.9c2.3,4.1,5.9,8.7,10.9,11.6
				C31.4,86.1,26.7,89.8,23.6,94.7z"/>
		</g>
	</g>
	<g>
		<g>
			<path class="st2" d="M24,3.3C22.4,21.4,3.6,24.3,3.6,24.3c16.2,0.8,20.2,22,20.2,22C24.1,31.1,44.6,24,44.6,24
				C29.3,23.1,24,3.3,24,3.3z"/>
		</g>
	</g>
	<g>
		<g>
			<path class="st1" d="M44.8,20.7C32.1,20,27.2,2.6,27.2,2.5c-0.4-1.5-1.9-2.6-3.5-2.4c-1.6,0.1-2.9,1.4-3,3
				C19.4,18.2,3.8,20.9,3.1,21c-1.7,0.3-2.9,1.8-2.8,3.5c0.1,1.7,1.5,3.1,3.2,3.1c13.3,0.6,17.1,19.1,17.1,19.3
				c0.3,1.6,1.7,2.7,3.3,2.7c0.1,0,0.2,0,0.3,0c1.7-0.1,3-1.5,3-3.2c0.3-12.6,18.4-19.1,18.6-19.1c1.5-0.5,2.4-2,2.2-3.6
				C47.7,22,46.4,20.8,44.8,20.7z M23.6,35.8c-2-4.2-5.2-8.7-9.8-11.7c4.1-2.3,8.2-5.8,10.8-10.9c2.3,4.1,5.9,8.7,10.9,11.6
				C31.4,27.2,26.7,30.8,23.6,35.8z"/>
		</g>
	</g>
	<g>
		<g>
			<path class="st3" d="M482.2,122.8h-48.6c6,0,10.9,4.9,10.9,10.9v36.3c0,6-4.9,10.9-10.9,10.9h48.6c6,0,10.9-4.9,10.9-10.9v-36.3
				C493.1,127.7,488.2,122.8,482.2,122.8z"/>
		</g>
	</g>
	<g>
		<g>
			<path class="st3" d="M435.3,227.1l26,8.3v-47.9h-48.6v47.9l-26-8.3c-1.1-0.4-2.4-0.1-3.3,0.7s-1.2,2-1,3.2l18.5,78.6l-26.7,46
				c-0.7,1.1-0.6,2.6,0.2,3.7c0.8,1.1,2.2,1.5,3.5,1.2l34.7-9.1v129.5c0,1.7-0.3,3.3-0.9,4.7l30.1,7.8h7c6.9,0,12.5-5.6,12.5-12.5
				V351.4l-34.7,9.1c-1.3,0.4-2.7-0.1-3.5-1.2c-0.8-1.1-0.9-2.5-0.2-3.7l26.7-46L431,231c-0.3-1.1,0.1-2.4,1-3.2
				C432.9,227,434.1,226.7,435.3,227.1z"/>
		</g>
	</g>
</g>
</svg>
