<?xml version="1.0" encoding="utf-8"?>
<!-- Generator: Adobe Illustrator 23.1.0, SVG Export Plug-In . SVG Version: 6.00 Build 0)  -->
<svg version="1.1" id="Layer_1" xmlns="http://www.w3.org/2000/svg" xmlns:xlink="http://www.w3.org/1999/xlink" x="0px" y="0px"
	 viewBox="0 0 500 500" enable-background="new 0 0 500 500" xml:space="preserve">
<g>
	<g>
		<g>
			<path fill="#F15756" d="M482.2,119.48H170.91l-25.94,18.87l-18.79-18.87h-65.4c-7.84,0-14.2,6.36-14.2,14.2v36.27
				c0,7.84,6.36,14.2,14.2,14.2H482.2c7.84,0,14.2-6.36,14.2-14.2v-36.27C496.4,125.84,490.04,119.48,482.2,119.48z"/>
		</g>
	</g>
	<g>
		<g>
			<path fill="#28343A" d="M482.2,116.16h-77.75c-1.83,0-3.32,1.48-3.32,3.32s1.49,3.32,3.32,3.32h77.75c6,0,10.88,4.88,10.88,10.88
				v36.27c0,6-4.88,10.88-10.88,10.88H60.77c-6,0-10.88-4.88-10.88-10.88v-36.27c0-6,4.88-10.88,10.88-10.88h64.02l17.82,17.89
				c1.15,1.16,2.98,1.3,4.3,0.34l25.07-18.23h202.13c1.83,0,3.32-1.48,3.32-3.32s-1.49-3.32-3.32-3.32H170.91
				c-0.7,0-1.38,0.22-1.95,0.63l-23.65,17.2l-16.79-16.86c-0.62-0.63-1.47-0.98-2.35-0.98h-65.4c-9.66,0-17.52,7.86-17.52,17.52
				v36.27c0,9.66,7.86,17.52,17.52,17.52H482.2c9.66,0,17.52-7.86,17.52-17.52v-36.27C499.71,124.02,491.86,116.16,482.2,116.16z"/>
		</g>
	</g>
	<g>
		<g>
			<path fill="#F15756" d="M464.59,184.16H71.69v45.33l13.58,48.16l39.8,2.21l-37.59,59.7l-3.79,15.31l-7.51,30.36l-4.49,18.14
				v77.52c0,8.73,7.08,15.81,15.81,15.81h209.63l25.45-17.82l23.59-19.92l17.69,17.69l77.52,20.05h7.41
				c8.73,0,15.81-7.08,15.81-15.81V347.06l-38.83,10.17l27.35-47.12l-18.84-79.86l30.31,9.68V184.16z"/>
		</g>
	</g>
	<g>
		<g>
			<path fill="#28343A" d="M466.54,242.62c0.86-0.63,1.36-1.62,1.36-2.68v-55.79c0-1.83-1.49-3.32-3.32-3.32H71.69
				c-1.83,0-3.32,1.48-3.32,3.32v45.33c0,0.31,0.04,0.61,0.13,0.9l13.58,48.16c0.38,1.36,1.59,2.33,3.01,2.41l34.17,1.9
				l-34.59,54.93c-0.19,0.3-0.33,0.63-0.41,0.97l-3.79,15.31c-0.44,1.78,0.65,3.58,2.42,4.02c1.79,0.45,3.58-0.64,4.02-2.42
				l3.66-14.79l37.3-59.25c0.63-0.99,0.68-2.24,0.14-3.29c-0.54-1.04-1.59-1.72-2.76-1.79l-37.43-2.08L75,229.02v-41.55h386.26
				v47.93l-25.99-8.3c-1.13-0.36-2.38-0.09-3.26,0.73c-0.88,0.81-1.25,2.03-0.98,3.19l18.54,78.58l-26.69,45.97
				c-0.67,1.16-0.58,2.61,0.23,3.67c0.81,1.07,2.18,1.54,3.48,1.2l34.67-9.08v129.51c0,6.89-5.6,12.49-12.49,12.49h-6.98
				l-76.23-19.72l-17.05-17.05c-1.22-1.22-3.17-1.3-4.48-0.19l-23.48,19.83l-24.47,17.14H87.5c-6.89,0-12.49-5.6-12.49-12.49v-77.11
				l4.39-17.75c0.44-1.78-0.65-3.58-2.42-4.02c-1.78-0.44-3.58,0.65-4.02,2.42l-4.49,18.14c-0.06,0.26-0.1,0.53-0.1,0.8v77.52
				c0,10.55,8.58,19.13,19.13,19.13h209.63c0.68,0,1.34-0.21,1.9-0.6l25.45-17.82c0.08-0.06,0.16-0.12,0.24-0.18l21.26-17.96
				l15.53,15.53c0.42,0.42,0.94,0.72,1.51,0.87l77.52,20.05c0.27,0.07,0.55,0.11,0.83,0.11h7.41c10.55,0,19.13-8.58,19.13-19.13
				V347.06c0-1.03-0.48-2-1.29-2.63c-0.81-0.63-1.87-0.85-2.87-0.58l-31.11,8.15l23.35-40.22c0.42-0.73,0.55-1.6,0.36-2.43
				l-17.49-74.16l24.73,7.9C464.59,243.42,465.69,243.24,466.54,242.62z"/>
		</g>
	</g>
	<g>
		<g>
			<rect x="198.28" y="119.48" fill="#FFD743" width="150.45" height="64.67"/>
		</g>
	</g>
	<g>
		<g>
			<path fill="#28343A" d="M348.72,116.16H198.28c-1.83,0-3.32,1.48-3.32,3.32v64.67c0,1.83,1.49,3.32,3.32,3.32h150.44
				c1.83,0,3.32-1.48,3.32-3.32v-64.67C352.04,117.64,350.55,116.16,348.72,116.16z M345.41,180.84H201.6v-58.04h143.81V180.84z"/>
		</g>
	</g>
	<g>
		<g>
			<polygon fill="#FFD743" points="198.28,184.19 198.28,283.88 243.92,251.6 259.38,283.88 277.87,267.07 299.39,283.88 
				322.92,265.22 348.73,283.88 348.73,184.19 			"/>
		</g>
	</g>
	<g>
		<g>
			<path fill="#28343A" d="M348.72,180.88H198.28c-1.83,0-3.32,1.48-3.32,3.32v99.68c0,1.24,0.69,2.37,1.79,2.95
				c1.1,0.57,2.43,0.48,3.44-0.24l42.43-30.01l13.77,28.73c0.45,0.94,1.33,1.62,2.35,1.82c0.21,0.04,0.42,0.06,0.64,0.06
				c0.82,0,1.61-0.3,2.23-0.86l16.42-14.93l19.31,15.09c1.21,0.95,2.9,0.94,4.1-0.01l21.57-17.1l23.77,17.19
				c1.01,0.73,2.34,0.83,3.45,0.27c1.11-0.57,1.81-1.71,1.81-2.95v-99.68C352.04,182.36,350.55,180.88,348.72,180.88z
				 M345.41,277.39l-20.54-14.86c-1.2-0.87-2.84-0.84-4,0.09l-21.49,17.04l-19.46-15.2c-0.6-0.47-1.32-0.7-2.04-0.7
				c-0.8,0-1.6,0.29-2.23,0.86l-15.19,13.81l-13.54-28.25c-0.42-0.88-1.21-1.53-2.16-1.78c-0.95-0.25-1.95-0.06-2.75,0.5
				l-40.4,28.57v-89.96h143.81L345.41,277.39L345.41,277.39z"/>
		</g>
	</g>
	<g>
		<g>
			<path fill="#FFD743" d="M236.61,433.82h-119.2c-4.31,0-7.81,3.5-7.81,7.81v11.28c0,4.31,3.5,7.81,7.81,7.81h119.2
				c4.31,0,7.81-3.5,7.81-7.81v-11.28C244.42,437.31,240.93,433.82,236.61,433.82z"/>
		</g>
	</g>
	<g>
		<g>
			<path fill="#28343A" d="M236.61,430.5h-119.2c-6.13,0-11.12,4.99-11.12,11.12v11.28c0,6.13,4.99,11.12,11.13,11.12h119.19
				c6.13,0,11.13-4.99,11.13-11.12v-11.28C247.74,435.49,242.75,430.5,236.61,430.5z M241.11,452.91c0,2.48-2.02,4.49-4.49,4.49
				h-119.2c-2.48,0-4.49-2.01-4.49-4.49v-11.28c0-2.48,2.01-4.49,4.49-4.49h119.2c2.48,0,4.49,2.02,4.49,4.49L241.11,452.91
				L241.11,452.91z"/>
		</g>
	</g>
	<g>
		<g>
			<path fill="#FFD743" d="M71.94,24.71c-2.15,25.57-28.8,29.61-28.8,29.61C66.02,55.39,71.72,85.4,71.72,85.4
				C72.21,64,101.18,54,101.18,54C79.48,52.7,71.94,24.71,71.94,24.71z"/>
		</g>
	</g>
	<g>
		<g>
			<path fill="#28343A" d="M101.38,50.69C82.35,49.55,75.21,24.1,75.15,23.84c-0.42-1.55-1.88-2.56-3.5-2.44
				c-1.6,0.15-2.87,1.42-3,3.02c-1.9,22.59-25.01,26.45-25.99,26.61c-1.69,0.25-2.9,1.75-2.81,3.45c0.09,1.7,1.45,3.06,3.16,3.14
				c19.96,0.94,25.42,28.12,25.48,28.39c0.31,1.57,1.68,2.69,3.26,2.69c0.09,0,0.19,0,0.28-0.01c1.69-0.14,3-1.53,3.04-3.23
				c0.43-18.81,26.95-28.25,27.22-28.34c1.49-0.52,2.41-2.02,2.2-3.59C104.25,51.98,102.95,50.78,101.38,50.69z M71.38,73.56
				c-3-6.92-8.2-15.27-16.78-19.63c6.48-3.11,14.17-8.65,18.14-18.29c3.43,6.79,9.28,15.21,18.43,19.29
				C84.52,58.56,75.86,64.67,71.38,73.56z"/>
		</g>
	</g>
	<g>
		<g>
			<path fill="#FFD743" d="M23.97,62.26C22.44,80.34,3.6,83.2,3.6,83.2c16.18,0.76,20.21,21.99,20.21,21.99
				c0.34-15.13,20.83-22.21,20.83-22.21C29.3,82.05,23.97,62.26,23.97,62.26z"/>
		</g>
	</g>
	<g>
		<g>
			<path fill="#28343A" d="M44.84,79.66c-12.75-0.76-17.63-18.1-17.67-18.27c-0.42-1.55-1.9-2.57-3.5-2.44
				c-1.61,0.14-2.87,1.42-3.01,3.02C19.38,77.17,3.76,79.81,3.1,79.92c-1.69,0.25-2.9,1.75-2.81,3.45c0.09,1.7,1.45,3.06,3.16,3.14
				c13.34,0.63,17.08,19.11,17.11,19.29c0.3,1.57,1.68,2.7,3.26,2.7c0.09,0,0.18,0,0.28-0.01c1.69-0.14,3-1.53,3.04-3.23
				c0.29-12.62,18.42-19.09,18.6-19.15c1.49-0.52,2.42-2.02,2.2-3.59C47.71,80.95,46.42,79.76,44.84,79.66z M23.65,94.68
				c-2.04-4.17-5.17-8.73-9.83-11.67c4.1-2.3,8.18-5.81,10.77-10.87c2.34,4.14,5.87,8.74,10.92,11.55
				C31.42,86.12,26.69,89.75,23.65,94.68z"/>
		</g>
	</g>
	<g>
		<g>
			<path fill="#FFD743" d="M23.97,3.32C22.44,21.4,3.6,24.26,3.6,24.26c16.18,0.76,20.21,21.99,20.21,21.99
				c0.34-15.13,20.83-22.21,20.83-22.21C29.3,23.11,23.97,3.32,23.97,3.32z"/>
		</g>
	</g>
	<g>
		<g>
			<path fill="#28343A" d="M44.84,20.72C32.09,19.96,27.22,2.62,27.17,2.45c-0.42-1.55-1.9-2.57-3.5-2.44
				c-1.61,0.14-2.87,1.42-3.01,3.02C19.38,18.23,3.76,20.87,3.1,20.97c-1.69,0.25-2.9,1.75-2.81,3.45c0.09,1.7,1.45,3.06,3.16,3.14
				c13.34,0.63,17.08,19.11,17.11,19.29c0.3,1.57,1.68,2.7,3.26,2.7c0.09,0,0.18,0,0.28-0.01c1.69-0.14,3-1.53,3.04-3.23
				c0.29-12.62,18.42-19.09,18.6-19.15c1.49-0.52,2.42-2.02,2.2-3.59C47.71,22.01,46.42,20.81,44.84,20.72z M23.65,35.75
				c-2.04-4.17-5.17-8.73-9.83-11.67c4.1-2.3,8.17-5.81,10.77-10.87c2.34,4.14,5.87,8.74,10.92,11.55
				C31.42,27.18,26.69,30.81,23.65,35.75z"/>
		</g>
	</g>
	<g>
		<g>
			<path fill="#D34F5C" d="M482.19,122.8h-48.64c6.01,0,10.9,4.86,10.9,10.88v36.26c0,6.01-4.89,10.9-10.9,10.9h48.64
				c6.01,0,10.9-4.89,10.9-10.9v-36.26C493.09,127.66,488.2,122.8,482.19,122.8z"/>
		</g>
	</g>
	<g>
		<g>
			<path fill="#D34F5C" d="M435.29,227.09l25.98,8.31v-47.93h-48.64v47.93l-25.98-8.31c-1.15-0.35-2.39-0.09-3.27,0.73
				s-1.24,2.03-0.97,3.18l18.53,78.58l-26.69,45.99c-0.66,1.15-0.57,2.61,0.24,3.67c0.8,1.06,2.17,1.55,3.47,1.19l34.67-9.09v129.52
				c0,1.66-0.33,3.25-0.91,4.71l30.07,7.78h6.99c6.9,0,12.49-5.59,12.49-12.49V351.35l-34.67,9.09c-1.3,0.35-2.68-0.13-3.47-1.19
				c-0.82-1.06-0.91-2.52-0.24-3.67l26.69-45.99l-18.53-78.58c-0.27-1.15,0.09-2.37,0.97-3.18
				C432.9,227.01,434.14,226.74,435.29,227.09z"/>
		</g>
	</g>
</g>
</svg>
