<?xml version="1.0" encoding="utf-8"?>
<!-- Generator: Adobe Illustrator 23.0.5, SVG Export Plug-In . SVG Version: 6.00 Build 0)  -->
<svg version="1.1" id="Layer_1" xmlns="http://www.w3.org/2000/svg" xmlns:xlink="http://www.w3.org/1999/xlink" x="0px" y="0px"
	 viewBox="0 0 410 493" enable-background="new 0 0 410 493" xml:space="preserve">
<g>
	<g>
		<path fill="#A35623" d="M285.42,199.18c27.98,10.9,55.97,21.81,83.94,32.73c0.76,0.3,1.45,0.76,2.18,1.14
			c-7.94,4.22-16.49,6.95-24.84,10.2c-44.08,17.18-88.13,34.43-132.2,51.63c-9.47,3.69-9.49,3.64-4.67,12.33
			c0.24,0.44,0.45,0.89,0.7,1.32c9.86,17.12,19.84,34.16,29.49,51.4c2,3.57,3.89,4.12,7.48,2.72c31.84-12.46,63.7-24.85,95.6-37.14
			c9.73-3.75,19.14-8.4,29.36-10.82c0.03,36.27,0.01,72.55,0.19,108.82c0.02,3.54-1.77,4.41-4.41,5.43
			c-43.69,16.92-87.35,33.9-131.02,50.87c-8.98,3.49-17.96,7-26.96,10.43c-1.82,0.69-3.54,1.91-5.66,1.58
			c0-61.81,0.01-123.62-0.03-185.44c0-1.91,0.73-4.03-0.96-5.7c0.01-0.67,0.01-1.34,0.02-2.01c1.57-1.49,0.94-3.43,0.94-5.18
			c0.05-12.93,0.02-25.85,0.02-38.78c26.62-1.18,49.02-11.17,66.39-31.73C277.07,215.82,281.22,207.49,285.42,199.18z"/>
		<path fill="#A45E26" d="M203.63,300.7c1.69,1.66,0.95,3.79,0.96,5.7c0.04,61.81,0.03,123.62,0.03,185.44
			c-12.74-4.8-25.52-9.5-38.21-14.42c-41.55-16.1-83.04-32.34-124.63-48.33c-3.94-1.52-5.09-3.47-5.06-7.57
			c0.2-35.6,0.17-71.21,0.22-106.82c1.7-0.11,3.22,0.4,4.81,1.01c40.46,15.78,80.95,31.48,121.41,47.28
			c2.46,0.96,3.92,0.73,5.27-1.71c3.6-6.53,7.4-12.96,11.15-19.41C187.53,328.12,194.98,314.06,203.63,300.7z"/>
		<path fill="#62A4FA" d="M285.42,199.18c-4.21,8.31-8.36,16.64-14.43,23.83c-17.37,20.56-39.77,30.55-66.39,31.73
			c-0.82-0.09-1.64-0.21-2.47-0.25c-26.27-1.49-47.91-12.17-64.74-32.49c-5.66-6.84-9.43-14.79-13.5-22.57
			c-3.12-10.89-5.58-21.8-5.41-33.31c0.64-42.89,35.54-79.83,78.28-83.65c45.03-4.02,87.91,27.97,93.57,76.9
			c1.31,11.32,0.21,22.6-3.27,33.55C286.41,194.98,285.97,197.1,285.42,199.18z M158.96,153.57c-4.88,0.1-8.68,2.06-10.94,6.52
			c-2.54,5.01-1.69,9.74,1.68,14c8.46,10.7,16.97,21.35,25.53,31.97c4.94,6.12,12.5,6.86,18.4,1.73c3.13-2.73,5.95-5.82,8.89-8.76
			c17.07-17.06,34.16-34.1,51.19-51.19c5.87-5.89,6.45-12.9,1.67-18.22c-5.07-5.64-13.32-5.52-19.42,0.54
			c-15.47,15.36-30.9,30.77-46.23,46.27c-2.54,2.57-4.08,3.1-6.51-0.2c-4.53-6.15-9.54-11.96-14.28-17.96
			C166.37,155.02,163.07,153.5,158.96,153.57z"/>
		<path fill="#C26A26" d="M203.63,300.7c-8.65,13.36-16.1,27.42-24.08,41.17c-3.75,6.45-7.55,12.88-11.15,19.41
			c-1.35,2.44-2.81,2.67-5.27,1.71c-40.46-15.79-80.95-31.5-121.41-47.28c-1.59-0.62-3.11-1.12-4.81-1.01
			c-8.82-4.76-18.44-7.57-27.69-11.27c-10.59-4.24-10.65-4.1-5.07-13.8c10.14-17.61,20.27-35.23,30.46-52.82
			c0.94-1.63,1.36-3.95,3.99-3.92c1.02,1.72,2.82,2.19,4.52,2.85c12.82,4.97,25.63,9.99,38.45,14.97
			c25.8,10.01,51.64,19.92,77.4,30.01c14.94,5.85,29.78,11.98,44.66,17.99C203.64,299.36,203.63,300.03,203.63,300.7z"/>
		<path fill="#C26A26" d="M372.47,314.7c-10.22,2.42-19.63,7.07-29.36,10.82c-31.9,12.29-63.77,24.68-95.6,37.14
			c-3.58,1.4-5.48,0.85-7.48-2.72c-9.65-17.24-19.63-34.28-29.49-51.4c-0.25-0.43-0.46-0.89-0.7-1.32
			c-4.81-8.69-4.8-8.64,4.67-12.33c44.07-17.2,88.12-34.45,132.2-51.63c8.34-3.25,16.89-5.98,24.84-10.2
			c1.63,0.22,1.93,1.71,2.56,2.8c11.42,19.76,22.74,39.58,34.27,59.27c1.99,3.39,1.5,4.64-2.17,5.96
			c-9.87,3.55-19.6,7.51-29.38,11.32C375.3,313.01,373.59,313.3,372.47,314.7z"/>
		<path fill="#A45E26" d="M203.64,298.69c-14.88-6-29.72-12.13-44.66-17.99c-25.77-10.09-51.6-20.01-77.4-30.01
			c-12.82-4.97-25.63-9.99-38.45-14.97c-1.71-0.66-3.5-1.13-4.52-2.85c19.62-7.72,39.23-15.44,58.85-23.15
			c8.8-3.46,17.62-6.87,26.43-10.3c4.08,7.77,7.84,15.73,13.51,22.57c16.83,20.32,38.47,31,64.74,32.49
			c0.82,0.05,1.65,0.17,2.47,0.25c0,12.93,0.03,25.85-0.02,38.78C204.58,295.27,205.22,297.2,203.64,298.69z"/>
		<path fill="#F9D80F" d="M65.33,78.92c2.14,0.05,3.91,0.95,5.64,1.95c9.64,5.54,19.29,11.06,28.9,16.66
			c4.99,2.91,6.54,7.55,4.05,11.62c-2.38,3.9-6.94,4.72-11.83,1.94C82,105.34,71.93,99.53,61.9,93.66c-3.38-1.98-4.78-5.07-3.8-8.91
			C59.04,81.08,61.85,79.48,65.33,78.92z"/>
		<path fill="#F9D80F" d="M212.52,27.52c0,5.49,0.06,10.98-0.02,16.46c-0.08,5.81-3.33,9.53-8.06,9.41
			c-4.58-0.11-7.68-3.7-7.72-9.22c-0.06-11.31-0.06-22.62,0-33.92c0.03-5.42,3.24-9.07,7.78-9.14c4.54-0.07,7.9,3.58,7.99,8.95
			C212.59,15.87,212.52,21.7,212.52,27.52z"/>
		<path fill="#F9D80F" d="M150.73,60.51c-0.28,4.17-2.09,6.59-5.43,7.69c-3.86,1.27-6.97-0.13-9.02-3.44
			c-3.15-5.1-6.07-10.34-9.07-15.53c-3.08-5.33-6.27-10.61-9.19-16.03c-2.25-4.18-0.92-8.64,2.87-10.79
			c3.62-2.06,8.02-1.17,10.43,2.84c6.33,10.57,12.36,21.33,18.43,32.05C150.38,58.41,150.52,59.81,150.73,60.51z"/>
		<path fill="#F9D80F" d="M291.68,31.09c0.15,1.94-0.62,3.59-1.55,5.19c-5.58,9.65-11.11,19.34-16.76,28.95
			c-3.11,5.29-7.31,6.81-11.52,4.42c-4.1-2.33-4.95-6.93-1.99-12.16c5.57-9.85,11.26-19.64,16.9-29.45c2.07-3.61,5.18-5.19,9.23-4.2
			C289.67,24.73,291.48,27.36,291.68,31.09z"/>
		<path fill="#F9D80F" d="M349.33,91.07c-0.12,2.48-1.67,4.77-4.27,6.28c-10.22,5.94-20.43,11.91-30.75,17.67
			c-4.56,2.54-9.02,1.26-11.23-2.68c-2.18-3.89-0.77-8.34,3.72-10.97c10.07-5.87,20.14-11.75,30.33-17.39
			C343.04,80.71,349.45,84.26,349.33,91.07z"/>
		<path fill="#F9D80F" d="M343.24,178.28c-5.31,0-10.63,0.08-15.94-0.02c-6.4-0.12-9.84-3.06-9.76-8.14
			c0.08-4.91,3.38-7.56,9.62-7.58c10.96-0.04,21.92-0.04,32.88,0c6.02,0.02,9.56,2.91,9.58,7.68c0.03,4.71-3.61,7.91-9.44,8.04
			C354.53,178.38,348.88,178.28,343.24,178.28z"/>
		<path fill="#F9D80F" d="M61.23,173.93c-5.81,0-11.63,0.11-17.44-0.03c-5.23-0.13-8.37-3.27-8.27-7.92
			c0.09-4.42,3.16-7.46,8.16-7.51c11.96-0.12,23.92-0.12,35.87,0.01c4.9,0.05,8.03,3.25,8.06,7.64c0.03,4.39-3.1,7.64-7.94,7.77
			C73.52,174.06,67.38,173.93,61.23,173.93z"/>
	</g>
</g>
</svg>
