<?xml version="1.0" encoding="utf-8"?>
<!-- Generator: Adobe Illustrator 23.1.0, SVG Export Plug-In . SVG Version: 6.00 Build 0)  -->
<svg version="1.1" id="Layer_1" xmlns="http://www.w3.org/2000/svg" xmlns:xlink="http://www.w3.org/1999/xlink" x="0px" y="0px"
	 viewBox="0 0 500 500" style="enable-background:new 0 0 500 500;" xml:space="preserve">
<style type="text/css">
	.st0{fill:#F7C240;}
	.st1{fill:#434A52;}
</style>
<g>
	<path class="st0" d="M71.4,395c0-29.6,0-59.2,0-88.7c0-12.6,3.9-16.5,16.6-16.5c16,0,32.1,0,48.1,0c6.8,0,6.7,0,6.7-6.5
		c0-32.1,0-64.1,0-96.2c0-12.3,4-16.4,16.3-16.4c37.3,0,74.7,0,112,0c10.3,0,14.5,4.1,14.5,14.3c0,38,0,76,0,114
		c0,10.8-3.8,14.5-14.6,14.6c-56.5,0-113,0-169.5,0c-6.3,0-6.3,0-6.3,6.5c0,49.9,0,99.8,0,149.7c0,6.5,0,6.5,6.3,6.5
		c43.8,0,87.6,0,131.4,0c7.8,0,12.6,4,13,10.6c0.5,8.1-4.2,13.2-12.4,13.2c-24.1,0.1-48.3,0-72.4,0c-24.8,0-49.6,0-74.4,0
		c-10.9,0-15.3-4.4-15.3-15.3C71.4,454.8,71.4,424.9,71.4,395z"/>
	<path class="st1" d="M309.6,217.9c0-45.8-0.1-91.6,0-137.3c0.1-37.4,24.3-68.8,59.9-78c5.6-1.5,11.3-2.4,17.1-2.4
		c10.1-0.1,20.2-0.2,30.2,0c7,0.1,11.9,5.4,11.7,12.1c-0.1,6.6-4.8,11.4-11.7,11.6c-8.6,0.2-17.2,0-25.8,0.1
		c-33.2,0.1-57.3,23.7-57.6,56.9c-0.3,28.9-0.1,57.8-0.1,86.8c0,2.4,0,4.2,3.1,5.2c28.1,8.6,44.3,29.9,44.5,59
		c0.2,47.8,0,95.5,0.1,143.3c0,5.3-1.2,9.9-6.3,12.5c-4.1,2.1-8.3,1.9-12.2-0.6c-4.5-3-5.4-7.6-5.4-12.6c0-26.3,0-52.6,0-78.8
		c0-21.7,0-43.3,0-65c0-13.9-6.2-24.4-18.1-31.5c-5-3-5.6-2.6-5.6,3.2c0,51.4,0,102.8,0,154.2c0,2.1,0,4.3-0.2,6.4
		c-0.7,5.7-5.2,9.9-11,10.2c-5.7,0.3-10.8-3.4-12.1-8.9c-0.5-2.2-0.6-4.6-0.6-6.9C309.6,310.7,309.6,264.3,309.6,217.9z"/>
	<path class="st1" d="M373.1,448.4c0.1,28.4-23.2,51.7-51.6,51.6c-28.2,0-51.2-23-51.5-51.4c-0.3-28.3,23.1-51.8,51.5-51.8
		C350.1,396.8,373,419.7,373.1,448.4z M349.2,448.3c0-15.3-12.4-27.7-27.7-27.7c-15.3,0-27.7,12.3-27.8,27.6
		c-0.1,15.5,12.5,28,28,27.9C337.1,476.1,349.2,463.8,349.2,448.3z"/>
</g>
</svg>
