<?xml version="1.0" encoding="utf-8"?>
<!-- Generator: Adobe Illustrator 23.0.5, SVG Export Plug-In . SVG Version: 6.00 Build 0)  -->
<svg version="1.1" id="Layer_1" xmlns="http://www.w3.org/2000/svg" xmlns:xlink="http://www.w3.org/1999/xlink" x="0px" y="0px"
	 viewBox="0 0 500 200" enable-background="new 0 0 500 200" xml:space="preserve">
<g>
	<rect x="396.64" y="82.42" fill="#9AE5FC" width="21.03" height="12.26"/>
	<g>
		<g>
			
				<rect x="101.63" y="19.81" fill="none" stroke="#4E4868" stroke-width="14" stroke-miterlimit="10" width="230.82" height="108.83"/>
			<path fill="none" stroke="#4E4868" stroke-width="14" stroke-miterlimit="10" d="M350.15,55.41V33.74c2.62-0.24,3.74-0.27,6.72,0
				c17.43,1.61,29.47,12.85,34.67,18.46"/>
			<path fill="none" stroke="#4E4868" stroke-width="14" stroke-miterlimit="10" d="M349.3,135.07V66.82c0-1.28,1.05-2.33,2.33-2.33
				h66.68c1.68,0,3.31,0.6,4.59,1.7l2.22,1.9c1.81,1.56,2.86,3.82,2.86,6.2v3.8h-4.28h-36.18c-0.57,0-1.03,0.46-1.03,1.03v23.51
				c0,0.56,0.33,1.06,0.85,1.27l15.1,6.25c1.03,0.42,1.7,1.43,1.7,2.54v8.75"/>
			<path fill="none" stroke="#4E4868" stroke-width="14" stroke-miterlimit="10" d="M422.85,78.48v23.28c0,0.84,0.21,1.67,0.61,2.41
				l3.08,5.74c0.38,0.71,0.59,1.51,0.59,2.33v34.47c0,1.16-0.94,2.1-2.1,2.1h-18.52"/>
			<line fill="none" stroke="#4E4868" stroke-width="14" stroke-miterlimit="10" x1="354.77" y1="163.41" x2="220.72" y2="163.41"/>
			<line fill="none" stroke="#4E4868" stroke-width="14" stroke-miterlimit="10" x1="432.97" y1="163.41" x2="406.52" y2="163.41"/>
			<line fill="none" stroke="#4E4868" stroke-width="14" stroke-miterlimit="10" x1="128.33" y1="163.41" x2="98.08" y2="163.41"/>
			<circle fill="none" stroke="#4E4868" stroke-width="12" stroke-miterlimit="10" cx="379.96" cy="160.02" r="15.06"/>
			<circle fill="none" stroke="#4E4868" stroke-width="12" stroke-miterlimit="10" cx="195.94" cy="160.02" r="15.06"/>
			<circle fill="none" stroke="#4E4868" stroke-width="12" stroke-miterlimit="10" cx="151.47" cy="160.02" r="15.06"/>
		</g>
	</g>
	<path fill="#EFDD03" d="M421.14,128.65L421.14,128.65c-5.54,0-10.03,4.49-10.03,10.03v4.22c0,0.09,0.08,0.17,0.17,0.17h9.86
		c0.09,0,0.17-0.08,0.17-0.17v-14.07C421.31,128.73,421.24,128.65,421.14,128.65z"/>
	<path fill="#9AE5FC" d="M108.63,38.34c13.54,0,27.08-0.06,40.62,0.03c5.09,0.03,8.47,3.18,8.3,7.32c-0.16,4-3.41,6.67-8.31,6.85
		c-0.81,0.03-1.63,0.01-2.45,0.01c-12.72,0-25.45,0-38.17-0.01C108.75,47.98,108.69,43.06,108.63,38.34z"/>
	<rect x="108.59" y="99.78" fill="#EAE9ED" width="217.14" height="21.59"/>
	<path fill="#EAE9ED" d="M440.37,30.37c-0.01,12.14-8.31,19.68-20.83,20.26c-12.06,0.56-20.54-10.99-20.42-20.98
		c0.11-9.35,8.43-21.19,21.67-20.34C432.24,10.04,440.38,18.13,440.37,30.37z M425.34,30c-0.97-2.81-1.99-5.75-5.85-5.46
		c-3.46,0.26-4.87,2.93-4.96,5.8c-0.1,3.46,2.82,4.97,5.68,4.81C422.82,35.01,425.2,33.39,425.34,30z"/>
	<path fill="#DBDAE1" d="M80.49,165.88c-4.91,0-7.92-2.88-7.77-8.17c0.1-3.6-0.78-5.1-4.69-4.93c-4.89,0.22-8.01-2.76-8.38-7.18
		c-0.35-4.25,3-8.45,7.88-8.52c4.23-0.07,5.4-1.44,5.23-5.5c-0.16-3.65,4.18-7.34,7.99-7.54c3.29-0.17,7.74,3.81,7.74,7.83
		c0,3.85,1.15,5.01,5.03,5.31c5.22,0.4,8.24,4.09,8.1,8.37c-0.14,4.32-3.13,6.98-8.97,7.27c-3.51,0.17-3.95,1.99-4.08,4.85
		C88.34,162.45,84.79,165.88,80.49,165.88z"/>
	<path fill="#4E4868" d="M232.98,190.73h-111c-2.64,0-4.78-2.6-4.78-5.81l0,0c0-3.22,2.13-5.81,4.78-5.81h111
		c2.64,0,4.78,2.6,4.78,5.81l0,0C237.76,188.13,235.63,190.73,232.98,190.73z"/>
	<path fill="#4E4868" d="M420.4,190.73h-111c-2.64,0-4.78-2.6-4.78-5.81l0,0c0-3.22,2.13-5.81,4.78-5.81h111
		c2.64,0,4.78,2.6,4.78,5.81l0,0C425.18,188.13,423.05,190.73,420.4,190.73z"/>
	<path fill="#4E4868" d="M108.07,190.73H95.19c-3.22,0-5.81-2.6-5.81-5.81l0,0c0-3.22,2.6-5.81,5.81-5.81h12.88
		c3.22,0,5.81,2.6,5.81,5.81l0,0C113.88,188.13,111.28,190.73,108.07,190.73z"/>
</g>
</svg>
