<?xml version="1.0" encoding="utf-8"?>
<!-- Generator: Adobe Illustrator 23.0.5, SVG Export Plug-In . SVG Version: 6.00 Build 0)  -->
<svg version="1.1" id="Layer_1" xmlns="http://www.w3.org/2000/svg" xmlns:xlink="http://www.w3.org/1999/xlink" x="0px" y="0px"
	 viewBox="0 0 500 200" enable-background="new 0 0 500 200" xml:space="preserve">
<g>
	<rect x="405.6" y="81.35" fill="#9AE5FC" width="22.31" height="13.01"/>
	<g>
		<g>
			<path fill="none" stroke="#4E4868" stroke-width="12" stroke-miterlimit="10" d="M97.57,14.91h234.92c2.76,0,5,2.24,5,5v110.48
				H92.57V19.91C92.57,17.15,94.81,14.91,97.57,14.91z"/>
			<path fill="none" stroke="#4E4868" stroke-width="12" stroke-miterlimit="10" d="M356.27,52.69V34.54c0-2.87,2.41-5.17,5.28-4.99
				c0.55,0.03,1.15,0.08,1.85,0.14c18.49,1.71,31.27,13.64,36.79,19.59"/>
			<path fill="none" stroke="#4E4868" stroke-width="12" stroke-miterlimit="10" d="M355.37,137.21V64.79
				c0-1.36,1.11-2.47,2.47-2.47h70.75c1.78,0,3.51,0.64,4.87,1.8l2.36,2.02c1.92,1.66,3.03,4.05,3.03,6.58v4.03h-4.54h-38.39
				c-0.6,0-1.09,0.49-1.09,1.09v24.95c0,0.59,0.35,1.12,0.9,1.35l16.02,6.63c1.09,0.45,1.8,1.52,1.8,2.7v9.28"/>
			<path fill="none" stroke="#4E4868" stroke-width="12" stroke-miterlimit="10" d="M433.41,77.17v24.7c0,0.89,0.22,1.77,0.65,2.56
				l3.27,6.09c0.4,0.75,0.63,1.6,0.63,2.47v36.58c0,1.23-1,2.23-2.23,2.23h-19.65"/>
			<line fill="none" stroke="#4E4868" stroke-width="12" stroke-miterlimit="10" x1="361.17" y1="167.29" x2="218.93" y2="167.29"/>
			<line fill="none" stroke="#4E4868" stroke-width="12" stroke-miterlimit="10" x1="444.15" y1="167.29" x2="416.08" y2="167.29"/>
			<line fill="none" stroke="#4E4868" stroke-width="14" stroke-miterlimit="10" x1="120.9" y1="167.29" x2="88.8" y2="167.29"/>
			<circle fill="none" stroke="#4E4868" stroke-width="12" stroke-miterlimit="10" cx="387.9" cy="163.69" r="15.98"/>
			<circle fill="none" stroke="#4E4868" stroke-width="12" stroke-miterlimit="10" cx="192.64" cy="163.69" r="15.98"/>
			<circle fill="none" stroke="#4E4868" stroke-width="12" stroke-miterlimit="10" cx="145.45" cy="163.69" r="15.98"/>
		</g>
	</g>
	<path fill="#EFDD03" d="M431.6,130.4L431.6,130.4c-5.88,0-10.64,4.76-10.64,10.64v4.48c0,0.1,0.08,0.18,0.18,0.18h10.46
		c0.1,0,0.18-0.08,0.18-0.18v-14.93C431.78,130.49,431.7,130.4,431.6,130.4z"/>
	<path fill="#9AE5FC" d="M100,34.57c14.37,0,28.73-0.06,43.1,0.03c5.4,0.03,8.99,3.37,8.81,7.77c-0.17,4.24-3.62,7.08-8.82,7.27
		c-0.86,0.03-1.73,0.01-2.6,0.01c-13.5,0-27,0-40.5-0.01C100.12,44.8,100.06,39.58,100,34.57z"/>
	<rect x="99.95" y="99.77" fill="#EAE9ED" width="230.41" height="22.91"/>
	<path fill="#EAE9ED" d="M452,26.12C451.99,39,443.18,47,429.9,47.62c-12.8,0.59-21.79-11.66-21.67-22.26
		c0.12-9.92,8.94-22.48,22.99-21.58C443.38,4.55,452.01,13.13,452,26.12z M436.05,25.73c-1.03-2.98-2.11-6.1-6.21-5.79
		c-3.67,0.28-5.17,3.11-5.26,6.15c-0.11,3.67,2.99,5.27,6.03,5.1C433.38,31.04,435.91,29.32,436.05,25.73z"/>
	<path fill="#DBDAE1" d="M70.14,169.91c-5.21,0-8.4-3.06-8.24-8.67c0.11-3.82-0.83-5.41-4.98-5.23c-5.19,0.23-8.5-2.93-8.89-7.62
		c-0.37-4.51,3.18-8.97,8.36-9.04c4.49-0.07,5.73-1.53,5.55-5.84c-0.17-3.87,4.44-7.79,8.48-8c3.49-0.18,8.21,4.04,8.21,8.31
		c0,4.09,1.22,5.32,5.34,5.63c5.54,0.42,8.74,4.34,8.59,8.88c-0.15,4.58-3.32,7.41-9.52,7.71c-3.72,0.18-4.19,2.11-4.33,5.15
		C78.47,166.27,74.7,169.91,70.14,169.91z"/>
	<path fill="#4E4868" d="M231.94,197.27H114.16c-2.8,0-5.07-2.76-5.07-6.16l0,0c0-3.42,2.26-6.16,5.07-6.16h117.78
		c2.8,0,5.07,2.76,5.07,6.16l0,0C237.01,194.52,234.75,197.27,231.94,197.27z"/>
	<path fill="#4E4868" d="M430.81,197.27H313.03c-2.8,0-5.07-2.76-5.07-6.16l0,0c0-3.42,2.26-6.16,5.07-6.16h117.78
		c2.8,0,5.07,2.76,5.07,6.16l0,0C435.88,194.52,433.62,197.27,430.81,197.27z"/>
	<path fill="#4E4868" d="M99.4,197.27H85.74c-3.42,0-6.16-2.76-6.16-6.16l0,0c0-3.42,2.76-6.16,6.16-6.16H99.4
		c3.42,0,6.16,2.76,6.16,6.16l0,0C105.57,194.52,102.81,197.27,99.4,197.27z"/>
</g>
</svg>
