<?xml version="1.0" encoding="utf-8"?>
<!-- Generator: Adobe Illustrator 23.0.5, SVG Export Plug-In . SVG Version: 6.00 Build 0)  -->
<svg version="1.1" id="Layer_1" xmlns="http://www.w3.org/2000/svg" xmlns:xlink="http://www.w3.org/1999/xlink" x="0px" y="0px"
	 viewBox="0 0 500 200" enable-background="new 0 0 500 200" xml:space="preserve">
<g>
	<g>
		<g>
			<path fill="#9AE5FC" d="M329.72,65.5c6.79,0,13.17-0.12,19.55,0.1c1.34,0.04,2.89,1.07,3.93,2.07
				c8.01,7.66,12.72,17.22,15.71,27.75c-5.15,1.62-7.03,1.17-9.03-3.26c-2.35-5.21-5.98-7.61-11.67-7.99
				c-5.36-0.37-10.67-1.5-15.97-2.52c-0.95-0.18-2.37-1.41-2.41-2.21C329.61,74.95,329.72,70.44,329.72,65.5z"/>
			<path fill="#4E4868" d="M136.81,153.05c-2.75,1.25-5,2.11-7.05,3.29c-0.63,0.36-0.97,1.58-1.07,2.45
				c-0.45,3.81-2.14,5.73-5.17,5.59c-2.93-0.14-4.54-2.27-4.56-6.1c-0.01-3.42,0.06-6.85-0.02-10.27c-0.07-2.98,0.34-5.69,3.73-6.49
				c3.35-0.79,5.1,1.27,6.12,4.11c7.52-1.85,8.49-2.82,7.56-8.03c-2.3,0-4.7,0.03-7.1-0.01c-5.09-0.07-6.49-1.43-6.49-6.52
				c-0.01-29.82,0-59.65,0.01-89.47c0-4.65-0.04-9.28,0.01-13.92c0.06-5.52,1.17-6.63,6.63-6.63c30.6-0.02,61.19-0.03,91.79-0.04
				c27.5-0.01,55-0.03,82.5-0.04c5.59,0,6.74,1.08,6.84,6.78c0.07,4.42,0.17,8.84-0.02,13.25c-0.13,2.93,0.7,4.03,3.87,3.98
				c11.38-0.18,22.77,0.29,34.13-0.18c9.38-0.38,16.72,3.08,23.02,9.57c10.37,10.66,17.13,23.5,22,37.36
				c7.14,20.31,7.32,41.1,3.63,62.07c-0.37,2.13-1.31,4.22-2.27,6.19c-2.01,4.17-5.36,6.22-10.1,6.1
				c-5.08-0.13-10.16,0.06-15.25-0.06c-2.39-0.06-3.35,0.48-3.68,3.17c-1.58,12.86-9.98,22.14-21.98,24.76
				c-12.2,2.66-24.5-2.18-30.85-12.37c-1.38-2.22-2.37-4.74-3.16-7.23c-0.8-2.5-1.13-5.16-1.74-8.11c-29.71,0-59.58,0-89.71,0
				c-0.28,1.58-0.56,3.17-0.82,4.77c-1.88,11.94-11.24,21.44-22.84,23.15c-13.85,2.05-25.42-3.46-30.9-15.07
				c-1.52-3.23-2.37-6.84-3.08-10.37c-0.38-1.89-0.88-2.66-2.87-2.62c-4.96,0.1-9.94,0.06-14.92,0.01c-4.57-0.04-6.15-1.66-6.2-6.21
				C136.79,157.82,136.81,155.77,136.81,153.05z M301.07,127.95c0-4.1,0-7.71,0-11.31c0-27.39-0.05-54.77,0.06-82.16
				c0.01-3.22-0.98-4.07-4.11-4.04c-14.02,0.16-28.04,0.09-42.06,0.09c-39.75,0-79.51,0.02-119.26-0.05c-2.5,0-3.48,0.54-3.48,3.28
				c0.09,29.93,0.03,59.84,0.04,89.77c0,4.42,0.09,4.43,4.58,4.43c47.59,0,95.17,0,142.76,0
				C286.54,127.95,293.49,127.95,301.07,127.95z M310.57,153.35c0.71-0.37,0.99-0.43,1.07-0.58c5.86-10.74,14.99-16.07,27.12-15.48
				c11.84,0.56,20.28,6.56,25.27,17.42c0.37,0.81,1.79,1.6,2.74,1.63c5.63,0.16,11.26,0.18,16.9,0.02c1.07-0.03,2.75-0.86,3.05-1.7
				c1.1-3.14,1.75-6.46,2.47-9.35c-4.79-1.83-9.01-3.14-12.95-5.02c-3.75-1.78-5.75-4.89-5.49-9.35c0.23-3.96,0.04-7.95,0.06-11.92
				c0.02-4.15,1.56-5.73,5.81-5.82c3.95-0.07,7.91-0.01,12.22-0.01c-0.17-1.5-0.23-2.58-0.43-3.63
				c-2.03-11.06-5.75-21.58-11.54-31.17c-3.91-6.47-8.59-12.53-13.44-18.33c-3.43-4.11-8.19-5.86-13.86-5.72
				c-11.59,0.3-23.19,0.2-34.78,0c-3.37-0.06-4.29,0.94-4.28,4.27c0.13,25.84,0.07,51.66,0.09,77.49
				C310.57,141.7,310.57,147.32,310.57,153.35z M198.46,137.71c-0.04,0.21-0.09,0.43-0.14,0.64c0.65,0.29,1.3,0.58,1.96,0.85
				c6.8,2.87,11.96,7.55,15,14.25c1.14,2.5,2.58,3.01,5.04,3c17.45-0.07,34.89-0.03,52.34-0.03c8.4,0,16.79,0.05,25.19-0.07
				c1.05-0.01,2.99-0.88,3.01-1.42c0.22-5.68,0.14-11.38,0.14-17.24C266.52,137.71,232.49,137.71,198.46,137.71z M189.57,146.85
				c-11.07-0.16-19.46,8.19-19.51,19.4c-0.03,10.05,8.65,18.71,18.87,18.83c10.57,0.12,19.4-8.16,19.58-18.35
				C208.72,155.38,200.74,147.01,189.57,146.85z M337.52,185.09c10.45-0.06,19.11-8.68,19.02-18.93
				c-0.11-11.32-8.26-19.39-19.53-19.32c-10.78,0.07-18.87,8.35-18.86,19.32C318.18,176.65,326.87,185.15,337.52,185.09z
				 M146.64,137.74c0,6.39,0,12.3,0,18.7c2.6,0.19,5.5,0.26,8.65,0.06c1.62-0.1,3.16-0.26,4.61-0.45c0.82-1.99,1.97-4.25,3.63-6.53
				c5.24-7.24,12.3-10.44,15.99-11.78C168.56,137.74,157.6,137.74,146.64,137.74z M389.79,134.85c0-2.23,0.11-3.97-0.02-5.7
				c-0.54-7.57,1.09-6.35-6.96-6.51c-0.22,0-0.51-0.07-0.65,0.03c-0.6,0.48-1.52,0.93-1.67,1.56c-1.45,6-0.15,8.15,5.76,9.78
				C387.19,134.28,388.15,134.47,389.79,134.85z"/>
			<path fill="#EFDD03" d="M389.79,134.85c-1.64-0.38-2.6-0.58-3.53-0.83c-5.91-1.64-7.22-3.78-5.76-9.78
				c0.15-0.62,1.08-1.07,1.67-1.56c0.14-0.11,0.43-0.04,0.65-0.03c8.04,0.15,6.41-1.07,6.96,6.51
				C389.9,130.88,389.79,132.62,389.79,134.85z"/>
			<path fill="#4E4868" d="M317.83,77.61c0-3.97-0.05-7.95,0.01-11.92c0.05-3.31,1.81-5.21,5.08-5.25
				c8.61-0.09,17.25-0.4,25.81,0.18c2.96,0.2,6.18,2.3,8.58,4.36c6.88,5.92,11.69,13.49,15.19,21.82
				c2.17,5.18,3.97,10.52,5.86,15.81c1.7,4.8-0.2,7.48-5.29,7.53c-4.96,0.05-9.94,0.01-14.9,0.05c-2.68,0.02-4.93-0.95-5.81-3.52
				c-2.32-6.81-7.31-9.07-14.06-9.4c-4.83-0.23-9.6-1.34-14.39-2.12c-4.35-0.7-5.51-1.97-5.6-6.3c-0.09-3.75-0.02-7.5-0.02-11.25
				C318.13,77.61,317.98,77.61,317.83,77.61z M327.73,70.14c0,4.94-0.12,9.44,0.12,13.92c0.04,0.8,1.46,2.02,2.41,2.21
				c5.29,1.02,10.61,2.15,15.97,2.52c5.69,0.39,9.32,2.79,11.67,7.99c2,4.44,3.89,4.88,9.03,3.26c-2.99-10.54-7.7-20.08-15.71-27.75
				c-1.04-1-2.59-2.02-3.93-2.07C340.91,70.03,334.52,70.14,327.73,70.14z"/>
			<path fill="#4E4868" d="M203.69,165.69c0,8.34-6.08,14.53-14.3,14.53c-8.24,0.01-14.37-6.15-14.39-14.45
				c-0.02-7.85,6.39-14.25,14.32-14.3C197.25,151.45,203.69,157.82,203.69,165.69z M194.04,165.91c0.01-2.7-2.11-4.83-4.76-4.78
				c-2.46,0.04-4.62,2.14-4.72,4.58c-0.11,2.61,2.01,4.83,4.68,4.9C191.95,170.67,194.03,168.64,194.04,165.91z"/>
			<path fill="#4E4868" d="M351.65,165.98c-0.16,8.5-6.39,14.47-14.88,14.25c-7.96-0.2-13.92-6.62-13.74-14.74
				c0.18-7.93,6.66-14.14,14.57-13.97C345.64,151.7,351.8,158.04,351.65,165.98z M342.15,165.98c0.06-2.55-2.24-4.88-4.78-4.87
				c-2.51,0.02-4.6,2.01-4.74,4.52c-0.15,2.71,1.83,4.85,4.56,4.95C339.87,170.7,342.08,168.65,342.15,165.98z"/>
		</g>
	</g>
	<path d="M160.83,148.1"/>
	<path d="M160.99,143.64"/>
	<path fill="#9AE5FC" d="M132.42,41.08c9.14,0,18.28-0.03,27.42,0.02c3.43,0.02,5.71,2.11,5.6,4.85c-0.11,2.65-2.3,4.42-5.61,4.54
		c-0.55,0.02-1.1,0.01-1.65,0.01c-8.59,0-17.17,0-25.77,0C132.14,47.35,132.16,44.22,132.42,41.08z"/>
	<rect x="132.26" y="100.92" fill="#EAE9ED" width="168.81" height="27.03"/>
	<path fill="#DBDAE1" d="M114.34,28.25c-3.1-0.01-5.32-2.13-5.21-5.42c0.07-2.4-0.56-3.31-3.12-3.26c-3.48,0.06-5.55-2.09-5.56-5.18
		c0-2.77,2.17-4.82,5.54-4.68c2.55,0.11,3.2-0.8,3.14-3.23c-0.06-3.27,2.39-5.99,4.93-5.99c2.97,0,5.61,2.76,5.57,6.09
		c-0.03,2.09,0.07,3.06,2.83,2.78c3.64-0.35,5.75,1.84,5.82,4.84c0.07,3.26-1.88,5.27-5.71,5.37c-2.44,0.05-2.93,1.16-2.94,3.29
		C119.6,26.21,117.46,28.26,114.34,28.25z"/>
	<g>
		<path fill="#EAE9ED" d="M341.38,28.17c-0.01,8.05-5.51,13.04-13.81,13.43c-7.99,0.37-13.62-7.29-13.54-13.9
			c0.07-6.2,5.59-14.04,14.36-13.48C335.99,14.7,341.39,20.06,341.38,28.17z M331.4,27.92c-0.65-1.86-1.32-3.81-3.88-3.62
			c-2.29,0.17-3.23,1.94-3.28,3.85c-0.06,2.29,1.86,3.29,3.76,3.19C329.74,31.25,331.32,30.17,331.4,27.92z"/>
		<path fill="#FCFBFC" d="M331.4,27.92c-0.1,2.25-1.66,3.32-3.4,3.42c-1.9,0.11-3.84-0.89-3.76-3.19c0.05-1.91,0.99-3.68,3.28-3.85
			C330.09,24.11,330.77,26.06,331.4,27.92z"/>
	</g>
	<path fill="#DBDAE1" d="M384.79,55.64c-3.26,0-5.25-1.91-5.15-5.41c0.06-2.39-0.52-3.39-3.11-3.27c-3.25,0.15-5.32-1.83-5.55-4.76
		c-0.23-2.81,1.99-5.59,5.22-5.65c2.8-0.04,3.58-0.96,3.46-3.64c-0.11-2.42,2.77-4.87,5.29-5c2.18-0.12,5.14,2.52,5.14,5.19
		c0,2.55,0.77,3.31,3.33,3.52c3.46,0.27,5.47,2.72,5.37,5.55c-0.1,2.87-2.07,4.62-5.94,4.82c-2.32,0.12-2.62,1.32-2.71,3.22
		C389.99,53.37,387.65,55.64,384.79,55.64z"/>
	<path fill="#4E4868" d="M231.84,198.37h-86.23c-2.06,0-3.71-1.66-3.71-3.71l0,0c0-2.06,1.66-3.71,3.71-3.71h86.23
		c2.06,0,3.71,1.66,3.71,3.71l0,0C235.56,196.72,233.89,198.37,231.84,198.37z"/>
	<path fill="#4E4868" d="M370.83,199.5h-86.23c-2.06,0-3.71-1.66-3.71-3.71l0,0c0-2.06,1.66-3.71,3.71-3.71h86.23
		c2.06,0,3.71,1.66,3.71,3.71l0,0C374.53,197.84,372.88,199.5,370.83,199.5z"/>
	<path fill="#4E4868" d="M133.52,198.37h-8.21c-2.06,0-3.71-1.66-3.71-3.71l0,0c0-2.06,1.66-3.71,3.71-3.71h8.21
		c2.06,0,3.71,1.66,3.71,3.71l0,0C137.23,196.72,135.57,198.37,133.52,198.37z"/>
</g>
</svg>
