<?xml version="1.0" encoding="utf-8"?>
<!-- Generator: Adobe Illustrator 23.0.5, SVG Export Plug-In . SVG Version: 6.00 Build 0)  -->
<svg version="1.1" id="Layer_1" xmlns="http://www.w3.org/2000/svg" xmlns:xlink="http://www.w3.org/1999/xlink" x="0px" y="0px"
	 viewBox="0 0 500 200" style="enable-background:new 0 0 500 200;" xml:space="preserve">
<style type="text/css">
	.st0{fill:none;stroke:#0F0F0F;stroke-width:14;stroke-miterlimit:10;}
</style>
<image style="display:none;overflow:visible;enable-background:new    ;" width="150" height="76" xlink:href="85F39B0.png"  transform="matrix(2.6547 0 0 2.6547 1.3096 -1.76)">
</image>
<g>
	<g>
		<rect x="194.1" y="9.7" class="st0" width="250.7" height="121.9"/>
		<path class="st0" d="M172.6,137.6V50.2c0-2.5-2.5-4.5-5.7-4.5h-55.3c-6.6,0-13.1,1.7-18.3,5c-4.8,3-10.2,7-14.9,12.3
			C69.8,72.7,67.7,81.9,67,86.8v50.3c0,2.1,2.1,3.7,4.7,3.7h38.1"/>
		<line class="st0" x1="60.2" y1="163.7" x2="103.1" y2="163.7"/>
		<path class="st0" d="M146.3,51.7v29.7c0,4.5-4,8.4-9.6,9.3l-40.6,6.7c-4.9,0.8-8.5,4.3-8.5,8.3v6.8"/>
		<line class="st0" x1="174.6" y1="163.7" x2="305" y2="163.7"/>
		<line class="st0" x1="377.6" y1="163.7" x2="424.4" y2="163.7"/>
	</g>
	<circle class="st0" cx="138.9" cy="171" r="22.5"/>
	<circle class="st0" cx="341" cy="171" r="22.5"/>
</g>
</svg>
