<?xml version="1.0" encoding="utf-8"?>
<!-- Generator: Adobe Illustrator 23.0.5, SVG Export Plug-In . SVG Version: 6.00 Build 0)  -->
<svg version="1.1" id="Layer_1" xmlns="http://www.w3.org/2000/svg" xmlns:xlink="http://www.w3.org/1999/xlink" x="0px" y="0px"
	 viewBox="0 0 500 200" enable-background="new 0 0 500 200" xml:space="preserve">
<g>
	<g>
		<path fill="#9AE5FC" d="M325.48,74.22c6.37,0,12.36-0.11,18.35,0.09c1.26,0.04,2.71,1,3.69,1.94
			c7.52,7.19,11.94,16.16,14.75,26.05c-4.83,1.52-6.6,1.1-8.48-3.06c-2.21-4.89-5.61-7.14-10.95-7.5
			c-5.03-0.35-10.02-1.41-14.99-2.37c-0.89-0.17-2.22-1.32-2.26-2.07C325.37,83.09,325.48,78.86,325.48,74.22z"/>
		<path fill="#4E4868" d="M144.4,156.4c-2.58,1.17-4.69,1.98-6.62,3.09c-0.59,0.34-0.91,1.48-1,2.3c-0.42,3.58-2.01,5.38-4.85,5.25
			c-2.75-0.13-4.26-2.13-4.28-5.73c-0.01-3.21,0.06-6.43-0.02-9.64c-0.07-2.8,0.32-5.34,3.5-6.09c3.14-0.74,4.79,1.19,5.74,3.86
			c7.06-1.74,7.97-2.65,7.1-7.54c-2.16,0-4.41,0.03-6.66-0.01c-4.78-0.07-6.09-1.34-6.09-6.12c-0.01-27.99,0-55.99,0.01-83.98
			c0-4.36-0.04-8.71,0.01-13.07c0.06-5.18,1.1-6.22,6.22-6.22c28.72-0.02,57.44-0.03,86.16-0.04c25.81-0.01,51.63-0.03,77.44-0.04
			c5.25,0,6.33,1.01,6.42,6.36c0.07,4.15,0.16,8.3-0.02,12.44c-0.12,2.75,0.66,3.78,3.63,3.74c10.68-0.17,21.37,0.27,32.04-0.17
			c8.8-0.36,15.69,2.89,21.61,8.98c9.73,10.01,16.08,22.06,20.65,35.07c6.7,19.06,6.87,38.58,3.41,58.26
			c-0.35,2-1.23,3.96-2.13,5.81c-1.89,3.91-5.03,5.84-9.48,5.73c-4.77-0.12-9.54,0.06-14.31-0.06c-2.24-0.06-3.14,0.45-3.45,2.98
			c-1.48,12.07-9.37,20.78-20.63,23.24c-11.45,2.5-23-2.05-28.96-11.61c-1.3-2.08-2.22-4.45-2.97-6.79
			c-0.75-2.35-1.06-4.84-1.63-7.61c-27.89,0-55.92,0-84.21,0c-0.26,1.48-0.53,2.98-0.77,4.48c-1.76,11.21-10.55,20.12-21.44,21.73
			c-13,1.92-23.86-3.25-29-14.15c-1.43-3.03-2.22-6.42-2.89-9.73c-0.36-1.77-0.83-2.5-2.69-2.46c-4.66,0.09-9.33,0.06-14,0.01
			c-4.29-0.04-5.77-1.56-5.82-5.83C144.38,160.88,144.4,158.95,144.4,156.4z M298.58,132.84c0-3.85,0-7.24,0-10.62
			c0-25.71-0.05-51.41,0.06-77.12c0.01-3.02-0.92-3.82-3.86-3.79c-13.16,0.15-26.32,0.08-39.48,0.08
			c-37.31,0-74.63,0.02-111.94-0.05c-2.35,0-3.27,0.51-3.27,3.08c0.08,28.09,0.03,56.17,0.04,84.26c0,4.15,0.08,4.16,4.3,4.16
			c44.67,0,89.33,0,134,0C284.95,132.84,291.47,132.84,298.58,132.84z M307.5,156.68c0.67-0.35,0.93-0.4,1-0.54
			c5.5-10.08,14.07-15.08,25.46-14.53c11.11,0.53,19.04,6.16,23.72,16.35c0.35,0.76,1.68,1.5,2.57,1.53
			c5.28,0.15,10.57,0.17,15.86,0.02c1-0.03,2.58-0.81,2.86-1.6c1.03-2.95,1.64-6.06,2.32-8.78c-4.5-1.72-8.46-2.95-12.16-4.71
			c-3.52-1.67-5.4-4.59-5.15-8.78c0.22-3.72,0.04-7.46,0.06-11.19c0.02-3.9,1.46-5.38,5.45-5.46c3.71-0.07,7.42-0.01,11.47-0.01
			c-0.16-1.41-0.22-2.42-0.4-3.41c-1.91-10.38-5.4-20.26-10.83-29.26c-3.67-6.07-8.06-11.76-12.62-17.21
			c-3.22-3.86-7.69-5.5-13.01-5.37c-10.88,0.28-21.77,0.19-32.65,0c-3.16-0.06-4.03,0.88-4.02,4.01
			c0.12,24.25,0.07,48.49,0.08,72.74C307.5,145.75,307.5,151.02,307.5,156.68z M202.27,142c-0.04,0.2-0.08,0.4-0.13,0.6
			c0.61,0.27,1.22,0.54,1.84,0.8c6.38,2.69,11.23,7.09,14.08,13.38c1.07,2.35,2.42,2.83,4.73,2.82c16.38-0.07,32.75-0.03,49.13-0.03
			c7.88,0,15.76,0.05,23.64-0.07c0.99-0.01,2.81-0.83,2.83-1.33c0.21-5.33,0.13-10.68,0.13-16.18C266.15,142,234.21,142,202.27,142z
			 M193.93,150.58c-10.39-0.15-18.27,7.69-18.31,18.21c-0.03,9.43,8.12,17.56,17.71,17.67c9.92,0.11,18.21-7.66,18.38-17.22
			C211.9,158.59,204.41,150.73,193.93,150.58z M332.8,186.47c9.81-0.06,17.94-8.15,17.85-17.77c-0.1-10.63-7.75-18.2-18.33-18.13
			c-10.12,0.07-17.71,7.84-17.7,18.13C314.64,178.55,322.8,186.53,332.8,186.47z M153.63,142.03c0,6,0,11.55,0,17.55
			c2.44,0.18,5.16,0.24,8.12,0.06c1.52-0.09,2.97-0.24,4.33-0.42c0.77-1.87,1.85-3.99,3.41-6.13c4.92-6.8,11.55-9.8,15.01-11.06
			C174.2,142.03,163.92,142.03,153.63,142.03z M381.86,139.32c0-2.09,0.1-3.73-0.02-5.35c-0.51-7.11,1.02-5.96-6.53-6.11
			c-0.21,0-0.48-0.07-0.61,0.03c-0.56,0.45-1.43,0.87-1.57,1.46c-1.36,5.63-0.14,7.65,5.41,9.18
			C379.42,138.78,380.32,138.96,381.86,139.32z"/>
		<path fill="#EFDD03" d="M381.86,139.32c-1.54-0.36-2.44-0.54-3.31-0.78c-5.55-1.54-6.78-3.55-5.41-9.18
			c0.14-0.58,1.01-1,1.57-1.46c0.13-0.1,0.4-0.04,0.61-0.03c7.55,0.14,6.02-1,6.53,6.11C381.96,135.59,381.86,137.22,381.86,139.32z
			"/>
		<path fill="#4E4868" d="M314.32,85.59c0-3.73-0.05-7.46,0.01-11.19c0.05-3.11,1.7-4.89,4.77-4.93c8.08-0.08,16.19-0.38,24.23,0.17
			c2.78,0.19,5.8,2.16,8.05,4.09c6.46,5.56,10.97,12.66,14.26,20.48c2.04,4.86,3.73,9.87,5.5,14.84c1.6,4.51-0.19,7.02-4.97,7.07
			c-4.66,0.05-9.33,0.01-13.99,0.05c-2.52,0.02-4.63-0.89-5.45-3.3c-2.18-6.39-6.86-8.51-13.2-8.82c-4.53-0.22-9.01-1.26-13.51-1.99
			c-4.08-0.66-5.17-1.85-5.26-5.91c-0.08-3.52-0.02-7.04-0.02-10.56C314.6,85.59,314.46,85.59,314.32,85.59z M323.61,78.58
			c0,4.64-0.11,8.86,0.11,13.07c0.04,0.75,1.37,1.9,2.26,2.07c4.97,0.96,9.96,2.02,14.99,2.37c5.34,0.37,8.75,2.62,10.95,7.5
			c1.88,4.17,3.65,4.58,8.48,3.06c-2.81-9.89-7.23-18.85-14.75-26.05c-0.98-0.94-2.43-1.9-3.69-1.94
			C335.98,78.47,329.98,78.58,323.61,78.58z"/>
		<path fill="#4E4868" d="M207.18,168.26c0,7.83-5.71,13.64-13.42,13.64c-7.73,0.01-13.49-5.77-13.51-13.56
			c-0.02-7.37,6-13.38,13.44-13.42C201.13,154.9,207.18,160.88,207.18,168.26z M198.12,168.47c0.01-2.53-1.98-4.53-4.47-4.49
			c-2.31,0.04-4.34,2.01-4.43,4.3c-0.1,2.45,1.89,4.53,4.39,4.6C196.16,172.94,198.11,171.03,198.12,168.47z"/>
		<path fill="#4E4868" d="M346.06,168.54c-0.15,7.98-6,13.58-13.97,13.38c-7.47-0.19-13.07-6.21-12.9-13.84
			c0.17-7.44,6.25-13.27,13.68-13.11C340.42,155.13,346.2,161.08,346.06,168.54z M337.14,168.54c0.06-2.39-2.1-4.58-4.49-4.57
			c-2.36,0.02-4.32,1.89-4.45,4.24c-0.14,2.54,1.72,4.55,4.28,4.65C335,172.97,337.08,171.04,337.14,168.54z"/>
	</g>
</g>
<path d="M166.95,151.75"/>
<path d="M167.1,147.57"/>
<path fill="#9AE5FC" d="M140.28,51.3c8.58,0,17.16-0.03,25.74,0.02c3.22,0.02,5.36,1.98,5.26,4.55c-0.1,2.49-2.16,4.15-5.27,4.26
	c-0.52,0.02-1.03,0.01-1.55,0.01c-8.06,0-16.12,0-24.19,0C140.02,57.19,140.04,54.25,140.28,51.3z"/>
<rect x="140.13" y="107.47" fill="#EAE9ED" width="158.45" height="25.37"/>
<path fill="#DBDAE1" d="M119.31,36.26c-2.91-0.01-4.99-2-4.89-5.09c0.07-2.25-0.53-3.11-2.93-3.06c-3.27,0.06-5.21-1.96-5.22-4.86
	c0-2.6,2.04-4.52,5.2-4.39c2.39,0.1,3-0.75,2.95-3.03c-0.06-3.07,2.24-5.62,4.63-5.62c2.79,0,5.27,2.59,5.23,5.72
	c-0.03,1.96,0.07,2.87,2.66,2.61c3.42-0.33,5.4,1.73,5.46,4.54c0.07,3.06-1.76,4.95-5.36,5.04c-2.29,0.05-2.75,1.09-2.76,3.09
	C124.25,34.34,122.24,36.27,119.31,36.26z"/>
<path fill="#EAE9ED" d="M237.38,15.06c-0.01,7.56-5.17,12.24-12.96,12.61c-7.5,0.35-12.78-6.84-12.71-13.05
	c0.07-5.82,5.25-13.18,13.48-12.65C232.32,2.42,237.39,7.45,237.38,15.06z M228.02,14.83c-0.61-1.75-1.24-3.58-3.64-3.4
	c-2.15,0.16-3.03,1.82-3.08,3.61c-0.06,2.15,1.75,3.09,3.53,2.99C226.46,17.95,227.94,16.94,228.02,14.83z"/>
<path fill="#FCFBFC" d="M228.02,14.83c-0.09,2.11-1.56,3.12-3.19,3.21c-1.78,0.1-3.6-0.84-3.53-2.99c0.05-1.79,0.93-3.45,3.08-3.61
	C226.79,11.25,227.42,13.08,228.02,14.83z"/>
<path fill="#DBDAE1" d="M332.54,51.95c-3.06,0-4.93-1.79-4.83-5.08c0.06-2.24-0.49-3.18-2.92-3.07c-3.05,0.14-4.99-1.72-5.21-4.47
	c-0.22-2.64,1.87-5.25,4.9-5.3c2.63-0.04,3.36-0.9,3.25-3.42c-0.1-2.27,2.6-4.57,4.97-4.69c2.05-0.11,4.82,2.37,4.82,4.87
	c0,2.39,0.72,3.11,3.13,3.3c3.25,0.25,5.13,2.55,5.04,5.21c-0.09,2.69-1.94,4.34-5.58,4.52c-2.18,0.11-2.46,1.24-2.54,3.02
	C337.42,49.82,335.22,51.95,332.54,51.95z"/>
<path fill="#4E4868" d="M233.6,198.94h-80.94c-1.93,0-3.48-1.56-3.48-3.48l0,0c0-1.93,1.56-3.48,3.48-3.48h80.94
	c1.93,0,3.48,1.56,3.48,3.48l0,0C237.09,197.39,235.53,198.94,233.6,198.94z"/>
<path fill="#4E4868" d="M364.06,200h-80.94c-1.93,0-3.48-1.56-3.48-3.48l0,0c0-1.93,1.56-3.48,3.48-3.48h80.94
	c1.93,0,3.48,1.56,3.48,3.48l0,0C367.54,198.44,365.99,200,364.06,200z"/>
<path fill="#4E4868" d="M141.31,198.94h-7.71c-1.93,0-3.48-1.56-3.48-3.48l0,0c0-1.93,1.56-3.48,3.48-3.48h7.71
	c1.93,0,3.48,1.56,3.48,3.48l0,0C144.8,197.39,143.24,198.94,141.31,198.94z"/>
</svg>
