<?xml version="1.0" encoding="utf-8"?>
<!-- Generator: Adobe Illustrator 23.0.5, SVG Export Plug-In . SVG Version: 6.00 Build 0)  -->
<svg version="1.1" id="Layer_1" xmlns="http://www.w3.org/2000/svg" xmlns:xlink="http://www.w3.org/1999/xlink" x="0px" y="0px"
	 viewBox="0 0 60 60" enable-background="new 0 0 60 60" xml:space="preserve">
<g>
	<g>
		<path fill="#FFFFFF" d="M30.01,0.5C46.3,0.5,59.5,13.71,59.5,30.01c0,16.29-13.22,29.51-29.51,29.49
			C13.68,59.48,0.46,46.25,0.5,29.99C0.54,13.66,13.71,0.5,30.01,0.5z M29.81,35.37c0.93,0,1.86-0.01,2.79,0
			c0.74,0.01,1.25-0.33,1.67-0.95c0.64-0.93,1.3-1.84,2.06-2.67c1-1.09,2.11-2.07,3.16-3.11c1.13-1.13,2.14-2.37,2.7-3.88
			c1.57-4.26-0.25-9.27-4.17-11.55c-4.22-2.45-8.64-2.58-13.11-0.85c-3.66,1.42-5.88,4.13-6.68,7.98c-0.25,1.19,0.23,2.26,1.3,2.71
			c0.41,0.17,0.88,0.24,1.33,0.25c0.91,0.04,1.83-0.04,2.74,0.02c1.9,0.13,3.12-0.76,3.75-2.47c0.66-1.77,2.14-2.4,3.94-2.21
			c1.36,0.14,2.27,1.17,2.34,2.53s-0.32,2.62-1.17,3.61c-1.22,1.42-2.58,2.73-3.9,4.06c-1.3,1.31-2.48,2.68-3,4.5
			c-0.34,1.2,0.21,1.98,1.47,2C27.95,35.38,28.88,35.37,29.81,35.37z M30.02,48.76c2.98,0,5.35-2.39,5.34-5.37
			c-0.01-2.94-2.46-5.38-5.38-5.36c-2.95,0.02-5.35,2.44-5.33,5.4C24.66,46.42,27.02,48.77,30.02,48.76z"/>
	</g>
</g>
</svg>
