<?xml version="1.0" encoding="utf-8"?>
<!-- Generator: Adobe Illustrator 23.0.5, SVG Export Plug-In . SVG Version: 6.00 Build 0)  -->
<svg version="1.1" id="Layer_1" xmlns="http://www.w3.org/2000/svg" xmlns:xlink="http://www.w3.org/1999/xlink" x="0px" y="0px"
	 viewBox="0 0 500 500" style="enable-background:new 0 0 500 500;" xml:space="preserve">
<style type="text/css">
	.st0{fill:#333333;}
	.st1{fill:#E13834;}
	.st2{fill:#EB514F;}
	.st3{fill:#FB7171;}
	.st4{fill:#73C2FB;}
	.st5{fill:#F9F9F9;}
	.st6{fill:#B3B9BA;}
</style>
<g>
	<path class="st0" d="M318.9,61.3c-13.7-11-15.8-22.3-6.8-37.8c2-3.4,3.9-7,6-10.4c3-4.8,7.2-6.2,12-3.4
		c19.1,10.9,38.2,21.9,57.1,33c4.8,2.8,5.8,7,3,12c-2.6,4.9-5.4,9.7-8.3,14.4c-5.1,8.2-12.7,12.2-22.3,11.8c-3-0.1-4.2,0.8-5.6,3.2
		c-11.3,19.8-22.8,39.7-34.4,59.4c-1.7,2.9-1,4,1.6,5.5c5.8,3.1,11.5,6.4,17.1,9.8c5.6,3.4,6.7,7.3,3.5,13.1
		c-2.7,4.8-5.5,9.6-8.3,14.4c-1,1.7-1,2.7,0.5,4.4c12.6,14.1,9.6,31.3-7,40.3c-2.1,1.1-2.7,2.3-2.8,4.4c-1.5,20.6-3,41.2-4.7,61.7
		c-0.3,4.1,1.1,3.6,4,2.8c4.8-1.4,7.5-4,9.3-9.1c13.9-40.4,28.3-80.7,42.5-121c4.8-13.8,13.2-19.8,27.6-19.8c23.4,0,46.9,0,70.3,0
		c15.5,0,26.8,10.5,26.8,25c0,14.4-11.3,25-26.8,25c-17,0-34,0.1-51-0.1c-3.3,0-4.8,0.8-5.9,4.1c-4.2,12.8-8.9,25.5-13.4,38.2
		c-2.2,6.3-4.4,7.8-11.2,7.7c-6.1-4.1-6.9-6.4-4.4-13.5c5.3-15,10.5-30,15.9-45c2.4-6.7,4.3-8.1,11.4-8.1c19.8,0,39.5,0,59.3,0
		c4.2,0,7.5-1.5,9-5.7c1.4-4.1,0.2-7.5-3.6-9.7c-2.1-1.6-4.6-1.3-7-1.3c-22.7,0-45.5,0-68.2,0c-9,0-10.2,0.9-13.2,9.3
		c-15,42.4-30,84.8-44.8,127.3c-1.7,4.9-4.5,7.6-9.4,9.3c-44.8,16.1-89.5,32.4-134.2,48.7c-20.6,7.5-41.2,15.2-61.8,22.8
		c-7.5,2.6-15,5.2-22.5,7.9c-7,2.5-7,2.6-4.3,9.6c0.6,1.5,1.3,2.9,1.4,4.4c0.4,3.8,1.9,4.2,5.3,2.9c76.7-28,153.5-56,230.3-83.9
		c4.1-1.5,6.6-3.8,8-8c5.2-15.2,10.7-30.4,16.1-45.5c2.1-5.8,4.8-7.3,11.1-6.5c5.7,3.9,6.5,6.3,4.3,12.7
		c-5.4,15.5-10.9,31-16.4,46.5c-2.2,6.3-6,11.5-12.2,14.2c-3.6,1.5-4.7,4-5.3,7.3c-2.7,14.8-5.5,29.6-8.3,44.4
		c-1.3,6.9-3.3,8.5-10.5,8.9c-6-3.2-7.1-5.5-5.9-12.1c2-10.6,3.9-21.3,5.8-31.9c0.3-0.8,0.6-1.6,0.8-2.5c0.9-5.3,0.6-5.5-4.4-3.6
		c-2.4,0.9-4.8,2.2-7.3,2.6c-4.5,0.9-6,3.5-6.7,7.7c-3.9,22-8.2,43.9-12.2,65.9c-0.8,4.2-2.1,7.8-6.7,8.9c-4.8,1.1-7.7-1.6-10.4-5.2
		c-11.6-15.6-23.3-31.1-35-46.6c-1.3-1.7-2.1-4.2-5.2-3c-4.5,1.8-9,3.4-13.5,5c0.3,0.7,0.3,1.1,0.5,1.3c21.3,28.5,42.6,56.9,64,85.3
		c2.3,3,5.4,4.5,9.1,3.5s5.6-3.7,6.3-7.5c1.1-6.7,2.4-13.3,3.6-19.9c1.5-7.6,2.9-15.1,4.4-22.7c1.5-7.3,3.3-8.9,10.7-9
		c5.8,3.3,6.9,5.6,5.7,11.8c-2.6,14-5.3,27.9-7.8,41.9c-2.1,11.3-8.1,19.1-19.6,21.7c-11.2,2.6-19.9-1.8-26.7-10.8
		c-21-28-42.2-55.9-62.9-84.1c-3.3-4.5-6-5-10.8-3.1c-19.7,7.5-39.6,14.6-59.5,21.7c-2.8,1-3.9,2.3-4,5.4
		c-1.9,42.2-37.5,74-79.9,71.6c-41-2-72.6-38.2-69.9-79.8c0.7-10.3,3.5-20.1,8.3-29.3c4-7.7,6.2-8.7,14.5-6.6
		c3.6,4.6,3.4,9,0.6,14.2c-6.4,11.9-8.5,24.7-5.5,38.1c5.1,26.4,26.9,45.2,53.9,47c27.2,1.8,53-17.2,59.4-43.5
		c0.6-2.6,2.7-6,0.2-7.7c-1.9-1.3-5.1,0.7-7.5,2.2c-4,1.7-9.8,0.7-10.3,7.3c-5.3,9.4-12.3,17-22,21.9h0.1c-1,0-2,0.2-2.6,1.1
		c-1,0.1-2.1,0.2-3.1,0.4c-15.8,4.4-29.3,0.2-41-10.9c-5.2-4.9-7.8-11.3-10.8-17.5c-0.2-1.2-0.4-2.4-0.5-3.6
		c-2.2-16.6,2.3-30.8,15.8-41.1c12.9-9.8,27.4-11.7,42.1-4.8c5.7,2.7,10,2.3,14.9-0.6c1.5-0.5,2.9-1,4.4-1.4c4.5-1.1,3.6-3,0.8-5.3
		c-0.5-0.4-1-0.9-1.6-1.3c-19.6-13.9-40.4-16-62-5.2c-5.3,2.7-9.6,3.1-14.2-0.5c-2.1-8.3-1-10.6,6.6-14.5
		c29.6-15.3,64.9-9.5,88.3,14.9c3.1,3.2,5.5,3.9,9.7,2.1c7.7-3.4,15.9-5.9,24.4-9c-7.9-3.5-15.4-6.4-22.6-9.9
		c-47-23-80.4-58.9-100.7-107c-2.1-4.9-4-7.7-10.3-8.3c-13.1-1.4-22-13.5-21-26.6c1-12.6,11.6-22.4,24.8-22.8c1.4,0,2.7,0,4.6,0
		c-4.8-12.2-9.3-24-13.9-35.7c-0.7-1.8-2.3-2.5-3.8-3.4c-5.1-3-10.2-5.9-15.3-8.8c-3.7-2.1-5.4-5.3-4.7-9.6
		c3.3-19.4,21.8-34.4,41.9-34c5.5,0.1,8.9,2.5,10,7.9c2.8,13.9,7.7,26.9,17.8,37.6c1.4-0.4,1.7-2.1,2.5-3.4
		c15.9-24.1,49.3-25.9,67.6-3.6c1.8,2.2,3.6,3.3,6.4,3.1c5.7-0.2,11.5-0.2,17.2,0c2.5,0.1,3.4-0.6,3.2-3.2
		c-0.2-4.2,1.3-9.1-0.5-12.3c-1.9-3.4-7.3-1-11.1-1.3c-20.6-1.7-37.5-18.9-38.4-39.2c-0.3-7.4,2.7-10.7,10-10.7
		c6.8-0.1,13.5,0.2,20.3,0c8.1-0.2,15.5,1.5,22.1,6.3c1.8,1.3,2.7,1.3,4.1-0.6c7.4-10.2,17.7-14.4,30.2-14c6.6,0.2,13.2,0,19.8,0
		c7.5,0,10.6,3.5,10.1,11.1c-1.3,21.3-19.2,38.4-40.8,38.9c-9.1,0.2-9.2,0.2-9,9.2c0.1,5.1-2.2,12,1,14.9c2.8,2.5,9.5,0.8,14.5,0.8
		c9.4,0.1,18.7,0,28.1,0.4c2.6,0.1,2.9-1.4,3.7-2.7c3.4-5.8,6.7-11.7,10.2-17.5c3.3-5.5,7.5-6.6,13.1-3.4c5.7,3.2,11.5,6.4,17.1,9.9
		c2.6,1.6,3.8,1.5,5.4-1.4c7.6-13.6,15.6-27,23.4-40.5c3.8-6.5,6.6-7.5,13.6-5c4.1,4.3,3.6,8.6,0.7,13.6
		c-14.9,25.5-29.6,51.1-44.4,76.6c-1.5,2.6-3.7,5.1-2.3,8.6c0.2,4.2,3,6.2,6.7,6.7c4.3,0.7,7.1-1.8,9.2-5.4
		c18.5-32,36.9-64.1,55.5-96c2.1-3.5,0.9-4.8-2.2-5.8C330.8,68.1,324.8,64.7,318.9,61.3z M68.9,173.6c-2,2.9-4,5.9-5.4,9.8
		c18.1,0,35.7,0,53.3,0c6.8,0,7.7-1.4,5.4-7.7c-0.5-1.3-1.2-2-2.3-2.6c-4.5-2.5-9-5.1-13.5-7.6c-7.4-4.4-14.8-8.7-22.2-13.1
		c-1.8-1.1-2.9-1-4,1C76.5,160.2,72.6,166.9,68.9,173.6z M259.6,147c7.2-10.3,7.2-10.3-3.3-16.4c-0.6-0.3-1.2-0.6-1.8-1.1
		c-2-1.5-3.1-1-4.4,1.2c-5.5,10-11.2,19.8-16.8,29.7c-5.2,5.8-5,13.4-6.3,20.4c-0.3,1.7,0.3,2.6,2.2,2.5c7.9,0,15.8,0,24.6,0
		c-5.5-11-3.7-20.7,2.5-29.9C257.6,151.5,258.5,149.2,259.6,147z M210.9,174.2c1.2-6.8,2.4-13.6,3.7-20.3c0.5-2.9-0.2-3.9-3.4-3.9
		c-20.7,0.2-41.5,0.2-62.2,0.2c-2.8-0.1-5.6,0.2-8.3-0.2c-4.9-0.7-5.9,1.3-5,5.8c1.5,7.5,2.9,15,3.8,22.5c0.5,3.9,1.8,5.2,5.8,5.1
		c18.4-0.2,36.8-0.1,55.2-0.1C209.8,183.4,209.8,183.4,210.9,174.2z M36.5,200.2c-4-0.5-7.7,0-10.1,3.7c-1.7,2.7-1.9,5.5-0.3,8.4
		c2.1,3.9,5.7,4.5,9.7,4.5c31.9-0.1,63.7,0,95.6,0c6.6,0,8.7,1.7,10.5,8.3c-1.7,6.6-3.9,8.3-10.5,8.3c-23.8,0-47.5,0-71.3,0
		c-5.7,0-5.8,0.1-3.4,5.3C83,296,126.8,332,187.9,347.5c2.2,0.6,4.1,0.1,6-0.6c33.8-12.4,67.6-24.9,101.6-36.9
		c5.5-1.9,7.7-4.4,6.7-9.9c0.3-1.3,0.7-2.7,0.8-4c1.3-18.1,2.6-36.1,3.8-54.2c1.3-8.4,1.3-8.4-6.8-8.4c-43.6,0-87.3,0-130.9,0
		c-7.1,0-9.3-1.7-11-8.4c1.7-6.6,3.8-8.3,10.5-8.3c14.2,0,28.4,0,42.6,0c34.5,0,68.9,0,103.4,0c6.8,0,9.2-2.1,10.1-8.4
		c-1-6.4-3.4-8.3-10.8-8.3c-47.4,0-94.8,0-142.2,0C126.7,200.1,81.6,200.2,36.5,200.2z M75,441.6c13.9,0,25.1-11.4,25-25.3
		c-0.1-13.6-11.3-24.7-25-24.7c-13.6,0-24.9,11.2-24.9,24.7C50,430.3,61.2,441.6,75,441.6z M360.4,64.5c6.1-0.2,7.7-5,10.2-8.9
		c1.2-1.8,1-2.8-1-4c-12.8-7.3-25.5-14.7-38.2-22c-0.9-0.5-1.7-1.7-3.2-0.7c-6.3,4.6-6,14.5,0.7,18.5c8.8,5.2,17.7,10.2,26.5,15.3
		C357,63.7,358.8,64.5,360.4,64.5z M302.8,360.4c-10.9,4-20.8,7.8-30.7,11.2c-3.2,1.1-2.1,2.3-0.8,3.9c4.1,5.4,8.1,10.8,12.2,16.2
		c3.4,4.5,6.8,9,10.8,14.3C297.2,390.4,299.9,375.8,302.8,360.4z M145.5,83.4c-2.1,0-4.2,0.1-6.2,0c-4.3-0.2-4.1,1.5-2.2,4.5
		c6,9.3,14.8,12.3,25.3,12.3c4,0,4.8-1.1,3.6-4.7C163.4,87.1,157.3,83.4,145.5,83.4z M205.2,75.1L205.2,75.1c-2.1,0-4.2-0.1-6.2,0.1
		c-7.5,0.5-14.1,6.1-15.4,13.2c-0.3,1.8-0.7,3.4,2.1,3.5c8.9,0.1,17.3-0.9,23.7-8c2.1-2.3,5.4-4.9,4.4-7.6c-0.9-2.4-5-0.7-7.6-1.1
		C205.9,75,205.6,75.1,205.2,75.1z M50.7,170.2c10.5-14.8,10.5-14.8,1.2-28.8c-0.3-0.4-0.5-0.9-0.9-1.3c-1.4-1.2-1.7-5.1-4.1-3.2
		c-2.6,2-7.6,3.5-5.9,8.5C43.9,153.5,47.3,161.5,50.7,170.2z M296.7,183.4c6.1,0,11.3-0.1,16.5,0c2,0,3.1-0.6,4.2-2.3
		c7.4-11.2,7.4-11.2-4.3-17.7c-0.5-0.3-0.9-0.5-1.3-0.8c-1.7-1.2-2.7-0.6-3.6,1.1C304.6,170,300.9,176.2,296.7,183.4z M117.8,151.9
		c0.5-5.7-3.9-11.9,2.1-16.9c-9.6-5.6-19.6-4.8-28.4,2.4c7.6,4.4,15,8.7,22.4,12.9C115.1,151,116.1,152,117.8,151.9z M39.8,118.1
		c-1.2-2.5-0.3-6.8-3.1-8.5c-2.5-1.5-5.5,1.1-8,2.5c-1.9,1.1-3.7,2.5-5.3,4.1c-6,6.3-5.9,7.2,1.5,11.4
		C29.2,130,39.8,123.6,39.8,118.1z"/>
	<path class="st1" d="M302.2,300c1.1,5.5-1.2,8-6.7,9.9c-34,12-67.7,24.5-101.6,36.9c-2,0.7-3.8,1.2-6,0.6
		C126.9,332,83,295.9,56.7,238.6c-2.4-5.2-2.3-5.3,3.4-5.3c23.8,0,47.5,0,71.3,0c6.6,0,8.8-1.8,10.5-8.3c5.4,0,10.9,0,16.3,0
		c1.7,6.7,3.8,8.4,11,8.4c43.6,0,87.3,0,130.9,0c8,0,8,0,6.8,8.4c-0.9,0-1.7-0.1-2.6-0.1c-66.7,0-133.3,0-200,0
		c-0.8,0-1.7-0.4-2.5,1c10.4,7.3,21.2,14,32.6,19.8c-1.5,3.7-1.4,7.2,1.5,10.1c13.8,13.9,27.6,27.8,41.6,41.5
		c3.9,3.8,9.3,3.1,12.3-0.9c2.8-3.8,2.5-7.7-1.3-11.6c-7.6-7.8-15.2-15.6-22.9-23.4c2.2-0.4,4.1,0.4,6.1,1c6,2.1,12,4.5,18.2,6.3
		c6.9,1.9,13.6,5.1,21,4.6l-0.3,0.3c0.4,1.1,1.2,1.2,2.2,1.2c1.5,1.4,3.1,2.8,4.6,4.2c5.7,5.5,9.2,5.6,15.1,0
		C255.5,299.5,278.8,300.4,302.2,300z"/>
	<path class="st2" d="M134.3,262.5c-11.4-5.8-22.1-12.5-32.6-19.8c0.8-1.4,1.7-1,2.5-1c66.7,0,133.3,0,200,0c0.9,0,1.7,0.1,2.6,0.1
		c-1.3,18.1-2.5,36.1-3.8,54.2c-0.1,1.4-0.5,2.7-0.8,4c-23.4,0.4-46.7-0.5-69.8-4.2c1.3-3.6,1.4-7.2-1.5-10.1
		c-8.3-8.3-16.5-16.7-25-24.9c-3.7-3.6-8.8-3.2-12,0.4c-3.2,3.7-2.9,7.9,0.9,12c5.2,5.7,11.5,10.5,16,16.8c-7.5,0.5-14.1-2.7-21-4.6
		c-6.2-1.7-12.1-4.2-18.2-6.3c-2-0.7-3.9-1.5-6.1-1h0.1c-0.4-0.4-0.8-0.7-1.2-1.1c-4.9-4.8-9.9-9.6-14.8-14.4
		C143.6,256.9,140.3,256.9,134.3,262.5z M283.3,283.4c0-2.2-0.6-4.1-2-5.4c-8.6-8.7-17.2-17.5-26.1-26c-3.3-3.1-7.4-2.7-10.8,0.4
		c-3.4,3-3.9,7.9-0.8,11.2c8.5,8.9,17.2,17.5,26,26.1c2.4,2.3,5.5,2.6,8.7,1S282.8,286.5,283.3,283.4z"/>
	<path class="st2" d="M158.2,225c-5.4,0-10.9,0-16.3,0c-1.8-6.6-3.8-8.3-10.5-8.3c-31.9,0-63.7,0-95.6,0c-4,0-7.6-0.5-9.7-4.5
		c-1.5-2.8-1.4-5.7,0.3-8.4c2.4-3.7,6.1-4.2,10.1-3.7c2.7,6.4,8.1,8.1,14.3,8.1c91.4,0,182.7,0,274.1,0c-0.9,6.3-3.3,8.3-10.1,8.4
		c-34.5,0-68.9,0-103.4,0c-14.2,0-28.4,0-42.6,0C162,216.7,159.9,218.4,158.2,225z"/>
	<path class="st3" d="M324.8,208.3c-91.4,0-182.7,0-274.1,0c-6.2,0-11.6-1.8-14.3-8.1c45.1,0,90.3-0.1,135.4-0.1
		c47.4,0,94.8,0,142.2,0C321.4,200.1,323.8,201.9,324.8,208.3z"/>
	<path class="st4" d="M75,441.6c-13.8,0-25.1-11.3-25-25.2c0.1-13.6,11.3-24.7,24.9-24.7c13.7,0,24.9,11.1,25,24.7
		C100.1,430.2,88.9,441.6,75,441.6z M83.3,416.4c-0.1-4.5-4-8.2-8.5-8c-4.5,0.1-8.2,3.9-8.1,8.4s4,8.2,8.5,8.1
		C79.7,424.8,83.4,420.9,83.3,416.4z"/>
	<path class="st5" d="M117.8,151.9c-1.7,0.2-2.7-0.9-3.9-1.5c-7.4-4.3-14.9-8.6-22.4-12.9c8.8-7.2,18.8-8,28.4-2.4
		C114,139.9,118.3,146.2,117.8,151.9z"/>
	<path class="st0" d="M134.3,262.5c5.9-5.7,9.3-5.6,15.3,0.3c4.9,4.8,9.9,9.6,14.8,14.4c0.4,0.4,0.8,0.7,1.2,1.1h-0.1
		c7.6,7.8,15.3,15.5,22.9,23.4c3.8,3.9,4.2,7.9,1.3,11.6c-3.1,4-8.4,4.7-12.3,0.9c-14-13.7-27.8-27.6-41.6-41.5
		C132.9,269.7,132.9,266.2,134.3,262.5z"/>
	<path class="st0" d="M210.8,290.1c-4.5-6.4-10.8-11.1-16-16.8c-3.8-4.1-4.1-8.3-0.9-12c3.1-3.6,8.2-4.1,12-0.4
		c8.5,8.2,16.7,16.5,25,24.9c2.9,2.9,2.8,6.5,1.5,10.1c-5.9,5.5-9.4,5.5-15.1,0c-1.5-1.4-3-2.8-4.6-4.2c-0.5-0.8-1-1.6-2.2-1.2
		L210.8,290.1z"/>
	<path class="st2" d="M210.5,290.4c1.2-0.4,1.7,0.3,2.2,1.2C211.8,291.6,210.9,291.5,210.5,290.4z"/>
	<path class="st0" d="M283.3,283.4c-0.4,3.1-1.8,5.7-4.9,7.2c-3.2,1.6-6.3,1.3-8.7-1c-8.8-8.5-17.5-17.2-26-26.1
		c-3.2-3.3-2.6-8.1,0.8-11.2c3.4-3.1,7.5-3.5,10.8-0.4c8.9,8.5,17.5,17.2,26.1,26C282.7,279.4,283.3,281.3,283.3,283.4z"/>
	<path class="st1" d="M165.6,278.2c-0.4-0.4-0.8-0.7-1.2-1.1C164.8,277.5,165.2,277.9,165.6,278.2z"/>
	<path class="st0" d="M83.3,416.4c0.1,4.4-3.6,8.4-8.1,8.5s-8.3-3.6-8.5-8.1c-0.1-4.5,3.5-8.3,8.1-8.4
		C79.3,408.3,83.1,411.9,83.3,416.4z"/>
	<path class="st6" d="M42.8,448.9c0.1,0.2,0.3,0.3,0.4,0.5C43,449.2,42.8,449.1,42.8,448.9C42.7,449,42.8,448.9,42.8,448.9z"/>
</g>
</svg>
