<?xml version="1.0" encoding="utf-8"?>
<!-- Generator: Adobe Illustrator 23.1.0, SVG Export Plug-In . SVG Version: 6.00 Build 0)  -->
<svg version="1.1" id="Layer_1" xmlns="http://www.w3.org/2000/svg" xmlns:xlink="http://www.w3.org/1999/xlink" x="0px" y="0px"
	 viewBox="0 0 500 500" style="enable-background:new 0 0 500 500;" xml:space="preserve">
<style type="text/css">
	.st0{fill:#73C2FB;}
	.st1{fill:#434A52;}
	.st2{fill:#83C9A5;}
	.st3{fill:#F7C240;}
</style>
<g>
	<path class="st0" d="M499.6,224.3c0.5,49.7,0.6,99.4,0,149.2"/>
</g>
<g id="SVGRepo_iconCarrier">
	<g>
		<path class="st1" d="M480.5,260.9H21.7c-9.1,0-21.2,2.1-21.2,20.6v196.4c0,6,4.9,10.9,10.9,10.9s10.9-4.9,10.9-10.9V358.5H478
			v119.3c0,6,4.9,10.9,10.9,10.9s10.9-4.9,10.9-10.9V281.5C499.5,271.5,498.1,260.9,480.5,260.9z M22.1,336.8v-54.2h455.7v54.2H22.1
			z"/>
		<path class="st2" d="M260.8,217.5c-6,0-10.9,4.9-10.9,10.9s4.9,10.9,10.9,10.9h119.3c6,0,10.9-4.9,10.9-10.9s-4.9-10.9-10.9-10.9
			H260.8z"/>
		<path class="st2" d="M174,195.8h293c6,0,10.9-4.9,10.9-10.9V22.2c0-6-4.9-10.9-10.9-10.9H174c-6,0-10.9,4.9-10.9,10.9v162.7
			C163.2,190.9,168.1,195.8,174,195.8z M184.9,33h271.2v141H184.9V33z"/>
		<path class="st3" d="M33,239.1h97.6c6,0,10.9-4.9,10.9-10.9V33c0-6-4.9-10.9-10.9-10.9H33c-6,0-10.9,4.9-10.9,10.9v195.3
			C22.1,234.3,27,239.1,33,239.1z M43.8,43.9h76v173.6h-76C43.8,217.5,43.8,43.9,43.8,43.9z"/>
	</g>
</g>
</svg>
