<?xml version="1.0" encoding="utf-8"?>
<!-- Generator: Adobe Illustrator 23.0.5, SVG Export Plug-In . SVG Version: 6.00 Build 0)  -->
<svg version="1.1" id="Layer_1" xmlns="http://www.w3.org/2000/svg" xmlns:xlink="http://www.w3.org/1999/xlink" x="0px" y="0px"
	 viewBox="0 0 382 453" enable-background="new 0 0 382 453" xml:space="preserve">
<g>
	<g>
		<path fill="#FBA301" d="M254.59,0.61c23.82-0.09,47.64-0.19,71.46-0.26c10.5-0.03,21-0.13,31.49,0.04
			c13.59,0.21,23.78,10.23,23.83,23.82c0.15,39.16,0.06,78.31,0.05,117.47c0,0.65-0.19,1.31-0.29,1.97
			c-22.43-1.24-39.56,18.21-39.49,39.8c0.13,40.32-0.02,80.65,0.12,120.97c0.01,4.1-1.06,5.44-5.28,5.37
			c-14.49-0.25-28.99-0.27-43.49-0.03c-9.63,0.16-17.87,3.94-25.28,10.21c-6.66,5.63-9.41,13.4-13.07,20.75
			c-0.08-25.94-0.16-51.88-0.24-77.82c0.07-1.16,0.2-2.32,0.2-3.49C254.61,173.13,254.6,86.87,254.59,0.61z M309.73,171.19
			c0-5.15-0.4-10.34,0.1-15.44c0.64-6.58-5.1-12.3-11.89-12.86c-5.56-0.46-11.83,5.35-12.05,11.69
			c-0.37,10.95-0.35,21.93-0.03,32.88c0.19,6.42,6.61,11.57,12.99,11.21c6.16-0.35,10.76-5.39,10.85-12.03
			C309.79,181.49,309.73,176.34,309.73,171.19z"/>
		<path fill="#FBA300" d="M103.57,190.54c0.01-54.6,0-109.2,0.02-163.8c0.01-16.92,9.38-26.36,26.18-26.38
			c32.29-0.03,64.59-0.01,96.88,0c1.32,0,2.65,0.15,3.97,0.23c0.01,67.59,0.02,135.18,0,202.76c0,1.79,0.48,3.68-0.69,5.34
			c-3.63-10.78-10.88-17.07-22.42-17.93c-2.96-0.22-5.94-0.14-8.91-0.2c0.03-11.29,0.09-22.58,0.08-33.86
			c-0.01-8.04-4.91-13.6-11.91-13.65c-6.98-0.06-11.98,5.5-12.03,13.66c-0.06,11.29,0.03,22.58,0.06,33.86
			C151.07,190.56,127.32,190.55,103.57,190.54z"/>
		<path fill="#0088A7" d="M198.61,190.56c2.97,0.06,5.95-0.02,8.91,0.2c11.53,0.86,18.78,7.16,22.42,17.93
			c0.21,2.8,0.59,5.6,0.62,8.4c0.11,9.79,0.1,19.59,0.13,29.39c-11.75,4.19-16,10.22-16,22.71c0,5.48-0.03,10.96-0.04,16.45
			c-35.93,0.04-71.87,0.13-107.8,0.12c-22.29-0.01-44.58-0.15-66.86-0.24c-0.04-5.63-0.1-11.25-0.11-16.88
			c-0.03-12.45-4.08-18.11-15.82-22.04c0.01-10.3-0.03-20.6,0.04-30.9c0.1-14.84,10.27-24.91,25.18-24.98
			c18.11-0.08,36.21-0.13,54.32-0.19c23.75,0.01,47.49,0.02,71.24,0.03C182.75,190.57,190.68,190.57,198.61,190.56z"/>
		<path fill="#B1B1B1" d="M246.73,451.82c-20.07,0.93-40.15,1.11-60.23,0.73c-7.28-0.14-14.53-1.3-21.84-0.77
			c-28.52-1.67-57.02-3.6-84.95-10.16c-5.81-1.37-11.64-2.83-16.95-5.79c-2.92-1.63-6.66-3.13-6.72-6.72
			c-0.07-4.08,3.67-6.01,7.06-7.61c8.51-4,17.66-5.95,26.77-7.7c16.96-3.26,34.14-4.91,51.36-6.32c26.22-2.15,52.47-3.05,78.73-2.57
			c35.23,0.65,70.38,2.75,105.13,9.02c7.48,1.35,14.74,3.97,22.05,6.18c2.04,0.62,4.01,1.68,5.82,2.85
			c5.95,3.84,5.91,7.99-0.19,11.67c-8.56,5.16-18.27,7.05-27.86,8.96c-20.71,4.14-41.68,6.2-62.76,7.22
			C257.01,451.06,251.87,451.48,246.73,451.82z"/>
		<path fill="#D68A01" d="M254.65,340.71c3.66-7.34,6.41-15.11,13.07-20.75c7.42-6.27,15.66-10.05,25.28-10.21
			c14.49-0.24,28.99-0.21,43.49,0.03c4.22,0.07,5.29-1.26,5.28-5.37c-0.14-40.32,0.01-80.65-0.12-120.97
			c-0.07-21.6,17.05-41.05,39.49-39.8c0.1,20.47,0.27,40.95,0.3,61.42c0.04,38.64-0.45,77.28,0.2,115.91
			c0.31,18.66-11.87,30.34-28.91,28.63c-0.98-0.1-1.99,0.05-2.99,0.09c-13.34,0-26.68-0.01-40.02-0.01
			c-18.42-0.02-36.84-0.04-55.26-0.06C254.51,346.65,254.58,343.68,254.65,340.71z"/>
		<path fill="#67E2F8" d="M254.65,340.71c-0.07,2.97-0.14,5.95-0.22,8.92c-4.01,11.18-11.92,16.57-23.82,16.05
			c-13.3,0-26.6,0-39.9,0c-18.31-0.1-36.61-0.19-54.92-0.28c-0.39-2.28-0.73-4.57-1.17-6.85c-1.97-10.15-6.67-18.47-15.14-24.84
			c-4.1-3.08-9.38-3.98-12.91-7.83c2.82-0.06,5.65-0.18,8.47-0.18c31.6-0.01,63.21-0.06,94.81,0.06c3.6,0.01,4.98-0.81,4.9-4.69
			c-0.25-11.8-0.12-23.62-0.13-35.43c0.01-5.48,0.04-10.96,0.04-16.45c0-12.5,4.25-18.53,16-22.71c13.54-0.2,19.09,3.63,23.73,16.4
			C254.49,288.82,254.57,314.76,254.65,340.71z"/>
		<path fill="#93E9FA" d="M106.58,325.87c3.53,3.85,8.81,4.74,12.91,7.83c8.47,6.37,13.17,14.7,15.14,24.84
			c0.44,2.27,0.78,4.56,1.17,6.85c-22.19,0.08-44.37,0.16-66.56,0.24c-1.82,0.01-3.64,0.03-5.46,0.04
			c-13.24,0.02-26.49,0.04-39.73,0.06c-10.04,0.45-17.87-2.91-22.21-12.6c-1.07-2.38-1.23-4.78-1.23-7.29
			c0.01-25.29,0.53-50.6-0.22-75.87c-0.42-13.95,7.29-25.1,23.65-23.36c11.74,3.93,15.8,9.59,15.82,22.04
			c0.01,5.63,0.07,11.25,0.11,16.88c-0.07,11.62,0.08,23.24-0.33,34.84c-0.16,4.62,1.5,5.45,5.68,5.42
			C65.75,325.65,86.17,325.81,106.58,325.87z M31.77,293.67c0-4.16,0.12-8.32-0.03-12.47c-0.21-6.06-5.65-11.08-11.87-11.15
			c-5.48-0.06-11.16,5.44-11.26,11.23c-0.14,8.31-0.16,16.63,0,24.94c0.13,6.7,4.89,11.35,11.32,11.45
			c6.57,0.1,11.61-4.73,11.82-11.53C31.89,301.99,31.78,297.83,31.77,293.67z"/>
		<path fill="#BB6300" d="M254.41,262.88c-4.64-12.77-10.19-16.61-23.73-16.4c-0.03-9.8-0.02-19.59-0.13-29.39
			c-0.03-2.8-0.4-5.6-0.62-8.4c1.17-1.65,0.69-3.55,0.69-5.34c0.02-67.59,0.01-135.18,0-202.76c7.99-0.42,15.98-0.45,23.96,0.02
			c0.01,86.26,0.02,172.52,0.02,258.79C254.61,260.56,254.48,261.72,254.41,262.88z"/>
		<path fill="#BC6404" d="M309.7,349.68c13.34,0,26.68,0.01,40.02,0.01c-0.03,4.98,0.03,9.95-0.1,14.93
			c-0.15,5.47-3.23,8.66-8.71,8.77c-7.46,0.15-14.93,0.15-22.39,0c-5.47-0.11-8.55-3.3-8.71-8.78
			C309.67,359.64,309.73,354.66,309.7,349.68z"/>
		<path fill="#048AA8" d="M24.05,365.73c13.24-0.02,26.49-0.04,39.73-0.06c0,4.98,0.09,9.97-0.04,14.95
			c-0.14,5.36-2.99,8.45-8.3,8.59c-7.64,0.2-15.28,0.17-22.92,0c-5.21-0.12-8.26-3.27-8.43-8.53
			C23.93,375.7,24.05,370.72,24.05,365.73z"/>
		<path fill="#068BA9" d="M190.72,365.67c13.3,0,26.6,0,39.9,0c-0.01,4.99,0.09,9.99-0.05,14.98c-0.16,5.26-3.17,8.45-8.42,8.58
			c-7.65,0.19-15.31,0.17-22.97-0.01c-5.2-0.12-8.26-3.33-8.4-8.57C190.63,375.66,190.73,370.67,190.72,365.67z"/>
		<path fill="#BB6300" d="M309.73,171.19c0,5.15,0.06,10.3-0.02,15.45c-0.1,6.65-4.7,11.69-10.85,12.03
			c-6.38,0.36-12.81-4.79-12.99-11.21c-0.32-10.95-0.34-21.93,0.03-32.88c0.21-6.34,6.49-12.14,12.05-11.69
			c6.79,0.56,12.53,6.28,11.89,12.86C309.34,160.85,309.73,166.04,309.73,171.19z"/>
		<path fill="#BB6300" d="M198.61,190.56c-7.93,0-15.87,0.01-23.8,0.01c-0.03-11.29-0.13-22.58-0.06-33.86
			c0.05-8.16,5.05-13.72,12.03-13.66c7,0.06,11.9,5.62,11.91,13.65C198.7,167.99,198.64,179.27,198.61,190.56z"/>
		<path fill="#36CDEA" d="M106.58,325.87c-20.42-0.06-40.84-0.23-61.25-0.09c-4.18,0.03-5.85-0.8-5.68-5.42
			c0.41-11.6,0.25-23.23,0.33-34.84c22.29,0.08,44.58,0.23,66.87,0.24c35.93,0.01,71.87-0.08,107.8-0.12
			c0.02,11.81-0.12,23.62,0.13,35.43c0.08,3.87-1.3,4.7-4.9,4.69c-31.6-0.12-63.21-0.08-94.81-0.06
			C112.23,325.69,109.41,325.81,106.58,325.87z"/>
		<path fill="#FAFBFC" d="M31.78,293.67c0,4.16,0.11,8.32-0.02,12.47c-0.21,6.8-5.25,11.64-11.82,11.53
			c-6.43-0.1-11.19-4.75-11.32-11.45c-0.16-8.31-0.14-16.63,0-24.94c0.1-5.79,5.78-11.29,11.26-11.23
			c6.22,0.07,11.66,5.09,11.87,11.15C31.89,285.35,31.77,289.51,31.78,293.67z"/>
	</g>
</g>
</svg>
