<?xml version="1.0" encoding="utf-8"?>
<!-- Generator: Adobe Illustrator 23.0.5, SVG Export Plug-In . SVG Version: 6.00 Build 0)  -->
<svg version="1.1" id="Layer_1" xmlns="http://www.w3.org/2000/svg" xmlns:xlink="http://www.w3.org/1999/xlink" x="0px" y="0px"
	 viewBox="0 0 60 60" enable-background="new 0 0 60 60" xml:space="preserve">
<g>
	<path fill="#FFFFFF" d="M42,6.75c0,3.72-3.03,6.75-6.75,6.75h-10.5c-1.86,0-3.54-0.75-4.77-1.98C18.75,10.29,18,8.61,18,6.75
		C18,3.03,21.03,0,24.75,0h10.5c1.86,0,3.54,0.75,4.77,1.98S42,4.89,42,6.75z"/>
	<path fill="#FFFFFF" d="M50.49,9.09c-0.69-0.57-1.47-1.02-2.31-1.35C47.31,7.41,46.44,8.1,46.26,9c-1.02,5.13-5.55,9-11.01,9h-10.5
		c-3,0-5.82-1.17-7.95-3.3c-1.56-1.56-2.64-3.54-3.06-5.67c-0.18-0.9-1.08-1.62-1.95-1.26C8.31,9.18,6,12.36,6,18.75V48
		c0,9,5.37,12,12,12h24c6.63,0,12-3,12-12V18.75C54,13.86,52.65,10.86,50.49,9.09z M18,30.75h12c1.23,0,2.25,1.02,2.25,2.25
		c0,1.23-1.02,2.25-2.25,2.25H18c-1.23,0-2.25-1.02-2.25-2.25C15.75,31.77,16.77,30.75,18,30.75z M42,47.25H18
		c-1.23,0-2.25-1.02-2.25-2.25c0-1.23,1.02-2.25,2.25-2.25h24c1.23,0,2.25,1.02,2.25,2.25C44.25,46.23,43.23,47.25,42,47.25z"/>
</g>
</svg>
