<?xml version="1.0" encoding="utf-8"?>
<!-- Generator: Adobe Illustrator 23.0.5, SVG Export Plug-In . SVG Version: 6.00 Build 0)  -->
<svg version="1.1" id="Layer_1" xmlns="http://www.w3.org/2000/svg" xmlns:xlink="http://www.w3.org/1999/xlink" x="0px" y="0px"
	 viewBox="0 0 290 50" style="enable-background:new 0 0 290 50;" xml:space="preserve">
<style type="text/css">
	.st0{fill:#FFFFFF;}
</style>
<g>
	<path class="st0" d="M49.2,4.7c-5.7-3.8-16.5-0.3-24.2,8.9c-0.2,0.3,0.1,0.7,0.4,0.4c6.2-4.6,13.9-7.6,16.9-5.6
		c4.5,3.1,3.9,12-1.4,19.9s-14.5,12.5-19,9.5c-1.5-1-2.6-2.1-3.3-3.4c-0.3-0.5-1-0.4-1.1,0.2c-0.2,4.5,0.8,8.6,4.2,10.9
		c6.2,4.2,17.4-1.5,25-12.8C54.4,21.4,55.5,8.9,49.2,4.7z"/>
	<path class="st0" d="M9.2,16.4h31.4c0.7,0,1.2,0.7,1.2,1.6l0,0c0,0.9-0.6,1.6-1.2,1.6H9.2C8.5,19.5,8,18.8,8,18l0,0
		C8,17.1,8.5,16.4,9.2,16.4z"/>
	<path class="st0" d="M5.1,22.9h33.8c0.7,0,1.3,0.7,1.3,1.6l0,0c0,0.9-0.6,1.6-1.3,1.6H5.1c-0.7,0-1.3-0.7-1.3-1.6l0,0
		C3.8,23.6,4.4,22.9,5.1,22.9z"/>
	<path class="st0" d="M2.1,29.1h33.8c0.7,0,1.3,0.7,1.3,1.6l0,0c0,0.9-0.6,1.6-1.3,1.6H2.1c-0.7,0-1.3-0.7-1.3-1.6l0,0
		C0.8,29.8,1.4,29.1,2.1,29.1z"/>
	<g>
		<path class="st0" d="M67.8,33.5c-0.7,0-1.3-0.2-1.7-0.6s-0.7-0.9-0.8-1.4c-0.1-0.6,0.1-1.2,0.6-1.8l6.4-8.4v2.5L66,15.7
			c-0.5-0.6-0.7-1.2-0.6-1.8c0.1-0.6,0.3-1.1,0.8-1.4c0.5-0.4,1-0.6,1.7-0.6c0.6,0,1.1,0.1,1.5,0.4s0.9,0.7,1.3,1.4l4.5,6.2h-1.8
			l4.5-6.2c0.4-0.6,0.9-1.1,1.3-1.4c0.4-0.3,0.9-0.4,1.5-0.4c0.7,0,1.3,0.2,1.8,0.6c0.5,0.4,0.7,0.9,0.8,1.4s-0.1,1.2-0.6,1.8
			l-6.2,8.2v-2.5l6.4,8.4c0.5,0.6,0.7,1.2,0.6,1.8c-0.1,0.6-0.3,1.1-0.8,1.4c-0.5,0.4-1.1,0.6-1.8,0.6c-0.6,0-1.1-0.1-1.5-0.4
			s-0.9-0.7-1.3-1.4l-4.6-6.4h1.7l-4.6,6.4c-0.5,0.6-0.9,1.1-1.3,1.4C68.9,33.4,68.4,33.5,67.8,33.5z"/>
		<path class="st0" d="M93.7,33.6c-1.7,0-3.1-0.3-4.3-0.9s-2.2-1.5-2.9-2.7c-0.7-1.2-1-2.5-1-4.1c0-1.2,0.2-2.3,0.6-3.2
			s0.9-1.8,1.7-2.4c0.7-0.7,1.6-1.2,2.6-1.5s2.1-0.5,3.4-0.5c0.6,0,1.2,0.1,1.8,0.2s1.3,0.3,2,0.6c0.5,0.2,0.8,0.5,1,0.8
			s0.3,0.8,0.2,1.2c0,0.4-0.2,0.8-0.4,1.1s-0.5,0.6-0.9,0.7s-0.8,0.1-1.3-0.1c-0.3-0.2-0.7-0.3-1-0.3c-0.3-0.1-0.7-0.1-1-0.1
			c-0.5,0-1,0.1-1.4,0.2s-0.8,0.4-1,0.7s-0.5,0.7-0.7,1.1c-0.2,0.5-0.2,1-0.2,1.6c0,1.2,0.3,2.1,0.9,2.7s1.4,1,2.5,1
			c0.3,0,0.7,0,1-0.1s0.7-0.2,1-0.4c0.5-0.2,0.9-0.3,1.2-0.1c0.4,0.1,0.7,0.4,0.9,0.7c0.2,0.3,0.3,0.7,0.4,1.1
			c0,0.4-0.1,0.8-0.3,1.2c-0.2,0.4-0.5,0.7-1,0.8c-0.7,0.3-1.3,0.5-1.9,0.6C94.9,33.5,94.3,33.6,93.7,33.6z"/>
		<path class="st0" d="M103.4,33.5c-0.9,0-1.6-0.2-2-0.7s-0.7-1.1-0.7-2v-9.9c0-0.9,0.2-1.5,0.7-2s1.1-0.7,1.9-0.7s1.5,0.2,1.9,0.7
			c0.4,0.5,0.7,1.1,0.7,2v1.2h-0.3c0.2-1.2,0.7-2.1,1.5-2.9s1.9-1.1,3.1-1.1c0.6,0,1,0.1,1.3,0.4c0.3,0.3,0.4,0.9,0.5,1.7
			c0,0.7-0.2,1.3-0.4,1.7c-0.3,0.4-0.9,0.7-1.7,0.8l-0.7,0.1c-1.1,0.1-1.8,0.4-2.3,0.9c-0.5,0.5-0.7,1.2-0.7,2.2v4.9
			c0,0.9-0.2,1.6-0.7,2S104.3,33.5,103.4,33.5z"/>
		<path class="st0" d="M120.9,33.6c-1.6,0-3.1-0.3-4.3-0.9s-2.2-1.5-2.8-2.7s-1-2.5-1-4.1c0-1.2,0.2-2.3,0.6-3.2
			c0.4-1,0.9-1.8,1.7-2.4s1.6-1.2,2.6-1.5s2.1-0.5,3.4-0.5c1.6,0,3.1,0.3,4.3,0.9s2.2,1.5,2.8,2.7c0.7,1.1,1,2.5,1,4.1
			c0,1.2-0.2,2.3-0.6,3.2s-0.9,1.8-1.6,2.4s-1.6,1.2-2.6,1.5S122.1,33.6,120.9,33.6z M120.9,29.7c0.5,0,1-0.1,1.4-0.4
			c0.4-0.3,0.8-0.7,1-1.2s0.3-1.3,0.3-2.1c0-1.3-0.3-2.3-0.8-2.9s-1.2-0.9-2-0.9c-0.5,0-1,0.1-1.4,0.4c-0.4,0.3-0.8,0.7-1,1.2
			c-0.2,0.5-0.4,1.3-0.4,2.2c0,1.3,0.3,2.3,0.8,2.9C119.4,29.4,120.1,29.7,120.9,29.7z"/>
		<path class="st0" d="M137.4,33.6c-0.9,0-1.8-0.1-2.7-0.2s-1.7-0.4-2.5-0.7c-0.5-0.2-0.9-0.5-1.1-0.8s-0.3-0.7-0.3-1.1
			s0.1-0.7,0.3-1c0.2-0.3,0.5-0.5,0.8-0.7c0.4-0.1,0.8-0.1,1.2,0c0.8,0.3,1.6,0.5,2.3,0.6c0.7,0.1,1.3,0.2,1.9,0.2
			c0.7,0,1.3-0.1,1.6-0.3c0.3-0.2,0.5-0.5,0.5-0.8c0-0.3-0.1-0.5-0.3-0.7s-0.5-0.3-0.9-0.3l-3.3-0.5c-1.2-0.2-2.2-0.7-2.9-1.4
			c-0.7-0.7-1-1.6-1-2.7c0-1,0.3-1.9,0.9-2.7s1.4-1.3,2.4-1.7s2.2-0.6,3.6-0.6c0.9,0,1.7,0.1,2.5,0.2c0.7,0.1,1.5,0.4,2.2,0.7
			c0.4,0.2,0.8,0.4,0.9,0.8s0.3,0.7,0.2,1.1c0,0.4-0.2,0.7-0.4,1c-0.2,0.3-0.5,0.5-0.9,0.6c-0.4,0.1-0.8,0.1-1.3-0.1
			c-0.7-0.3-1.3-0.5-1.8-0.6c-0.5-0.1-1-0.2-1.4-0.2c-0.8,0-1.4,0.1-1.7,0.3c-0.3,0.2-0.5,0.5-0.5,0.8c0,0.3,0.1,0.5,0.3,0.6
			c0.2,0.2,0.5,0.3,0.8,0.4l3.3,0.6c1.3,0.2,2.3,0.6,3,1.3s1,1.6,1,2.7c0,1.6-0.6,2.9-1.9,3.8S139.4,33.6,137.4,33.6z"/>
		<path class="st0" d="M152.3,33.6c-0.9,0-1.8-0.1-2.7-0.2s-1.7-0.4-2.5-0.7c-0.5-0.2-0.9-0.5-1.1-0.8s-0.3-0.7-0.3-1.1
			s0.1-0.7,0.3-1c0.2-0.3,0.5-0.5,0.8-0.7c0.4-0.1,0.8-0.1,1.2,0c0.8,0.3,1.6,0.5,2.3,0.6c0.7,0.1,1.3,0.2,1.9,0.2
			c0.7,0,1.3-0.1,1.6-0.3c0.3-0.2,0.5-0.5,0.5-0.8c0-0.3-0.1-0.5-0.3-0.7s-0.5-0.3-0.9-0.3l-3.3-0.5c-1.2-0.2-2.2-0.7-2.9-1.4
			c-0.7-0.7-1-1.6-1-2.7c0-1,0.3-1.9,0.9-2.7s1.4-1.3,2.4-1.7s2.2-0.6,3.6-0.6c0.9,0,1.7,0.1,2.5,0.2c0.7,0.1,1.5,0.4,2.2,0.7
			c0.4,0.2,0.8,0.4,0.9,0.8s0.3,0.7,0.2,1.1c0,0.4-0.2,0.7-0.4,1c-0.2,0.3-0.5,0.5-0.9,0.6c-0.4,0.1-0.8,0.1-1.3-0.1
			c-0.7-0.3-1.3-0.5-1.8-0.6c-0.5-0.1-1-0.2-1.4-0.2c-0.8,0-1.4,0.1-1.7,0.3c-0.3,0.2-0.5,0.5-0.5,0.8c0,0.3,0.1,0.5,0.3,0.6
			c0.2,0.2,0.5,0.3,0.8,0.4l3.3,0.6c1.3,0.2,2.3,0.6,3,1.3s1,1.6,1,2.7c0,1.6-0.6,2.9-1.9,3.8S154.3,33.6,152.3,33.6z"/>
		<path class="st0" d="M163.9,16.1c-0.9,0-1.7-0.2-2.2-0.7c-0.5-0.4-0.8-1.1-0.8-1.9c0-0.8,0.3-1.4,0.8-1.9c0.5-0.4,1.2-0.7,2.2-0.7
			c1,0,1.7,0.2,2.2,0.7s0.8,1.1,0.8,1.9c0,0.8-0.3,1.5-0.8,1.9S164.9,16.1,163.9,16.1z M163.9,33.5c-0.8,0-1.5-0.3-1.9-0.8
			c-0.5-0.5-0.7-1.2-0.7-2.2v-9.5c0-0.9,0.2-1.7,0.7-2.2s1.1-0.8,1.9-0.8c0.9,0,1.5,0.3,2,0.8c0.5,0.5,0.7,1.2,0.7,2.2v9.5
			c0,0.9-0.2,1.7-0.7,2.2C165.5,33.3,164.8,33.5,163.9,33.5z"/>
		<path class="st0" d="M172.3,33.5c-0.8,0-1.5-0.2-1.9-0.7s-0.7-1.1-0.7-2v-9.9c0-0.9,0.2-1.5,0.7-2s1.1-0.7,1.9-0.7
			s1.5,0.2,1.9,0.7c0.4,0.5,0.7,1.1,0.7,2v1.4l-0.3-1.2c0.5-0.9,1.2-1.7,2.1-2.2s1.9-0.8,3-0.8c1.2,0,2.1,0.2,2.9,0.7
			s1.3,1.1,1.7,2.1s0.6,2.1,0.6,3.6v6.3c0,0.9-0.2,1.5-0.7,2s-1.1,0.7-2,0.7s-1.5-0.2-2-0.7s-0.7-1.1-0.7-2v-6.1
			c0-0.9-0.2-1.5-0.5-1.9c-0.3-0.4-0.8-0.6-1.4-0.6c-0.8,0-1.4,0.3-1.9,0.8s-0.7,1.2-0.7,2.1v5.8C175,32.7,174.1,33.5,172.3,33.5z"
			/>
		<path class="st0" d="M195.2,39c-1.1,0-2.1-0.1-3.1-0.2c-1-0.2-1.8-0.4-2.5-0.7c-0.6-0.2-1-0.5-1.2-0.9c-0.2-0.4-0.4-0.8-0.3-1.2
			c0-0.4,0.1-0.8,0.3-1.1s0.5-0.6,0.9-0.7c0.4-0.2,0.8-0.2,1.2,0c0.9,0.4,1.7,0.6,2.4,0.7c0.7,0.1,1.3,0.2,1.8,0.2
			c1.2,0,2.1-0.3,2.8-0.8c0.6-0.5,0.9-1.3,0.9-2.4V30h0.2c-0.3,0.8-0.9,1.5-1.8,2c-0.9,0.5-1.9,0.8-3,0.8c-1.3,0-2.5-0.3-3.4-0.9
			c-1-0.6-1.8-1.5-2.3-2.6c-0.6-1.1-0.8-2.4-0.8-3.9c0-1.1,0.2-2.1,0.5-3c0.3-0.9,0.8-1.7,1.3-2.3c0.6-0.6,1.3-1.1,2.1-1.5
			c0.8-0.4,1.7-0.5,2.7-0.5c1.1,0,2.1,0.3,3,0.8s1.5,1.2,1.8,2l-0.3,1.2v-1.3c0-0.9,0.2-1.5,0.7-2s1.1-0.7,2-0.7s1.5,0.2,1.9,0.7
			s0.7,1.1,0.7,2v10.4c0,2.6-0.7,4.5-2.2,5.8C199.9,38.4,197.9,39,195.2,39z M195.4,29c0.6,0,1.1-0.1,1.5-0.4c0.4-0.3,0.8-0.7,1-1.2
			s0.4-1.1,0.4-1.8c0-1.1-0.3-1.9-0.8-2.5s-1.2-0.9-2.1-0.9c-0.6,0-1.1,0.1-1.5,0.4s-0.8,0.7-1,1.2c-0.2,0.5-0.3,1.1-0.3,1.9
			c0,1.1,0.3,1.9,0.8,2.5C193.9,28.7,194.5,29,195.4,29z"/>
		<path class="st0" d="M218.4,33.3c-0.9,0-1.6-0.3-2.1-0.7c-0.5-0.5-0.7-1.2-0.7-2V14.9c0-0.9,0.2-1.6,0.7-2.1s1.2-0.7,2-0.7
			c0.9,0,1.6,0.2,2.1,0.7c0.5,0.5,0.7,1.2,0.7,2.1v13.8h7.3c0.8,0,1.3,0.2,1.8,0.6s0.6,1,0.6,1.7c0,0.7-0.2,1.3-0.6,1.7
			c-0.4,0.4-1,0.6-1.8,0.6L218.4,33.3L218.4,33.3z"/>
		<path class="st0" d="M235.4,16.1c-0.9,0-1.7-0.2-2.2-0.7c-0.5-0.4-0.8-1.1-0.8-1.9c0-0.8,0.3-1.4,0.8-1.9c0.5-0.4,1.2-0.7,2.2-0.7
			c1,0,1.7,0.2,2.2,0.7s0.8,1.1,0.8,1.9c0,0.8-0.3,1.5-0.8,1.9S236.4,16.1,235.4,16.1z M235.4,33.5c-0.8,0-1.5-0.3-1.9-0.8
			c-0.5-0.5-0.7-1.2-0.7-2.2v-9.5c0-0.9,0.2-1.7,0.7-2.2s1.1-0.8,1.9-0.8c0.9,0,1.5,0.3,2,0.8c0.5,0.5,0.7,1.2,0.7,2.2v9.5
			c0,0.9-0.2,1.7-0.7,2.2C237,33.3,236.3,33.5,235.4,33.5z"/>
		<path class="st0" d="M243.9,33.5c-0.8,0-1.5-0.2-1.9-0.7s-0.7-1.1-0.7-2v-9.9c0-0.9,0.2-1.5,0.7-2s1.1-0.7,1.9-0.7
			s1.5,0.2,1.9,0.7c0.4,0.5,0.7,1.1,0.7,2v1.4l-0.3-1.2c0.5-0.9,1.2-1.7,2.1-2.2s1.9-0.8,3-0.8c1.2,0,2.1,0.2,2.9,0.7
			s1.3,1.1,1.7,2.1c0.4,1,0.6,2.1,0.6,3.6v6.3c0,0.9-0.2,1.5-0.7,2c-0.5,0.5-1.1,0.7-2,0.7s-1.5-0.2-2-0.7s-0.7-1.1-0.7-2v-6.1
			c0-0.9-0.2-1.5-0.5-1.9c-0.3-0.4-0.8-0.6-1.4-0.6c-0.8,0-1.4,0.3-1.9,0.8s-0.7,1.2-0.7,2.1v5.8C246.6,32.7,245.7,33.5,243.9,33.5z
			"/>
		<path class="st0" d="M267.4,33.6c-1.8,0-3.4-0.3-4.7-1c-1.3-0.6-2.3-1.5-3-2.7s-1-2.5-1-4.1c0-1.5,0.3-2.9,1-4
			c0.7-1.1,1.6-2,2.8-2.7c1.2-0.6,2.5-1,4-1c1.1,0,2.1,0.2,3,0.5c0.9,0.4,1.7,0.9,2.3,1.5c0.6,0.7,1.1,1.5,1.5,2.4s0.5,2,0.5,3.1
			c0,0.4-0.1,0.7-0.3,0.9c-0.2,0.2-0.6,0.3-1,0.3h-9.2v-2.5h6.7l-0.5,0.4c0-0.7-0.1-1.3-0.3-1.8c-0.2-0.5-0.5-0.8-0.9-1
			c-0.4-0.2-0.9-0.4-1.5-0.4c-0.6,0-1.2,0.1-1.6,0.4c-0.5,0.3-0.8,0.7-1,1.3c-0.2,0.6-0.4,1.3-0.4,2.1v0.3c0,1.4,0.3,2.4,1,3
			c0.6,0.6,1.6,0.9,2.9,0.9c0.4,0,1,0,1.5-0.2c0.6-0.1,1.1-0.3,1.6-0.5c0.5-0.2,1-0.2,1.4-0.1s0.7,0.4,0.9,0.7s0.3,0.7,0.4,1
			c0,0.4-0.1,0.8-0.3,1.1c-0.2,0.4-0.5,0.7-1,0.9c-0.7,0.3-1.5,0.6-2.2,0.7C269,33.5,268.2,33.6,267.4,33.6z"/>
		<path class="st0" d="M281.9,33.6c-0.9,0-1.8-0.1-2.7-0.2s-1.7-0.4-2.5-0.7c-0.5-0.2-0.9-0.5-1.1-0.8s-0.3-0.7-0.3-1.1
			s0.1-0.7,0.3-1c0.2-0.3,0.5-0.5,0.8-0.7s0.8-0.1,1.2,0c0.8,0.3,1.6,0.5,2.3,0.6c0.7,0.1,1.3,0.2,1.9,0.2c0.7,0,1.3-0.1,1.6-0.3
			s0.5-0.5,0.5-0.8c0-0.3-0.1-0.5-0.3-0.7c-0.2-0.2-0.5-0.3-0.9-0.3l-3.3-0.5c-1.2-0.2-2.2-0.7-2.9-1.4s-1-1.6-1-2.7
			c0-1,0.3-1.9,0.9-2.7s1.4-1.3,2.4-1.7s2.2-0.6,3.6-0.6c0.9,0,1.7,0.1,2.5,0.2c0.7,0.1,1.5,0.4,2.2,0.7c0.4,0.2,0.8,0.4,0.9,0.8
			s0.3,0.7,0.2,1.1c0,0.4-0.2,0.7-0.4,1c-0.2,0.3-0.5,0.5-0.9,0.6c-0.4,0.1-0.8,0.1-1.3-0.1c-0.7-0.3-1.3-0.5-1.8-0.6
			c-0.5-0.1-1-0.2-1.4-0.2c-0.8,0-1.4,0.1-1.7,0.3s-0.5,0.5-0.5,0.8c0,0.3,0.1,0.5,0.3,0.6s0.5,0.3,0.8,0.4l3.3,0.6
			c1.3,0.2,2.3,0.6,3,1.3s1,1.6,1,2.7c0,1.6-0.6,2.9-1.9,3.8S284,33.6,281.9,33.6z"/>
	</g>
</g>
</svg>
