<?xml version="1.0" encoding="utf-8"?>
<!-- Generator: Adobe Illustrator 23.0.5, SVG Export Plug-In . SVG Version: 6.00 Build 0)  -->
<svg version="1.1" id="Layer_1" xmlns="http://www.w3.org/2000/svg" xmlns:xlink="http://www.w3.org/1999/xlink" x="0px" y="0px"
	 viewBox="0 0 290 50" enable-background="new 0 0 290 50" xml:space="preserve">
<g>
	<g>
		<path fill="#272460" d="M58.24,4.7c-5.67-3.82-16.54-0.3-24.17,8.86c-0.23,0.28,0.13,0.66,0.42,0.45
			c6.17-4.59,13.93-7.59,16.86-5.62c4.55,3.07,3.91,11.98-1.43,19.9S35.45,40.83,30.9,37.76c-1.52-1.03-2.63-2.12-3.31-3.42
			c-0.27-0.51-1.03-0.36-1.06,0.21c-0.19,4.46,0.82,8.6,4.23,10.9c6.23,4.2,17.42-1.52,25.01-12.77C63.36,21.42,64.47,8.9,58.24,4.7
			z"/>
		<path fill="#7FBFE9" d="M8.81,15.66h40.41c0.87,0,1.57,0.71,1.57,1.57v0c0,0.87-0.71,1.57-1.57,1.57H8.81
			c-0.87,0-1.57-0.71-1.57-1.57v0C7.24,16.36,7.94,15.66,8.81,15.66z"/>
		<path fill="#7FBFE9" d="M5.57,22.14H47.6c0.87,0,1.57,0.71,1.57,1.57v0c0,0.87-0.71,1.57-1.57,1.57H5.57
			C4.7,25.29,4,24.58,4,23.71v0C4,22.84,4.7,22.14,5.57,22.14z"/>
		<path fill="#7FBFE9" d="M2.51,29.34h42.03c0.87,0,1.57,0.71,1.57,1.57v0c0,0.87-0.71,1.57-1.57,1.57H2.51
			c-0.87,0-1.57-0.71-1.57-1.57v0C0.94,30.04,1.64,29.34,2.51,29.34z"/>
	</g>
	<g>
		<path fill="#7FBFE9" d="M68.14,33.55c-0.7,0-1.28-0.19-1.74-0.57c-0.46-0.38-0.73-0.86-0.79-1.44c-0.07-0.58,0.12-1.17,0.58-1.77
			l6.36-8.4v2.49l-6.18-8.19c-0.46-0.62-0.66-1.22-0.58-1.8c0.07-0.58,0.33-1.06,0.79-1.44c0.46-0.38,1.04-0.57,1.74-0.57
			c0.58,0,1.09,0.14,1.53,0.42c0.44,0.28,0.88,0.73,1.32,1.35l4.47,6.21h-1.8l4.5-6.21c0.44-0.64,0.88-1.1,1.32-1.37
			c0.44-0.27,0.95-0.4,1.53-0.4c0.72,0,1.31,0.19,1.77,0.55c0.46,0.37,0.72,0.85,0.79,1.43c0.07,0.58-0.13,1.19-0.61,1.83
			l-6.21,8.19v-2.49l6.36,8.4c0.48,0.6,0.69,1.19,0.61,1.77s-0.33,1.06-0.79,1.44c-0.46,0.38-1.05,0.57-1.77,0.57
			c-0.56,0-1.06-0.13-1.5-0.4c-0.44-0.27-0.89-0.73-1.35-1.37l-4.62-6.39h1.74l-4.59,6.39c-0.46,0.64-0.91,1.09-1.35,1.37
			C69.23,33.42,68.72,33.55,68.14,33.55z"/>
		<path fill="#272460" d="M94.03,33.61c-1.66,0-3.1-0.31-4.33-0.93c-1.23-0.62-2.19-1.51-2.86-2.68c-0.68-1.17-1.02-2.54-1.02-4.13
			c0-1.2,0.19-2.28,0.57-3.23s0.93-1.76,1.67-2.42c0.73-0.66,1.6-1.17,2.61-1.52c1.01-0.35,2.13-0.52,3.38-0.52
			c0.58,0,1.19,0.06,1.83,0.17s1.3,0.31,1.98,0.61c0.48,0.18,0.81,0.46,1,0.83s0.27,0.76,0.24,1.19c-0.03,0.42-0.15,0.8-0.36,1.14
			c-0.21,0.34-0.5,0.57-0.87,0.69c-0.37,0.12-0.79,0.07-1.25-0.15c-0.32-0.16-0.66-0.27-1-0.34c-0.35-0.07-0.69-0.1-1-0.1
			c-0.54,0-1.02,0.08-1.43,0.24c-0.41,0.16-0.75,0.4-1.03,0.71c-0.28,0.31-0.5,0.7-0.65,1.15c-0.15,0.46-0.23,0.98-0.23,1.56
			c0,1.16,0.29,2.07,0.87,2.73c0.58,0.66,1.4,0.99,2.46,0.99c0.32,0,0.65-0.03,0.99-0.1c0.34-0.07,0.68-0.18,1.02-0.35
			c0.46-0.22,0.87-0.26,1.23-0.13c0.36,0.13,0.65,0.37,0.87,0.71c0.22,0.34,0.34,0.72,0.36,1.13c0.02,0.41-0.07,0.8-0.27,1.17
			c-0.2,0.37-0.54,0.65-1.02,0.83c-0.66,0.3-1.3,0.5-1.94,0.62C95.22,33.55,94.61,33.61,94.03,33.61z"/>
		<path fill="#272460" d="M103.75,33.55c-0.88,0-1.56-0.23-2.03-0.69s-0.71-1.13-0.71-2.01v-9.93c0-0.86,0.23-1.52,0.68-1.98
			c0.45-0.46,1.09-0.69,1.93-0.69s1.48,0.23,1.92,0.69c0.44,0.46,0.66,1.12,0.66,1.98v1.23h-0.3c0.2-1.2,0.71-2.15,1.54-2.85
			c0.83-0.7,1.86-1.07,3.1-1.11c0.58-0.02,1.02,0.13,1.31,0.44c0.29,0.31,0.44,0.88,0.46,1.72c0,0.72-0.15,1.29-0.45,1.71
			c-0.3,0.42-0.87,0.67-1.71,0.75l-0.69,0.06c-1.06,0.1-1.83,0.4-2.31,0.89c-0.48,0.49-0.72,1.21-0.72,2.17v4.92
			c0,0.88-0.23,1.55-0.69,2.01S104.63,33.55,103.75,33.55z"/>
		<path fill="#272460" d="M121.24,33.61c-1.64,0-3.07-0.31-4.29-0.93c-1.22-0.62-2.17-1.51-2.85-2.67
			c-0.68-1.16-1.02-2.53-1.02-4.11c0-1.2,0.19-2.28,0.57-3.23c0.38-0.95,0.93-1.76,1.65-2.43c0.72-0.67,1.58-1.18,2.58-1.53
			c1-0.35,2.12-0.52,3.36-0.52c1.64,0,3.07,0.31,4.29,0.93c1.22,0.62,2.16,1.51,2.83,2.66c0.67,1.15,1,2.52,1,4.13
			c0,1.18-0.19,2.25-0.57,3.21s-0.92,1.77-1.63,2.44c-0.71,0.67-1.57,1.18-2.58,1.53S122.46,33.61,121.24,33.61z M121.24,29.68
			c0.54,0,1.02-0.13,1.44-0.4c0.42-0.27,0.75-0.68,0.98-1.23c0.23-0.55,0.34-1.26,0.34-2.14c0-1.34-0.26-2.31-0.78-2.9
			s-1.18-0.89-1.98-0.89c-0.54,0-1.02,0.13-1.44,0.39c-0.42,0.26-0.75,0.67-0.99,1.21c-0.24,0.55-0.36,1.28-0.36,2.18
			c0,1.32,0.26,2.28,0.78,2.88C119.75,29.38,120.42,29.68,121.24,29.68z"/>
		<path fill="#272460" d="M137.71,33.61c-0.88,0-1.78-0.07-2.69-0.2s-1.74-0.36-2.47-0.71c-0.5-0.2-0.86-0.47-1.07-0.81
			s-0.31-0.7-0.3-1.08c0.01-0.38,0.12-0.72,0.33-1.04c0.21-0.31,0.49-0.53,0.84-0.66c0.35-0.13,0.75-0.12,1.18,0.04
			c0.84,0.3,1.59,0.52,2.27,0.65c0.67,0.13,1.31,0.19,1.93,0.19c0.74,0,1.27-0.1,1.59-0.31c0.32-0.21,0.48-0.49,0.48-0.83
			c0-0.3-0.11-0.53-0.32-0.69c-0.21-0.16-0.5-0.27-0.88-0.33l-3.33-0.54c-1.24-0.22-2.2-0.67-2.88-1.36
			c-0.68-0.69-1.02-1.6-1.02-2.72c0-1.04,0.29-1.94,0.88-2.69s1.4-1.33,2.43-1.74c1.03-0.41,2.21-0.61,3.56-0.61
			c0.9,0,1.72,0.06,2.46,0.19c0.74,0.13,1.46,0.37,2.16,0.71c0.44,0.18,0.75,0.44,0.93,0.78c0.18,0.34,0.25,0.7,0.21,1.06
			c-0.04,0.37-0.17,0.71-0.38,1.02c-0.21,0.31-0.5,0.52-0.86,0.63c-0.36,0.11-0.78,0.08-1.26-0.08c-0.66-0.26-1.25-0.45-1.75-0.57
			c-0.51-0.12-0.99-0.18-1.42-0.18c-0.82,0-1.4,0.11-1.74,0.33c-0.34,0.22-0.51,0.5-0.51,0.84c0,0.26,0.09,0.48,0.27,0.65
			c0.18,0.17,0.46,0.29,0.84,0.35l3.33,0.57c1.28,0.2,2.27,0.64,2.96,1.31c0.69,0.67,1.04,1.58,1.04,2.71
			c0,1.62-0.62,2.88-1.86,3.77S139.77,33.61,137.71,33.61z"/>
		<path fill="#272460" d="M152.59,33.61c-0.88,0-1.78-0.07-2.69-0.2s-1.74-0.36-2.47-0.71c-0.5-0.2-0.86-0.47-1.07-0.81
			s-0.31-0.7-0.3-1.08c0.01-0.38,0.12-0.72,0.33-1.04c0.21-0.31,0.49-0.53,0.84-0.66c0.35-0.13,0.75-0.12,1.18,0.04
			c0.84,0.3,1.59,0.52,2.27,0.65c0.67,0.13,1.31,0.19,1.93,0.19c0.74,0,1.27-0.1,1.59-0.31c0.32-0.21,0.48-0.49,0.48-0.83
			c0-0.3-0.11-0.53-0.32-0.69c-0.21-0.16-0.5-0.27-0.88-0.33l-3.33-0.54c-1.24-0.22-2.2-0.67-2.88-1.36
			c-0.68-0.69-1.02-1.6-1.02-2.72c0-1.04,0.29-1.94,0.88-2.69s1.4-1.33,2.43-1.74c1.03-0.41,2.21-0.61,3.56-0.61
			c0.9,0,1.72,0.06,2.46,0.19c0.74,0.13,1.46,0.37,2.16,0.71c0.44,0.18,0.75,0.44,0.93,0.78c0.18,0.34,0.25,0.7,0.21,1.06
			c-0.04,0.37-0.17,0.71-0.38,1.02c-0.21,0.31-0.5,0.52-0.86,0.63c-0.36,0.11-0.78,0.08-1.26-0.08c-0.66-0.26-1.25-0.45-1.75-0.57
			c-0.51-0.12-0.99-0.18-1.42-0.18c-0.82,0-1.4,0.11-1.74,0.33c-0.34,0.22-0.51,0.5-0.51,0.84c0,0.26,0.09,0.48,0.27,0.65
			c0.18,0.17,0.46,0.29,0.84,0.35l3.33,0.57c1.28,0.2,2.27,0.64,2.96,1.31c0.69,0.67,1.04,1.58,1.04,2.71
			c0,1.62-0.62,2.88-1.86,3.77S154.65,33.61,152.59,33.61z"/>
		<path fill="#272460" d="M164.23,16.12c-0.94,0-1.67-0.22-2.17-0.66c-0.51-0.44-0.77-1.08-0.77-1.92c0-0.82,0.25-1.45,0.77-1.89
			c0.51-0.44,1.23-0.66,2.17-0.66c0.98,0,1.72,0.22,2.22,0.66s0.75,1.07,0.75,1.89c0,0.84-0.25,1.48-0.75,1.92
			S165.21,16.12,164.23,16.12z M164.23,33.55c-0.84,0-1.49-0.25-1.95-0.75c-0.46-0.5-0.69-1.22-0.69-2.16v-9.48
			c0-0.94,0.23-1.66,0.69-2.16s1.11-0.75,1.95-0.75c0.86,0,1.52,0.25,2,0.75c0.47,0.5,0.71,1.22,0.71,2.16v9.48
			c0,0.94-0.23,1.66-0.69,2.16C165.78,33.3,165.11,33.55,164.23,33.55z"/>
		<path fill="#272460" d="M172.66,33.55c-0.84,0-1.49-0.23-1.95-0.69s-0.69-1.13-0.69-2.01v-9.93c0-0.86,0.23-1.52,0.68-1.98
			c0.45-0.46,1.09-0.69,1.93-0.69s1.48,0.23,1.92,0.69c0.44,0.46,0.66,1.12,0.66,1.98v1.41l-0.33-1.23
			c0.48-0.94,1.17-1.66,2.05-2.16s1.91-0.75,3.04-0.75c1.18,0,2.15,0.22,2.91,0.67s1.33,1.15,1.71,2.1
			c0.38,0.95,0.57,2.15,0.57,3.58v6.3c0,0.88-0.23,1.55-0.69,2.01s-1.12,0.69-1.98,0.69c-0.86,0-1.52-0.23-1.98-0.69
			s-0.69-1.13-0.69-2.01v-6.09c0-0.9-0.16-1.54-0.46-1.92c-0.31-0.38-0.77-0.57-1.37-0.57c-0.8,0-1.44,0.25-1.92,0.76
			c-0.48,0.51-0.72,1.2-0.72,2.06v5.76C175.36,32.65,174.46,33.55,172.66,33.55z"/>
		<path fill="#272460" d="M195.52,39.01c-1.1,0-2.13-0.08-3.09-0.22c-0.96-0.15-1.79-0.37-2.49-0.65c-0.58-0.2-0.99-0.49-1.23-0.87
			c-0.24-0.38-0.35-0.78-0.33-1.2c0.02-0.42,0.13-0.8,0.34-1.14s0.5-0.58,0.86-0.73c0.36-0.15,0.76-0.15,1.2,0.01
			c0.88,0.36,1.68,0.59,2.4,0.71c0.72,0.11,1.33,0.17,1.83,0.17c1.22,0,2.13-0.25,2.75-0.76c0.61-0.51,0.92-1.31,0.92-2.39v-1.89
			h0.24c-0.3,0.84-0.91,1.53-1.83,2.05c-0.92,0.53-1.92,0.79-3,0.79c-1.32,0-2.47-0.3-3.45-0.92c-0.98-0.61-1.75-1.46-2.29-2.56
			c-0.55-1.1-0.83-2.39-0.83-3.87c0-1.12,0.16-2.13,0.48-3.03c0.32-0.9,0.77-1.67,1.33-2.31c0.57-0.64,1.26-1.13,2.07-1.48
			c0.81-0.35,1.71-0.52,2.69-0.52c1.12,0,2.12,0.26,3.01,0.78c0.89,0.52,1.49,1.2,1.79,2.04l-0.3,1.23v-1.32
			c0-0.86,0.23-1.52,0.7-1.98s1.13-0.69,1.97-0.69c0.84,0,1.48,0.23,1.93,0.69s0.67,1.12,0.67,1.98V31.3c0,2.56-0.72,4.49-2.16,5.78
			C200.26,38.37,198.2,39.01,195.52,39.01z M195.73,28.96c0.6,0,1.11-0.13,1.53-0.41c0.42-0.27,0.75-0.66,0.99-1.17
			c0.24-0.51,0.36-1.13,0.36-1.84c0-1.08-0.26-1.92-0.78-2.52c-0.52-0.6-1.22-0.9-2.1-0.9c-0.56,0-1.06,0.14-1.5,0.41
			c-0.44,0.27-0.78,0.66-1,1.17c-0.23,0.51-0.34,1.13-0.34,1.85c0,1.08,0.26,1.92,0.78,2.52C194.18,28.66,194.87,28.96,195.73,28.96
			z"/>
		<path fill="#272460" d="M218.71,33.28c-0.88,0-1.57-0.25-2.05-0.74c-0.49-0.49-0.74-1.17-0.74-2.05v-15.6
			c0-0.9,0.24-1.59,0.72-2.07c0.48-0.48,1.16-0.72,2.04-0.72c0.9,0,1.58,0.24,2.06,0.72c0.47,0.48,0.71,1.17,0.71,2.07v13.8h7.32
			c0.76,0,1.34,0.19,1.75,0.58c0.41,0.39,0.62,0.96,0.62,1.69c0,0.74-0.21,1.31-0.62,1.71c-0.41,0.4-1,0.6-1.75,0.6H218.71z"/>
		<path fill="#272460" d="M235.75,16.12c-0.94,0-1.67-0.22-2.17-0.66c-0.51-0.44-0.77-1.08-0.77-1.92c0-0.82,0.25-1.45,0.77-1.89
			c0.51-0.44,1.23-0.66,2.17-0.66c0.98,0,1.72,0.22,2.22,0.66s0.75,1.07,0.75,1.89c0,0.84-0.25,1.48-0.75,1.92
			S236.73,16.12,235.75,16.12z M235.75,33.55c-0.84,0-1.49-0.25-1.95-0.75c-0.46-0.5-0.69-1.22-0.69-2.16v-9.48
			c0-0.94,0.23-1.66,0.69-2.16s1.11-0.75,1.95-0.75c0.86,0,1.52,0.25,2,0.75c0.47,0.5,0.71,1.22,0.71,2.16v9.48
			c0,0.94-0.23,1.66-0.69,2.16C237.3,33.3,236.63,33.55,235.75,33.55z"/>
		<path fill="#272460" d="M244.18,33.55c-0.84,0-1.49-0.23-1.95-0.69s-0.69-1.13-0.69-2.01v-9.93c0-0.86,0.23-1.52,0.68-1.98
			c0.45-0.46,1.09-0.69,1.93-0.69s1.48,0.23,1.92,0.69c0.44,0.46,0.66,1.12,0.66,1.98v1.41l-0.33-1.23
			c0.48-0.94,1.17-1.66,2.05-2.16s1.91-0.75,3.04-0.75c1.18,0,2.15,0.22,2.91,0.67s1.33,1.15,1.71,2.1
			c0.38,0.95,0.57,2.15,0.57,3.58v6.3c0,0.88-0.23,1.55-0.69,2.01s-1.12,0.69-1.98,0.69c-0.86,0-1.52-0.23-1.98-0.69
			s-0.69-1.13-0.69-2.01v-6.09c0-0.9-0.16-1.54-0.46-1.92c-0.31-0.38-0.77-0.57-1.37-0.57c-0.8,0-1.44,0.25-1.92,0.76
			c-0.48,0.51-0.72,1.2-0.72,2.06v5.76C246.88,32.65,245.98,33.55,244.18,33.55z"/>
		<path fill="#272460" d="M267.76,33.61c-1.8,0-3.35-0.32-4.67-0.95c-1.31-0.63-2.31-1.52-3.01-2.68s-1.05-2.53-1.05-4.11
			c0-1.52,0.33-2.85,1-4.01c0.67-1.15,1.59-2.05,2.76-2.7c1.17-0.65,2.5-0.97,4-0.97c1.1,0,2.1,0.18,3,0.52
			c0.9,0.35,1.67,0.86,2.31,1.53c0.64,0.67,1.13,1.48,1.46,2.42c0.33,0.94,0.5,1.99,0.5,3.15c0,0.4-0.11,0.7-0.33,0.89
			c-0.22,0.19-0.57,0.29-1.05,0.29h-9.18v-2.52h6.66l-0.48,0.39c0-0.74-0.1-1.34-0.3-1.8c-0.2-0.46-0.5-0.81-0.88-1.05
			c-0.39-0.24-0.88-0.36-1.46-0.36c-0.62,0-1.16,0.15-1.6,0.44c-0.45,0.29-0.79,0.72-1.04,1.27c-0.24,0.56-0.36,1.26-0.36,2.1v0.27
			c0,1.42,0.32,2.44,0.95,3.04c0.63,0.61,1.6,0.92,2.92,0.92c0.44,0,0.95-0.05,1.51-0.17c0.57-0.11,1.12-0.26,1.64-0.46
			c0.52-0.2,0.97-0.23,1.35-0.1s0.67,0.35,0.88,0.66c0.21,0.31,0.33,0.66,0.35,1.05c0.02,0.39-0.07,0.77-0.27,1.14
			s-0.53,0.66-0.99,0.86c-0.7,0.32-1.45,0.56-2.23,0.72C269.36,33.53,268.56,33.61,267.76,33.61z"/>
		<path fill="#272460" d="M282.25,33.61c-0.88,0-1.78-0.07-2.69-0.2s-1.74-0.36-2.47-0.71c-0.5-0.2-0.86-0.47-1.07-0.81
			s-0.31-0.7-0.3-1.08c0.01-0.38,0.12-0.72,0.33-1.04c0.21-0.31,0.49-0.53,0.84-0.66c0.35-0.13,0.75-0.12,1.18,0.04
			c0.84,0.3,1.59,0.52,2.27,0.65c0.67,0.13,1.31,0.19,1.93,0.19c0.74,0,1.27-0.1,1.59-0.31c0.32-0.21,0.48-0.49,0.48-0.83
			c0-0.3-0.11-0.53-0.32-0.69c-0.21-0.16-0.5-0.27-0.88-0.33l-3.33-0.54c-1.24-0.22-2.2-0.67-2.88-1.36
			c-0.68-0.69-1.02-1.6-1.02-2.72c0-1.04,0.29-1.94,0.88-2.69s1.4-1.33,2.43-1.74c1.03-0.41,2.21-0.61,3.56-0.61
			c0.9,0,1.72,0.06,2.46,0.19c0.74,0.13,1.46,0.37,2.16,0.71c0.44,0.18,0.75,0.44,0.93,0.78c0.18,0.34,0.25,0.7,0.21,1.06
			c-0.04,0.37-0.17,0.71-0.38,1.02c-0.21,0.31-0.5,0.52-0.86,0.63c-0.36,0.11-0.78,0.08-1.26-0.08c-0.66-0.26-1.25-0.45-1.75-0.57
			c-0.51-0.12-0.99-0.18-1.42-0.18c-0.82,0-1.4,0.11-1.74,0.33c-0.34,0.22-0.51,0.5-0.51,0.84c0,0.26,0.09,0.48,0.27,0.65
			c0.18,0.17,0.46,0.29,0.84,0.35l3.33,0.57c1.28,0.2,2.27,0.64,2.96,1.31c0.69,0.67,1.04,1.58,1.04,2.71
			c0,1.62-0.62,2.88-1.86,3.77S284.31,33.61,282.25,33.61z"/>
	</g>
</g>
</svg>
