<?xml version="1.0" encoding="utf-8"?>
<!-- Generator: Adobe Illustrator 23.1.0, SVG Export Plug-In . SVG Version: 6.00 Build 0)  -->
<svg version="1.1" id="Layer_1" xmlns="http://www.w3.org/2000/svg" xmlns:xlink="http://www.w3.org/1999/xlink" x="0px" y="0px"
	 viewBox="0 0 225 50" enable-background="new 0 0 225 50" xml:space="preserve">
<g>
	<path fill="#272460" d="M58.05,4.7c-5.67-3.82-16.54-0.3-24.17,8.86c-0.23,0.28,0.13,0.66,0.42,0.45
		c6.17-4.59,13.93-7.59,16.86-5.62c4.55,3.07,3.91,11.98-1.43,19.9s-14.47,12.54-19.02,9.47c-1.52-1.03-2.63-2.12-3.31-3.42
		c-0.27-0.51-1.03-0.36-1.06,0.21c-0.19,4.46,0.82,8.6,4.23,10.9c6.23,4.2,17.42-1.52,25.01-12.77C63.17,21.42,64.28,8.9,58.05,4.7z
		"/>
	<rect x="7.05" y="15.66" fill="#7FBFE9" width="43.56" height="3.15"/>
	<rect x="3.81" y="22.14" fill="#7FBFE9" width="45.18" height="3.15"/>
	<rect x="0.75" y="29.34" fill="#7FBFE9" width="45.18" height="3.15"/>
	<g>
		<g>
			<path fill="#7FBFE9" d="M68.37,30.08c-0.36,0-0.66-0.1-0.9-0.29c-0.23-0.2-0.37-0.44-0.4-0.74c-0.04-0.3,0.06-0.6,0.29-0.91
				l5.01-6.67v1.2l-4.77-6.38c-0.23-0.32-0.34-0.63-0.31-0.93c0.03-0.3,0.16-0.55,0.39-0.74c0.23-0.2,0.52-0.3,0.87-0.3
				c0.29,0,0.55,0.07,0.78,0.21s0.46,0.37,0.69,0.69l3.94,5.42h-0.9l3.91-5.42c0.23-0.32,0.46-0.55,0.69-0.69s0.49-0.21,0.8-0.21
				c0.36,0,0.66,0.1,0.9,0.28c0.23,0.19,0.36,0.43,0.39,0.73s-0.08,0.62-0.33,0.95l-4.77,6.38v-1.2l4.98,6.67
				c0.23,0.31,0.33,0.61,0.31,0.91c-0.03,0.3-0.16,0.55-0.39,0.74c-0.23,0.2-0.54,0.29-0.92,0.29c-0.28,0-0.53-0.07-0.75-0.22
				c-0.23-0.15-0.46-0.38-0.71-0.7l-4.15-5.68h0.96l-4.13,5.68c-0.23,0.32-0.47,0.55-0.7,0.7C68.93,30.01,68.66,30.08,68.37,30.08z"
				/>
			<path fill="#272460" d="M88.88,30.13c-1.6,0-2.98-0.32-4.12-0.97s-2.02-1.57-2.63-2.75c-0.61-1.19-0.92-2.59-0.92-4.21
				c0-1.21,0.17-2.3,0.52-3.27s0.85-1.8,1.51-2.49c0.66-0.69,1.46-1.22,2.42-1.6s2.03-0.56,3.22-0.56c0.8,0,1.59,0.1,2.36,0.31
				c0.77,0.2,1.45,0.5,2.03,0.87c0.31,0.19,0.51,0.42,0.61,0.69c0.1,0.27,0.12,0.53,0.07,0.79c-0.06,0.26-0.18,0.47-0.36,0.65
				c-0.18,0.17-0.41,0.27-0.68,0.29c-0.36,0.03-0.77-0.14-1.23-0.52c-0.89-0.39-1.79-0.58-2.72-0.58c-1.04,0-1.91,0.21-2.62,0.63
				s-1.25,1.03-1.62,1.84c-0.36,0.8-0.55,1.79-0.55,2.95c0,1.15,0.18,2.14,0.55,2.95c0.36,0.82,0.9,1.44,1.62,1.86
				s1.59,0.63,2.62,0.63c0.55,0,1.1-0.07,1.64-0.21s1.05-0.35,1.53-0.65c0.32-0.19,0.61-0.27,0.86-0.25s0.47,0.11,0.64,0.27
				c0.18,0.16,0.29,0.36,0.35,0.6c0.06,0.24,0.04,0.49-0.04,0.74c-0.09,0.26-0.26,0.48-0.52,0.67c-0.58,0.42-1.28,0.75-2.09,0.97
				C90.53,30.01,89.71,30.13,88.88,30.13z"/>
			<path fill="#272460" d="M97.49,30.08c-0.45,0-0.8-0.12-1.04-0.36c-0.24-0.24-0.36-0.59-0.36-1.04v-8.26
				c0-0.45,0.12-0.79,0.35-1.03c0.23-0.23,0.56-0.35,0.98-0.35s0.75,0.12,0.98,0.35c0.23,0.23,0.35,0.58,0.35,1.03v1.38h-0.22
				c0.2-0.87,0.6-1.54,1.2-1.99c0.6-0.45,1.39-0.72,2.38-0.81c0.31-0.03,0.55,0.05,0.73,0.23s0.29,0.46,0.32,0.84
				c0.03,0.36-0.05,0.66-0.25,0.89s-0.49,0.36-0.89,0.4l-0.48,0.04c-0.89,0.09-1.56,0.36-2.01,0.82s-0.68,1.1-0.68,1.94v4.52
				c0,0.45-0.12,0.8-0.35,1.04C98.28,29.96,97.94,30.08,97.49,30.08z"/>
			<path fill="#272460" d="M109.14,30.13c-1.11,0-2.07-0.23-2.89-0.68c-0.82-0.45-1.45-1.1-1.9-1.93s-0.68-1.83-0.68-2.96
				c0-0.86,0.13-1.63,0.38-2.31s0.62-1.26,1.1-1.75s1.06-0.86,1.73-1.12c0.67-0.25,1.42-0.38,2.25-0.38c1.11,0,2.07,0.23,2.89,0.68
				c0.82,0.45,1.45,1.09,1.9,1.92s0.68,1.81,0.68,2.95c0,0.86-0.13,1.63-0.38,2.32c-0.26,0.69-0.62,1.27-1.1,1.76
				s-1.06,0.86-1.73,1.11C110.72,30,109.97,30.13,109.14,30.13z M109.14,28.05c0.54,0,1.01-0.13,1.42-0.39s0.72-0.65,0.95-1.17
				s0.34-1.16,0.34-1.94c0-1.17-0.25-2.04-0.74-2.61c-0.5-0.58-1.15-0.86-1.97-0.86c-0.54,0-1.01,0.13-1.42,0.38
				s-0.73,0.64-0.95,1.16c-0.23,0.52-0.34,1.16-0.34,1.93c0,1.15,0.25,2.02,0.74,2.61C107.67,27.76,108.32,28.05,109.14,28.05z"/>
			<path fill="#272460" d="M120.55,30.13c-0.63,0-1.29-0.07-1.99-0.2c-0.7-0.13-1.33-0.36-1.88-0.68c-0.23-0.15-0.4-0.32-0.49-0.51
				s-0.13-0.39-0.11-0.59s0.09-0.37,0.22-0.51c0.12-0.15,0.28-0.24,0.48-0.28s0.41-0.01,0.65,0.11c0.58,0.28,1.13,0.47,1.64,0.58
				s1.01,0.16,1.51,0.16c0.7,0,1.22-0.12,1.56-0.36s0.51-0.56,0.51-0.95c0-0.33-0.11-0.59-0.34-0.78c-0.23-0.18-0.56-0.32-1.02-0.4
				l-2.19-0.42c-0.9-0.18-1.59-0.51-2.07-0.99s-0.71-1.12-0.71-1.89c0-0.7,0.19-1.3,0.58-1.81s0.92-0.9,1.61-1.18
				s1.47-0.42,2.36-0.42c0.64,0,1.24,0.07,1.8,0.21s1.1,0.35,1.63,0.65c0.22,0.12,0.37,0.27,0.45,0.46c0.08,0.19,0.1,0.38,0.05,0.58
				c-0.04,0.2-0.13,0.37-0.26,0.52c-0.13,0.15-0.3,0.25-0.49,0.28c-0.2,0.04-0.42,0-0.67-0.12c-0.45-0.23-0.88-0.4-1.3-0.5
				s-0.81-0.15-1.19-0.15c-0.71,0-1.24,0.12-1.58,0.37s-0.51,0.58-0.51,0.98c0,0.31,0.1,0.56,0.31,0.77c0.2,0.2,0.52,0.34,0.94,0.42
				l2.19,0.42c0.95,0.17,1.67,0.5,2.15,0.96c0.49,0.47,0.73,1.09,0.73,1.88c0,1.06-0.42,1.9-1.25,2.5
				C123.04,29.83,121.94,30.13,120.55,30.13z"/>
			<path fill="#272460" d="M131,30.13c-0.63,0-1.29-0.07-1.99-0.2c-0.7-0.13-1.33-0.36-1.88-0.68c-0.23-0.15-0.4-0.32-0.49-0.51
				s-0.13-0.39-0.11-0.59c0.02-0.2,0.09-0.37,0.22-0.51c0.12-0.15,0.28-0.24,0.48-0.28s0.41-0.01,0.64,0.11
				c0.58,0.28,1.13,0.47,1.64,0.58s1.01,0.16,1.51,0.16c0.7,0,1.22-0.12,1.56-0.36s0.51-0.56,0.51-0.95c0-0.33-0.11-0.59-0.34-0.78
				c-0.23-0.18-0.56-0.32-1.02-0.4l-2.19-0.42c-0.9-0.18-1.59-0.51-2.07-0.99s-0.71-1.12-0.71-1.89c0-0.7,0.19-1.3,0.58-1.81
				c0.39-0.51,0.92-0.9,1.61-1.18c0.69-0.28,1.47-0.42,2.36-0.42c0.64,0,1.24,0.07,1.8,0.21s1.1,0.35,1.63,0.65
				c0.22,0.12,0.37,0.27,0.45,0.46c0.08,0.19,0.1,0.38,0.05,0.58c-0.04,0.2-0.13,0.37-0.26,0.52c-0.13,0.15-0.3,0.25-0.49,0.28
				c-0.2,0.04-0.42,0-0.67-0.12c-0.45-0.23-0.88-0.4-1.3-0.5c-0.42-0.1-0.81-0.15-1.19-0.15c-0.71,0-1.24,0.12-1.58,0.37
				s-0.51,0.58-0.51,0.98c0,0.31,0.1,0.56,0.31,0.77c0.2,0.2,0.52,0.34,0.94,0.42l2.19,0.42c0.95,0.17,1.67,0.5,2.15,0.96
				c0.49,0.47,0.73,1.09,0.73,1.88c0,1.06-0.42,1.9-1.25,2.5C133.49,29.83,132.39,30.13,131,30.13z"/>
			<path fill="#272460" d="M138.89,17.03c-0.51,0-0.91-0.13-1.19-0.38s-0.43-0.61-0.43-1.06c0-0.47,0.14-0.82,0.43-1.07
				c0.28-0.25,0.68-0.37,1.19-0.37c0.52,0,0.92,0.12,1.2,0.37s0.42,0.6,0.42,1.07c0,0.45-0.14,0.81-0.42,1.06
				C139.82,16.91,139.42,17.03,138.89,17.03z M138.89,30.06c-0.44,0-0.77-0.13-1.01-0.39c-0.23-0.26-0.35-0.63-0.35-1.09v-8.02
				c0-0.48,0.12-0.85,0.35-1.1s0.57-0.38,1.01-0.38s0.78,0.13,1.02,0.38s0.36,0.62,0.36,1.1v8.02c0,0.47-0.12,0.83-0.35,1.09
				C139.69,29.93,139.34,30.06,138.89,30.06z"/>
			<path fill="#272460" d="M144.25,30.08c-0.44,0-0.77-0.12-1.01-0.36c-0.23-0.24-0.35-0.59-0.35-1.04v-8.26
				c0-0.45,0.12-0.79,0.35-1.03c0.23-0.23,0.56-0.35,0.98-0.35s0.75,0.12,0.98,0.35c0.23,0.23,0.35,0.58,0.35,1.03v1.49l-0.24-0.55
				c0.32-0.77,0.82-1.36,1.5-1.76s1.45-0.6,2.31-0.6s1.57,0.16,2.12,0.48c0.55,0.32,0.97,0.81,1.25,1.45
				c0.28,0.65,0.42,1.47,0.42,2.46v5.29c0,0.45-0.12,0.8-0.35,1.04c-0.23,0.24-0.57,0.36-1.01,0.36s-0.78-0.12-1.02-0.36
				s-0.36-0.59-0.36-1.04v-5.16c0-0.83-0.16-1.44-0.47-1.81c-0.31-0.38-0.8-0.57-1.45-0.57c-0.8,0-1.44,0.25-1.91,0.75
				s-0.71,1.17-0.71,2v4.79C145.62,29.62,145.17,30.08,144.25,30.08z"/>
			<path fill="#272460" d="M160.45,34.06c-0.79,0-1.55-0.07-2.28-0.22c-0.74-0.15-1.4-0.37-2-0.68c-0.28-0.15-0.46-0.32-0.56-0.52
				s-0.12-0.41-0.09-0.62c0.04-0.21,0.12-0.4,0.26-0.56s0.31-0.27,0.51-0.33s0.42-0.03,0.63,0.09c0.64,0.32,1.25,0.53,1.83,0.62
				s1.07,0.14,1.48,0.14c0.98,0,1.71-0.24,2.2-0.71s0.73-1.18,0.73-2.11v-1.97h0.2c-0.22,0.74-0.67,1.34-1.37,1.78
				c-0.69,0.44-1.48,0.67-2.35,0.67c-0.96,0-1.8-0.22-2.51-0.67c-0.71-0.44-1.27-1.07-1.66-1.87c-0.39-0.8-0.59-1.73-0.59-2.8
				c0-0.8,0.11-1.53,0.34-2.18s0.55-1.21,0.96-1.67c0.42-0.47,0.92-0.83,1.51-1.08s1.24-0.38,1.96-0.38c0.9,0,1.69,0.22,2.37,0.67
				c0.68,0.44,1.12,1.03,1.32,1.76l-0.22,0.55v-1.55c0-0.45,0.12-0.79,0.36-1.03c0.24-0.23,0.57-0.35,0.99-0.35
				c0.44,0,0.77,0.12,1.01,0.35c0.23,0.23,0.35,0.58,0.35,1.03v8.42c0,1.73-0.46,3.04-1.38,3.91S162.19,34.06,160.45,34.06z
				 M160.38,27.57c0.57,0,1.06-0.13,1.46-0.39s0.72-0.64,0.95-1.13s0.34-1.07,0.34-1.74c0-1.01-0.25-1.8-0.74-2.37
				c-0.5-0.58-1.17-0.86-2.01-0.86c-0.57,0-1.06,0.13-1.46,0.39c-0.41,0.26-0.73,0.63-0.95,1.11c-0.23,0.48-0.34,1.06-0.34,1.73
				c0,1.01,0.25,1.8,0.74,2.38C158.86,27.28,159.54,27.57,160.38,27.57z"/>
			<path fill="#272460" d="M175.83,29.91c-0.45,0-0.8-0.13-1.05-0.38s-0.37-0.61-0.37-1.06V15.86c0-0.47,0.12-0.82,0.36-1.06
				c0.24-0.24,0.59-0.36,1.04-0.36s0.8,0.12,1.04,0.36c0.24,0.24,0.36,0.59,0.36,1.06v11.67h6.34c0.39,0,0.7,0.1,0.91,0.31
				s0.32,0.5,0.32,0.87s-0.11,0.67-0.32,0.89c-0.21,0.21-0.51,0.32-0.91,0.32L175.83,29.91L175.83,29.91z"/>
			<path fill="#272460" d="M187.57,17.03c-0.51,0-0.91-0.13-1.19-0.38s-0.43-0.61-0.43-1.06c0-0.47,0.14-0.82,0.43-1.07
				c0.28-0.25,0.68-0.37,1.19-0.37c0.52,0,0.92,0.12,1.2,0.37s0.42,0.6,0.42,1.07c0,0.45-0.14,0.81-0.42,1.06
				C188.5,16.91,188.1,17.03,187.57,17.03z M187.57,30.06c-0.44,0-0.77-0.13-1.01-0.39c-0.23-0.26-0.35-0.63-0.35-1.09v-8.02
				c0-0.48,0.12-0.85,0.35-1.1s0.57-0.38,1.01-0.38s0.78,0.13,1.02,0.38s0.36,0.62,0.36,1.1v8.02c0,0.47-0.12,0.83-0.35,1.09
				C188.37,29.93,188.03,30.06,187.57,30.06z"/>
			<path fill="#272460" d="M192.93,30.08c-0.44,0-0.77-0.12-1.01-0.36c-0.23-0.24-0.35-0.59-0.35-1.04v-8.26
				c0-0.45,0.12-0.79,0.35-1.03c0.23-0.23,0.56-0.35,0.98-0.35s0.75,0.12,0.98,0.35c0.23,0.23,0.35,0.58,0.35,1.03v1.49l-0.24-0.55
				c0.32-0.77,0.82-1.36,1.5-1.76s1.45-0.6,2.31-0.6s1.57,0.16,2.12,0.48c0.55,0.32,0.97,0.81,1.25,1.45
				c0.28,0.65,0.42,1.47,0.42,2.46v5.29c0,0.45-0.12,0.8-0.35,1.04c-0.23,0.24-0.57,0.36-1.01,0.36s-0.78-0.12-1.02-0.36
				s-0.36-0.59-0.36-1.04v-5.16c0-0.83-0.16-1.44-0.47-1.81c-0.31-0.38-0.8-0.57-1.45-0.57c-0.8,0-1.44,0.25-1.91,0.75
				s-0.71,1.17-0.71,2v4.79C194.31,29.62,193.85,30.08,192.93,30.08z"/>
			<path fill="#272460" d="M209.41,30.13c-1.21,0-2.25-0.23-3.13-0.68c-0.87-0.45-1.55-1.09-2.02-1.92s-0.71-1.81-0.71-2.95
				c0-1.11,0.23-2.08,0.69-2.91s1.09-1.48,1.9-1.96s1.73-0.71,2.77-0.71c0.76,0,1.44,0.12,2.04,0.37s1.12,0.6,1.55,1.07
				s0.76,1.03,0.98,1.69c0.23,0.66,0.34,1.41,0.34,2.24c0,0.26-0.09,0.46-0.27,0.6s-0.44,0.21-0.78,0.21h-7.02v-1.57h6.14
				l-0.35,0.33c0-0.67-0.1-1.23-0.29-1.68s-0.48-0.8-0.85-1.04c-0.37-0.24-0.83-0.36-1.39-0.36c-0.61,0-1.13,0.14-1.56,0.43
				s-0.76,0.69-0.98,1.2c-0.23,0.52-0.34,1.13-0.34,1.85v0.15c0,1.2,0.28,2.09,0.84,2.68s1.39,0.89,2.48,0.89
				c0.38,0,0.81-0.05,1.28-0.14s0.92-0.26,1.34-0.49c0.31-0.17,0.58-0.25,0.81-0.23s0.42,0.11,0.56,0.25
				c0.14,0.15,0.22,0.32,0.25,0.54c0.03,0.21-0.01,0.43-0.12,0.65s-0.29,0.41-0.56,0.57c-0.51,0.32-1.1,0.56-1.76,0.71
				C210.6,30.05,209.98,30.13,209.41,30.13z"/>
			<path fill="#272460" d="M219.69,30.13c-0.63,0-1.29-0.07-1.99-0.2c-0.7-0.13-1.33-0.36-1.88-0.68c-0.23-0.15-0.4-0.32-0.49-0.51
				s-0.13-0.39-0.11-0.59c0.02-0.2,0.09-0.37,0.22-0.51c0.12-0.15,0.28-0.24,0.48-0.28s0.41-0.01,0.64,0.11
				c0.58,0.28,1.13,0.47,1.64,0.58s1.01,0.16,1.51,0.16c0.7,0,1.22-0.12,1.56-0.36s0.51-0.56,0.51-0.95c0-0.33-0.11-0.59-0.34-0.78
				c-0.23-0.18-0.56-0.32-1.02-0.4l-2.19-0.42c-0.9-0.18-1.59-0.51-2.07-0.99s-0.71-1.12-0.71-1.89c0-0.7,0.19-1.3,0.58-1.81
				c0.39-0.51,0.92-0.9,1.61-1.18c0.69-0.28,1.47-0.42,2.36-0.42c0.64,0,1.24,0.07,1.8,0.21s1.1,0.35,1.63,0.65
				c0.22,0.12,0.37,0.27,0.45,0.46c0.08,0.19,0.1,0.38,0.05,0.58c-0.04,0.2-0.13,0.37-0.26,0.52c-0.13,0.15-0.3,0.25-0.49,0.28
				c-0.2,0.04-0.42,0-0.67-0.12c-0.45-0.23-0.88-0.4-1.3-0.5c-0.42-0.1-0.81-0.15-1.19-0.15c-0.71,0-1.24,0.12-1.58,0.37
				s-0.51,0.58-0.51,0.98c0,0.31,0.1,0.56,0.31,0.77c0.2,0.2,0.52,0.34,0.94,0.42l2.19,0.42c0.95,0.17,1.67,0.5,2.15,0.96
				c0.49,0.47,0.73,1.09,0.73,1.88c0,1.06-0.42,1.9-1.25,2.5C222.18,29.83,221.07,30.13,219.69,30.13z"/>
		</g>
	</g>
</g>
</svg>
