<?xml version="1.0" encoding="utf-8"?>
<!-- Generator: Adobe Illustrator 23.1.0, SVG Export Plug-In . SVG Version: 6.00 Build 0)  -->
<svg version="1.1" id="Layer_1" xmlns="http://www.w3.org/2000/svg" xmlns:xlink="http://www.w3.org/1999/xlink" x="0px" y="0px"
	 viewBox="0 0 500 500" enable-background="new 0 0 500 500" xml:space="preserve">
<g>
	<path fill="#626B75" d="M81.91,98c1.05,0,2.14-0.18,3.15,0.02c10.73,2.2,15.96-2.77,20.26-12.5c8.79-19.86,19.17-39.01,28.8-58.49
		c8.58-17.35,22.5-25.65,41.8-25.59c37.39,0.13,74.79,0.17,112.18-0.01c14.82-0.07,26.76,5.29,36.62,16.36
		c22.78,25.55,45.87,50.81,68.69,76.33c2.61,2.92,5.24,4.04,9.07,3.94c8.77-0.21,17.56-0.24,26.33,0.11
		c24.9,0.99,45.07,21.3,45.72,46.23c0.47,18.07,0.52,36.16,0.56,54.24c0.01,3.31,0.99,5.31,3.74,7.33
		c10.02,7.33,13.79,19.86,9.93,31.4c-3.82,11.4-14.03,19.49-26.29,18.97c-12.01-0.51-22.92-0.22-28.64,12.71
		c-29.45,31.02-77.51,26.76-101.11-9.05c-1.65-2.5-3.31-3.52-6.32-3.52c-44.77,0.09-89.54,0.09-134.31,0
		c-2.99-0.01-4.64,0.94-6.28,3.49c-25.45,39.39-81.37,39.81-107.52,0.77c-2.13-3.19-4.28-4.39-8.04-4.3
		c-10.7,0.25-21.42,0.19-32.13,0.06c-14.4-0.18-25.67-9.76-28.06-23.64c-2.27-13.17,5.56-26.48,18.89-30.98
		c3.93-1.33,4.49-3.3,4.48-6.82c-0.04-19.83-0.57-39.7,0.41-59.5c1.1-22.21,17.31-36.91,39.6-37.55C76.29,97.94,79.1,98.01,81.91,98
		z M53.09,164.86c0,11.51,0.1,20.99-0.06,30.47c-0.05,3.18,0.98,4.46,4.23,4.27c3.5-0.21,7.03-0.22,10.53,0.01
		c3.52,0.23,5.77-0.68,7.48-4.18c1.98-4.06,4.61-7.91,7.54-11.37c29.23-34.51,84.1-28.61,105.56,11.37
		c1.65,3.07,3.35,4.22,6.84,4.21c42.67-0.12,85.35-0.11,128.02-0.01c3.43,0.01,5.23-1.1,6.95-4.15
		c15.68-27.79,46.57-40.43,75.14-31.25c17.24,5.54,30.11,16.22,38.46,32.13c2.48,4.72,6.2,3.23,9.52,2.99
		c3.48-0.25,2.01-3.55,2.07-5.53c0.5-16.67-0.41-33.31-0.86-49.97c-0.32-11.9-10.83-23.71-22.83-25.43
		c-8.96-1.29-18.03-0.89-27.06-0.84c-9.52,0.05-19.04,0.1-28.57,0.07c-12.66-0.03-25.32-0.2-37.99-0.19
		c-12.47,0.02-24.94,0.29-37.41,0.29c-12.66-0.01-25.35-0.87-37.96-0.17c-15.29,0.84-30.53-0.33-45.81,0.18
		c-15.4,0.51-30.85-0.33-46.27-0.32c-15.42,0-30.85,0.57-46.27,0.42c-17.16-0.16-34.31-0.73-51.46,0.33
		c-10.57,0.65-16.96,5.65-18.98,16.15C51.81,145.09,53.71,156.04,53.09,164.86z M121.27,97.48c37.59,0,74.09-0.03,110.58,0.04
		c3.62,0.01,3.26-2.23,3.26-4.55c-0.01-22.29-0.07-44.58,0.07-66.87c0.02-3.58-0.87-4.83-4.66-4.79c-18.6,0.19-37.2,0.11-55.81,0.1
		c-10.51-0.01-18.05,4.6-22.66,14.13c-4.19,8.68-8.57,17.27-12.87,25.9C133.35,73.18,127.52,84.91,121.27,97.48z M368.74,97.49
		c-0.56-1.15-0.69-1.67-1-2.02c-20.1-22.27-40.19-44.54-60.34-66.77c-4.35-4.8-10.01-7.12-16.4-7.22
		c-10.7-0.18-21.41,0.05-32.11-0.12c-3.09-0.05-3.86,1.07-3.85,3.95c0.08,22.81,0.09,45.63-0.01,68.44
		c-0.01,3.13,1.23,3.84,4.05,3.77c6.49-0.15,12.98-0.03,19.48-0.03C308.38,97.49,338.2,97.49,368.74,97.49z M132,181.38
		c-24.28-0.16-44.15,19.27-44.32,43.33c-0.18,24.92,19.28,45.03,43.74,45.19c24.2,0.16,44.51-19.74,44.74-43.85
		C176.4,201.38,156.79,181.54,132,181.38z M386.98,181.38c-24.74,0.01-44.26,19.31-44.33,43.85c-0.07,24.77,19.62,44.66,44.24,44.67
		c24.05,0.01,44.21-20.2,44.25-44.35C431.19,201.17,411.4,181.37,386.98,181.38z M258.81,236.58c18.23,0,36.46,0,54.69,0
		c9.35,0,9.35,0.01,9.2-9.49c-0.01-0.53-0.11-1.07-0.01-1.57c0.87-4.44-1.01-5.49-5.34-5.47c-37.16,0.17-74.32,0.1-111.48,0.08
		c-9.2,0-9.2-0.02-9.87,8.87c-0.07,0.87-0.09,1.77-0.32,2.6c-1.07,3.81,0,5.12,4.24,5.06C219.54,236.43,239.18,236.56,258.81,236.58
		z M51.11,236.56c4.55,0,9.1,0.04,13.64-0.02c1.63-0.02,4.28,0.24,3.23-2.46c-1.77-4.53,3.11-10.35-2.86-13.91
		c-0.13-0.08-0.34-0.02-0.52-0.02c-8.92,0.01-17.85-0.12-26.76,0.09c-4.96,0.12-8.23,3.84-8.06,8.47c0.16,4.34,3.48,7.64,8.21,7.81
		C42.36,236.68,46.74,236.55,51.11,236.56z M457.52,236.56c0-0.04,0-0.07,0-0.11c1.93,0,3.88,0.2,5.77-0.04
		c4-0.51,6.23-3.12,6.84-6.91c0.59-3.65-0.94-6.76-4.23-8.31c-4.26-2.01-8.95-0.99-13.47-0.86c-1.41,0.04-1.38,1.29-1.44,2.36
		c-0.2,3.67-0.35,7.34-0.67,11c-0.17,1.95,0.27,3.03,2.47,2.9C454.36,236.48,455.94,236.56,457.52,236.56z"/>
	<path fill="#636A75" d="M256.33,498.54c-46.88,0.01-93.75,0.01-140.63,0c-1.93,0-3.87,0.08-5.79-0.05
		c-6.1-0.42-10.54-5.03-10.26-10.53c0.28-5.36,4.65-9.35,10.72-9.37c19.49-0.08,38.98-0.23,58.46,0.08c5.2,0.08,7.19-1.02,6.66-6.54
		c-0.54-5.56-0.26-11.23-0.05-16.84c0.62-16.95,13.97-29.99,30.92-30.36c7.64-0.17,7.65-0.17,7.66-7.9
		c0.01-31.6-0.12-63.21,0.13-94.81c0.04-5.07-1.61-6.04-6.2-5.89c-10.17,0.32-20.36,0.13-30.55,0.08
		c-7.35-0.03-11.7-3.71-11.75-9.84c-0.06-6.39,4.31-10.12,12-10.13c52.67-0.02,105.34-0.01,158.01-0.04c3.07,0,6.04,0.27,8.41,2.35
		c3.13,2.75,4.53,6.2,3.25,10.38c-1.48,4.81-4.9,7.2-9.8,7.24c-11.24,0.1-22.47,0.16-33.71-0.04c-3.42-0.06-4.43,0.92-4.41,4.38
		c0.12,33.36,0.17,66.72-0.03,100.08c-0.03,4.44,2.19,4.12,5.16,4.15c20.53,0.18,33.03,12.73,33.17,33.21
		c0.03,4.92,0.35,9.86-0.09,14.74c-0.44,4.83,1.39,5.8,5.91,5.74c19.66-0.25,39.33-0.08,58.99-0.12c4.42-0.01,7.89,1.5,9.94,5.56
		c1.73,3.43,1.43,6.88-0.64,10.01c-2.5,3.77-6.42,4.47-10.65,4.46c-18.43-0.04-36.87-0.02-55.3-0.02
		C316.02,498.53,286.18,498.53,256.33,498.54z M279.55,370.68c0-16.66-0.09-33.31,0.08-49.97c0.04-3.46-0.98-4.41-4.4-4.35
		c-12.45,0.2-24.9,0.15-37.34,0.01c-2.91-0.03-3.94,0.75-3.94,3.79c0.09,33.66,0.09,67.33,0,100.99c-0.01,3.04,1,3.85,3.92,3.82
		c12.62-0.14,25.25-0.21,37.87,0.02c3.59,0.06,3.88-1.45,3.86-4.35C279.48,403.99,279.54,387.33,279.55,370.68z M256.52,478.64
		c18.94,0,37.88-0.07,56.82,0.06c3.33,0.02,4.71-0.8,4.54-4.38c-0.28-5.77,0.02-11.57-0.11-17.36c-0.17-7.83-4.31-12-12.13-12.02
		c-32.62-0.06-65.24-0.05-97.85,0.01c-7.84,0.01-12.26,4.53-12.41,12.47c-0.1,5.43,0.23,10.89-0.11,16.3
		c-0.24,3.94,0.99,5.04,4.96,4.99C218.99,478.51,237.75,478.63,256.52,478.64z"/>
	<path fill="#6BC499" d="M53.09,164.86c0.63-8.82-1.28-19.78,0.8-30.53c2.03-10.5,8.41-15.5,18.98-16.15
		c17.15-1.06,34.3-0.49,51.46-0.33c15.42,0.14,30.85-0.42,46.27-0.42c15.43,0,30.87,0.84,46.27,0.32
		c15.28-0.51,30.52,0.66,45.81-0.18c12.61-0.69,25.31,0.17,37.96,0.17c12.47,0.01,24.94-0.27,37.41-0.29
		c12.66-0.02,25.32,0.15,37.99,0.19c9.52,0.02,19.04-0.03,28.57-0.07c9.03-0.04,18.09-0.45,27.06,0.84
		c12,1.73,22.51,13.53,22.83,25.43c0.45,16.65,1.37,33.3,0.86,49.97c-0.06,1.98,1.42,5.27-2.07,5.53c-3.32,0.24-7.04,1.74-9.52-2.99
		c-8.36-15.91-21.22-26.59-38.46-32.13c-28.57-9.18-59.46,3.46-75.14,31.25c-1.72,3.04-3.52,4.16-6.95,4.15
		c-42.67-0.1-85.35-0.11-128.02,0.01c-3.49,0.01-5.2-1.14-6.84-4.21c-21.46-39.98-76.33-45.87-105.56-11.37
		c-2.93,3.46-5.56,7.31-7.54,11.37c-1.71,3.5-3.96,4.4-7.48,4.18c-3.5-0.23-7.03-0.22-10.53-0.01c-3.25,0.19-4.28-1.09-4.23-4.27
		C53.19,185.86,53.09,176.37,53.09,164.86z"/>
	<path fill="#D8E6EE" d="M121.27,97.48c6.25-12.58,12.08-24.31,17.92-36.04c4.29-8.63,8.67-17.22,12.87-25.9
		c4.6-9.53,12.14-14.14,22.66-14.13c18.6,0.02,37.21,0.1,55.81-0.1c3.79-0.04,4.68,1.21,4.66,4.79
		c-0.14,22.29-0.08,44.58-0.07,66.87c0,2.32,0.36,4.55-3.26,4.55C195.36,97.46,158.87,97.48,121.27,97.48z"/>
	<path fill="#D8E6EE" d="M368.74,97.49c-30.54,0-60.36,0-90.18,0c-6.49,0-12.99-0.11-19.48,0.03c-2.83,0.06-4.07-0.64-4.05-3.77
		c0.11-22.81,0.1-45.63,0.01-68.44c-0.01-2.88,0.76-4,3.85-3.95c10.7,0.17,21.41-0.06,32.11,0.12c6.38,0.11,12.05,2.43,16.4,7.22
		c20.15,22.22,40.24,44.5,60.34,66.77C368.05,95.82,368.18,96.34,368.74,97.49z"/>
	<path fill="#D7E4EC" d="M132,181.38c24.79,0.16,44.4,20,44.16,44.68c-0.23,24.1-20.54,44.01-44.74,43.85
		c-24.46-0.16-43.92-20.27-43.74-45.19C87.86,200.65,107.73,181.22,132,181.38z M131.59,255.56c16.87,0.15,30.16-12.87,30.3-29.7
		c0.15-16.79-13.04-30.43-29.56-30.58c-16.79-0.15-30.62,13.38-30.78,30.11C101.4,241.85,114.9,255.41,131.59,255.56z"/>
	<path fill="#D7E4EC" d="M386.98,181.38c24.42-0.01,44.2,19.79,44.16,44.17c-0.04,24.15-20.21,44.36-44.25,44.35
		c-24.61-0.01-44.31-19.9-44.24-44.67C342.72,200.69,362.24,181.39,386.98,181.38z M416.84,225.52c-0.03-17-13.49-30.38-30.44-30.26
		c-16.33,0.11-30.01,14.06-29.88,30.47c0.13,16.59,13.66,29.9,30.35,29.83C403.75,255.49,416.86,242.35,416.84,225.52z"/>
	<path fill="#FBFCFC" d="M258.81,236.57c-19.63-0.01-39.27-0.14-58.89,0.1c-4.25,0.05-5.31-1.25-4.24-5.06
		c0.23-0.83,0.26-1.73,0.32-2.6c0.67-8.89,0.67-8.87,9.87-8.87c37.16,0.01,74.32,0.08,111.48-0.08c4.33-0.02,6.21,1.03,5.34,5.47
		c-0.1,0.5,0,1.05,0.01,1.57c0.14,9.51,0.14,9.5-9.2,9.49C295.27,236.57,277.04,236.58,258.81,236.57z"/>
	<path fill="#FAFBFC" d="M51.11,236.56c-4.37,0-8.75,0.12-13.12-0.04c-4.72-0.17-8.05-3.47-8.21-7.81c-0.17-4.63,3.1-8.35,8.06-8.47
		c8.92-0.21,17.84-0.08,26.76-0.09c0.17,0,0.39-0.06,0.52,0.02c5.97,3.55,1.09,9.38,2.86,13.91c1.05,2.7-1.6,2.44-3.23,2.46
		C60.21,236.6,55.66,236.56,51.11,236.56z"/>
	<path fill="#F9FBFB" d="M457.52,236.56c-1.58,0-3.16-0.08-4.73,0.02c-2.19,0.13-2.64-0.95-2.47-2.9c0.32-3.66,0.47-7.33,0.67-11
		c0.06-1.07,0.04-2.32,1.44-2.36c4.52-0.12,9.2-1.15,13.47,0.86c3.29,1.55,4.81,4.66,4.23,8.31c-0.61,3.79-2.84,6.4-6.84,6.91
		c-1.9,0.24-3.85,0.04-5.77,0.04C457.52,236.49,457.52,236.52,457.52,236.56z"/>
	<path fill="#FBFCFC" d="M279.54,370.68c0,16.66-0.06,33.31,0.05,49.97c0.02,2.89-0.27,4.41-3.86,4.35
		c-12.62-0.22-25.25-0.16-37.87-0.02c-2.92,0.03-3.93-0.78-3.92-3.82c0.09-33.66,0.09-67.33,0-100.99
		c-0.01-3.05,1.03-3.83,3.94-3.79c12.45,0.14,24.9,0.18,37.34-0.01c3.42-0.05,4.44,0.9,4.4,4.35
		C279.45,337.36,279.55,354.02,279.54,370.68z"/>
	<path fill="#D8E6EE" d="M256.52,478.63c-18.76-0.01-37.53-0.13-56.29,0.09c-3.98,0.05-5.2-1.05-4.96-4.99
		c0.33-5.42,0-10.87,0.11-16.3c0.15-7.95,4.57-12.46,12.41-12.47c32.62-0.06,65.24-0.07,97.85-0.01
		c7.82,0.01,11.95,4.19,12.13,12.02c0.13,5.78-0.17,11.58,0.11,17.36c0.17,3.58-1.21,4.4-4.54,4.38
		C294.4,478.57,275.46,478.64,256.52,478.63z"/>
	<path fill="#636A75" d="M131.59,255.56c-16.69-0.15-30.19-13.71-30.04-30.17c0.16-16.74,13.99-30.27,30.78-30.11
		c16.52,0.15,29.7,13.79,29.56,30.58C161.74,242.68,148.45,255.71,131.59,255.56z M131.73,235.58c5.94,0.03,10.39-4.29,10.42-10.11
		c0.03-5.51-4.87-10.28-10.47-10.19c-5.42,0.09-9.96,4.55-10.13,9.97C121.38,230.89,125.96,235.54,131.73,235.58z"/>
	<path fill="#636A75" d="M416.84,225.52c0.03,16.83-13.08,29.97-29.97,30.03c-16.69,0.06-30.22-13.24-30.35-29.83
		c-0.13-16.41,13.55-30.35,29.88-30.47C403.35,195.14,416.81,208.52,416.84,225.52z M386.7,235.56c5.83,0.05,10.59-4.51,10.53-10.09
		c-0.06-5.52-4.96-10.25-10.56-10.2c-5.51,0.05-9.95,4.42-10.13,9.96C376.35,230.96,380.83,235.51,386.7,235.56z"/>
	<path fill="#D6E4EC" d="M131.73,235.58c-5.77-0.03-10.35-4.68-10.17-10.32c0.17-5.42,4.71-9.88,10.13-9.97
		c5.6-0.09,10.5,4.67,10.47,10.19C142.12,231.29,137.67,235.61,131.73,235.58z"/>
	<path fill="#D6E4EC" d="M386.7,235.56c-5.87-0.05-10.36-4.6-10.17-10.33c0.18-5.54,4.63-9.91,10.13-9.96
		c5.61-0.05,10.5,4.67,10.56,10.2C397.3,231.05,392.54,235.62,386.7,235.56z"/>
</g>
</svg>
