<?xml version="1.0" encoding="utf-8"?>
<!-- Generator: Adobe Illustrator 23.0.5, SVG Export Plug-In . SVG Version: 6.00 Build 0)  -->
<svg version="1.1" id="Layer_1" xmlns="http://www.w3.org/2000/svg" xmlns:xlink="http://www.w3.org/1999/xlink" x="0px" y="0px"
	 viewBox="0 0 500 500" style="enable-background:new 0 0 500 500;" xml:space="preserve">
<style type="text/css">
	.st0{fill:#626B75;}
	.st1{fill:#636A75;}
	.st2{fill:#73C2FB;}
	.st3{fill:#D8E6EE;}
	.st4{fill:#D7E4EC;}
	.st5{fill:#FBFCFC;}
	.st6{fill:#FAFBFC;}
	.st7{fill:#F9FBFB;}
	.st8{fill:#D6E4EC;}
</style>
<g>
	<path class="st0" d="M81.9,98c1.1,0,2.1-0.2,3.2,0c10.7,2.2,16-2.8,20.3-12.5c8.8-19.9,19.2-39,28.8-58.5
		c8.6-17.4,22.5-25.6,41.8-25.6c37.4,0.1,74.8,0.2,112.2,0c14.8-0.1,26.8,5.3,36.6,16.4c22.8,25.6,45.9,50.8,68.7,76.3
		c2.6,2.9,5.2,4,9.1,3.9c8.8-0.2,17.6-0.2,26.3,0.1c24.9,1,45.1,21.3,45.7,46.2c0.5,18.1,0.5,36.2,0.6,54.2c0,3.3,1,5.3,3.7,7.3
		c10,7.3,13.8,19.9,9.9,31.4c-3.8,11.4-14,19.5-26.3,19c-12-0.5-22.9-0.2-28.6,12.7c-29.5,31-77.5,26.8-101.1-9
		c-1.6-2.5-3.3-3.5-6.3-3.5c-44.8,0.1-89.5,0.1-134.3,0c-3,0-4.6,0.9-6.3,3.5c-25.4,39.4-81.4,39.8-107.5,0.8
		c-2.1-3.2-4.3-4.4-8-4.3c-10.7,0.3-21.4,0.2-32.1,0.1c-14.4-0.2-25.7-9.8-28.1-23.6c-2.3-13.2,5.6-26.5,18.9-31
		c3.9-1.3,4.5-3.3,4.5-6.8c0-19.8-0.6-39.7,0.4-59.5c1.1-22.2,17.3-36.9,39.6-37.6C76.3,97.9,79.1,98,81.9,98z M53.1,164.9
		c0,11.5,0.1,21-0.1,30.5c0,3.2,1,4.5,4.2,4.3c3.5-0.2,7-0.2,10.5,0c3.5,0.2,5.8-0.7,7.5-4.2c2-4.1,4.6-7.9,7.5-11.4
		c29.2-34.5,84.1-28.6,105.6,11.4c1.6,3.1,3.4,4.2,6.8,4.2c42.7-0.1,85.4-0.1,128,0c3.4,0,5.2-1.1,7-4.1
		c15.7-27.8,46.6-40.4,75.1-31.3c17.2,5.5,30.1,16.2,38.5,32.1c2.5,4.7,6.2,3.2,9.5,3c3.5-0.3,2-3.6,2.1-5.5
		c0.5-16.7-0.4-33.3-0.9-50c-0.3-11.9-10.8-23.7-22.8-25.4c-9-1.3-18-0.9-27.1-0.8c-9.5,0.1-19,0.1-28.6,0.1
		c-12.7,0-25.3-0.2-38-0.2c-12.5,0-24.9,0.3-37.4,0.3c-12.7,0-25.4-0.9-38-0.2c-15.3,0.8-30.5-0.3-45.8,0.2
		c-15.4,0.5-30.9-0.3-46.3-0.3c-15.4,0-30.9,0.6-46.3,0.4c-17.2-0.2-34.3-0.7-51.5,0.3c-10.6,0.7-17,5.7-19,16.2
		C51.8,145.1,53.7,156,53.1,164.9z M121.3,97.5c37.6,0,74.1,0,110.6,0c3.6,0,3.3-2.2,3.3-4.6c0-22.3-0.1-44.6,0.1-66.9
		c0-3.6-0.9-4.8-4.7-4.8c-18.6,0.2-37.2,0.1-55.8,0.1c-10.5,0-18.1,4.6-22.7,14.1c-4.2,8.7-8.6,17.3-12.9,25.9
		C133.4,73.2,127.5,84.9,121.3,97.5z M368.7,97.5c-0.6-1.2-0.7-1.7-1-2c-20.1-22.3-40.2-44.5-60.3-66.8c-4.4-4.8-10-7.1-16.4-7.2
		c-10.7-0.2-21.4,0-32.1-0.1c-3.1,0-3.9,1.1-3.9,4c0.1,22.8,0.1,45.6,0,68.4c0,3.1,1.2,3.8,4.1,3.8c6.5-0.2,13,0,19.5,0
		C308.4,97.5,338.2,97.5,368.7,97.5z M132,181.4c-24.3-0.2-44.2,19.3-44.3,43.3c-0.2,24.9,19.3,45,43.7,45.2
		c24.2,0.2,44.5-19.7,44.7-43.9C176.4,201.4,156.8,181.5,132,181.4z M387,181.4c-24.7,0-44.3,19.3-44.3,43.9
		c-0.1,24.8,19.6,44.7,44.2,44.7c24,0,44.2-20.2,44.3-44.4C431.2,201.2,411.4,181.4,387,181.4z M258.8,236.6c18.2,0,36.5,0,54.7,0
		c9.4,0,9.4,0,9.2-9.5c0-0.5-0.1-1.1,0-1.6c0.9-4.4-1-5.5-5.3-5.5c-37.2,0.2-74.3,0.1-111.5,0.1c-9.2,0-9.2,0-9.9,8.9
		c-0.1,0.9-0.1,1.8-0.3,2.6c-1.1,3.8,0,5.1,4.2,5.1C219.5,236.4,239.2,236.6,258.8,236.6z M51.1,236.6c4.5,0,9.1,0,13.6,0
		c1.6,0,4.3,0.2,3.2-2.5c-1.8-4.5,3.1-10.4-2.9-13.9c-0.1-0.1-0.3,0-0.5,0c-8.9,0-17.8-0.1-26.8,0.1c-5,0.1-8.2,3.8-8.1,8.5
		c0.2,4.3,3.5,7.6,8.2,7.8C42.4,236.7,46.7,236.6,51.1,236.6z M457.5,236.6c0,0,0-0.1,0-0.1c1.9,0,3.9,0.2,5.8,0
		c4-0.5,6.2-3.1,6.8-6.9c0.6-3.6-0.9-6.8-4.2-8.3c-4.3-2-9-1-13.5-0.9c-1.4,0-1.4,1.3-1.4,2.4c-0.2,3.7-0.4,7.3-0.7,11
		c-0.2,1.9,0.3,3,2.5,2.9C454.4,236.5,455.9,236.6,457.5,236.6z"/>
	<path class="st1" d="M256.3,498.5c-46.9,0-93.8,0-140.6,0c-1.9,0-3.9,0.1-5.8,0c-6.1-0.4-10.5-5-10.3-10.5
		c0.3-5.4,4.7-9.4,10.7-9.4c19.5-0.1,39-0.2,58.5,0.1c5.2,0.1,7.2-1,6.7-6.5c-0.5-5.6-0.3-11.2-0.1-16.8c0.6-17,14-30,30.9-30.4
		c7.6-0.2,7.6-0.2,7.7-7.9c0-31.6-0.1-63.2,0.1-94.8c0-5.1-1.6-6-6.2-5.9c-10.2,0.3-20.4,0.1-30.6,0.1c-7.4,0-11.7-3.7-11.8-9.8
		c-0.1-6.4,4.3-10.1,12-10.1c52.7,0,105.3,0,158,0c3.1,0,6,0.3,8.4,2.4c3.1,2.8,4.5,6.2,3.3,10.4c-1.5,4.8-4.9,7.2-9.8,7.2
		c-11.2,0.1-22.5,0.2-33.7,0c-3.4-0.1-4.4,0.9-4.4,4.4c0.1,33.4,0.2,66.7,0,100.1c0,4.4,2.2,4.1,5.2,4.1c20.5,0.2,33,12.7,33.2,33.2
		c0,4.9,0.4,9.9-0.1,14.7c-0.4,4.8,1.4,5.8,5.9,5.7c19.7-0.3,39.3-0.1,59-0.1c4.4,0,7.9,1.5,9.9,5.6c1.7,3.4,1.4,6.9-0.6,10
		c-2.5,3.8-6.4,4.5-10.6,4.5c-18.4,0-36.9,0-55.3,0C316,498.5,286.2,498.5,256.3,498.5z M279.5,370.7c0-16.7-0.1-33.3,0.1-50
		c0-3.5-1-4.4-4.4-4.4c-12.5,0.2-24.9,0.1-37.3,0c-2.9,0-3.9,0.8-3.9,3.8c0.1,33.7,0.1,67.3,0,101c0,3,1,3.9,3.9,3.8
		c12.6-0.1,25.3-0.2,37.9,0c3.6,0.1,3.9-1.5,3.9-4.4C279.5,404,279.5,387.3,279.5,370.7z M256.5,478.6c18.9,0,37.9-0.1,56.8,0.1
		c3.3,0,4.7-0.8,4.5-4.4c-0.3-5.8,0-11.6-0.1-17.4c-0.2-7.8-4.3-12-12.1-12c-32.6-0.1-65.2,0-97.9,0c-7.8,0-12.3,4.5-12.4,12.5
		c-0.1,5.4,0.2,10.9-0.1,16.3c-0.2,3.9,1,5,5,5C219,478.5,237.8,478.6,256.5,478.6z"/>
	<path class="st2" d="M53.1,164.9c0.6-8.8-1.3-19.8,0.8-30.5c2-10.5,8.4-15.5,19-16.2c17.2-1.1,34.3-0.5,51.5-0.3
		c15.4,0.1,30.8-0.4,46.3-0.4c15.4,0,30.9,0.8,46.3,0.3c15.3-0.5,30.5,0.7,45.8-0.2c12.6-0.7,25.3,0.2,38,0.2
		c12.5,0,24.9-0.3,37.4-0.3c12.7,0,25.3,0.2,38,0.2c9.5,0,19,0,28.6-0.1c9,0,18.1-0.4,27.1,0.8c12,1.7,22.5,13.5,22.8,25.4
		c0.5,16.6,1.4,33.3,0.9,50c-0.1,2,1.4,5.3-2.1,5.5c-3.3,0.2-7,1.7-9.5-3c-8.4-15.9-21.2-26.6-38.5-32.1
		c-28.6-9.2-59.5,3.5-75.1,31.3c-1.7,3-3.5,4.2-7,4.1c-42.7-0.1-85.4-0.1-128,0c-3.5,0-5.2-1.1-6.8-4.2
		c-21.5-40-76.3-45.9-105.6-11.4c-2.9,3.5-5.6,7.3-7.5,11.4c-1.7,3.5-4,4.4-7.5,4.2c-3.5-0.2-7-0.2-10.5,0c-3.3,0.2-4.3-1.1-4.2-4.3
		C53.2,185.9,53.1,176.4,53.1,164.9z"/>
	<path class="st3" d="M121.3,97.5c6.3-12.6,12.1-24.3,17.9-36c4.3-8.6,8.7-17.2,12.9-25.9c4.6-9.5,12.1-14.1,22.7-14.1
		c18.6,0,37.2,0.1,55.8-0.1c3.8,0,4.7,1.2,4.7,4.8c-0.1,22.3-0.1,44.6-0.1,66.9c0,2.3,0.4,4.6-3.3,4.6
		C195.4,97.5,158.9,97.5,121.3,97.5z"/>
	<path class="st3" d="M368.7,97.5c-30.5,0-60.4,0-90.2,0c-6.5,0-13-0.1-19.5,0c-2.8,0.1-4.1-0.6-4.1-3.8c0.1-22.8,0.1-45.6,0-68.4
		c0-2.9,0.8-4,3.9-4c10.7,0.2,21.4-0.1,32.1,0.1c6.4,0.1,12,2.4,16.4,7.2c20.1,22.2,40.2,44.5,60.3,66.8
		C368,95.8,368.2,96.3,368.7,97.5z"/>
	<path class="st4" d="M132,181.4c24.8,0.2,44.4,20,44.2,44.7c-0.2,24.1-20.5,44-44.7,43.9c-24.5-0.2-43.9-20.3-43.7-45.2
		C87.9,200.6,107.7,181.2,132,181.4z M131.6,255.6c16.9,0.1,30.2-12.9,30.3-29.7c0.1-16.8-13-30.4-29.6-30.6
		c-16.8-0.1-30.6,13.4-30.8,30.1C101.4,241.9,114.9,255.4,131.6,255.6z"/>
	<path class="st4" d="M387,181.4c24.4,0,44.2,19.8,44.2,44.2c0,24.1-20.2,44.4-44.3,44.3c-24.6,0-44.3-19.9-44.2-44.7
		C342.7,200.7,362.2,181.4,387,181.4z M416.8,225.5c0-17-13.5-30.4-30.4-30.3c-16.3,0.1-30,14.1-29.9,30.5
		c0.1,16.6,13.7,29.9,30.4,29.8C403.8,255.5,416.9,242.4,416.8,225.5z"/>
	<path class="st5" d="M258.8,236.6c-19.6,0-39.3-0.1-58.9,0.1c-4.3,0.1-5.3-1.3-4.2-5.1c0.2-0.8,0.3-1.7,0.3-2.6
		c0.7-8.9,0.7-8.9,9.9-8.9c37.2,0,74.3,0.1,111.5-0.1c4.3,0,6.2,1,5.3,5.5c-0.1,0.5,0,1.1,0,1.6c0.1,9.5,0.1,9.5-9.2,9.5
		C295.3,236.6,277,236.6,258.8,236.6z"/>
	<path class="st6" d="M51.1,236.6c-4.4,0-8.8,0.1-13.1,0c-4.7-0.2-8-3.5-8.2-7.8c-0.2-4.6,3.1-8.4,8.1-8.5
		c8.9-0.2,17.8-0.1,26.8-0.1c0.2,0,0.4-0.1,0.5,0c6,3.6,1.1,9.4,2.9,13.9c1.1,2.7-1.6,2.4-3.2,2.5C60.2,236.6,55.7,236.6,51.1,236.6
		z"/>
	<path class="st7" d="M457.5,236.6c-1.6,0-3.2-0.1-4.7,0c-2.2,0.1-2.6-0.9-2.5-2.9c0.3-3.7,0.5-7.3,0.7-11c0.1-1.1,0-2.3,1.4-2.4
		c4.5-0.1,9.2-1.1,13.5,0.9c3.3,1.6,4.8,4.7,4.2,8.3c-0.6,3.8-2.8,6.4-6.8,6.9c-1.9,0.2-3.9,0-5.8,0
		C457.5,236.5,457.5,236.5,457.5,236.6z"/>
	<path class="st5" d="M279.5,370.7c0,16.7-0.1,33.3,0,50c0,2.9-0.3,4.4-3.9,4.4c-12.6-0.2-25.3-0.2-37.9,0c-2.9,0-3.9-0.8-3.9-3.8
		c0.1-33.7,0.1-67.3,0-101c0-3,1-3.8,3.9-3.8c12.4,0.1,24.9,0.2,37.3,0c3.4,0,4.4,0.9,4.4,4.4C279.5,337.4,279.5,354,279.5,370.7z"
		/>
	<path class="st3" d="M256.5,478.6c-18.8,0-37.5-0.1-56.3,0.1c-4,0-5.2-1-5-5c0.3-5.4,0-10.9,0.1-16.3c0.1-8,4.6-12.5,12.4-12.5
		c32.6-0.1,65.2-0.1,97.9,0c7.8,0,12,4.2,12.1,12c0.1,5.8-0.2,11.6,0.1,17.4c0.2,3.6-1.2,4.4-4.5,4.4
		C294.4,478.6,275.5,478.6,256.5,478.6z"/>
	<path class="st1" d="M131.6,255.6c-16.7-0.1-30.2-13.7-30-30.2c0.2-16.7,14-30.3,30.8-30.1c16.5,0.1,29.7,13.8,29.6,30.6
		C161.7,242.7,148.4,255.7,131.6,255.6z M131.7,235.6c5.9,0,10.4-4.3,10.4-10.1c0-5.5-4.9-10.3-10.5-10.2c-5.4,0.1-10,4.6-10.1,10
		C121.4,230.9,126,235.5,131.7,235.6z"/>
	<path class="st1" d="M416.8,225.5c0,16.8-13.1,30-30,30c-16.7,0.1-30.2-13.2-30.4-29.8c-0.1-16.4,13.5-30.4,29.9-30.5
		C403.4,195.1,416.8,208.5,416.8,225.5z M386.7,235.6c5.8,0.1,10.6-4.5,10.5-10.1c-0.1-5.5-5-10.3-10.6-10.2
		c-5.5,0.1-10,4.4-10.1,10C376.4,231,380.8,235.5,386.7,235.6z"/>
	<path class="st8" d="M131.7,235.6c-5.8,0-10.3-4.7-10.2-10.3c0.2-5.4,4.7-9.9,10.1-10c5.6-0.1,10.5,4.7,10.5,10.2
		C142.1,231.3,137.7,235.6,131.7,235.6z"/>
	<path class="st8" d="M386.7,235.6c-5.9-0.1-10.4-4.6-10.2-10.3c0.2-5.5,4.6-9.9,10.1-10c5.6-0.1,10.5,4.7,10.6,10.2
		C397.3,231.1,392.5,235.6,386.7,235.6z"/>
</g>
</svg>
