<?xml version="1.0" encoding="utf-8"?>
<!-- Generator: Adobe Illustrator 23.1.0, SVG Export Plug-In . SVG Version: 6.00 Build 0)  -->
<svg version="1.1" id="Layer_1" xmlns="http://www.w3.org/2000/svg" xmlns:xlink="http://www.w3.org/1999/xlink" x="0px" y="0px"
	 viewBox="0 0 500 200" enable-background="new 0 0 500 200" xml:space="preserve">
<g>
	<path fill="#0D0D0D" d="M307.99,168.1H140.73c-2.47,0-4.41-1.93-4.41-4.41V152.4c0-2.47,1.93-4.41,4.41-4.41h167.27
		c2.47,0,4.41,1.93,4.41,4.41v11.29C312.4,166.06,310.47,168.1,307.99,168.1z"/>
	<g>
		<circle fill="none" stroke="#0D0D0D" stroke-width="16" stroke-miterlimit="10" cx="79.24" cy="157.99" r="33.11"/>
		<circle fill="none" stroke="#0D0D0D" stroke-width="16" stroke-miterlimit="10" cx="369.48" cy="157.99" r="33.11"/>
		<path fill="none" stroke="#0D0D0D" stroke-width="16" stroke-miterlimit="10" d="M18.72,148v-9.89c0-4.84,2.58-9.35,6.66-11.93
			l0,0c5.8-3.55,9.24-9.78,9.24-16.55V86.4c0-6.13,4.94-11.07,11.07-11.07h79.66c6.99,0,13.54-3.22,17.84-8.6l39.56-50.09
			c3.87-4.84,9.67-7.74,15.91-7.74h51.71c9.57,0,17.31,7.74,17.31,17.31v48.27h190.05c7.09,0,12.9,5.8,12.9,12.79v29.67l3.44,2.58
			c4.51,3.44,7.2,8.81,7.2,14.4v7.52c0,9.14-7.42,16.55-16.55,16.55H429.9"/>
		<line fill="none" stroke="#0D0D0D" stroke-width="16" stroke-miterlimit="10" x1="181.69" y1="74.47" x2="267.68" y2="74.47"/>
	</g>
</g>
</svg>
