<?xml version="1.0" encoding="utf-8"?>
<!-- Generator: Adobe Illustrator 23.0.5, SVG Export Plug-In . SVG Version: 6.00 Build 0)  -->
<svg version="1.1" id="Layer_1" xmlns="http://www.w3.org/2000/svg" xmlns:xlink="http://www.w3.org/1999/xlink" x="0px" y="0px"
	 viewBox="0 0 500 200" enable-background="new 0 0 500 200" xml:space="preserve">
<g>
	<g>
		<path fill="#9AE5FC" d="M363.38,26.11v22.8c0,2.9,1.97,5.42,4.78,6.12l46.82,11.71c0.14,0.03,0.28,0.07,0.41,0.12
			c4.01,1.3,5.05,1.28,6.32-0.07c3.81-4.03-2.19-19.15-10.8-29.06c-0.21-0.25-0.45-0.47-0.7-0.68c-2.05-1.73-12.1-9.82-27.04-15.41
			c-3.53-1.32-7.01-2.66-8.45-3.22c-0.47-0.18-0.95-0.32-1.44-0.41l-2.42-0.45c-3.89-0.73-7.49,2.26-7.49,6.22v2.33H363.38z"/>
		<g>
			<circle fill="none" stroke="#4E4868" stroke-width="12" stroke-miterlimit="10" cx="362.68" cy="149.94" r="27.44"/>
			<circle fill="none" stroke="#4E4868" stroke-width="12" stroke-miterlimit="10" cx="138.28" cy="149.94" r="27.44"/>
			<path fill="#4E4868" d="M181.14,149.94h135.95c1.79,0,3.25-1.45,3.25-3.25v-5.59c0-1.79-1.45-3.25-3.25-3.25H181.5
				c-1.79,0-3.25,1.45-3.25,3.25v5.86C178.24,148.63,179.56,149.94,181.14,149.94z"/>
			<path fill="#4E4868" d="M56.69,149.94h36.13c1.93,0,3.44-1.31,3.44-2.97v-6.13c0-1.67-1.51-2.97-3.44-2.97H56.69
				c-1.93,0-3.44,1.31-3.44,2.97v6.13C53.25,148.63,54.77,149.94,56.69,149.94z"/>
			<path fill="#4E4868" d="M406.07,153.94h42.16c3.34,0,6.04-2.71,6.04-6.04l0,0c0-3.34-2.71-6.04-6.04-6.04h-39.19
				c-3.34,0-6.04,2.71-6.04,6.04v3.07C403.08,152.63,404.4,153.94,406.07,153.94z"/>
			<path fill="none" stroke="#4E4868" stroke-width="12" stroke-miterlimit="10" d="M403,129.92h39.45c2.81,0,5.26-2.1,5.51-4.91
				c1.23-10.43,1.67-23.4-0.7-38.04c-5.35-33.67-22-57.5-32.7-70.04c-2.01-2.36-5.08-3.77-8.24-3.77h-67.24
				c-2.2,0-3.86,1.76-3.86,3.86v97.82"/>
			<path fill="none" stroke="#0F0F0F" stroke-width="6" stroke-miterlimit="10" d="M425.44,94.33"/>
			<path fill="none" stroke="#4E4868" stroke-width="12" stroke-miterlimit="10" d="M358.46,18.34V59.8c0,4.11,2.89,7.71,6.93,8.59
				l53.73,11.67c2.81,0.61,4.82,2.89,5.26,5.7l1.14,8.59"/>
		</g>
		<path fill="#4E4868" stroke="#4E4868" stroke-width="2" stroke-miterlimit="10" d="M122.7,149.85
			c-0.08-8.55,6.94-15.49,15.57-15.49c8.46,0,15.49,6.86,15.57,15.15c0.17,8.89-6.6,15.91-15.49,16
			C129.56,165.68,122.7,158.91,122.7,149.85z M138.19,155.18c2.79,0,5.16-2.29,5.25-5.16c0.08-2.88-2.12-5.16-5.08-5.33
			c-3.05-0.08-5.5,2.29-5.42,5.25C132.94,152.81,135.4,155.18,138.19,155.18z"/>
		<path fill="#4E4868" stroke="#4E4868" stroke-width="2" stroke-miterlimit="10" d="M347.27,149.35
			c-0.08-8.55,6.94-15.49,15.57-15.49c8.46,0,15.49,6.86,15.57,15.15c0.17,8.89-6.6,15.91-15.49,16
			C354.13,165.18,347.27,158.41,347.27,149.35z M362.76,154.68c2.79,0,5.16-2.29,5.25-5.16c0.08-2.88-2.12-5.16-5.08-5.33
			c-3.05-0.08-5.5,2.29-5.42,5.25C357.51,152.31,359.97,154.68,362.76,154.68z"/>
		<path fill="#9AE5FC" d="M64.81,67.82c12.04,0,23.99,0,36.03,0c4.46,0,7.48,2.91,7.37,6.75c-0.1,3.74-3.01,6.23-7.37,6.33
			c-0.73,0-1.45,0-2.18,0c-11.32,0-22.53,0-33.85,0C64.4,76.55,64.4,72.18,64.81,67.82z"/>
		<path fill="#DBDAE1" d="M40.74,60.86c-4.05,0-6.96-2.8-6.85-7.16c0.1-3.11-0.73-4.36-4.15-4.26c-4.57,0.1-7.27-2.7-7.27-6.75
			c0-3.63,2.91-6.33,7.27-6.13c3.32,0.1,4.15-1.04,4.15-4.26c-0.1-4.26,3.11-7.89,6.44-7.89c3.95,0,7.37,3.63,7.37,8
			c0,2.7,0.1,4.05,3.74,3.63c4.78-0.42,7.58,2.39,7.68,6.33c0.1,4.26-2.49,6.96-7.48,7.06c-3.22,0.1-3.84,1.56-3.84,4.36
			C47.6,58.16,44.79,60.86,40.74,60.86z"/>
		<path fill="#EAE9ED" d="M289.05,24.96c0,10.59-7.27,17.13-18.17,17.65c-10.49,0.52-17.86-9.55-17.76-18.27
			c0.1-8.1,7.37-18.48,18.9-17.76C281.99,7.31,289.05,14.27,289.05,24.96z M275.97,24.65c-0.83-2.49-1.77-4.98-5.09-4.78
			c-3.01,0.21-4.26,2.6-4.36,5.09c-0.1,3.01,2.49,4.36,4.98,4.15C273.79,29.01,275.86,27.56,275.97,24.65z"/>
		<path fill="#DBDAE1" d="M459.15,43.5c-4.05,0-6.96-2.8-6.85-7.16c0.1-3.11-0.73-4.36-4.15-4.26c-4.57,0.1-7.27-2.7-7.27-6.75
			c0-3.63,2.91-6.33,7.27-6.13c3.32,0.1,4.15-1.04,4.15-4.26c-0.1-4.26,3.11-7.89,6.44-7.89c3.95,0,7.37,3.63,7.37,8
			c0,2.7,0.1,4.05,3.74,3.63c4.78-0.42,7.58,2.39,7.68,6.33c0.1,4.26-2.49,6.96-7.48,7.06c-3.22,0.1-3.84,1.56-3.84,4.36
			C466.11,40.8,463.3,43.5,459.15,43.5z"/>
		<path fill="#4E4868" d="M197.8,193.45h-111c-2.64,0-4.78-2.6-4.78-5.81l0,0c0-3.22,2.13-5.81,4.78-5.81h111
			c2.64,0,4.78,2.6,4.78,5.81l0,0C202.58,190.85,200.45,193.45,197.8,193.45z"/>
		<path fill="#EFDD03" d="M440.88,122.64V99.09c-4.32,0.34-7.64,1.41-9.72,2.24c-2.65,1.06-8.99,4.57-13.62,13.46
			c-1.66,3.18-2.32,6.07-2.62,7.85"/>
		<path fill="#4E4868" d="M428.4,193.45H294.8c-3.18,0-5.75-2.6-5.75-5.81l0,0c0-3.22,2.57-5.81,5.75-5.81h133.6
			c3.18,0,5.75,2.6,5.75,5.81l0,0C434.15,190.85,431.58,193.45,428.4,193.45z"/>
		<path fill="#4E4868" d="M71.94,193.45H59.06c-3.22,0-5.81-2.6-5.81-5.81l0,0c0-3.22,2.6-5.81,5.81-5.81h12.88
			c3.22,0,5.81,2.6,5.81,5.81l0,0C77.75,190.85,75.15,193.45,71.94,193.45z"/>
	</g>
	<rect x="59.12" y="62.86" fill="none" stroke="#4E4868" stroke-width="12" stroke-miterlimit="10" width="258.24" height="46.02"/>
</g>
<rect x="65.12" y="90.8" fill="#EAE9ED" width="246.2" height="12"/>
</svg>
