<?xml version="1.0" encoding="utf-8"?>
<!-- Generator: Adobe Illustrator 23.1.0, SVG Export Plug-In . SVG Version: 6.00 Build 0)  -->
<svg version="1.1" id="Layer_1" xmlns="http://www.w3.org/2000/svg" xmlns:xlink="http://www.w3.org/1999/xlink" x="0px" y="0px"
	 viewBox="0 0 500 200" enable-background="new 0 0 500 200" xml:space="preserve">
<g>
	<circle fill="none" stroke="#0D0E0E" stroke-width="14" stroke-miterlimit="10" cx="135.63" cy="161.15" r="29.61"/>
	<circle fill="none" stroke="#0D0E0E" stroke-width="14" stroke-miterlimit="10" cx="377.79" cy="161.15" r="29.61"/>
	<path fill="#0F0F0F" d="M331.54,161.15h-147c-1.8,0-3.21-1.41-3.21-3.21v-6.62c0-1.8,1.41-3.21,3.21-3.21h146.9
		c1.8,0,3.21,1.41,3.21,3.21v6.62C334.66,159.74,333.24,161.15,331.54,161.15z"/>
	<path fill="#0F0F0F" d="M460,161.15h-33.67c-1.8,0-3.21-1.41-3.21-3.21v-6.62c0-1.8,1.41-3.21,3.21-3.21H460
		c1.8,0,3.21,1.41,3.21,3.21v6.62C463.21,159.74,461.79,161.15,460,161.15z"/>
	<path fill="#0F0F0F" d="M88.81,161.15H40c-1.8,0-3.21-1.41-3.21-3.21v-6.62c0-1.8,1.41-3.21,3.21-3.21h48.91
		c1.8,0,3.21,1.41,3.21,3.21v6.62C92.03,159.74,90.61,161.15,88.81,161.15z"/>
	<path fill="none" stroke="#0F0F0F" stroke-width="14" stroke-miterlimit="10" d="M99.41,135.23H49.55c-3.03,0-5.68-2.27-5.95-5.3
		c-1.33-11.26-1.8-25.25,0.76-41.05c5.77-36.33,23.74-62.05,35.29-75.58c2.17-2.55,5.48-4.07,8.89-4.07h72.56
		c2.37,0,4.17,1.9,4.17,4.17v105.56"/>
	<path fill="none" stroke="#0F0F0F" stroke-width="6" stroke-miterlimit="10" d="M67.91,96.83"/>
	<path fill="none" stroke="#0F0F0F" stroke-width="14" stroke-miterlimit="10" d="M140.18,14.82v44.74c0,4.44-3.12,8.32-7.48,9.27
		L74.72,81.42c-3.03,0.66-5.2,3.12-5.68,6.15l-1.23,9.27"/>
	<polygon fill="none" stroke="#0F0F0F" stroke-width="14" stroke-miterlimit="10" points="187.85,61.64 463.21,61.64 463.13,111.88 
		187.85,111.68 	"/>
</g>
</svg>
