<?xml version="1.0" encoding="utf-8"?>
<!-- Generator: Adobe Illustrator 23.0.5, SVG Export Plug-In . SVG Version: 6.00 Build 0)  -->
<svg version="1.1" id="Layer_1" xmlns="http://www.w3.org/2000/svg" xmlns:xlink="http://www.w3.org/1999/xlink" x="0px" y="0px"
	 viewBox="0 0 500 200" style="enable-background:new 0 0 500 200;" xml:space="preserve">
<style type="text/css">
	.st0{fill:#9AE5FC;}
	.st1{fill:#DBDAE1;}
	.st2{fill:#EAE9ED;}
	.st3{fill:#4E4868;}
	.st4{fill:#FCFBFC;}
	.st5{fill:#EFDD03;}
</style>
<g>
	<g>
		<path class="st0" d="M322.1,57.9c-12.5-17.1-29.2-25-50.4-23.3c-3,0.2-4.3,0.9-4.2,4c0.2,4.1-0.1,8.1,0,12.2
			c0.2,4.3-1.9,10,0.9,12.7c2.8,2.7,8.4,0.8,12.7,0.9c15,0.1,30,0,45.6,0c-0.5-1.2-0.5-1.5-0.7-1.8
			C324.8,60.9,323.3,59.5,322.1,57.9z"/>
	</g>
	<path class="st1" d="M89.2,60.4c-3.9,0-6.7-2.7-6.6-6.9c0.1-3-0.7-4.2-4-4.1c-4.4,0.1-7-2.6-7-6.5c0-3.5,2.8-6.1,7-5.9
		c3.2,0.1,4-1,4-4.1c-0.1-4.1,3-7.6,6.2-7.6c3.8,0,7.1,3.5,7.1,7.7c0,2.6,0.1,3.9,3.6,3.5c4.6-0.4,7.3,2.3,7.4,6.1
		c0.1,4.1-2.4,6.7-7.2,6.8c-3.1,0.1-3.7,1.5-3.7,4.2C95.8,57.8,93.1,60.4,89.2,60.4z"/>
	<path class="st1" d="M388.2,36.9c-3.9,0-6.7-2.7-6.6-6.9c0.1-3-0.7-4.2-4-4.1c-4.4,0.1-7-2.6-7-6.5c0-3.5,2.8-6.1,7-5.9
		c3.2,0.1,4-1,4-4.1c-0.1-4.1,3-7.6,6.2-7.6c3.8,0,7.1,3.5,7.1,7.7c0,2.6,0.1,3.9,3.6,3.5c4.6-0.4,7.3,2.3,7.4,6.1
		c0.1,4.1-2.4,6.7-7.2,6.8c-3.1,0.1-3.7,1.5-3.7,4.2C394.9,34.3,392.2,36.9,388.2,36.9z"/>
	<path class="st2" d="M215.6,25.6c0,10.2-7,16.5-17.5,17C188,43.1,180.9,33.4,181,25c0.1-7.8,7.1-17.8,18.2-17.1
		C208.8,8.6,215.6,15.3,215.6,25.6z M203,25.3c-0.8-2.4-1.7-4.8-4.9-4.6c-2.9,0.2-4.1,2.5-4.2,4.9c-0.1,2.9,2.4,4.2,4.8,4
		C200.9,29.5,202.9,28.1,203,25.3z"/>
	<path class="st3" d="M220.6,198l-130.1,0c-3.1,0-5.6-2.5-5.6-5.6l0,0c0-3.1,2.5-5.6,5.6-5.6l130.1,0c3.1,0,5.6,2.5,5.6,5.6v0
		C226.2,195.5,223.7,198,220.6,198z"/>
	<path class="st4" d="M203,25.3c-0.1,2.8-2.1,4.2-4.3,4.3c-2.4,0.1-4.9-1.1-4.8-4c0.1-2.4,1.3-4.6,4.2-4.9
		C201.3,20.5,202.2,22.9,203,25.3z"/>
	<path class="st3" d="M427.9,198l-130.1,0c-3.1,0-5.6-2.5-5.6-5.6v0c0-3.1,2.5-5.6,5.6-5.6l130.1,0c3.1,0,5.6,2.5,5.6,5.6l0,0
		C433.5,195.5,431,198,427.9,198z"/>
	<g>
		<g>
			<path class="st3" d="M132.2,68.2c18,0,74.6-0.1,92.6,0.1c3.9,0.1,4.6-1.1,4.6-4.7c-0.1-9.8-0.5-19.6,1.5-29.2
				c0.6-3.2,0.7-6.2,2.4-9c1.6-2.5,3.6-4.3,6.6-4.6c19-2.1,39.6-2.3,58.4,1.3c8.3,1.6,15.2,6,21.7,11.2
				c10.6,8.5,19.5,18.8,28.7,28.7c2.4,2.6,5.1,4.1,8.5,4.9c13.9,3.1,28.2,4.3,42.2,6.5c8.8,1.4,17.7,2.7,26.2,5.7
				c3.8,1.3,7.5,3,10.8,5.5c3.2,2.5,4.6,5.3,5.7,9.8c0.2,18.6,1,37.2-1.5,55.7c-1.3,9.7-3.4,11.9-12.8,11.3c-6.8-0.4-10.5,1-13.5,8
				c-6.1,13.9-20.3,20.6-36.4,19.2c-14.5-1.2-26.9-11.2-31.1-25.5c-0.9-3.2-2.2-4-5.3-4c-45.5,0.1-129.7,0.1-175.2,0
				c-3.2,0-4.4,0.9-5.4,4c-4.6,15.3-17.8,25.1-33.7,25.6c-16.6,0.5-30.4-8.3-36-23.5c-1.1-3.1-2.5-4.1-5.6-3.8
				c-4.2,0.3-8.4,0.1-12.6,0.1c-8.1-0.2-13-5.3-13.5-13.4c-0.2-3.5,0-7,0.1-10.5c0.1-2.8,1-5.5,3.1-7.1c2.9-2.2,2.9-5,2.9-8.1
				c-0.1-13.4-0.1-26.8,0-40.2c0-10.2,1.8-14.1,14.3-14.1C97.3,68.2,114.8,68.2,132.2,68.2z M409.6,87.4l-52.3-7.8l-9.1-1.6
				c-1.7-0.3-3.3-0.5-4.4-1.9c-4.7-5.9-20-23.2-27.4-29.8c-6.5-5.8-13.4-11-22.4-12.4c-15.6-2.5-31.2-2.4-46.8-1.3
				c-2.1,0.2-2.9,1.1-3.2,3c-0.7,4-1.1,8-1.3,12.1c-1.4,24.9-0.7,49.7-0.9,74.6c0,2.9,0.6,3.7,3.6,3.7c15-0.2,29.9-0.1,44.9-0.1
				c15.1,0,30.2,0,45.3,0l20.9-0.5l1.9-1.6c20.9-17.5,53.2-6.9,59.7,19.5c0.9,3.5,3.9,6.1,7.4,6.1c2.5,0,3.5-0.8,3.6-3.3
				c0.2-5,0.7-10,1-15c0.1,0,0.1,0,0.2,0c0-3.9-0.1-11.2,0.1-15.1c0.1-2.5-0.5-1.6-3.2-1.7c-4.4-0.1-6.2,0.2-10.5,0.1
				c-2.9-0.1-5.5-1-6.3-3.9 M134.4,80.5c-17.6,0-35.2,0-52.8,0c-2.4,0-3.8,0.2-3.8,3.3c0.2,13.1,0.1,26.3,0,39.4
				c0,2.9,1,2.5,5.7,2.5c3.9,0,7.2,0.1,11.3,0.1c3.1,0,4.9-0.1,7-1.8c14-11.8,34.1-11.5,48.1,0.2c1.5,1.2,2.9,1.7,4.8,1.7
				c10.9-0.1,60.4-0.1,71.2,0c2.9,0,3.4-1,3.4-3.6c-0.1-12.7-0.2-25.4,0-38.1c0.1-3.3-1-3.9-4-3.9C207.8,80.6,151.8,80.5,134.4,80.5
				z M289.5,147.3c15.1,0,30.2-0.2,45.2,0.1c4.3,0.1,3.5-2.3,3.5-4.7c0-2.3,0.8-4.5-3.3-4.5c-30,0.2-60,0.2-90,0
				c-4.5,0-3.1,2.6-3.3,4.9c-0.2,2.5-0.4,4.4,3.4,4.3C259.9,147.1,274.7,147.3,289.5,147.3z M382,177c13.5,0,24.7-11.1,24.7-24.4
				c0-14.2-10.8-25.1-24.8-25.1c-14,0-24.7,10.9-24.6,25.2C357.3,166.1,368.5,177,382,177z M125.5,177c13.5,0.1,24.8-10.8,24.9-24.2
				c0.2-14.2-10.5-25.2-24.5-25.3c-14-0.1-24.9,10.8-25,24.9C100.8,165.7,112.1,176.9,125.5,177z M175.5,138.3c-3.2,0-6.4,0-9.6,0
				c-5.6,0-5.4,0-4.3,5.3c0.6,2.8,1.5,3.9,4.5,3.8c7.1-0.3,52.8-0.3,59.9,0c4,0.2,3.4-2.2,3.3-4.5c-0.1-2.1,1.1-4.9-3.1-4.6
				C222.1,138.5,179.5,138.3,175.5,138.3z M81.3,138.3c-1.1,0-2.2,0-3.3,0c-7.1,0.1-6-1.1-6.4,6.5c-0.2,3.7,0.9,4.7,4.6,4.6
				c1.1,0,2.2,0,3.3,0c8.7,0,8.6,0,10.9-8.2c0.6-2.2,0.4-3.1-2-2.9C86.1,138.4,83.7,138.3,81.3,138.3z M424.7,103.9
				c2-0.5,5.9,1.8,5.5-3.7c-0.4-5-3.1-9-7.3-8.6c-2.1,0.2-4.7,0.6-4.6,4.1C418.5,103.4,418.7,103.9,424.7,103.9z"/>
			<path class="st5" d="M424.7,103.9c-6.1,0-6.3-0.4-6.4-8.2c-0.1-3.5,2.5-3.9,4.6-4.1c4.1-0.3,6.9,3.7,7.3,8.6
				C430.7,105.7,426.8,103.3,424.7,103.9z"/>
			<path class="st3" d="M291.2,84.7c-10.7,0-21.5,0-32.2,0c-6.1,0-8.2-2.4-8-8.5c0.2-5,0.2-10,0.2-15.1c0-5.2,0-10.3,0.5-15.5
				c0.9-8.2,2.7-9.8,10.9-9.8c8.2,0,16.5-0.2,24.6,1.6c7.2,1.6,13.7,4.6,19.1,9.8c8.4,8,16,16.7,23.1,25.9c1.9,2.5,3.2,5,1.5,8.1
				c-1.6,3.1-4.4,3.4-7.5,3.4C312.7,84.7,301.9,84.7,291.2,84.7z M312.3,72.5c-0.4-1-0.4-1.3-0.6-1.5c-1.1-1.3-2.3-2.5-3.2-3.8
				c-10.3-14.1-24-20.6-41.6-19.2c-2.4,0.2-3.5,0.7-3.4,3.3c0.1,3.3-0.1,6.7,0,10c0.2,3.6-1.5,8.2,0.7,10.4
				c2.3,2.2,6.9,0.7,10.5,0.7C287.1,72.6,299.5,72.5,312.3,72.5z"/>
			<path class="st3" d="M400.4,152c0,10.6-8.1,18.7-18.5,18.7c-10.5-0.1-18.4-8.3-18.3-18.8c0.1-9.9,8.3-17.9,18.3-18
				C392.1,133.8,400.4,141.9,400.4,152z M388.2,152.4c0.1-3.3-2.6-6.2-6-6.3c-3.5-0.1-6.2,2.3-6.4,5.8c-0.2,3.6,2.6,6.5,6.1,6.6
				C385.2,158.4,388.2,155.6,388.2,152.4z"/>
			<path class="st3" d="M107.4,152.1c-0.1-10.1,8.2-18.3,18.4-18.3c10,0,18.3,8.1,18.4,17.9c0.2,10.5-7.8,18.8-18.3,18.9
				C115.5,170.8,107.4,162.8,107.4,152.1z M125.7,158.4c3.3,0,6.1-2.7,6.2-6.1c0.1-3.4-2.5-6.1-6-6.3c-3.6-0.1-6.5,2.7-6.4,6.2
				C119.5,155.6,122.4,158.4,125.7,158.4z"/>
		</g>
	</g>
	<path class="st3" d="M75.6,198H63.2c-3.1,0-5.6-2.5-5.6-5.6v0c0-3.1,2.5-5.6,5.6-5.6l12.4,0c3.1,0,5.6,2.5,5.6,5.6l0,0
		C81.2,195.5,78.7,198,75.6,198z"/>
	<path class="st0" d="M78.1,96.9c11.6,0,23.1,0,34.7,0c4.3,0,7.2,2.8,7.1,6.5c-0.1,3.6-2.9,6-7.1,6.1c-0.7,0-1.4,0-2.1,0
		c-10.9,0-21.7,0-32.6,0C77.7,105.3,77.7,101.1,78.1,96.9z"/>
</g>
</svg>
