<?xml version="1.0" encoding="utf-8"?>
<!-- Generator: Adobe Illustrator 23.0.5, SVG Export Plug-In . SVG Version: 6.00 Build 0)  -->
<svg version="1.1" id="Layer_1" xmlns="http://www.w3.org/2000/svg" xmlns:xlink="http://www.w3.org/1999/xlink" x="0px" y="0px"
	 viewBox="0 0 60 60" enable-background="new 0 0 60 60" xml:space="preserve">
<g transform="translate(0 -1028.4)">
	<path fill="#FFFFFF" d="M30,1028.9c-0.99,0-1.98,0.15-2.92,0.38c-0.55,0.14-1.08,0.32-1.61,0.54c-0.2,0.08-0.41,0.14-0.61,0.23
		c-0.08,0.04-0.15,0.11-0.23,0.15c-0.5,0.25-0.99,0.53-1.46,0.84c-0.07,0.04-0.16,0.03-0.23,0.08c-0.14,0.09-0.25,0.21-0.38,0.31
		c-0.39,0.28-0.79,0.53-1.15,0.84c-0.33,0.3-0.61,0.67-0.92,1c-1.04,1.07-1.95,2.2-2.69,3.53c-1.27,2.22-2.21,4.72-2.61,7.29
		c-0.19-0.04-0.37-0.05-0.54,0c-1.29,0.42-1.61,2.87-0.77,5.45c0.49,1.51,1.31,2.71,2.15,3.38c1.12,4.37,3.5,8.01,6.6,10.29v2.53
		l-2.46,2.46l-4.91,2.46c-3.97,1.97-7.93,3.94-11.9,5.91c-2.2,1.33-3.05,3.93-2.84,6.37c0.1,1.54-0.45,3.51,1.07,4.53
		c1.45,0.75,3.18,0.26,4.76,0.38c4.61,0,9.21,0,13.82,0c6.56,0,13.1,0,19.65,0c5.81,0,11.61,0.01,17.43,0
		c1.89-0.13,2.41-2.12,2.23-3.68c0.03-2.29,0.17-4.85-1.61-6.6c-1.45-1.48-3.52-2.06-5.3-3.07c-2.61-1.29-5.23-2.55-7.83-3.84
		l-4.91-2.46l-2.46-2.46v-2.53c3.1-2.28,5.48-5.92,6.6-10.29c0.84-0.67,1.66-1.86,2.15-3.38c0.84-2.58,0.52-5.03-0.77-5.45
		c-0.17-0.05-0.34-0.04-0.54,0c-0.4-2.57-1.34-5.07-2.61-7.29c-0.74-1.33-1.64-2.46-2.69-3.53c-0.31-0.33-0.59-0.7-0.92-1
		c-0.01-0.01-0.06,0.01-0.08,0c-0.96-0.86-2.03-1.52-3.15-2.07c-0.28-0.14-0.56-0.27-0.85-0.38c-0.21-0.08-0.41-0.16-0.61-0.23
		c-0.63-0.22-1.27-0.43-1.92-0.54c-0.05-0.01-0.1,0.01-0.15,0C31.23,1028.96,30.62,1028.89,30,1028.9L30,1028.9z"/>
</g>
</svg>
