<?xml version="1.0" encoding="utf-8"?>
<!-- Generator: Adobe Illustrator 23.1.0, SVG Export Plug-In . SVG Version: 6.00 Build 0)  -->
<svg version="1.1" id="Layer_1" xmlns="http://www.w3.org/2000/svg" xmlns:xlink="http://www.w3.org/1999/xlink" x="0px" y="0px"
	 viewBox="0 0 500 500" enable-background="new 0 0 500 500" xml:space="preserve">
<g>
	<path fill="#303030" d="M63.84,499.59c0-2.53,0-4.69,0-6.85c0-93.11,0-186.22,0-279.32c0-7.24,0.01-7.26,7.09-7.26
		c119.37,0,238.74,0,358.11,0c7.09,0,7.1,0.01,7.1,7.24c0,53.26,0.06,106.51-0.15,159.77c-0.01,3.11-1.34,6.94-3.4,9.2
		c-35.07,38.35-70.33,76.53-105.67,114.64c-1.42,1.53-3.95,2.88-5.96,2.88c-84.66,0.14-169.32,0.12-253.98,0.1
		C66.27,499.99,65.55,499.81,63.84,499.59z M418.37,224.15c-112.71,0-224.47,0-336.46,0c0,86.01,0,171.66,0,257.62
		c1.94,0.13,3.55,0.34,5.17,0.34c70.89,0.02,141.78-0.04,212.67,0.13c5.16,0.01,5.99-1.89,5.97-6.42
		c-0.15-35.08-0.09-70.15-0.06-105.23c0-2.29,0.26-4.57,0.43-7.23c2.8,0,4.98,0,7.17,0c32.69,0,65.38,0,98.07,0
		c7.04,0,7.05-0.01,7.05-7.26c0-41.69,0-83.38,0-125.07C418.37,228.88,418.37,226.72,418.37,224.15z M409.22,381.58
		c-29.31,0-57.24,0-85.26,0c0,30.69,0,60.99,0,92.4C352.64,442.91,380.54,412.67,409.22,381.58z"/>
	<path fill="#303030" d="M153.77,0c12.36,28.95,26.16,56.24,33.75,85.81c4.93,19.19-10.36,38.67-30.26,41.24
		c-19.55,2.52-36.64-12.47-38.09-33.85c-0.29-4.27,0.14-8.98,1.67-12.93c9.68-24.95,19.75-49.74,29.74-74.57
		C151.24,4.05,152.31,2.57,153.77,0z"/>
	<path fill="#303030" d="M244.61,58.32c0.59,0.89,1.2,1.55,1.52,2.33c10.59,26.14,21.88,52.02,31.46,78.52
		c6.95,19.21-7.36,41.48-27,44.69c-25.14,4.11-44.98-17.49-39.68-41.49c6.41-29.01,19.57-55.94,32.31-82.78
		C243.42,59.16,243.95,58.9,244.61,58.32z"/>
	<path fill="#303030" d="M335.09,1.31c0.52,0.59,1,0.92,1.18,1.37c10.78,26.69,22.38,53.09,32.02,80.19c6.87,19.3-8,41-28.09,43.96
		c-24.11,3.55-44.07-17.54-38.73-41.52c6.42-28.82,19.27-55.74,32.12-82.38C333.88,2.34,334.52,1.91,335.09,1.31z"/>
	<path fill="#303030" d="M97.86,273.88c0-18.92,15.39-34.4,34.24-34.44c18.93-0.04,34.24,15.29,34.29,34.36
		c0.05,18.98-15.29,34.43-34.2,34.43C113.34,308.22,97.86,292.74,97.86,273.88z M132.17,257.81c-8.77-0.03-16.12,7.34-16.07,16.14
		c0.04,8.55,7.18,15.76,15.74,15.9c8.81,0.14,16.28-7.09,16.37-15.84C148.29,265.27,140.94,257.84,132.17,257.81z"/>
</g>
</svg>
