<?xml version="1.0" encoding="utf-8"?>
<!-- Generator: Adobe Illustrator 23.0.5, SVG Export Plug-In . SVG Version: 6.00 Build 0)  -->
<svg version="1.1" id="Layer_1" xmlns="http://www.w3.org/2000/svg" xmlns:xlink="http://www.w3.org/1999/xlink" x="0px" y="0px"
	 viewBox="0 0 60 60" enable-background="new 0 0 60 60" xml:space="preserve">
<path fill="#FFFFFF" d="M36.95,24.45c5.77,0,10.73-5.15,10.73-11.85c0-6.62-4.99-11.53-10.73-11.53c-5.71,0-10.73,5.01-10.7,11.59
	C26.25,19.3,31.21,24.45,36.95,24.45z M36.95,29.25c-4.59,0-8.58,1.07-11.83,2.74c3.86,3.16,6.33,7.96,6.33,13.33
	c0,1.34-0.16,2.71-0.48,3.97h22.82c4.21,0,5.71-1.21,5.71-3.57C59.5,38.8,50.84,29.25,36.95,29.25z M14.12,58.94
	c7.4,0,13.62-6.2,13.62-13.62c0-7.48-6.14-13.62-13.62-13.62c-7.46,0-13.62,6.14-13.62,13.62C0.5,52.8,6.67,58.94,14.12,58.94z
	 M14.15,54.16c-0.94,0-1.77-0.64-1.77-1.66v-5.55H7.26c-0.91,0-1.66-0.75-1.66-1.64c0-0.91,0.75-1.66,1.66-1.66h5.12V38.1
	c0-1.02,0.83-1.64,1.77-1.64c0.91,0,1.74,0.62,1.74,1.64v5.55h5.12c0.91,0,1.64,0.75,1.64,1.66c0,0.88-0.72,1.64-1.64,1.64h-5.12
	v5.55C15.89,53.52,15.06,54.16,14.15,54.16z"/>
</svg>
