<?xml version="1.0" encoding="utf-8"?>
<!-- Generator: Adobe Illustrator 23.0.5, SVG Export Plug-In . SVG Version: 6.00 Build 0)  -->
<svg version="1.1" id="Layer_1" xmlns="http://www.w3.org/2000/svg" xmlns:xlink="http://www.w3.org/1999/xlink" x="0px" y="0px"
	 viewBox="0 0 60 60" style="enable-background:new 0 0 60 60;" xml:space="preserve">
<style type="text/css">
	.st0{fill:#FFFFFF;}
</style>
<g>
	<g>
		<path class="st0" d="M58.7,29.9c0,7.6-0.1,15.3,0,23c0.1,3.8-3.2,7.4-7.8,6.5c-6.2-1.1-12.3-2.1-18.5-3.1c-2-0.3-4.1-0.6-6.1-1.1
			c-2.5-0.5-4.2-2.1-4.8-4.7c-0.1-0.5-0.2-1.1-0.2-1.6c0-2.1,0-4.1,0-6.2c0-2.2,1.4-3.8,3.4-4c2.1-0.2,4,1.4,4.1,3.6
			c0,1.7,0,3.4,0,5.2c0,0.4,0.1,0.6,0.5,0.7c3.7,0.6,7.5,1.2,11.2,1.9c3.4,0.6,6.7,1.1,10.1,1.7c0.6,0.1,0.7,0,0.7-0.6
			c0-9.9,0-19.7,0-29.6c0-4.2,0-8.4,0-12.6c0-0.5,0-0.7-0.6-0.6c-3,0.5-6,1-9,1.5s-6,1-9,1.5c-1.1,0.2-2.3,0.4-3.4,0.6
			c-0.4,0.1-0.5,0.2-0.5,0.6c0,1.7,0,3.3,0,5c0,1.6-0.8,2.9-2.3,3.5c-1.4,0.6-2.8,0.3-4-0.7c-0.8-0.7-1.2-1.7-1.2-2.8
			c0-2.4-0.1-4.9,0.1-7.4c0.2-2.3,2.1-4.6,4.4-5.2c2.2-0.6,4.4-0.8,6.6-1.2c4.9-0.8,9.9-1.7,14.8-2.5c1.5-0.3,2.9-0.5,4.4-0.7
			c3.9-0.5,7.1,2.5,7.1,5.9c0,3.6,0,7.1,0,10.7C58.7,21.4,58.7,25.6,58.7,29.9z"/>
		<path class="st0" d="M34.5,26.2c-0.4-0.5-0.9-0.9-1.3-1.4c-0.9-1.1-1-2.3-0.5-3.6c0.5-1.3,1.5-2.1,2.9-2.3
			c1.3-0.2,2.4,0.2,3.4,1.1c2.4,2.4,4.8,4.8,7.2,7.2c1.7,1.7,1.7,3.9,0,5.6c-2.4,2.4-4.8,4.7-7.1,7.1c-2.2,2.2-5.3,1.3-6.3-0.9
			c-0.7-1.5-0.3-3.1,0.9-4.4c0.3-0.3,0.6-0.5,0.9-0.8c-0.3-0.3-0.6-0.2-0.8-0.2c-9.5,0-19,0-28.5,0c-2,0-3.4-1-3.9-2.7
			c-0.6-2.2,1-4.6,3.3-4.7c0.3,0,0.5,0,0.8,0c9.4,0,18.9,0,28.3,0C34,26.3,34.3,26.3,34.5,26.2z"/>
	</g>
</g>
</svg>
