<?xml version="1.0" encoding="utf-8"?>
<!-- Generator: Adobe Illustrator 23.0.5, SVG Export Plug-In . SVG Version: 6.00 Build 0)  -->
<svg version="1.1" id="Layer_1" xmlns="http://www.w3.org/2000/svg" xmlns:xlink="http://www.w3.org/1999/xlink" x="0px" y="0px"
	 viewBox="0 0 60 60" enable-background="new 0 0 60 60" xml:space="preserve">
<g>
	<path fill="#FFFFFF" d="M54.49,6.28L39.18,0.51c-2.75-0.91-5.51-0.61-7.65,0.91C30.61,2.03,30,2.64,29.39,3.24H17.76
		c-4.59,0-8.57,3.95-8.57,8.5v3.04c0,1.21,0.92,2.43,2.45,2.43c1.53,0,2.45-1.21,2.45-2.43v-3.04c0-2.12,1.84-3.64,3.67-3.64h10.1
		v44.01h-10.1c-2.14,0-3.67-1.82-3.67-3.64v-3.03c0-1.21-0.92-2.43-2.45-2.43c-1.53,0-2.45,0.91-2.45,2.12v3.04
		c0,4.55,3.67,8.5,8.57,8.5h11.63c0.61,0.61,1.22,1.52,1.84,1.82c1.53,0.91,3.06,1.52,4.9,1.52c0.92,0,2.14-0.3,3.06-0.61
		l15.31-5.77c3.37-1.21,5.51-4.25,5.51-7.89V13.87C60,10.53,57.55,7.19,54.49,6.28z"/>
	<path fill="#FFFFFF" d="M10.1,34.51c0.92,0.91,0.92,2.43,0,3.34c-0.31,0.3-0.92,0.61-1.53,0.61c-0.61,0-1.22-0.3-1.53-0.61
		l-6.12-6.07c-0.31-0.3-0.31-0.61-0.61-0.61c0-0.3-0.31-0.61-0.31-0.91c0-0.3,0-0.61,0.31-0.91c0-0.3,0.31-0.61,0.61-0.61l6.12-6.07
		c0.92-0.91,2.45-0.91,3.37,0c0.92,0.91,0.92,2.43,0,3.34l-2.14,2.12h12.55c1.22,0,2.45,0.91,2.45,2.43c0,1.52-0.92,2.43-2.45,2.43
		H7.96L10.1,34.51z"/>
</g>
</svg>
