<?xml version="1.0" encoding="utf-8"?>
<!-- Generator: Adobe Illustrator 23.0.5, SVG Export Plug-In . SVG Version: 6.00 Build 0)  -->
<svg version="1.1" id="Layer_1" xmlns="http://www.w3.org/2000/svg" xmlns:xlink="http://www.w3.org/1999/xlink" x="0px" y="0px"
	 viewBox="0 0 60 60" enable-background="new 0 0 60 60" xml:space="preserve">
<g>
	<g>
		<path fill="#FFFFFF" d="M58.67,29.92c0,7.65-0.11,15.3,0.04,22.95c0.07,3.81-3.17,7.37-7.82,6.51
			c-6.15-1.14-12.34-2.08-18.51-3.12c-2.04-0.34-4.1-0.63-6.12-1.06c-2.55-0.54-4.17-2.14-4.82-4.67c-0.13-0.52-0.19-1.06-0.19-1.6
			c-0.02-2.06-0.02-4.11,0-6.17c0.02-2.15,1.43-3.8,3.37-3.98c2.15-0.2,4.04,1.42,4.09,3.57c0.04,1.72,0.02,3.43,0,5.15
			c-0.01,0.42,0.12,0.59,0.55,0.66c3.74,0.61,7.47,1.24,11.2,1.87c3.36,0.56,6.72,1.11,10.08,1.69c0.58,0.1,0.68-0.03,0.68-0.59
			c-0.02-9.87-0.01-19.73-0.01-29.6c0-4.21-0.01-8.43,0.01-12.64c0-0.48-0.03-0.69-0.62-0.58c-3,0.52-6,1.01-9,1.51s-6,1-9,1.5
			c-1.14,0.19-2.27,0.42-3.41,0.57c-0.44,0.06-0.5,0.23-0.49,0.61c0.02,1.66,0,3.32,0.01,4.97c0,1.65-0.78,2.85-2.25,3.5
			c-1.41,0.63-2.79,0.33-3.96-0.67c-0.83-0.71-1.24-1.66-1.24-2.75c0-2.45-0.12-4.91,0.07-7.36c0.18-2.35,2.07-4.63,4.37-5.22
			c2.18-0.56,4.43-0.81,6.64-1.19c4.93-0.84,9.86-1.65,14.79-2.47c1.47-0.25,2.94-0.53,4.42-0.73c3.87-0.52,7.08,2.47,7.1,5.87
			c0.02,3.55,0.02,7.11,0.02,10.66C58.67,21.37,58.67,25.64,58.67,29.92z"/>
		<path fill="#FFFFFF" d="M14.19,26.2c0.44-0.49,0.88-0.93,1.27-1.42c0.86-1.1,1.02-2.32,0.51-3.6c-0.52-1.29-1.48-2.09-2.88-2.32
			c-1.33-0.22-2.44,0.24-3.36,1.15c-2.41,2.39-4.82,4.79-7.2,7.2c-1.68,1.7-1.66,3.93,0.02,5.64c2.36,2.39,4.76,4.73,7.11,7.12
			c2.16,2.2,5.26,1.28,6.25-0.91c0.67-1.49,0.34-3.08-0.92-4.38c-0.26-0.27-0.57-0.48-0.89-0.75c0.35-0.27,0.6-0.18,0.82-0.18
			c9.49-0.01,18.97,0,28.46-0.01c2.01,0,3.44-1.01,3.94-2.74c0.64-2.21-1.02-4.57-3.31-4.7c-0.26-0.01-0.52-0.01-0.78-0.01
			c-9.43,0-18.85,0-28.28,0C14.72,26.27,14.47,26.33,14.19,26.2z"/>
	</g>
</g>
</svg>
