<?xml version="1.0" encoding="utf-8"?>
<!-- Generator: Adobe Illustrator 23.0.5, SVG Export Plug-In . SVG Version: 6.00 Build 0)  -->
<svg version="1.1" id="Layer_1" xmlns="http://www.w3.org/2000/svg" xmlns:xlink="http://www.w3.org/1999/xlink" x="0px" y="0px"
	 viewBox="0 0 700 500" enable-background="new 0 0 700 500" xml:space="preserve">
<g>
	<g>
		<path fill="#BAE0F1" d="M98.34,96.84c4.43-2.59,5.67-7.53,8.14-11.48c14.76-23.65,34.54-41.42,61.2-49.99
			c35.99-11.56,69.74-5.11,99.74,17.32c20.26,15.15,32.89,36.07,39.13,60.77c1.4,5.54,2.51,11.33,5.84,16.25
			c-0.9,7.06-2.1,14.09-2.62,21.18c-0.95,12.81,4.34,20.2,16.24,23c3.85,0.9,7.84,1.17,11.77,1.73c-0.46,0.8-1.19,1.14-2.06,1.25
			c-1.98-0.33-3.4,0.08-3.33,2.49c-5.02,1.61-9.33,4.52-13.68,7.37c-6.87,3.01-13.15,6.98-19.06,11.59
			c-1.88,1.47-3.22,3.31-4.07,5.54c-5.64,14.77-9.71,29.96-11.95,45.62c-2.4,3.09-1.26,7.48-3.86,10.5
			c-6.05-10.35-11.99-20.75-18.17-31.02c-4.28-7.1-6.91-15.36-12.89-21.22c-7.9-7.74-17.66-12.93-27.76-17.38
			c-0.92-1.02-2.03-1.7-3.4-1.93c-2.12-1.5-4.38-4.38-5.81,0.62c-0.06-3.02-1.15-5.12-4.22-6.4c-3.29-1.37-6.3-3.42-9.44-5.17
			c-0.04-2.4-0.08-4.79-0.12-7.19c1.07-0.99,2.07-2.08,3.23-2.96c5.48-4.17,9.06-9.35,9.43-16.48c0.09-1.77,0.8-3.5,1.23-5.25
			c5.85-0.14,8.8-3.01,10.56-10.27c1.49-6.12,0.41-9.02-4.31-11.66c0.49-0.86,0.97-1.73,1.48-2.59c4.67-7.77,4.19-11.88-2.27-18.25
			c-1.59-1.57-2.5-3.49-3.47-5.42c-2.44-4.84-6.19-9.12-11.47-9.46c-6.26-0.41-9.99-3.89-14-7.62c-2.45-2.28-5.09-4.31-8.09-5.8
			c-7.98-3.97-16.2-1.66-20.66,6.04c-1.74,3-2.83,6.36-4.26,9.55c-0.94,2.11-1.76,4.26-3.69,5.82c-5.32,4.32-5.88,10.09-1.62,15.62
			c2.82,3.67,4.54,7.69,4.33,12.4c-1.98-0.12-4.05-0.57-5.47,1.44c-3.08,4.36-2.24,8.91-0.34,13.32c1.61,3.73,3.73,7.18,8.67,6.9
			c0.38,1.26,0.89,2.51,1.11,3.8c1.2,6.79,3.66,12.66,10.29,16.02c2.09,1.06,3.42,3.09,4.16,5.38c-0.11,2.25-0.22,4.5-0.33,6.75
			c-3.95,2.39-8.58,3.75-11.59,7.58c-3.16-0.34-5.2,1.86-7.56,3.34c-0.99,0.11-1.79,0.51-2.23,1.46
			c-6.68,2.65-12.64,6.58-18.59,10.52c-4.75,3.14-9.12,6.72-11.07,12.4c-2.7-3.92-3.4-8.61-4.87-12.98
			c-6.89-20.38-6.84-20.4,4.18-38.75c3.1-5.16,5.91-10.48,7.35-16.35c0.65-2.66,1.63-5.97-1.53-7.67c-3.2-1.72-6.1-0.2-8.54,2.2
			c-3.69,3.63-5.52,8.25-7.17,13c-1.96,5.67-2.42,11.68-3.79,18.7c-3.28-9.32-6.36-17.35-6.82-26.16
			c-0.34-6.53,0.19-12.98,0.67-19.46C101.65,115.78,101.93,106.13,98.34,96.84z"/>
		<path fill="#036BDE" d="M121.46,212.92c1.95-5.68,6.33-9.26,11.07-12.4c5.94-3.93,11.91-7.87,18.59-10.51
			c1.76,12.09,3.64,24.17,5.24,36.28c0.93,7.04,2.12,14.16,1.91,21.21c-0.23,7.54-2.07,15.03-3,22.56
			c-0.8,6.55-3.17,12.86-2.79,19.6c0.73,13.07,3.72,25.82,5.29,38.76c0.77,6.39,2.91,12.52,2.79,19.08
			c-0.29,15.25-0.62,30.46-1.63,45.71c-0.85,12.86-2.94,25.69-2.54,38.67c0.24,7.92-0.59,8.5-7.24,9.28
			c-4.9-0.53-9.8-1.06-14.7-1.59c-1.63-3.16-4.03-3.51-6.96-1.91c-0.24,0.18-0.51,0.23-0.81,0.15c-1.97,1.26-1.18,3.25-1.2,4.94
			c-0.1,7.71-0.07,15.42-0.09,23.14c-6.74-6.71-10.78-14.95-12.98-24.05c-2.24-9.28-3.19-19.07-11.95-25.23
			c-0.33-3.69-0.66-7.37-1-11.06c1.65-1.14,3.3-2.32,3.7-4.45c0.37-1.95,1.03-4.11-2.19-4.35c-3.62-0.26-7.25-0.99-10.85-0.85
			c-3,0.12-6.64-2.66-8.48-0.5c-1.44,1.7-0.31,5.57-0.32,8.48c-16.26-1.9-25.75-11.76-30.44-27.32c-1.89,2.16-1.44,3.63-0.93,4.98
			c2.64,7.09,6.57,13.26,12.67,17.93c5.95,4.55,13.37,5.51,20.04,8.33c-2.49,6.42-4.69,12.96-8.12,18.97
			c-2.33-3.99-5.79-6.11-10.35-6.99c-5.57-1.07-10.84-3.11-15.63-6.28c-8.09-5.34-12.82-13.07-10.87-22.44
			c4.05-19.47-4.28-34.63-14.89-49.37c-1.72-2.39-3.52-4.72-6.14-8.21c10.25,2.16,18.3,5.66,25.89,10.96
			c10.1,7.06,15.46,17.37,21.16,27.67c3.72,6.71,8.16,13.07,16.73,14.36c0.61,0.14,1,0.02,0.86-0.73c0.37-5.65,0.55-11.29,0.1-16.95
			c0.12-1.03,0.24-2.06,0.36-3.1c1.39-1.39-0.03-2.82,0.05-4.24c1.44-24.39,6.13-48.23,12.88-71.63c4.2-14.56,5.08-28.5-2.73-42.18
			c-3.72-6.51-9.5-11.05-14.46-16.38c-0.75-0.81-2.29-1.69-1.44-2.8c1.12-1.46,2.31-0.1,3.35,0.71
			c10.66,8.35,18.09,18.81,21.02,32.22c0.22,1.01-0.44,2.44,1.54,2.94c1.87-5.27,3.94-10.48,5.57-15.83
			c2.36-7.76,6.61-14.85,8.02-22.93c1.03-0.45,1.44-1.34,1.64-2.37C118.61,219.77,120.04,216.34,121.46,212.92z M106.42,380.58
			c-3.15,9.16-3.03,9.26,5.84,11c3.46,0.68,4.28-0.32,2.99-3.45c-0.02-15.6,1.7-31.17,1.18-46.78c-0.05-1.56,0.47-3.88-1.81-3.95
			c-1.71-0.05-1.74,2.26-1.95,3.55C110.49,354.14,108.48,367.36,106.42,380.58z M130.35,273.71c-1.1,1.67-2.31,2.79-2.65,4.13
			c-3.23,12.95-8.25,25.42-10.43,38.66c-0.45,2.72-2.25,5.18-1.76,8.16c0.14,0.87,0.32,1.71,1.33,1.8c1.03,0.09,1.56-0.7,1.5-1.57
			c-0.22-2.77,1.39-5.07,1.85-7.57c2.41-12.91,6.48-25.34,10.44-37.81C131.17,277.8,132.08,276.15,130.35,273.71z M146.04,381.42
			c1.07-4.81-0.21-8.2-0.68-11.62c-1.71-12.43-6.18-23.63-15.69-32.33c-0.96-0.87-2.12-2.38-3.34-1.25
			c-1.47,1.37,0.45,2.31,1.27,3.08c11.95,11.13,15.37,25.51,15.92,41.07c0.07,2.04-1.39,5.85,1.5,5.78
			C147.86,386.07,145.68,382.21,146.04,381.42z"/>
		<path fill="#036BDE" d="M633.1,212.16c1.21,3.04,0.08,4.62-2.83,6.1c-8.72,4.41-17.62,8.33-26.81,11.63
			c-2.38,0.63-4.89,0.97-7.12,1.94c-3.84,1.67-9.78-0.75-11.55,3.49c-1.51,3.6,0,8.46,0.12,12.76c0.37,14.23,0.71,28.45,1.07,42.68
			c-1.92,0.26-3.06-0.98-4.24-2.18c-2.58-2.61-5.35-5.04-7.71-7.83c-2.76-3.27-5.04-3.66-8-0.17c-2.68,3.17-5.94,5.84-8.74,8.92
			c-2.3,2.53-4.16,2.73-6.55,0.1c-3.14-3.44-6.63-6.56-9.83-9.95c-2.05-2.18-3.74-2.25-5.82-0.03c-2.95,3.16-6.23,6.03-9.11,9.25
			c-2.28,2.55-3.75,3.12-6.79,0.47c-3.63-3.15-6.06-7.43-10.28-10.03c-2.17-1.34-3.35-1.33-5.03,0.46c-3.19,3.4-6.66,6.53-9.83,9.95
			c-2.19,2.36-3.94,2.48-6.19,0.06c-3.06-3.29-6.31-6.4-9.58-9.49c-2.51-2.37-4.68-2.67-7.4,0.34c-3.22,3.58-7.18,6.49-11.39,10.19
			c-0.88-11.2,8.87-17.21,10.26-26.51c-5.11,5.52-8.65,11.99-12.25,18.4c-4.46,7.22-8.9,14.45-13.37,21.66
			c-1.04,1.67-2.14,3.53-3.39,0.12c-1.29-5.91-2.26-11.93-3.97-17.72c-1.99-6.76-2.54-13.91-5.54-20.38
			c-0.73-3.26,0.22-5.96,2.07-8.76c5.31-8.02,10.29-16.25,15.45-24.37c9.39-14.77,17.62-30.55,34.02-39.25
			c8.23-4.59,16.45-9.18,24.68-13.77c0.51,0.42,1.05,0.81,1.53,1.27c9.18,8.67,15.46,8.22,23.21-1.65c0.41-0.52,0.82-1.03,1.24-1.55
			c3.01,2.07,6.14,3.97,9,6.23c13.9,11.01,29.64,11.07,45.95,7.9c9.31-1.81,18.41-4.37,27.3-7.68c1.56-0.58,3.09-1.45,4.5,0.26
			C623.97,194.32,628.05,203.47,633.1,212.16z M541.68,188.74c-9.09,15.3-22.72,21.72-37.8,25.95
			C516.35,217.7,542.64,200.43,541.68,188.74z"/>
		<path fill="#039BF6" d="M283.62,249.49c2.24-15.66,6.31-30.85,11.95-45.62c0.85-2.23,2.19-4.07,4.07-5.54
			c5.9-4.6,12.18-8.58,19.05-11.59c1.8,2.36,3.51,4.81,5.43,7.07c10.43,12.28,28.41,17.45,41.79,11.84
			c9.31-3.91,15.45-11.15,19.83-20.04c7.7,3.23,14.75,7.54,21.21,12.84c1.72,1.41,2.8,3.25,3.69,5.23
			c7.89,23.11,15.03,46.37,14.06,71.22c-0.37,1.94-0.75,3.88-1.12,5.83c-1.41,7.36-4.99,12.85-12.69,14.85
			c-2.23,0.58-4.43,1.3-6.64,1.96c-2.56,0.78-1.62,2.97-1.69,4.59c-0.4,8.42,0.29,16.81,1.17,25.18c-7.05,0.53-14.1,0.55-21.15-0.02
			c-2.28-3.1-5.83-1.15-8.73-2.12c-11.12-3.73-21.21-9.15-30.2-16.66c-0.79-0.66-1.61-2.26-2.78-0.87
			c-0.94,1.11,0.19,2.13,1.03,2.93c0.47,0.45,1.05,0.79,1.59,1.17c7.31,5.14,14.77,10.03,23.2,13.21c1.21,0.45,2.61,0.82,2.7,2.52
			c-6.6,0.18-13.2,0.52-19.79-0.2c-0.32-1.09-1.13-1.46-2.18-1.5c-9.92-6.42-18.82-14.11-27.4-22.18c-0.8-0.75-1.44-2.48-2.64-1.41
			c-1.51,1.36,0.4,2.29,1.18,3.1c7.51,7.81,15.64,14.86,24.96,20.46c-0.05,0.57-0.09,1.14-0.14,1.7c-13.43,0.2-26.87,0.59-40.3-0.21
			c0.11-7.25,2.6-14.45,0.42-21.74c0-1-0.11-2,0.02-2.98c0.52-3.98-0.48-5.85-5.18-6.02c-4.16-0.15-8.5-1.1-12.45-2.98
			c-2.1-1-3.15-2.25-3.57-4.78c-1.19-7.1-0.83-14.19-0.66-21.29c1.6-0.32,3.21-0.62,4.8-0.96c6.51-1.38,12.96-1.61,19.28,0.93
			c-0.92,5-7.55,6.39-6.96,12.59c3.76-3.85,7.51-7.71,11.27-11.56c1.89-0.75,3.55,0.46,5.33,0.61c3.04,0.26,6.16,1.82,9.12-0.35
			c1.82,0.03,3.68-0.13,5.47,0.13c14.24,2.06,28.32,0.76,42.34-1.87c1.68-0.32,3.29-0.33,4.81,0.6c2.56,5.03,5.11,10.06,7.67,15.1
			c-6.92,3.13-14.42,4.65-21.36,7.82c8.91-0.94,17.72-2.47,25.34-7.44c4.86-3.17,9.1-7.22,9.46-13.71c0.67-2.23,2.35-3.57,4.23-4.73
			c4.88,0.27,7.95,3.82,11.72,6.27c-1.92-4.6-5.19-7.49-10.25-8.23c-2.25-2.69-1.88-6.24-3.08-9.3c-1.97-5-2.75-5.33-7.86-3.38
			c-6.82,2.59-10.12,8.65-14.33,13.83c-3.94-0.63-7.42,1.4-11.15,1.88c-13.83,1.79-27.73,1.19-41.62,0.87
			c0.83-3.08-0.72-5.41-2.39-7.72C315.84,248.31,300.53,241.1,283.62,249.49z M385.79,201.44c-8.95,15.57-22.83,21.83-38.01,26.11
			C358.88,230.41,385.77,214.34,385.79,201.44z"/>
		<path fill="#1C33B6" d="M649.89,483.83c-0.28,4.53-1.73,8.15-6.88,8.93c-1.75-1.37-3.81-1-5.78-1
			c-188.59-0.01-377.18-0.01-565.77,0.03c-1.21,0-2.66-0.63-4.18,0.98c192.24,0,383.98,0,575.71,0c-1.73,2.37-4.28,1.32-6.43,1.32
			c-125.99,0.06-251.97,0.05-377.96,0.05c-62.66,0-125.32,0.01-187.98-0.01c-8.37,0-12.38-3.84-12.21-11.48
			c0.68-0.01,1.36-0.02,2.04-0.03c1.35,0.01,2.69,0.02,4.04,0.03c2.5,0.03,5,0.08,7.49,0.08c190.06,0,380.11,0,570.17,0.04
			C644.75,482.79,647.53,481.96,649.89,483.83z"/>
		<path fill="#039BF6" d="M115.55,225.56c-1.41,8.08-5.67,15.17-8.03,22.93c-1.63,5.35-3.7,10.56-5.57,15.83
			c-1.99-0.5-1.32-1.93-1.54-2.94c-2.93-13.4-10.36-23.86-21.02-32.22c-1.04-0.81-2.23-2.16-3.35-0.71c-0.86,1.11,0.68,2,1.44,2.8
			c4.97,5.33,10.75,9.87,14.46,16.38c7.81,13.69,6.92,27.63,2.73,42.18c-6.75,23.4-11.44,47.24-12.88,71.63
			c-0.08,1.41,1.34,2.84-0.05,4.24c-16.68-10.66-23.43-25.35-19.36-45.14c2.74-13.34,5.87-26.57,9.04-39.8
			c3.94-10.69,1.15-20.29-4.84-29.32c-3.59-5.42-7.69-10.47-12.16-15.19c-18.67-19.72-25.08-43.37-22.52-69.91
			c0.21-2.15,0.58-4.28,0.89-6.42c0.02-0.12,0.19-0.23,0.64-0.73c3.09,4.92,6.11,9.72,9.13,14.53c0.27,0.38,0.55,0.77,0.82,1.15
			c0.39,0.62,0.78,1.24,1.16,1.86c0.29,0.36,0.57,0.73,0.86,1.09c0.52,0.76,1.04,1.53,1.56,2.29c0.28,0.96,0.49,1.98,1.64,2.32
			c0.11,0.27,0.3,0.48,0.56,0.61c2.34,4.44,5.26,8.39,9.42,11.32c0.4,0.44,0.81,0.88,1.21,1.33c0.25,0.26,0.49,0.52,0.74,0.78
			c5.92,5.99,11.85,11.96,19.95,15.09c4.15,3.36,9.21,4.33,14.25,5.19C102.39,218.02,109.53,220.45,115.55,225.56z"/>
		<path fill="#039BF6" d="M632.05,318.43c-8.51,7.27-13.79,15.89-11.47,27.65c2.62,11.78,3.54,23.74,3.64,35.78
			c-1.86,8.91-7.67,14.87-14.84,19.81c-6.8,3.98-14.73,5.6-21.21,10.25c-0.21,0.14-0.39,0.11-0.54-0.09
			c-0.06-7.5,0.02-14.99-0.23-22.48c-0.2-5.93-0.34-11.63,5.32-15.59c1.14-0.79,1.82-2.37,2.46-3.71
			c4.62-9.71,6.99-19.96,7.32-30.72c0.26-8.79,3.02-16.61,9.63-22.76c2.92-2.72,5.83-5.45,9.19-8.58c-1.23,0-1.83-0.19-2.16,0.03
			c-11.1,7.35-18.62,16.77-18.76,30.92c-0.1,9.69-2.2,19.12-6.13,28.01c-1.37,3.1-2.79,6.55-7.01,8.25
			c0.98-21.86-0.86-43.11-0.92-64.4c0.07-0.37,0.15-0.73,0.22-1.1c0.86-0.11,1.5-0.5,2.04-1.23c4.71-6.54,11.27-9.43,19.17-9.94
			c2.93-0.19,5.96-0.28,8.7-1.65c13.53-3.63,22.49-13.44,31.31-23.36c2.75-3.1,5.11-6.55,7.64-9.84c0.34,0.04,0.67,0.08,1.01,0.13
			c0.01,3.32,0.01,6.64,0.02,9.96c-0.91,0.62-0.91,1.3-0.12,2.02c-0.06,0.54-0.12,1.09-0.18,1.64c-0.12,0.46-0.24,0.91-0.36,1.37
			c-0.07,0.97-0.14,1.94-0.21,2.92c-1.79,4.95-3.03,10.06-5.29,14.88C646.1,305.52,638.95,311.85,632.05,318.43z"/>
		<path fill="#1E335A" d="M337.77,175.63c-3.93-0.56-7.92-0.83-11.77-1.73c-11.9-2.79-17.19-10.18-16.24-23
			c0.53-7.08,1.73-14.12,2.62-21.18c1.99-9.94,4.14-19.77,8.22-29.19c9.29-21.44,27.12-25.99,45.31-22.55
			c6.43,1.21,12.07,3.93,15.52,9.87c7.9,13.59,13.43,27.81,11.34,43.98c-2.33,5.91-1.54,11.9-0.43,17.89
			c-0.01,5.33-0.65,10.58-2.51,15.6c-1.49,4.04-3.81,7.36-8.45,8.23c-3.16-1.59-6.54-0.41-9.79-0.78c-1.66-0.19-3.89,0.73-4.15-2.21
			c-0.22-2.41,1.37-3.12,3.21-3.72c5.89-1.92,9.86-5.93,12.46-11.46c2.15-4.59,2.15-9.68,3.39-14.48c0.58-0.99,1.22-1.95,1.72-2.98
			c2.03-4.14,3.04-8.45,1.41-12.94c-0.56-1.55-1.7-3.02-3.56-3.11c-2.16-0.1-1.95,1.9-2.31,3.22c-0.6,2.23-0.81,4.58-2.4,6.44
			c-1.14-0.69-1.3-1.95-1.75-3.04c0.53-0.6,0.42-1.15-0.11-1.68c-0.85-4.95,3.2-11.24-4.05-14.52c-0.67-0.31-0.68-2.13-0.96-3.25
			c-0.31-1.24-0.15-2.69-1.89-3.49c-0.17,1.9-0.28,3.68-0.5,5.45c-0.14,1.17-0.47,2.17-1.83,2.67c-4.94,1.83-11.53-1.25-13.27-6.24
			c-0.34-0.97-0.2-2.71-1.88-2.38c-1.25,0.24-1.39,1.51-1.48,2.77c-0.13,1.86,0.31,3.9-2.22,5c-7.04,3.06-11.68,0.81-12.96-6.55
			c-0.13-0.75,0.11-1.68-0.86-2.13c-1.39,0.15-1.27,1.41-1.48,2.25c-1.07,4.45-2.78,8.12-8.2,8.39c-2.24,0.11-2.11,2.11-2.4,3.76
			c-1.37,7.81-0.7,15.55,0.65,23.28c-2.02,3.76-0.22,7.66,0.58,11.03c2.81,11.92,2.68,15.15,13.65,17.04
			c0.04,1.75,0.08,3.5,0.13,5.25c-0.37,0.17-0.74,0.34-1.1,0.5C338.87,175.63,338.32,175.63,337.77,175.63z"/>
		<path fill="#2436B5" d="M624.22,381.86c-0.1-12.04-1.03-24-3.64-35.78c4.55,2.2,6.55,6.46,8.46,10.72
			c2.55,5.67,3.85,11.69,4.75,17.81c0.9,6.12,0.86,12.28,0.68,19.19c2.63-3.27,3.31-6.52,3.91-9.88
			c3.41-19.19,10.6-36.76,23.21-51.8c3.82-4.56,8.04-8.84,14.9-8.68c4.9,0.11,7.5,2.61,6.75,7.48c-0.78,5.07-3.43,9.35-6.28,13.47
			c-4.55,6.59-9.64,12.76-15.35,18.39c-10.52,10.37-17.97,22.6-22.57,36.61c-0.25,0.77-1.01,1.62-0.14,2.22
			c1.42,0.98,2.46-0.11,3.42-1.04c5.05-4.89,10.72-8.91,16.73-12.57c4.05-2.47,8.58-2.74,12.91-3.62c2.84-0.58,6.17,0.53,7.5,3.75
			c1.24,3.01-0.58,5.45-2.65,7.29c-5.7,5.08-12.7,7.85-19.74,10.47c-7.18,2.67-14.44,5.09-20.98,9.25c-2.51,1.6-4.2,3.51-5.23,6.35
			c-5.44,15.02-10.9,30.05-16.68,44.94c-1.67,4.31-0.52,5.05,3.59,5.04c7.47-0.02,14.96-0.57,22.42,0.35
			c-8.86,0.03-17.72,0.06-26.59,0.09c-0.71-0.06-1.42-0.11-2.12-0.17c-0.81-1.11-1.89-0.97-3.01-0.65
			c-0.56-0.04-1.11-0.09-1.67-0.13c2.81-5.39,2.11-10.91,0.54-16.44c-0.86-3.03-1.72-6.07-2.68-9.08c-3.8-12-10.75-22.45-16.5-33.5
			c6.48-4.65,14.41-6.27,21.21-10.25c2.28,7.55,3.26,15.33,4.26,23.11c0,8.64,0,17.28,0,26.25c1.51-1.34,1.78-2.73,1.8-4.22
			c5.07-13.5,10.1-27.02,15.23-40.5c0.69-1.81,0.8-3.54,0.42-5.35C629.69,394.27,627.69,387.8,624.22,381.86z"/>
		<path fill="#2436B5" d="M121.46,212.92c-1.42,3.42-2.85,6.85-4.27,10.27c-11.24-9.26-24.14-15.42-37.8-20.16
			c-6.57-3.51-13.13-7.03-19.7-10.54c-3.71-3.68-8.53-6.57-9.04-12.55c2.08-4.29,5.23-5.44,10.19-5.76
			c6.2-0.41,11.27,1.47,16.55,3.73c14.26,8.22,25.81,19.43,35.78,32.87c0.8-3.1,0.07-5.44-0.71-7.8
			c-2.45-7.42-5.19-14.77-7.19-22.31c-1.61-6.07-5.1-10.28-10.3-13.36c-4.57-2.71-9.15-5.43-14.37-6.76
			c-6.76-3.44-14.18-5.77-19.57-11.49c-2.94-3.13-2.3-7.93,1.09-7.79c3.78,0.15,7.81-1.37,11.47,0.86c2.82,1.72,5.73,3.3,8.6,4.94
			c5.67,4.74,10.86,9.98,16.23,15.35c-4.26-9.51-8.35-18.95-11.59-28.73c-2.4-11.2-4.21-22.39-1.2-33.82
			c1.58-6,8.31-7.28,12.71-3.03c3.59,9.29,3.31,18.94,2.6,28.61c-0.48,6.48-1.01,12.93-0.67,19.46c0.47,8.81,3.54,16.84,6.82,26.16
			c1.37-7.02,1.83-13.03,3.79-18.7c1.64-4.75,3.48-9.38,7.17-13c2.44-2.4,5.34-3.92,8.54-2.2c3.16,1.7,2.18,5.01,1.53,7.67
			c-1.44,5.87-4.25,11.19-7.35,16.35c-11.02,18.35-11.07,18.37-4.18,38.75C118.07,204.31,118.76,209,121.46,212.92z"/>
		<path fill="#BAE0F1" d="M507.21,171.77c-10.21,4.5-21.05,4.55-31.82,3.82c-9.76-0.66-19.54-2.27-28.34-6.89
			c-9.84-5.16-18.47-11.66-18.56-24.31c-0.05-6.68,3.25-11.63,8.89-15.16c7.45-4.67,15.9-5.5,24.3-6.44
			c8.76-0.98,17.56-1.2,26.37-1.03c0.48,0.97,1.46,0.9,2.31,1.12c-0.99,0.47-1.97,0.95-2.96,1.43c-0.66,0.06-1.31,0.12-1.97,0.18
			c-0.55-0.43-0.79-0.14-0.91,0.4c-5.96,8.79-1.86,20.05,7.92,21.76c3.03,7.82,6.1,15.57,13.89,20.16
			C508.26,167.94,507.31,170.03,507.21,171.77z"/>
		<path fill="#F9A584" d="M633.1,212.16c-5.05-8.69-9.13-17.84-12.91-27.13c1.44-0.41,2.87-0.85,4.32-1.24
			c8.21-2.19,8.64-2.28,6.9-10.65c-3.79-18.22-6.05-36.67-8.9-55.04c-0.21-1.36-0.4-2.62-1.77-3.35
			c-7.06-3.77-9.3-11.43-13.81-17.25c-0.7-0.9-1.94-2.44-0.49-3.5c1.25-0.92,2.41,0.53,3.53,1.15c1.35,0.75,2.35,3.36,3.97,2.06
			c1.55-1.25,0.01-3.42-0.5-5.11c-1.07-3.49-2.35-6.92-3.43-10.4c-0.54-1.73-1.33-3.89,0.13-5.19c1.64-1.45,2.28,2.17,4.05,1.54
			c1.27-1.93-1.44-5.56,1.61-5.96c2.38-0.32,2.65,3.32,3.64,5.34c0.56,1.14,0.95,2.37,1.56,3.92c0.9-2.52-0.19-4.38-0.37-6.33
			c-0.09-0.94-0.41-2.21,0.66-2.69c1.44-0.63,2.09,0.72,2.59,1.69c0.9,1.75,0.82,4.67,4.17,2.21c1.28-0.94,2.03,0.77,2.21,1.87
			c1.22,7.18,4.69,14.06,4.02,21.45c-1.06,11.66,2.54,22.19,6.33,32.89c5.76,16.28,11.6,32.54,15.13,49.53
			c0.92,4.44,0.41,8.05-2.16,11.73C648.15,201.46,641.72,208,633.1,212.16z M635.25,180.97c-0.6,0.26-1.17,0.33-1.39,0.65
			c-0.39,0.57-0.39,1.34,0.25,1.77c2.5,1.64,5.02,3.24,7.57,4.79c0.3,0.18,1.01,0.09,1.29-0.16c0.58-0.49,0.57-1.41,0.06-1.77
			C640.5,184.41,637.87,182.72,635.25,180.97z M614.96,81.22c0.11-0.11,0.31-0.23,0.3-0.3c-0.06-0.25-0.19-0.48-0.3-0.72
			c-0.1,0.1-0.29,0.22-0.28,0.3C614.74,80.74,614.87,80.98,614.96,81.22z"/>
		<path fill="#BAE0F1" d="M424.7,274.9c0.98-24.86-6.16-48.12-14.06-71.22c13.99-2.49,27.93-5.39,41.99-7.32
			c9.96-1.37,19.95-3.51,30.14-2.35c-16.4,8.7-24.63,24.48-34.02,39.25c-5.16,8.12-10.14,16.35-15.45,24.37
			c-1.85,2.8-2.81,5.5-2.07,8.76c-1.41,0.46-2.03,1.53-2.21,2.91C426.81,270.58,426.79,273.54,424.7,274.9z"/>
		<path fill="#BAE0F1" d="M616.47,296.87c-2.74,1.37-5.78,1.46-8.7,1.65c-7.9,0.51-14.46,3.4-19.17,9.94
			c-0.53,0.74-1.17,1.13-2.04,1.23c-0.22-6.32,0.41-12.66-0.59-18.95c-0.35-14.23-0.7-28.45-1.07-42.68
			c-0.11-4.3-1.63-9.16-0.12-12.76c1.78-4.24,7.72-1.82,11.55-3.49c2.23-0.97,4.74-1.31,7.12-1.94c-0.71,1.21-0.85,2.2,0.08,3.59
			c10.23,15.11,13.54,32.04,12.97,49.98C616.36,287.92,616.48,292.4,616.47,296.87z"/>
		<path fill="#F9A584" d="M507.21,171.77c0.1-1.74,1.05-3.83-0.89-4.97c-7.78-4.59-10.86-12.34-13.88-20.16
			c-0.21-6.95-4.9-14.12,1.04-20.76c4.22-0.57,3.83,2.32,3.93,5.05c0.24,6.75,5.08,10.29,11.65,8.93c3.71-0.76,5.13-3.79,7.24-6.22
			c2.22,2.23,0.78,5.02,1.13,7.54c0.19,1.37,0.31,2.77,1.78,3.23c1.63,0.51,3.29,0.56,4.03-2.13c-4.02,1.07-3.93-1.41-3.81-4.03
			c0.1-2.14-0.02-4.3,0.06-6.44c0.07-1.99-0.5-3.25-2.8-2.92c0.41-2.24,1.98-2.47,3.75-1.98c1.73,0.47,1.95,1.91,2.12,3.52
			c0.6,5.87,4.7,10.09,9.55,10.03c5.53-0.08,9.09-3.88,9.35-10.57c0.13-3.53,2.12-4.07,4.87-4.08c0.23,0.78,0.34,2.17,0.71,2.24
			c4.16,0.86,3.32,3.36,2.58,6.33c-1,3.98-1.46,8.09-2.15,12.14c-3.27,7.05-6.49,13.99-12.47,19.46c-3.5,3.2-1.05,8.18-1.54,12.33
			c-0.41,0.52-0.83,1.03-1.24,1.55c-7.75,9.87-14.03,10.32-23.21,1.65c-0.48-0.45-1.02-0.85-1.53-1.27
			C507.58,177.41,507.88,174.57,507.21,171.77z M520.28,148.63c-2.64,0-5.29,0.04-7.93-0.01c-2.33-0.04-2.93,0.76-1.92,2.99
			c3.03,6.72,11.23,8.38,16.47,3.21c1.51-1.49,3.64-3.22,2.81-5.35c-0.71-1.83-3.26-0.63-4.97-0.8
			C523.26,148.51,521.76,148.63,520.28,148.63z M531.95,168.42c-11.37,2.29-14.41,2.34-19.71,0.73c-1.22-0.37-3.12-2.66-3.68,0.63
			c-0.34,2,0.27,3.84,2.7,3.87c6.09,0.07,12.33,1.11,17.97-2.27C530.38,170.68,532.23,170.51,531.95,168.42z M515.35,161.28
			c3.03,3.37,5.28,2.18,8.38,0.23C520.66,160.49,518.41,160.7,515.35,161.28z"/>
		<path fill="#BAE0F1" d="M71.42,280.75c-3.17,13.23-6.3,26.46-9.04,39.8c-4.07,19.79,2.69,34.48,19.36,45.14
			c-0.12,1.03-0.24,2.06-0.36,3.09c-8.07,0.04-14.4-3.96-19.64-9.41C47.97,345.06,41.06,327.33,38.72,308
			c-1.06-8.76,0.94-17.63,7.52-24.51c5.84-6.11,12.3-7.33,20.42-4.19C68.21,279.89,69.83,280.27,71.42,280.75z"/>
		<path fill="#BAE0F1" d="M310.94,72.89c-8.82-0.19-13.58-6.8-18.85-12.35c-2.34-2.46-4.08-5.68-5.44-8.84
			c-2.5-5.82-0.57-12.55,4.27-16.62c4.86-4.08,10.79-4.4,16.59-0.64c8.14,5.27,13.63,12.54,15.66,22.11
			C324.98,65.04,319.02,72.84,310.94,72.89z"/>
		<path fill="#BAE0F1" d="M576.88,189.98c-9.19-1.46-18.1-3.33-25.6-9.71c-8.24-7.02-4.09-21.89,6.08-24.13
			c10.83-2.39,28.48,7.05,31.61,17.55C591.26,181.35,586.08,191.16,576.88,189.98z"/>
		<path fill="#039BF6" d="M380.42,30.08c-3.71,2.38-6.09,6.06-8.98,9.23c-1.62,1.78-2.79,2.5-4.84,0.5
			c-10.82-10.57-21.75-21.03-32.63-31.54c-0.44-0.43-1.02-0.89-0.4-2.43c13.24,0,26.81,0.01,40.38-0.01c3.99,0,7.98,0.03,11.97-0.15
			c2.54-0.11,3.29,0.78,2.56,3.2c-1.4,4.6-2.71,9.23-4.06,13.85c-13.67-4.33-27.35-8.67-41.22-13.07c0.1,1.88,1.22,2.06,2.07,2.42
			c10.87,4.56,21.72,9.14,32.64,13.59C380.09,26.57,382.14,27.14,380.42,30.08z M339.73,9.15c-0.13-0.05-0.27-0.13-0.4-0.12
			c-0.04,0-0.08,0.21-0.13,0.32c0.13,0.05,0.27,0.12,0.4,0.12C339.65,9.47,339.69,9.27,339.73,9.15z"/>
		<path fill="#1E335A" d="M490.35,122.87c-0.84-0.22-1.83-0.15-2.31-1.12c0.25-4.65,0.27-9.31,1.47-13.87
			c4.01-15.25,17.08-24.22,33.63-23.01c15.52,1.13,26.46,11.62,28.28,27.31c0.4,3.44,1.18,6.94-0.06,10.39
			c-1.24,0.03-2.48,0.06-3.72,0.09c-0.77-2.11-0.58-4.83-3.21-5.83c-4.01-1.53-3.52-4.08-1.98-7.17c2.54-5.07,1.77-7.24-3.68-7.68
			c-13.22-1.06-26.49-0.89-39.74-0.18c-2.46,0.13-4.11,1.81-3.17,3.94c2.8,6.33,0.08,11.52-2.66,16.83
			C492.26,122.67,491.31,122.77,490.35,122.87z"/>
		<path fill="#F9A584" d="M99.47,405.53c0.33,3.69,0.66,7.37,1,11.06c0.01,2.35,0.03,4.69,0.04,7.04c-0.02,1.05-0.05,2.09-0.07,3.13
			c-0.09,0.62-0.18,1.23-0.26,1.85c-1.03,1.91-1.57,3.96-1.65,6.13l-0.25,0.23c0,0,0.08,0.33,0.08,0.33
			c-0.31,0.48-0.61,0.97-0.92,1.45c0,0-0.2,0.17-0.2,0.17l0.09,0.25c-1.66,3.19-3.31,6.39-4.97,9.58l-0.12,0.22
			c-0.61,0.16-1.22,0.32-1.83,0.49c-1.24-0.5-1.56-1.73-2.17-2.73c0.35-4.63,0.72-9.27,1.06-13.9c0.07-0.98,0.31-2.16-0.77-2.65
			c-1.28-0.57-1.64,0.76-2.14,1.51c-0.64,0.96-1.18,2-1.65,3.06c-3.37,7.49-2.63,15.25-1.47,23.04c0.09,0.32,0.19,0.64,0.28,0.96
			c-0.08,0.21-0.16,0.41-0.25,0.61c-1.63,1.92-0.99,6.32-4.24,5.94c-3.18-0.37-1.31-4.16-1.86-6.35
			c-1.63-6.56-4.16-12.93-3.93-19.92c0.12-3.51,1.92-6.75,1.27-10.3c3.44-6.01,5.64-12.55,8.13-18.96c0.66-0.82,0.47-1.67,0.07-2.53
			C88.34,402.86,93.9,404.7,99.47,405.53z"/>
		<path fill="#F9A584" d="M385.75,185.61c-4.38,8.89-10.52,16.14-19.83,20.04c-13.38,5.61-31.36,0.44-41.79-11.84
			c-1.92-2.26-3.63-4.71-5.43-7.07c4.35-2.85,8.66-5.77,13.68-7.37c1.22,2.14,2.45,4.29,3.67,6.43c4.79,8.4,14.35,12.65,23.2,9.91
			c8.32-2.58,11.3-9.52,13.09-17.22C376.98,180.54,381.74,182.36,385.75,185.61z"/>
		<path fill="#BAE0F1" d="M632.05,318.43c6.91-6.59,14.06-12.91,18.25-21.85c2.26-4.82,3.5-9.94,5.29-14.88
			c8.91,3.25,12.26,9.49,10.18,18.6c-1.55,6.77-4.18,12.91-9.18,17.9c-7.25,7.24-13.79,7.69-21.86,1.45
			C633.97,319.08,632.95,318.84,632.05,318.43z"/>
		<path fill="#B4DCEF" d="M80.6,160.54c5.23,1.33,9.8,4.05,14.37,6.76c5.19,3.08,8.68,7.28,10.3,13.36c2,7.54,4.74,14.89,7.19,22.31
			c0.78,2.36,1.51,4.71,0.71,7.8c-9.97-13.44-21.52-24.66-35.78-32.87c1.56-0.28,2.02-1.26,2.12-2.78
			C79.8,170.26,80.23,165.4,80.6,160.54z"/>
		<path fill="#F9A584" d="M340.52,175.13c-0.04-1.75-0.08-3.5-0.13-5.25c0,0,0.47,0.02,0.47,0.02c8.83,2,17.13,0.93,24.75-4.2
			c1.56,2.58-1.81,6.61,2.48,8.39c-0.76,1.67,0.94,1.85,1.61,2.65c-1.5,12.33-6.77,17.48-17.52,17.12
			c-7.94-0.27-16.07-8.64-16.48-16.98c0.87-0.11,1.61-0.45,2.06-1.25c0.55,0,1.1,0.01,1.65,0.01
			C339.78,175.47,340.15,175.3,340.52,175.13z"/>
		<path fill="#056ADB" d="M649.89,483.83c-2.36-1.87-5.14-1.04-7.72-1.04c-190.06-0.04-380.11-0.04-570.17-0.04
			c-2.5,0-5-0.05-7.49-0.08c1.88-1.66,4.15-0.87,6.23-0.87c189.72-0.04,379.45-0.04,569.17-0.05c2.48,0,4.97-0.17,7.45-0.26
			c-0.33-2.21-0.67-4.42-1-6.63l0.25-0.26C649.76,476.95,650.33,480.21,649.89,483.83z"/>
		<path fill="#DCE0E6" d="M547.65,122.67c1.24-0.03,2.48-0.06,3.72-0.09c0.02,0.48,0.04,0.96,0.06,1.43
			c-1.71,0.6-3.42,1.2-5.13,1.81c-2.75,0-4.74,0.55-4.87,4.08c-0.25,6.69-3.82,10.49-9.35,10.57c-4.85,0.07-8.95-4.15-9.55-10.03
			c-0.16-1.61-0.38-3.04-2.12-3.52c-1.77-0.49-3.34-0.26-3.75,1.98c-0.13,1.58-0.26,3.17-0.38,4.75c-2.1,2.42-3.53,5.45-7.24,6.22
			c-6.57,1.36-11.41-2.18-11.65-8.93c-0.09-2.72,0.29-5.62-3.93-5.05c-2.11-0.21-4.21-0.44-6.07-1.58c0.99-0.48,1.97-0.95,2.96-1.43
			c0.95-0.1,1.91-0.2,2.86-0.3c2.56,0.51,5.35,4.61,7.57-0.46c2.37-0.85,4.82-1.09,7.33-0.91c3.03,0.51,5.47,4.18,7.48,3.91
			c4.28-0.56,9.68,1.32,12.8-3.63c3.27-0.91,6.44-0.33,9.59,0.63c0.82,2.13,2.08,3.25,4.53,2.24
			C544.18,123.66,545.94,123.22,547.65,122.67z M539.51,130.74c0-4.16-3.05-7.53-6.93-7.67c-4.01-0.14-8.14,3.82-8.09,7.76
			c0.05,3.97,3.21,7,7.37,7.05C536.61,137.95,539.51,135.23,539.51,130.74z M506.63,137.9c4.14-0.01,7.44-3.09,7.53-7
			c0.09-4.13-3.28-7.34-7.7-7.32c-4.72,0.02-7.08,2.32-7.14,6.98C499.26,135.46,501.71,137.92,506.63,137.9z"/>
		<path fill="#020E2C" d="M368.09,174.09c-4.28-1.78-0.92-5.81-2.48-8.39c0.03-0.64,0.06-1.27,0.09-1.91
			c7.13-4.94,10.39-12.55,13.86-20.01c1.02,1.09,1.65,0.86,1.93-0.57c0.63,0.01,1.26,0.02,1.89,0.02c0.43,0.49,0.65,0.41,0.64-0.24
			c0.2-0.4,0.39-0.8,0.59-1.2c0.63-0.29,1.26-0.59,1.89-0.88c-1.24,4.8-1.23,9.88-3.39,14.48c-2.59,5.53-6.56,9.54-12.46,11.46
			c-1.84,0.6-3.43,1.31-3.21,3.72c0.26,2.93,2.49,2.02,4.15,2.21c3.26,0.37,6.63-0.81,9.79,0.78
			C376.99,174.62,372.51,173.52,368.09,174.09z"/>
		<path fill="#039BF6" d="M559.06,37.66c0.09,5.35-3.9,9.57-9.25,9.78c-5.5,0.22-9.95-4.07-9.94-9.57c0-5.32,4.15-9.49,9.48-9.53
			C554.64,28.29,558.98,32.45,559.06,37.66z M549.53,44.36c3.76-0.01,6.58-2.87,6.38-6.69c-0.21-3.91-2.49-6.06-6.3-6.36
			c-3.53-0.28-6.74,2.95-6.76,6.49C542.83,41.42,545.83,44.37,549.53,44.36z"/>
		<path fill="#EE7B5D" d="M546.3,125.81c1.71-0.6,3.42-1.2,5.13-1.81c5.63,1.47,7.59,4.1,6.73,9.9c-0.7,4.73-1.85,9.42-6.78,11.81
			c-0.64,0.22-1.29,0.45-1.93,0.67c-0.67,0.04-1.34,0.09-2.01,0.13c0.69-4.05,1.15-8.16,2.15-12.14c0.74-2.97,1.59-5.47-2.58-6.33
			C546.64,127.98,546.53,126.59,546.3,125.81z"/>
		<path fill="#056ADB" d="M474.63,55c-0.32,5.25-4.78,9.18-10.1,8.89c-5.26-0.3-9.25-4.74-9.01-10.05c0.24-5.26,4.66-9.34,9.92-9.16
			C470.97,44.87,474.97,49.36,474.63,55z M465.25,47.64c-3.61-0.11-6.7,2.87-6.77,6.5c-0.07,3.67,2.82,6.69,6.49,6.77
			c3.64,0.08,6.71-2.86,6.78-6.49C471.82,50.76,468.93,47.74,465.25,47.64z"/>
		<path fill="#036BDE" d="M380.42,30.08c1.72-2.94-0.33-3.51-2.51-4.4c-10.91-4.45-21.77-9.03-32.64-13.59
			c-0.85-0.36-1.97-0.55-2.07-2.42c13.87,4.4,27.55,8.73,41.22,13.07c-0.02,1.64-0.15,3.3-0.03,4.93
			C384.66,31.19,382.86,31.11,380.42,30.08z"/>
		<path fill="#039BF6" d="M81.45,66.34c-0.22-6.53,2.03-8.53,9.81-8.73c4.79-0.12,8.65,3.73,8.75,8.73c0.1,5.25-4.05,9.69-9.22,9.87
			C84.89,76.42,81.68,73.03,81.45,66.34z M90.17,59.95c-4.06-0.08-6.56,2.3-6.58,6.25c-0.02,4.73,2.54,7.93,6.57,7.46
			c3.71-0.43,6.46-2.51,6.71-6.68C97.12,62.99,94.25,60.02,90.17,59.95z"/>
		<path fill="#DCE0E6" d="M335.71,176.88c0.41,8.35,8.53,16.72,16.48,16.98c10.75,0.36,16.02-4.79,17.52-17.12
			c1.21,0.08,2.09,0.67,2.65,1.74c-1.79,7.7-4.77,14.64-13.09,17.22c-8.85,2.74-18.42-1.51-23.2-9.91
			c-1.22-2.14-2.45-4.28-3.67-6.43C332.31,176.96,333.73,176.55,335.71,176.88z"/>
		<path fill="#056ADB" d="M120.11,33.77c0.2-0.93,0.4-1.87,0.63-2.96c5.69,6.06,9.6,7.13,13.06,3.72c2.74-2.7,2.64-7.23-0.21-9.76
			c-3.64-3.21-7.38-2.11-12.75,3.87c-0.25-1.03-0.48-1.96-0.71-2.9c3.28-4.82,7.59-6.73,12.12-5.11c4.41,1.58,6.61,4.83,6.46,9.57
			c-0.13,4.1-2.17,7.07-5.91,8.44c-3.78,1.39-7.53,1.26-10.36-2.32C121.71,35.44,120.88,34.62,120.11,33.77z"/>
		<path fill="#B4DCEF" d="M86.84,133.7c3.25,9.77,7.34,19.21,11.59,28.73c-5.37-5.38-10.56-10.62-16.23-15.35
			c1.85-2.44,1.99-5.36,2.39-8.24C84.84,136.97,84.95,134.9,86.84,133.7z"/>
		<path fill="#056ADB" d="M60.47,482.63c-0.68,0.01-1.36,0.02-2.04,0.03c0.1-7,3.62-11.04,10.48-11.14
			c11.44-0.17,22.88,0.03,34.33,0.07c0,0,0.25,0.18,0.25,0.18c-10.92,3.87-22.2,1.61-33.31,1.78
			C63.87,473.65,60.61,475.96,60.47,482.63z"/>
		<path fill="#056ADB" d="M83.28,457.39c0.09-0.2,0.18-0.41,0.25-0.61c1.16-0.02,2.39-0.08,3.22,0.88
			c4.38,5.07,10.55,7.26,16.25,10.22c2.09,1.09,1.8,2.42,0.48,3.91c0,0-0.25-0.18-0.25-0.18c-0.52-1.86-2.22-2.28-3.68-3.03
			C93.64,465.55,87.94,462.22,83.28,457.39z"/>
		<path fill="#056ADB" d="M613.6,471.88c8.86-0.03,17.73-0.06,26.59-0.09c1.26-0.26,2.42-0.13,3.37,0.85c0,0-0.2,0.23-0.2,0.23
			c-2.47-0.08-4.92,0.25-7.37,0.41C628.5,473.78,620.88,475.12,613.6,471.88z"/>
		<path fill="#B4DCEF" d="M50.65,179.94c0.51,5.98,5.33,8.87,9.04,12.55c-0.78,0.38-1.09,1.03-1.1,1.86
			c-4.16-2.92-7.08-6.88-9.42-11.31C50.53,182.42,50,180.89,50.65,179.94z"/>
		<path fill="#274DBF" d="M56.14,83.52c-2.59,0.04-5.34,0.41-6.83-3.82c2.99,0,5.56,0,8.13,0C59.42,81.79,56.41,82.19,56.14,83.52z"
			/>
		<path fill="#274DBF" d="M507.46,37.92c0.77,1.01,1.11,2.02,0,3.03c-0.69,0.05-1.38,0.1-2.07,0.15c-1.62-0.05-3.25-0.11-4.87-0.16
			c-1.9-2.17-0.57-2.89,1.48-3.04C503.81,37.77,505.64,37.9,507.46,37.92z"/>
		<path fill="#274DBF" d="M63,82.31c0.16-0.84,0.33-1.68,0.49-2.52c2.59,0.43,7.31-1.33,7.21,1.53C70.61,83.85,65.78,82.38,63,82.31
			z"/>
		<path fill="#274DBF" d="M559.99,81.95c1.49-0.43,2.47-0.19,2.5,1.68c0.03,1.74,0.23,3.47,0.35,5.21
			c-0.48,0.55-0.96,1.11-1.45,1.66c-0.55-0.39-1.09-0.77-1.64-1.16C559.84,86.87,559.91,84.41,559.99,81.95z"/>
		<path fill="#274DBF" d="M562.43,69.78c0.01,2.27,0.06,4.55,0.03,6.82c-0.03,2.37-1.41,1.53-2.62,1.05
			c-0.05-2.18-0.09-4.37-0.14-6.55c0.24-0.45,0.48-0.91,0.72-1.36C561.09,69.75,561.76,69.76,562.43,69.78z"/>
		<path fill="#DCE0E6" d="M433.38,69.6c-0.12,1.36-0.63,2.06-1.24,1.76c-2.49-1.22-3.52-3.66-4.49-6.05
			c-0.25-0.61,0.5-1.39,1.15-1.13C431.46,65.27,431.83,68.18,433.38,69.6z"/>
		<path fill="#274DBF" d="M520.42,40.8c-2.54-1.03-6.47,2.34-7.82-2.46c0.33-0.16,0.66-0.33,0.98-0.49c0,0,0.43,0.08,0.43,0.08
			l0.39-0.2c1.38,0,2.76,0,4.14-0.01c0,0,0.42,0.18,0.42,0.18l0.44-0.14C520.83,38.41,521.47,39.32,520.42,40.8z"/>
		<path fill="#DCE0E6" d="M439.35,80.82c-0.11,1.05-0.5,1.82-1.18,1.55c-2.35-0.96-3.2-3.09-3.63-5.39c-0.15-0.8,0.2-2.06,1.1-1.71
			C438.2,76.27,437.76,79.38,439.35,80.82z"/>
		<path fill="#DCE0E6" d="M394.84,36.34c-1.4-1.66-4.37-1.55-5.19-4.02c-0.29-0.86,0.67-1.59,1.59-1.06
			c1.89,1.09,4.71,1.13,5.08,4.06C396.42,36.14,395.74,36.39,394.84,36.34z"/>
		<path fill="#DCE0E6" d="M424.07,60.46c-1.76-1.24-3.6-2.6-4.4-4.83c-0.31-0.87,0.39-1.88,1.26-1.38c1.96,1.13,3.78,2.6,4.41,4.95
			C425.5,59.82,425.06,60.43,424.07,60.46z"/>
		<path fill="#036BDE" d="M564.5,81.7c-0.32-0.89-0.65-1.78-0.97-2.67c1.97-0.19,3.94-0.39,5.9-0.58c0.35,0.01,0.7,0.01,1.05,0.02
			c1.99,1.96,0.4,2.86-1.2,3.21C567.76,82.01,566.1,81.72,564.5,81.7z"/>
		<path fill="#DCE0E6" d="M412.59,45.93c1.79,1.03,3.64,2.41,4.43,4.61c0.34,0.93-0.93,1.38-1.66,0.97
			c-1.97-1.1-3.89-2.42-4.46-4.79C410.73,46.01,411.64,45.83,412.59,45.93z"/>
		<path fill="#DCE0E6" d="M445.75,107.1c-2.3-2.24-2.62-4.84-1.85-8.49C447.23,101.49,446.4,104.31,445.75,107.1z"/>
		<path fill="#DCE0E6" d="M448.54,116.05c-0.34,1.3,0.5,3.44-1.45,3.16c-2.02-0.3-1.6-2.57-1.59-4.15c0.01-1.03-0.48-2.85,1.11-2.74
			C448.93,112.46,448.16,114.73,448.54,116.05z"/>
		<path fill="#DCE0E6" d="M402.63,37.97c1.45,1.34,4.18,1.55,4.67,4.24c0.13,0.71-0.69,1.5-1.14,1.14
			c-1.82-1.47-4.49-2.08-5.23-4.64C400.75,38.02,401.72,37.87,402.63,37.97z"/>
		<path fill="#BAE0F1" d="M439.71,89.14c-0.06-0.91-0.16-2.12,0.92-1.86c2.38,0.57,1.93,3.08,2.65,4.76
			c0.33,0.78,0.34,2.45-0.93,2.21C439.56,93.7,441.05,90.58,439.71,89.14z"/>
		<path fill="#056ADB" d="M558.45,78.81c1.18,1.59-0.26,2.06-1.18,2.76c-1.53,0-3.06,0-4.6,0c-0.43-0.13-0.87-0.25-1.3-0.38
			c0,0-0.37-0.26-0.36-0.26c0.18-0.7,0.35-1.39,0.53-2.09C553.84,78.83,556.14,78.82,558.45,78.81z"/>
		<path fill="#1C33B6" d="M94.28,39.78c0.02-2.25-0.01-4.5,0.08-6.74c0.07-1.79,0.94-2.29,2.5-1.26c-0.04,2.66-0.08,5.33-0.11,7.99
			c-0.36,0.11-0.56,0.35-0.59,0.72c-0.19-0.03-0.37,0.01-0.54,0.11c-0.4-0.21-0.81-0.41-1.21-0.62L94.28,39.78z"/>
		<path fill="#1C33B6" d="M511.74,29.75c-0.08,0.81-0.04,1.64-0.25,2.41c-0.49,1.82,1.33,5.18-1.37,5.17
			c-1.87-0.01-0.76-3.59-0.96-5.56c-0.09-0.93,0.28-1.91,0.44-2.86C510.47,28.79,511.25,28.91,511.74,29.75z"/>
		<path fill="#1C33B6" d="M97.49,30.64c0-0.56,0-1.12,0.01-1.69c2.24-0.9,4.6-0.56,6.89-0.47c2.05,0.08,2.8,1.02,1.02,2.72
			c-1.61-0.17-3.22-0.43-4.79,0.24C99.57,31.18,98.53,30.91,97.49,30.64z"/>
		<path fill="#1C33B6" d="M96.91,27.74c-1.65,1.66-2.31,0.37-2.94-0.99c0-0.69,0-1.37,0.01-2.06c0.11-1.64,0.22-3.28,0.33-4.92
			c0.42-0.26,0.85-0.52,1.27-0.78c0.37,0.23,0.73,0.46,1.1,0.68C96.76,22.37,96.83,25.05,96.91,27.74z"/>
		<path fill="#020E2C" d="M392.34,149.72c-1.12-5.99-1.9-11.98,0.43-17.89C392.63,137.79,392.48,143.75,392.34,149.72z"/>
		<path fill="#056ADB" d="M61.97,72.72c-0.12,1.8-0.14,3.63-0.4,5.41c-0.28,1.88-1.32,1.49-2.39,0.58c0.05-2.09,0.06-4.18,0.15-6.27
			c0.04-0.83,0.39-1.67,1.4-1.55C61.69,71.01,61.84,71.92,61.97,72.72z"/>
		<path fill="#1C33B6" d="M508.94,48.79c0.64-2.52-0.56-5.38,1.4-8.58c1.95,3.18,0.62,6.07,1.45,8.56
			c-0.44,0.43-0.89,0.86-1.33,1.29c-0.32-0.08-0.65-0.17-0.97-0.25C509.3,49.47,509.12,49.13,508.94,48.79z"/>
		<path fill="#056ADB" d="M59.15,83.81c0.64-0.79,1.43-1.22,2.48-1.07c0.18,0.7,0.35,1.4,0.53,2.1c-0.67,1.61-0.67,3.22,0,4.84
			c-0.27,0.64-0.54,1.27-0.81,1.91c-0.66-0.21-1.32-0.42-1.98-0.63C59.3,88.58,59.23,86.19,59.15,83.81z"/>
		<path fill="#1C33B6" d="M93.45,28.88c0.01,0.61,0.01,1.23,0.02,1.84c-0.72,0.24-1.45,0.48-2.17,0.71
			c-1.95-0.14-3.9-0.28-5.85-0.42c0,0-0.34-0.21-0.34-0.21c-0.29-1.21,0.24-2,1.32-2.48C88.77,28.51,91.11,28.69,93.45,28.88z"/>
		<path fill="#B4DCEF" d="M85.44,31.01c1.95,0.14,3.9,0.28,5.85,0.42"/>
		<path fill="#056ADB" d="M643.56,472.65c1.41,0.04,2.33,0.84,3.04,1.96c0,0-0.25,0.26-0.25,0.26c-1.38-0.09-2.77-0.16-3-1.99
			L643.56,472.65z"/>
		<path fill="#B4DCEF" d="M94.3,19.78c-0.11,1.64-0.22,3.28-0.33,4.92"/>
		<path fill="#BAE0F1" d="M656.34,275.78c-0.79-0.72-0.78-1.4,0.12-2.02C657.54,274.5,657.43,275.17,656.34,275.78z"/>
		<path fill="#B4DCEF" d="M48.61,182.43c-1.16-0.34-1.36-1.36-1.64-2.32C48.54,180.16,48.49,181.35,48.61,182.43z"/>
		<path fill="#F9A584" d="M549.45,146.39c0.64-0.22,1.29-0.45,1.93-0.67C550.92,146.46,550.28,146.69,549.45,146.39z"/>
		<path fill="#B4DCEF" d="M43.38,174.87c-0.27-0.38-0.55-0.77-0.82-1.15C42.83,174.1,43.11,174.48,43.38,174.87z"/>
		<path fill="#BAE0F1" d="M81.28,385.73c0.15,0.75-0.24,0.87-0.86,0.73C80.71,386.22,80.99,385.98,81.28,385.73z"/>
		<path fill="#B4DCEF" d="M551.37,81.19c0.43,0.13,0.87,0.25,1.3,0.38C552.24,81.44,551.81,81.31,551.37,81.19z"/>
		<path fill="#BAE0F1" d="M655.8,278.79c0.12-0.46,0.24-0.91,0.36-1.37C656.04,277.87,655.92,278.33,655.8,278.79z"/>
		<path fill="#B4DCEF" d="M518.95,37.91c0,0-0.43-0.18-0.42-0.18"/>
		<path fill="#BAE0F1" d="M656.44,263.8c-0.34-0.04-0.67-0.08-1.01-0.13C655.89,262.74,656.22,262.8,656.44,263.8z"/>
		<path fill="#B4DCEF" d="M45.41,177.82c-0.29-0.36-0.57-0.73-0.86-1.09C44.83,177.09,45.12,177.46,45.41,177.82z"/>
		<path fill="#036BDE" d="M281.66,267.44c-0.18,7.11-0.53,14.19,0.66,21.29c0.42,2.53,1.47,3.78,3.57,4.78
			c3.95,1.88,8.29,2.82,12.45,2.98c4.7,0.17,5.7,2.05,5.18,6.02c-0.13,0.98-0.02,1.99-0.02,2.98c-1.43,1.39-2.84,2.79-4.29,4.16
			c-6.85,6.48-11.34,6.72-18.74,0.72c-4.13-3.35-7.84-7.18-11.03-11.44c-4.65-6.21-9.18-12.52-13.76-18.78
			c-0.79-4.06-3.73-6.94-5.77-10.3c-2.98-4.93-6.4-9.59-9.63-14.37c-0.69-1.02-1.54-1.95-2.83-1.4c-0.99,0.43-0.59,1.3-0.08,2.05
			c5.98,8.86,11.95,17.73,17.93,26.59c0.01,1.38,0.03,2.75,0.04,4.13c-0.11,0.08-0.32,0.2-0.31,0.22c0.09,0.2,0.22,0.38,0.33,0.57
			c0.94,13.86,1.05,27.75,1.1,41.64c-1.81,3.31-2.08,6.87-2.07,10.59c0.09,28.31,0.08,56.62,0.02,84.94
			c-0.01,3.37,0.24,6.63,1.56,9.75c-0.87,0.52-1.74,1.04-2.61,1.56c-2.65,0.28-5.32,0.45-7.8,1.59c-1.29,0.21-2.59,0.41-3.88,0.64
			c-11.34,1.98-22.64,4.28-34.22,4.35c2.49-8.94,1.51-18.13,2.12-27.22c0.87-13.11-0.76-26.17-0.17-39.26
			c0.06-1.33,0.09-2.69-0.12-3.99c-1.72-10.44-0.96-20.78,0.81-31.15c1.37-8.01,4.49-15.81,5.05-23.76
			c1.44-20.56-0.62-41.09-2.46-61.6c-0.67-7.44-0.46-14.95,0.03-22.44c0.73-11.08,3.33-21.88,4.81-32.85
			c0.47-3.49,1.29-7.05,3.42-10.08c10.09,4.46,19.85,9.64,27.76,17.38c5.98,5.86,8.61,14.12,12.89,21.22
			c6.19,10.26,12.13,20.67,18.17,31.01C279.09,262.8,282.08,264.69,281.66,267.44z M237.51,291.14c-0.48,0.52-0.83,0.73-0.87,0.98
			c-0.12,0.82-0.24,1.66-0.16,2.48c1.51,14.8-2.31,28.42-8.66,41.62c-1.99,4.13-3.51,8.62-3.31,13.41c0.05,1.11-0.27,2.66,1.33,2.79
			c1.69,0.15,1.5-1.39,1.58-2.52c0.49-6.69,2.61-12.9,5.75-18.77c6.01-11.27,6.84-23.41,6.24-35.82
			C239.34,293.78,239.06,292.35,237.51,291.14z"/>
		<path fill="#1E335A" d="M154.4,124c0.21-4.71-1.51-8.74-4.33-12.4c-4.26-5.53-3.69-11.3,1.62-15.62c1.93-1.57,2.74-3.71,3.69-5.82
			c1.42-3.18,2.52-6.55,4.26-9.55c4.46-7.7,12.68-10.01,20.66-6.04c3,1.49,5.64,3.53,8.09,5.8c4.01,3.73,7.74,7.22,14,7.62
			c5.28,0.34,9.03,4.62,11.47,9.46c0.98,1.93,1.88,3.85,3.47,5.42c6.46,6.37,6.94,10.47,2.27,18.25c-0.51,0.85-0.99,1.72-1.48,2.59
			c-1.66,0.16-2.64,0.86-2.78,2.73c-0.5,6.51-2.1,12.84-3.47,19.2c-0.43,1.75-1.13,3.48-1.23,5.25c-0.37,7.12-3.95,12.31-9.43,16.48
			c-1.16,0.88-2.16,1.97-3.22,2.96c-9.85,10.55-16.75,10.71-25.15,0.57c-0.74-2.3-2.07-4.33-4.16-5.39
			c-6.63-3.36-9.1-9.23-10.29-16.02c-0.23-1.29-0.74-2.53-1.11-3.8C156.31,138.44,155.35,131.22,154.4,124z M187.5,143.85
			c5.66-0.32,11.45-3.03,16.88,1.09c1.15,0.87,1.62-0.55,2.18-1.28c4.33-5.6,4.63-12.3,5.17-18.95c0.31-3.81-0.1-7.27-3.57-9.73
			c-0.54-0.38-0.61-1.5-0.81-2.3c-2.48-9.89-12.39-15.54-21.75-11.57c-5.55,2.35-10.94,3.48-16.89,3.34
			c-4.92-0.12-8.07,3.47-7.75,8.32c0.14,2.11-0.29,3.91-1.17,5.75c-4.24,8.92-0.71,17.18,2.31,25.44c0.37,1.02,1,2.28,2.56,1.15
			c5.24-3.79,10.82-2.14,16.33-0.89c2.29,0.52,4.5,1.4,6.6-0.43L187.5,143.85z M184.31,147.37c-3.5-0.48-7.03-0.58-10.38,0.63
			c-4.37,1.57-4.95,5.33-1.42,8.22c6.91,5.66,15.73,5.91,23.1,0.7c1.71-1.21,3.14-2.5,2.74-4.87c-0.41-2.41-1.93-3.7-4.16-4.48
			C190.9,146.41,187.61,147.04,184.31,147.37z"/>
		<path fill="#056ADB" d="M153.35,188.54c2.36-1.48,4.4-3.68,7.56-3.34c0.28,1.86,0.56,3.73,0.85,5.59c-0.33,1.15-0.3,2.24,0.53,3.2
			c0.13,0.94,0.26,1.87,0.38,2.81c0.41,4.03,0.2,8.15,1.71,12.02c0.09,0.66,0.18,1.33,0.27,1.99c0.09,0.95,0.19,1.89,0.28,2.84
			c0.1,0.74,0.19,1.48,0.29,2.22c-0.09,0.12-0.27,0.27-0.24,0.34c0.09,0.26,0.25,0.49,0.38,0.72c0.06,0.6,0.13,1.2,0.19,1.81
			c-0.06,2.37-0.18,4.75,0.85,6.99c0.06,0.69,0.13,1.37,0.19,2.06c0.07,0.96,0.14,1.93,0.2,2.89c0.15,2.07,0.3,4.14,0.44,6.2
			c-0.09,0.12-0.28,0.25-0.26,0.34c0.06,0.27,0.2,0.52,0.32,0.78c0.07,1.24,0.14,2.49,0.2,3.73c0,3,0.01,6.01,0.01,9.01
			c-0.36,3.67-0.73,7.33-1.09,11c-1.31,2.56-0.91,5.32-0.92,8.03c-0.76,1.96-0.88,3.98-0.64,6.05c-0.09,1.29-0.17,2.57-0.26,3.86
			c-0.07,2.03-0.13,4.05-0.2,6.08c-0.28,3.65-0.77,7.3-0.01,10.96c0.09,2.02,0.18,4.05,0.26,6.07c0.07,1.28,0.14,2.56,0.21,3.84
			c0.12,1.06,0.23,2.12,0.35,3.18c0.11,3.39-0.28,6.84,1.09,10.09c0.43,3.28,0.85,6.55,1.28,9.83c-0.25,1.14-0.34,2.25,0.62,3.16
			c0,0-0.02,0.11-0.01,0.1c0.22,2.23,0.44,4.46,0.66,6.69c0.24,2.02,0.48,4.03,0.73,6.05c-0.03,12.67-0.06,25.35-0.09,38.02
			c-0.24,3.68-0.47,7.35-0.71,11.03c-0.17,3.28-0.33,6.55-0.5,9.83l0.02,0.03c-1.22,1.92-0.85,4.01-0.67,6.08
			c-0.27,3.35-0.55,6.71-0.82,10.06c-0.14,1.97-0.28,3.94-0.41,5.91l-0.01,0.04c-1.27,2.21-0.94,4.62-0.84,7
			c-0.32,3.01-0.64,6.02-0.95,9.03c-2.17,0.08-4.36,0.36-6.46-0.49c0.77-10.4,1.22-20.84,2.46-31.18
			c0.64-5.31,0.56-10.59,0.95-15.88c1.06-14.31,2.61-28.56,1.99-42.98c-0.71-16.6-5-32.66-6.75-49.09
			c-0.78-7.36-1.96-14.6-0.6-22.21c2.03-11.36,4.9-22.66,4.36-34.41c-0.29-6.29-0.04-12.6-1.13-18.84
			C157.15,214.68,156.59,201.4,153.35,188.54z"/>
		<path fill="#056ADB" d="M211.74,189.06c1.42-5,3.69-2.13,5.81-0.62c-1.24,4.3-1.73,8.75-2.6,13.12
			c-3.76,18.7-6.67,37.33-4.7,56.62c1.82,17.81,2.83,35.73,2.28,53.69c-0.16,5.18-1.12,10.16-2.23,15.19
			c-2.33,10.48-4.78,20.93-4.87,31.79c-0.08,9.65,1.93,19.12,2,28.73c0.14,18.42,0.49,36.86-1.95,55.2
			c-2.26,0.69-4.56,1.02-6.91,0.55c0.38-6.85,0.77-13.69,1.15-20.54c1.05-2.61,0.94-5.32,0.68-8.04c0.05-0.62,0.1-1.23,0.14-1.85
			c0.54-0.62,0.75-1.29,0.23-2.03c0.7-3.32,0.75-6.67,0.46-10.03c0.03-1.71,0.06-3.42,0.08-5.14c0.53-5.97,0.49-11.93-0.03-17.89
			c0.26-1.73,0.33-3.45-0.2-5.15c-0.06-0.64-0.12-1.29-0.19-1.93c-0.08-0.46-0.16-0.91-0.23-1.37c-0.06-0.53-0.12-1.06-0.18-1.59
			c0-8.34,0.01-16.68,0.01-25.03c0.77-2.95,1.07-5.94,0.9-8.99c0.59-2.3,1.35-4.58,0.96-7.01c1.02-4.46,1.27-9,1.39-13.55
			c1.2-2.74,0.68-5.63,0.73-8.46c0.04-0.57,0.08-1.13,0.12-1.7c0.55-0.68,0.68-1.39,0.17-2.15c0.7-3.99,0.68-8.01,0.39-12.04
			c-0.01-1.73-0.02-3.46-0.04-5.19c0.38-4.2,0.25-8.38-0.48-12.54c0.49-0.55,0.45-1.07-0.09-1.56c-0.04-0.94-0.08-1.87-0.12-2.81
			c0.01-9.32,0.02-18.64,0.03-27.96c0-0.35,0-0.7,0-1.04c0.37-3.61,0.74-7.21,1.11-10.82c1.33-3.95,1.36-8.08,1.72-12.16
			c0.76-4.61,1.52-9.22,2.28-13.82c1.08-1.92,1.01-4.04,1-6.14C210.96,192.89,211.35,190.98,211.74,189.06z"/>
		<path fill="#F9A584" d="M281.66,267.44c0.42-2.75-2.56-4.64-1.89-7.45c2.6-3.02,1.45-7.41,3.86-10.5
			c16.91-8.39,32.22-1.18,39.87,9.33c1.68,2.31,3.22,4.64,2.39,7.72c-0.9,0.43-1.4,1.13-1.38,2.15c-2.95,2.18-6.07,0.61-9.12,0.35
			c-1.78-0.15-3.44-1.36-5.33-0.61c-1.3-0.91-2.81-0.95-4.31-1.03c-6.32-2.55-12.77-2.31-19.28-0.93
			C284.86,266.81,283.26,267.12,281.66,267.44z"/>
		<path fill="#274DBF" d="M153.35,188.54c3.24,12.86,3.8,26.14,6.08,39.15c1.09,6.24,0.84,12.55,1.13,18.84
			c0.54,11.75-2.33,23.05-4.36,34.41c-1.36,7.61-0.18,14.86,0.6,22.21c1.75,16.42,6.04,32.49,6.75,49.09
			c0.62,14.41-0.93,28.67-1.99,42.98c-0.39,5.28-0.31,10.57-0.95,15.88c-1.24,10.34-1.69,20.78-2.46,31.18
			c-2.97-0.61-6.12,0.21-9-1.13c6.65-0.77,7.48-1.36,7.24-9.28c-0.4-12.98,1.69-25.8,2.54-38.67c1.01-15.25,1.34-30.46,1.63-45.71
			c0.12-6.56-2.01-12.7-2.79-19.08c-1.57-12.94-4.57-25.69-5.29-38.76c-0.37-6.74,1.99-13.05,2.79-19.6
			c0.93-7.54,2.77-15.02,3-22.56c0.21-7.05-0.98-14.17-1.91-21.21c-1.6-12.11-3.48-24.19-5.24-36.28
			C151.56,189.05,152.36,188.65,153.35,188.54z"/>
		<path fill="#274DBF" d="M205.47,442.79c2.45-18.34,2.1-36.77,1.95-55.2c-0.07-9.61-2.08-19.08-2-28.73
			c0.09-10.86,2.55-21.31,4.87-31.79c1.11-5.02,2.07-10.01,2.23-15.19c0.56-17.96-0.46-35.89-2.28-53.69
			c-1.97-19.29,0.93-37.92,4.7-56.62c0.88-4.37,1.36-8.82,2.6-13.12c1.37,0.23,2.48,0.91,3.4,1.93c-2.12,3.02-2.95,6.59-3.42,10.07
			c-1.48,10.97-4.08,21.77-4.81,32.85c-0.5,7.49-0.7,14.99-0.03,22.44c1.84,20.5,3.91,41.04,2.46,61.6
			c-0.56,7.95-3.68,15.74-5.05,23.76c-1.77,10.37-2.54,20.71-0.81,31.15c0.21,1.3,0.18,2.66,0.12,3.99
			c-0.59,13.08,1.04,26.14,0.17,39.26c-0.6,9.08,0.37,18.28-2.12,27.22C206.8,442.73,206.13,442.76,205.47,442.79z"/>
		<path fill="#FCFDFD" d="M211.74,189.06c-0.39,1.91-0.78,3.83-1.17,5.75c-1.5-0.8-3.1-1-4.79-1.08c-9.31-0.46-18.43,0.66-27.57,2.5
			c-5.05,1.02-10.28,3.04-15.54,0.58c-0.13-0.94-0.26-1.87-0.38-2.81c0.27-1.14,0.44-2.27-0.53-3.2c-0.28-1.87-0.56-3.73-0.85-5.59
			c3.01-3.83,7.64-5.19,11.59-7.58c7.6,10.51,15.78,11.82,23.84,1.61c0.5-0.64,1.16-1.16,1.75-1.73c3.13,1.75,6.14,3.8,9.44,5.17
			C210.59,183.94,211.68,186.04,211.74,189.06z"/>
		<path fill="#F9A584" d="M198.08,177.5c-0.59,0.57-1.25,1.09-1.75,1.73c-8.06,10.21-16.24,8.9-23.84-1.61
			c0.11-2.25,0.22-4.5,0.33-6.75c8.4,10.14,15.29,9.99,25.15-0.56C198.01,172.7,198.05,175.1,198.08,177.5z"/>
		<path fill="#EE7B5D" d="M211.85,145.62c1.37-6.36,2.98-12.68,3.47-19.2c0.14-1.86,1.12-2.57,2.78-2.73
			c4.72,2.63,5.79,5.54,4.31,11.66C220.65,142.61,217.7,145.48,211.85,145.62z"/>
		<path fill="#EE7B5D" d="M154.4,124c0.95,7.22,1.91,14.44,2.86,21.66c-4.94,0.28-7.06-3.17-8.67-6.9c-1.9-4.4-2.73-8.96,0.34-13.32
			C150.35,123.44,152.42,123.88,154.4,124z"/>
		<path fill="#020E2C" d="M149.15,441.15c2.88,1.34,6.03,0.52,9,1.13c2.1,0.86,4.29,0.58,6.46,0.49c3.72,0.99,7.56,1,11.35,0.98
			c2.73-0.01,3.85,0.69,3.71,3.61c-0.3,6.11-0.3,12.24-0.42,18.36c-1.51-2.65-0.71-5.54-0.66-8.29c0.06-3.22-0.7-4.41-4.31-4.85
			c-16.08-1.95-31.9-5.29-47.44-9.92c-0.05-1.62-0.1-3.25-0.15-4.87c0.29,0.08,0.56,0.03,0.81-0.15c2.45,0.17,4.29,2.53,6.96,1.91
			C139.36,440.09,144.26,440.62,149.15,441.15z"/>
		<path fill="#039BF6" d="M106.42,380.58c2.06-13.22,4.07-26.44,6.24-39.64c0.21-1.28,0.24-3.6,1.95-3.55
			c2.28,0.07,1.76,2.38,1.81,3.95c0.53,15.62-1.19,31.18-1.17,46.78C112.12,385.82,110.08,382.26,106.42,380.58z"/>
		<path fill="#B4DCEF" d="M79.39,203.03c13.66,4.74,26.56,10.9,37.8,20.16c-0.2,1.03-0.61,1.92-1.64,2.37
			c-6.02-5.11-13.16-7.54-20.82-8.83c-5.05-0.85-10.1-1.82-14.25-5.19C79.34,208.81,79.48,205.9,79.39,203.03z"/>
		<path fill="#039BF6" d="M99.47,405.53c-5.57-0.83-11.13-2.68-16.76-0.26c0,0-0.21-0.05-0.21-0.05c-0.05-0.73-0.37-1.24-1.14-1.37
			c0,0-0.05,0.02-0.05,0.02c0.01-2.91-1.11-6.79,0.33-8.48c1.84-2.17,5.48,0.61,8.48,0.5c3.6-0.14,7.23,0.58,10.85,0.85
			c3.23,0.24,2.56,2.4,2.19,4.35C102.77,403.21,101.12,404.4,99.47,405.53z"/>
		<path fill="#274DBF" d="M130.35,273.71c1.73,2.44,0.82,4.09,0.28,5.81c-3.96,12.47-8.03,24.89-10.44,37.81
			c-0.47,2.5-2.07,4.8-1.85,7.57c0.07,0.86-0.47,1.66-1.5,1.57c-1.01-0.09-1.19-0.93-1.33-1.8c-0.48-2.97,1.31-5.44,1.76-8.16
			c2.18-13.25,7.2-25.71,10.43-38.66C128.03,276.5,129.25,275.38,130.35,273.71z"/>
		<path fill="#1C33B6" d="M100.51,423.64c-0.01-2.35-0.03-4.69-0.04-7.04c8.76,6.15,9.71,15.94,11.95,25.22
			c2.2,9.1,6.24,17.34,12.98,24.05c-0.57,1,1.6,3.87-1.94,2.86c-0.97-1.32-1.93-2.64-2.91-3.94c-5.41-7.22-9.88-14.88-11.16-24.03
			c0.05-0.82-0.12-1.55-0.87-2.03c-0.2-5.92-1.73-11.42-5.53-16.05c-1.83-2.23-1.5-0.1-1.59,0.96
			C101.1,423.69,100.8,423.69,100.51,423.64z"/>
		<path fill="#274DBF" d="M146.04,381.42c-0.35,0.79,1.83,4.65-1.01,4.73c-2.89,0.08-1.43-3.74-1.5-5.78
			c-0.55-15.56-3.97-29.94-15.92-41.07c-0.82-0.76-2.74-1.71-1.27-3.08c1.22-1.13,2.38,0.38,3.34,1.25
			c9.51,8.69,13.98,19.9,15.69,32.33C145.83,373.23,147.1,376.61,146.04,381.42z"/>
		<path fill="#056ADB" d="M123.47,468.73c3.54,1,1.37-1.86,1.94-2.86c0.02-7.71-0.01-15.42,0.08-23.13c0.02-1.69-0.77-3.68,1.2-4.94
			c0.05,1.62,0.1,3.25,0.15,4.87c-0.08,7.15-0.36,14.3-0.19,21.44c0.15,6.75,0.35,6.74,7.25,6.75c5.33,0,10.66,0.11,15.99-0.01
			c9.97-0.21,19.96,0.61,29.92-0.47l0.38-0.03l0.28,0.27c-0.83,2.17-2.67,2.16-4.55,2.16c-15.28-0.01-30.57-0.01-45.85,0
			C127.02,472.77,124.57,471.87,123.47,468.73z"/>
		<path fill="#1C33B6" d="M82.5,405.22c0,0,0.21,0.05,0.21,0.05c0.4,0.85,0.59,1.7-0.07,2.52c-6.66-2.82-14.09-3.78-20.03-8.33
			c-6.1-4.66-10.03-10.84-12.67-17.93c-0.5-1.36-0.96-2.82,0.93-4.98c4.69,15.56,14.18,25.43,30.44,27.32c0,0,0.05-0.02,0.05-0.02
			C81.49,404.52,81.37,405.39,82.5,405.22z"/>
		<path fill="#F7FAFC" d="M106.42,380.58c3.66,1.68,5.7,5.24,8.82,7.55c1.29,3.13,0.47,4.13-2.99,3.45
			C103.39,389.84,103.27,389.74,106.42,380.58z"/>
		<path fill="#056ADB" d="M134.46,439.56c-2.66,0.62-4.51-1.74-6.96-1.91C130.43,436.05,132.83,436.39,134.46,439.56z"/>
		<path fill="#274DBF" d="M585.97,290.75c1,6.29,0.37,12.64,0.59,18.95c-0.07,0.37-0.15,0.73-0.22,1.1
			c-1.93-0.03-2.88,1.49-4.04,2.63c-3.2,3.15-6.37,6.33-9.52,9.53c-2.15,2.18-3.86,2.49-6.11-0.23c-2.85-3.45-6.34-6.35-9.37-9.67
			c-2.26-2.48-4.17-2.9-6.53-0.14c-2.91,3.4-6.62,6.05-9.06,9.91c-2.01,3.19-4.08,3.13-6.59,0.21c-2.7-3.15-6.03-5.75-8.7-8.92
			c-2.74-3.25-4.82-3.81-7.79-0.19c-2.84,3.45-6.4,6.3-9.4,9.63c-2.11,2.33-3.58,2.12-5.62-0.09c-3.5-3.79-7.31-7.28-10.87-11
			c-1.64-1.71-2.9-1.73-4.53,0c-3.21,3.37-6.82,6.4-9.78,9.97c-3.01,3.62-5.26,2.91-7.95-0.15c-2.08-2.37-4.36-4.59-6.71-6.69
			c-1.39-1.24-2.42-4-4.53-3.09c-1.74,0.75-0.51,3.32-0.78,5.06c-0.48,3.03,1.04,6.29-1.03,9.14c0.02-11.58-0.29-23.17,0.62-34.75
			c0.24-3.05,0.91-6.25-0.54-9.25c3.6-6.42,7.14-12.88,12.25-18.4c-1.39,9.3-11.13,15.31-10.26,26.51
			c4.21-3.7,8.17-6.61,11.39-10.19c2.72-3.02,4.89-2.71,7.4-0.34c3.27,3.09,6.52,6.2,9.58,9.49c2.24,2.41,4,2.29,6.19-0.06
			c3.17-3.42,6.64-6.55,9.83-9.95c1.68-1.79,2.86-1.8,5.03-0.46c4.22,2.6,6.65,6.87,10.28,10.03c3.04,2.64,4.51,2.08,6.79-0.47
			c2.88-3.22,6.16-6.09,9.11-9.25c2.08-2.22,3.76-2.15,5.82,0.03c3.19,3.39,6.69,6.51,9.83,9.95c2.4,2.63,4.26,2.44,6.55-0.1
			c2.79-3.08,6.06-5.75,8.74-8.92c2.95-3.49,5.23-3.1,8,0.17c2.36,2.79,5.13,5.22,7.71,7.83C582.91,289.76,584.05,291,585.97,290.75
			z"/>
		<path fill="#B4DCEF" d="M457.5,282.7c1.46,3,0.78,6.2,0.54,9.25c-0.92,11.58-0.6,23.16-0.62,34.75
			c-1.61,37.35-1.18,74.71-1.04,112.07c-1.51-0.96-2.95-0.8-4.7-0.32c-8,2.18-16.06,4.14-24.12,6.09c-3.33,0.8-7.01,0.48-9.66,3.26
			c-0.59-2.98-1.17-5.96-1.76-8.94c0.03-0.63,0.06-1.26,0.09-1.9c7.9-0.08,15.8-0.17,23.7-0.22c3.28-0.02,6.25-0.55,7.82-3.93
			c1.75-1.94,1.38-4.34,1.38-6.63c0.01-29.21,0.01-58.41-0.02-87.62c0-1.63,0.39-3.33-0.51-4.87c-0.8-5.02-4.32-6.09-8.69-6.11
			c-12.07-0.06-24.13-0.18-36.2-0.28c-0.89-8.37-1.57-16.76-1.17-25.18c0.08-1.62-0.86-3.81,1.69-4.59
			c4.04,6.58,9.44,11.85,15.75,16.2c2.4,1.66,5.12,1.46,7.61,0.34c3.78-1.7,7.42-3.7,9.89-7.25c1.08-0.78,2.15-1.56,3.23-2.34
			c1.26,3.4,2.36,1.55,3.39-0.12C448.6,297.15,453.04,289.93,457.5,282.7z"/>
		<path fill="#EE7B5D" d="M440.73,304.49c-1.08,0.78-2.15,1.56-3.23,2.34c-2.54-0.24-2.52-2.55-2.8-4.09
			c-2.01-11.12-3.81-22.28-5.68-33.43c0.19-1.39,0.8-2.45,2.21-2.91c3,6.47,3.55,13.62,5.53,20.38
			C438.47,292.57,439.44,298.58,440.73,304.49z"/>
		<path fill="#274DBF" d="M541.68,188.74c0.96,11.69-25.33,28.96-37.8,25.95C518.96,210.46,532.59,204.04,541.68,188.74z"/>
		<path fill="#18315B" d="M403.73,327.31c12.07,0.1,24.13,0.23,36.2,0.28c4.37,0.02,7.89,1.09,8.69,6.11
			c-2.63,1.11-2.15,3.45-2.15,5.56c-0.01,29.53-0.02,59.05,0.02,88.58c0,1.72-0.69,3.73,1.27,4.99c-1.56,3.38-4.54,3.91-7.82,3.93
			c-7.9,0.05-15.8,0.15-23.7,0.22c-0.62,0-1.25-0.01-1.87-0.01c-15.74-0.08-31.48-0.15-47.23-0.22
			c-10.16,0.01-20.32,0.02-30.47,0.02c-15.76,0.03-31.52,0.05-47.28,0.08c-6.81-0.03-13.61-0.09-20.42-0.08
			c-4.47,0.01-8.98,0.37-13-2.2c-1.32-3.12-1.57-6.37-1.57-9.75c0.06-28.31,0.07-56.62-0.02-84.94c-0.01-3.73,0.27-7.28,2.07-10.59
			c2.9-1.43,5.97-1.74,9.19-1.74c12.48-0.01,24.95-0.19,37.43-0.3c13.43,0.8,26.87,0.41,40.3,0.21c2.09,0.47,4.16,0.43,6.21-0.19
			c6.59,0.72,13.19,0.39,19.79,0.21c4.41,0.42,8.81,0.47,13.2-0.18C389.62,327.86,396.68,327.84,403.73,327.31z M366.46,384.75
			c0.01-9.72-5.93-15.91-15.05-16.02c-10.13-0.12-14.83,7.7-14.92,14.48c-0.12,8.22,7.37,15.62,15.56,15.53
			C358.66,398.67,366.45,391.11,366.46,384.75z"/>
		<path fill="#B4DCEF" d="M303.08,327.24c-12.48,0.12-24.95,0.3-37.43,0.3c-3.22,0-6.29,0.31-9.19,1.74
			c-0.05-13.89-0.16-27.77-1.1-41.64c0.16-0.27,0.15-0.53-0.02-0.79c-0.01-1.38-0.03-2.75-0.04-4.13c0.13-0.86,0.25-1.72,0.38-2.57
			c4.58,6.26,9.11,12.57,13.76,18.78c3.19,4.26,6.9,8.09,11.03,11.44c7.4,6,11.89,5.76,18.74-0.72c1.45-1.37,2.86-2.77,4.29-4.16
			C305.68,312.79,303.19,319.99,303.08,327.24z"/>
		<path fill="#F9A584" d="M429.02,269.31c1.87,11.15,3.67,22.31,5.68,33.43c0.28,1.55,0.25,3.85,2.8,4.09
			c-2.47,3.54-6.11,5.54-9.89,7.25c-2.49,1.12-5.21,1.32-7.61-0.34c-6.31-4.35-11.72-9.62-15.75-16.2c2.21-0.66,4.41-1.38,6.64-1.96
			c7.71-2,11.29-7.49,12.69-14.85c0.37-1.94,0.75-3.89,1.12-5.83C426.79,273.54,426.81,270.58,429.02,269.31z"/>
		<path fill="#F9A584" d="M384.78,282.65c-2.56-5.03-5.11-10.06-7.67-15.09c0.59-1.22,1.64-2.26,1.53-3.77
			c4.22-5.18,7.52-11.24,14.33-13.83c5.12-1.95,5.9-1.62,7.86,3.38c1.2,3.06,0.84,6.62,3.08,9.31c-0.49,0.65-0.98,1.3-1.47,1.95
			c-1.88,1.15-3.55,2.49-4.23,4.73c-1.17,1.59-2.41,3.14-3.51,4.79C392.2,277.89,389.5,281.44,384.78,282.65z"/>
		<path fill="#036BDE" d="M378.65,263.79c0.1,1.51-0.94,2.55-1.53,3.77c-1.51-0.93-3.13-0.92-4.81-0.6
			c-14.02,2.63-28.1,3.93-42.34,1.87c-1.79-0.26-3.64-0.1-5.47-0.13c-0.02-1.03,0.48-1.72,1.38-2.16
			c13.89,0.31,27.79,0.91,41.62-0.87C371.23,265.18,374.71,263.16,378.65,263.79z"/>
		<path fill="#036BDE" d="M385.79,201.44c-0.01,12.9-26.91,28.96-38.01,26.11C362.96,223.27,376.83,217.01,385.79,201.44z"/>
		<path fill="#056ADB" d="M382.57,327.29c-4.39,0.66-8.79,0.6-13.2,0.18c-0.09-1.71-1.49-2.07-2.7-2.52
			c-8.43-3.18-15.89-8.06-23.2-13.21c-0.54-0.38-1.12-0.72-1.59-1.17c-0.83-0.8-1.96-1.82-1.03-2.93c1.18-1.39,2,0.21,2.78,0.87
			c8.99,7.51,19.08,12.93,30.2,16.66C376.75,326.14,380.29,324.19,382.57,327.29z"/>
		<path fill="#036BDE" d="M343.52,325.75c-9.32-5.6-17.45-12.65-24.96-20.46c-0.79-0.82-2.7-1.75-1.18-3.1
			c1.19-1.07,1.83,0.66,2.64,1.41c8.58,8.07,17.48,15.76,27.4,22.18C346.11,325.76,344.81,325.75,343.52,325.75z"/>
		<path fill="#056ADB" d="M384.78,282.65c4.72-1.21,7.42-4.75,9.94-8.54c1.1-1.65,2.34-3.2,3.51-4.79
			c-0.36,6.49-4.6,10.54-9.46,13.71c-7.62,4.97-16.43,6.51-25.34,7.44C370.36,287.3,377.86,285.78,384.78,282.65z"/>
		<path fill="#036BDE" d="M305.74,267.41c1.5,0.09,3.01,0.13,4.31,1.03c-3.75,3.85-7.51,7.71-11.27,11.56
			C298.2,273.8,304.82,272.4,305.74,267.41z"/>
		<path fill="#036BDE" d="M402.46,264.59c0.49-0.65,0.98-1.3,1.47-1.95c5.05,0.74,8.32,3.63,10.25,8.23
			C410.4,268.42,407.34,264.86,402.46,264.59z"/>
		<path fill="#056ADB" d="M343.52,325.75c1.3,0.01,2.6,0.02,3.89,0.02c1.04,0.04,1.86,0.41,2.18,1.5c-2.05,0.61-4.12,0.65-6.21,0.18
			C343.42,326.88,343.47,326.31,343.52,325.75z"/>
		<path fill="#036BDE" d="M414.37,436.96c0.62,0,1.25,0.01,1.87,0.01c-0.03,0.63-0.06,1.27-0.09,1.9c-1.22,2-0.14,4.08-0.26,6.07
			c-0.2,3.27,2.41,7.09-1.45,9.82c-1.1-2.79-3.17-4.36-6.12-3.84c-2.24,0.4-3.72,2.02-3.85,4.52c-0.15,2.9,0.99,4.81,3.99,5.35
			c0.19,1.65,0.83,3.02,2.74,2.72c1.58-0.25,1.15-1.73,1.23-2.83c-0.08-1.49,1.43-1.89,2.01-2.93c4.08,0.78,3.39,4.3,4.01,7.04
			c0.36,1.57-0.74,4.07,2.51,3.58l-0.12,0.1c-0.36,0.94-0.26,1.74,0.69,2.29l0.03,0.35c2.73,3.67,6.8,1.44,10.13,1.98
			c9.6,1.56,19.3,0.85,28.82-1.44c0.3-0.29,0.61-0.59,0.91-0.88c0.36,0.19,0.73,0.39,1.09,0.58c0.89,2.14,2.81,1.36,4.32,1.37
			c19.03,0.05,38.06,0.04,57.09,0.01c1.58,0,3.37,0.54,4.6-1.08c0.16-0.31,0.41-0.47,0.75-0.47c0.4,0.17,0.79,0.33,1.19,0.5
			c0.65,0.93,1.61,1.07,2.64,1.07c21.42,0.01,42.83-0.11,64.24,0.86c3.03,0.14,6.6,0.07,9.31-2.24l0.16-0.43
			c0.56,0.04,1.11,0.09,1.67,0.13c0.6,2.05,1.63,2.15,3.01,0.65c0.71,0.06,1.41,0.11,2.12,0.17c7.28,3.24,14.9,1.89,22.39,1.4
			c2.45-0.16,4.9-0.49,7.37-0.41c0.23,1.83,1.62,1.9,3,1.99c0.33,2.21,0.67,4.42,1,6.63c-2.48,0.09-4.97,0.26-7.45,0.26
			c-189.72,0.01-379.45,0.01-569.17,0.05c-2.08,0-4.35-0.79-6.23,0.87c-1.35-0.01-2.69-0.02-4.04-0.04c0.14-6.67,3.41-8.98,9.7-9.07
			c11.11-0.17,22.39,2.09,33.31-1.78c1.31-1.48,1.61-2.82-0.48-3.91c-5.69-2.96-11.87-5.15-16.25-10.22
			c-0.83-0.96-2.06-0.9-3.22-0.88c-0.09-0.32-0.19-0.64-0.28-0.96c1.98-1.33,1.69-3.03,1.46-5.19c-0.35-3.39-2.09-7.16,0.88-10.48
			c1.57,1.43-0.13,4.23,2.63,4.61c0.61,1,0.93,2.23,2.17,2.73c0.32,0.29,0.64,0.83,0.97,0.84c0.82,0.02,0.84-0.7,0.86-1.32
			c0,0,0.12-0.22,0.13-0.23c3.75-2.11,5.4-5.3,4.97-9.58l-0.09-0.25c0,0,0.2-0.17,0.2-0.17c0.31-0.48,0.61-0.97,0.92-1.45
			c0,0-0.08-0.33-0.08-0.33s0.25-0.23,0.25-0.23c4.74-0.87,4.79-1.08,1.65-6.13c0.09-0.62,0.18-1.23,0.26-1.85
			c1.22-0.77,1-1.98,0.96-3.13c0.1-1.06-0.24-3.19,1.59-0.96c3.81,4.64,5.33,10.13,5.53,16.05c-1.57,1.48-0.47,1.81,0.87,2.03
			c1.28,9.14,5.75,16.81,11.16,24.03c0.98,1.31,1.94,2.63,2.91,3.94c1.1,3.13,3.56,4.03,6.59,4.03c15.28-0.01,30.57-0.01,45.85,0
			c1.88,0,3.72,0.02,4.55-2.16c0.66,0.16,1.33,0.32,1.99,0.49c0.37,2.01,1.56,3.05,3.52,2.31c2.61-0.99,5.25-0.57,7.88-0.63
			c27.53-0.72,55.03,1.04,82.55,0.98c2.91-0.01,6.01,0.41,7.94-2.63l-0.11-0.24l0.19-0.18c1.79-1.59,2.54-3.71,3.09-5.94
			c0.71-0.14,1.65-0.16,1.45-1.18c-0.07-0.35-0.91-0.55-1.39-0.82c-0.01-0.67-0.01-1.35-0.02-2.02c0.11-0.1,0.34-0.23,0.32-0.28
			c-0.08-0.24-0.23-0.46-0.35-0.68c0.02-1.01,0.04-2.01,0.05-3.02c4.03-1.64-0.16-4.21,0.69-6.21c0,0-0.05,0.07-0.05,0.07
			c2.56,0.01,2.19-1.89,2.21-3.47c0.04-3.1,0.01-6.21,0.02-9.31c8.66-0.01,17.33-0.03,25.99-0.04c0.02,0.81,0.2,1.54,0.98,1.96
			c2.07,2.52,5.39,4.84,7.34,1.7c2.94-4.73,6.76-3.59,10.68-3.67c0.56,5.98-1.18,12.07,0.95,17.96c-0.03,0.68-0.07,1.36-0.1,2.04
			c-0.26,0.22-0.52,0.43-0.78,0.65c-5.65,0.12-11.31,0.25-16.96,0.37c-0.89-0.03-1.69,0.11-2.07,1.06l0.06-0.03
			c-2.31-0.59-4.11,0.67-6.02,1.61c-0.84,0.41-3.02-1.29-2.53,0.69c0.77,3.11-1.02,7.93,4.52,8.6c0.33,0.04,0.65,0.13,0.95,0.28
			c0.58,2.4,2.55,1.72,4.08,1.72c22.61,0.04,45.22,0.03,67.84,0c1.53,0,3.5,0.67,4.06-1.74c0.38-0.42,0.75-0.84,1.13-1.26
			c3.16-2.18,5-5.55,3.12-8.73c-2.15-3.66-6.17-4.43-10.24-2.25c-0.7-0.06-1.39-0.13-2.09-0.19c-2.61-1.27-5.22-1.26-7.83-0.01
			c-1.71-0.01-3.43-0.02-5.14-0.03c-0.34-0.26-0.69-0.51-1.03-0.77c0-1.67,0-3.34,0-5.01c4.41-2.3,4.41-5.96,0.01-9
			c0-1.99-0.01-3.99-0.01-5.98c13.92,0,27.83,0.02,41.75-0.02C410.88,437.73,412.79,438.33,414.37,436.96z M306.5,450.76
			c0.99-0.14,1.89-0.41,1.78-1.68c-0.08-1-0.89-1.17-1.67-1.32c-0.05-2.84-1.4-4.17-4.32-4.06c-2.44,0.09-4.24,1.03-4.72,3.44
			c-0.62,3.07,0.75,5.07,3.88,5.76c0.06,1.48-0.02,3.39,1.88,3.42c2.32,0.04,2.06-2.04,2.08-3.67
			C305.77,452.03,306.14,451.39,306.5,450.76z M388.48,439.76c-2.57-1.65-5.36-1.54-7.23,0.57c-1.55,1.75-1.26,4.43,0.05,6.55
			c1.36,2.2,3.68,2.24,5.81,1.72c3.67-0.9,3.43-3.97,3.36-6.84C391.81,439.09,389.51,440.06,388.48,439.76z M373.26,440.84
			c-0.49-0.39-0.79-0.82-1.12-0.85c-0.39-0.03-1.07,0.2-1.15,0.47c-0.24,0.74,0.32,1.14,1,1.1
			C372.34,441.55,372.69,441.18,373.26,440.84z"/>
		<path fill="#2436B5" d="M642.99,492.77c-191.73,0-383.46,0-575.71,0c1.52-1.61,2.97-0.98,4.18-0.98
			c188.59-0.04,377.18-0.04,565.77-0.03c1.97,0,4.03-0.37,5.78,1C643.01,492.77,642.99,492.77,642.99,492.77z"/>
		<path fill="#F7FAFC" d="M79.39,203.03c0.09,2.87-0.04,5.77,1.09,8.51c-8.09-3.12-14.03-9.09-19.95-15.08
			c-0.25-0.26-0.49-0.52-0.74-0.78c-0.4-0.44-0.81-0.88-1.21-1.33c0.01-0.83,0.32-1.49,1.1-1.87
			C66.26,196,72.82,199.52,79.39,203.03z"/>
		<path fill="#B4DCEF" d="M59.8,195.68c0.25,0.26,0.49,0.52,0.74,0.78C60.29,196.2,60.04,195.94,59.8,195.68z"/>
		<path fill="#036BDE" d="M456.38,438.77c-0.15-37.36-0.57-74.73,1.04-112.07c2.07-2.85,0.55-6.11,1.03-9.14
			c0.28-1.74-0.96-4.32,0.78-5.06c2.11-0.91,3.14,1.85,4.53,3.09c2.35,2.1,4.63,4.32,6.71,6.69c2.69,3.06,4.95,3.78,7.95,0.15
			c2.96-3.57,6.57-6.59,9.78-9.97c1.64-1.72,2.9-1.7,4.53,0c3.57,3.72,7.38,7.21,10.87,11c2.04,2.21,3.52,2.42,5.62,0.09
			c3.01-3.33,6.57-6.18,9.4-9.63c2.97-3.62,5.06-3.06,7.79,0.19c2.67,3.17,6,5.78,8.7,8.92c2.51,2.92,4.57,2.99,6.59-0.21
			c2.44-3.86,6.15-6.51,9.06-9.91c2.36-2.76,4.26-2.34,6.53,0.14c3.02,3.31,6.52,6.22,9.37,9.67c2.25,2.72,3.96,2.41,6.11,0.23
			c3.15-3.2,6.32-6.38,9.52-9.53c1.16-1.14,2.1-2.66,4.04-2.63c0.06,21.29,1.9,42.54,0.92,64.4c4.22-1.69,5.64-5.15,7.01-8.25
			c3.93-8.89,6.03-18.32,6.13-28.01c0.14-14.15,7.66-23.57,18.76-30.92c0.33-0.22,0.92-0.03,2.16-0.03
			c-3.35,3.13-6.27,5.86-9.19,8.58c-6.61,6.15-9.36,13.97-9.63,22.76c-0.32,10.76-2.69,21.01-7.32,30.72
			c-0.64,1.34-1.32,2.92-2.46,3.71c-5.66,3.95-5.51,9.65-5.32,15.59c0.25,7.49,0.17,14.99,0.23,22.48
			c-1.05,5.9-0.6,11.87-0.42,17.78c0.18,5.66,0.09,10.56-7.07,11.4c-17.24,3.52-34.55,6.43-52.2,6.79
			c-4.27-0.41-8.53-0.48-12.8,0.05c-7.4-0.6-14.8-1.18-22.2-1.8c-10.04-0.85-19.79-3.41-29.7-5c-1.18-0.74-2.42-1.31-3.86-1.28
			c-0.28-0.06-0.57-0.12-0.85-0.19C457.81,439.32,457.1,439.05,456.38,438.77z M553.32,397.66c2.95,0.19,4.96-0.57,4.55-1.68
			c-0.79-2.21-2.85-1.13-4.33-1.17c-8.24-0.19-16.14-2.27-23.75-5c-17.21-6.16-31.24-17.31-44.4-29.67
			c-0.9-0.84-1.48-3.04-2.91-2.03c-1.96,1.38,0.38,2.64,1.06,3.61c3.86,5.54,9.59,9.13,14.75,13.24
			C514.42,387.8,532.54,396.01,553.32,397.66z M549.73,384.44c-3.9-4.26-8.48-3.22-12.27-4.56c-10.24-3.63-19.42-9.04-27.97-15.64
			c-1-0.78-2.28-2.26-3.37-0.82c-1.06,1.4,0.79,2.32,1.69,3.09c7.39,6.29,15.79,10.89,24.8,14.41
			C537.79,382.93,542.93,385.29,549.73,384.44z"/>
		<path fill="#F9A584" d="M383.38,143.23c-0.63-0.01-1.26-0.02-1.88-0.02c-0.83-0.46-1.48-0.28-1.94,0.57
			c-3.47,7.47-6.74,15.08-13.86,20.02c-3.48,0.33-6.26,3.15-9.88,2.85c-4.99-0.41-10.02-0.59-14.86-2.07
			c-8.25-5.43-13.06-13.1-14.79-22.76c-1.35-7.73-2.02-15.47-0.65-23.28c0.29-1.64,0.16-3.64,2.4-3.76c5.42-0.28,7.13-3.94,8.2-8.39
			c0.2-0.84,0.08-2.1,1.48-2.25c0.97,0.45,0.73,1.38,0.86,2.13c1.28,7.36,5.91,9.61,12.96,6.55c2.53-1.1,2.1-3.14,2.22-5
			c0.09-1.27,0.23-2.53,1.48-2.77c1.68-0.32,1.54,1.41,1.88,2.38c1.74,4.98,8.33,8.06,13.27,6.24c1.36-0.5,1.69-1.51,1.83-2.67
			c0.22-1.77,0.33-3.55,0.5-5.45c1.74,0.8,1.58,2.26,1.89,3.49c0.28,1.13,0.28,2.95,0.96,3.25c7.25,3.28,3.2,9.57,4.05,14.52
			c0.04,0.56,0.07,1.12,0.11,1.68c0.45,1.09,0.61,2.35,1.75,3.04c0.01,1.48,0.46,3.15-0.07,4.41c-1.49,3.59,0.13,5.07,3.31,5.84
			c-0.2,0.4-0.39,0.8-0.58,1.2C383.73,142.87,383.52,142.96,383.38,143.23z M352.78,155.35c3.72-0.28,6.34-2.03,7.9-5.31
			c1.21-2.53,0.94-4.17-2.41-4.1c-3.15,0.07-6.31-0.16-9.44,0.09c-1.87,0.14-4.88-1.43-5.26,1.88c-0.36,3.09,2.05,5.12,4.47,6.51
			C349.4,155.19,351.26,155.08,352.78,155.35z M332.23,119.09c4.56-0.34,8.15-0.58,11.74-0.88c0.83-0.07,1.67-0.33,1.7-1.4
			c0.02-0.83-0.61-1.2-1.3-1.12C340.46,116.16,336.05,114.74,332.23,119.09z M372.53,119.02c-3.53-4.13-8.27-1.58-11.68-3.51
			c-0.19-0.11-1.46,0.97-1.53,1.58c-0.13,1.01,0.98,1.17,1.79,1.23C364.66,118.57,368.22,118.76,372.53,119.02z M356.31,139.87
			c-5.65,0.89-4.47-2.88-4.89-5.86c-0.36-2.55,1.8-5.12-0.27-7.59c-0.73,3.39-0.58,6.78-0.77,10.16
			C350.12,141.24,352.59,141.21,356.31,139.87z M367.44,126.15c-0.11-1.35-0.25-2.94-1.98-2.91c-1.68,0.03-1.94,1.6-1.94,2.97
			c-0.01,1.39,0.25,2.9,2,2.88C367.31,129.09,367.34,127.51,367.44,126.15z M339.49,129.19c1.66-0.15,2.01-1.35,2.1-2.72
			c0.08-1.37-0.17-2.85-1.61-3.18c-1.65-0.39-2.21,1.01-2.33,2.38C337.53,127.15,337.64,128.62,339.49,129.19z M356.39,157.3
			c-2.05,0.11-3.61,0.29-5.16,0.25c-1.01-0.03-2.44-1.21-2.5,0.85c-0.03,1.25,1.27,1.37,2.24,1.32
			C352.81,159.63,355.01,160.41,356.39,157.3z"/>
		<path fill="#EE7B5D" d="M384.6,141.78c-3.18-0.77-4.8-2.25-3.31-5.84c0.52-1.26,0.07-2.93,0.07-4.41c1.59-1.86,1.8-4.21,2.4-6.44
			c0.36-1.32,0.14-3.32,2.31-3.22c1.86,0.09,3,1.55,3.56,3.11c1.63,4.5,0.62,8.8-1.41,12.94c-0.5,1.03-1.14,1.99-1.72,2.98
			C385.87,141.19,385.23,141.49,384.6,141.78z"/>
		<path fill="#020E2C" d="M326.17,141.81c1.73,9.66,6.54,17.33,14.79,22.76c-0.52,1.77-0.38,3.54-0.09,5.32c0,0-0.47-0.02-0.47-0.02
			c-10.97-1.88-10.83-5.11-13.65-17.04C325.95,149.47,324.14,145.58,326.17,141.81z"/>
		<path fill="#EE7B5D" d="M379.61,128.49c-0.04-0.56-0.07-1.12-0.11-1.68C380.04,127.34,380.14,127.89,379.61,128.49z"/>
		<path fill="#EE7B5D" d="M340.52,175.13c-0.37,0.17-0.74,0.34-1.11,0.5C339.79,175.47,340.15,175.3,340.52,175.13z"/>
		<path fill="#B4DCEF" d="M613.64,424.78c1.75,5.57,0.52,11.3,0.9,16.94c0.12,1.72-0.71,3.63,0.9,5.09
			c-0.03,1.49-0.29,2.88-1.8,4.22C613.64,442.06,613.64,433.42,613.64,424.78z"/>
		<path fill="#056ADB" d="M611.48,471.72c-1.38,1.5-2.41,1.4-3.01-0.65C609.58,470.75,610.67,470.61,611.48,471.72z"/>
		<path fill="#EE7B5D" d="M487.39,124.3c1.86,1.14,3.97,1.37,6.07,1.58c-5.93,6.64-1.24,13.81-1.03,20.76
			c-9.79-1.7-13.89-12.97-7.92-21.76c0.3-0.13,0.61-0.27,0.92-0.4C486.08,124.42,486.74,124.36,487.39,124.3z"/>
		<path fill="#DCE0E6" d="M485.42,124.48c-0.31,0.13-0.61,0.27-0.92,0.4C484.63,124.33,484.87,124.05,485.42,124.48z"/>
		<path fill="#EE7B5D" d="M635.25,180.97c2.62,1.75,5.25,3.45,7.79,5.27c0.51,0.36,0.52,1.28-0.06,1.77
			c-0.29,0.24-0.99,0.34-1.29,0.16c-2.56-1.54-5.08-3.15-7.57-4.79c-0.64-0.42-0.64-1.19-0.25-1.77
			C634.08,181.3,634.65,181.23,635.25,180.97z"/>
		<path fill="#FCFDFD" d="M614.96,81.22c-0.1-0.25-0.23-0.48-0.28-0.73c-0.02-0.08,0.18-0.2,0.28-0.3c0.11,0.24,0.24,0.47,0.3,0.72
			C615.28,80.99,615.08,81.11,614.96,81.22z"/>
		<path fill="#FCFDFD" d="M520.28,148.63c1.49,0,2.99-0.12,4.46,0.03c1.72,0.18,4.26-1.03,4.97,0.8c0.83,2.13-1.3,3.86-2.81,5.35
			c-5.24,5.17-13.45,3.51-16.47-3.21c-1-2.23-0.41-3.03,1.92-2.99C514.99,148.67,517.63,148.63,520.28,148.63z"/>
		<path fill="#EE7B5D" d="M531.95,168.42c0.29,2.09-1.56,2.26-2.72,2.95c-5.64,3.38-11.89,2.35-17.97,2.27
			c-2.43-0.03-3.04-1.87-2.7-3.87c0.56-3.29,2.46-1,3.68-0.63C517.54,170.76,520.57,170.71,531.95,168.42z"/>
		<path fill="#EE7B5D" d="M516.28,133.64c0.13-1.58,0.25-3.17,0.38-4.75c2.3-0.33,2.87,0.93,2.8,2.92c-0.07,2.15,0.04,4.3-0.06,6.44
			c-0.12,2.61-0.21,5.09,3.81,4.03c-0.73,2.7-2.39,2.65-4.03,2.13c-1.47-0.46-1.58-1.85-1.78-3.23
			C517.07,138.67,518.5,135.87,516.28,133.64z"/>
		<path fill="#EE7B5D" d="M515.35,161.28c3.05-0.58,5.31-0.79,8.38,0.23C520.63,163.46,518.38,164.66,515.35,161.28z"/>
		<path fill="#036BDE" d="M339.73,9.15c-0.04,0.11-0.08,0.32-0.13,0.32c-0.13,0-0.27-0.08-0.4-0.12c0.04-0.11,0.08-0.32,0.13-0.32
			C339.46,9.03,339.59,9.11,339.73,9.15z"/>
		<path fill="#F9A584" d="M500.79,122.11c-2.23,5.07-5.01,0.97-7.57,0.46c2.74-5.31,5.46-10.5,2.66-16.83
			c-0.94-2.13,0.71-3.8,3.17-3.94c13.25-0.71,26.52-0.89,39.74,0.18c5.45,0.44,6.22,2.61,3.68,7.68c-1.55,3.09-2.04,5.63,1.98,7.17
			c2.63,1,2.43,3.72,3.21,5.83c-1.71,0.55-3.47,1-5.12,1.68c-2.45,1.01-3.71-0.11-4.53-2.24c1.27-0.9,1.71-1.97,0.57-3.25
			c-1.11-1.24-9.04-1.78-10.38-0.69c-1.44,1.16-0.61,2.26,0.22,3.31c-3.12,4.95-8.52,3.07-12.8,3.63c-2.02,0.27-4.46-3.4-7.49-3.91
			c1.2-0.5,3.45,0.37,3.2-2.03c-0.19-1.79-1.98-1.49-3.2-1.51c-1.97-0.03-3.99,0-5.91,0.39
			C499.79,118.55,498.58,119.82,500.79,122.11z"/>
		<path fill="#056ADB" d="M88.22,444.75c-2.76-0.38-1.06-3.18-2.63-4.61c-2.97,3.32-1.23,7.1-0.88,10.48
			c0.23,2.17,0.52,3.86-1.46,5.19c-1.15-7.79-1.89-15.55,1.47-23.04c0.47-1.05,1.01-2.09,1.65-3.06c0.5-0.75,0.85-2.08,2.14-1.51
			c1.09,0.48,0.85,1.67,0.77,2.65C88.93,435.49,88.57,440.12,88.22,444.75z"/>
		<path fill="#056ADB" d="M100.17,428.62c3.14,5.05,3.08,5.26-1.65,6.13C98.6,432.58,99.14,430.53,100.17,428.62z"/>
		<path fill="#056ADB" d="M97.32,437.19c0.43,4.28-1.23,7.47-4.97,9.58C94,443.57,95.66,440.38,97.32,437.19z"/>
		<path fill="#056ADB" d="M101.39,423.64c0.05,1.16,0.27,2.37-0.96,3.13c0.02-1.04,0.05-2.09,0.07-3.13
			C100.8,423.69,101.1,423.69,101.39,423.64z"/>
		<path fill="#056ADB" d="M92.22,446.99c-0.02,0.62-0.04,1.35-0.86,1.32c-0.33-0.01-0.65-0.54-0.97-0.84
			C91,447.32,91.61,447.15,92.22,446.99z"/>
		<path fill="#056ADB" d="M98.34,435.32c-0.31,0.48-0.61,0.97-0.92,1.45C97.73,436.29,98.04,435.8,98.34,435.32z"/>
		<path fill="#EE7B5D" d="M340.87,169.9c-0.29-1.78-0.43-3.56,0.09-5.32c4.84,1.48,9.87,1.66,14.86,2.07
			c3.63,0.3,6.41-2.52,9.88-2.85c-0.03,0.64-0.06,1.27-0.09,1.91C358,170.83,349.69,171.9,340.87,169.9z"/>
		<path fill="#F9A584" d="M539.51,130.74c0,4.5-2.9,7.21-7.65,7.15c-4.16-0.05-7.32-3.08-7.37-7.05c-0.04-3.94,4.09-7.9,8.09-7.76
			C536.46,123.2,539.51,126.57,539.51,130.74z M534.11,130.34c-0.18-1.43-0.31-3.24-2.17-3.24c-1.55,0-1.9,1.65-1.87,2.99
			c0.03,1.43,0.02,3.3,2.04,3.26C533.68,133.31,533.92,131.71,534.11,130.34z"/>
		<path fill="#F9A584" d="M506.63,137.9c-4.93,0.02-7.38-2.45-7.31-7.34c0.07-4.66,2.42-6.96,7.14-6.98
			c4.42-0.02,7.79,3.19,7.7,7.32C514.08,134.82,510.77,137.89,506.63,137.9z M509.2,130.39c-0.19-1.46-0.4-3.2-2.28-3.2
			c-1.59,0-1.99,1.51-1.94,2.92c0.05,1.49,0.13,3.27,2.12,3.23C508.64,133.31,509.02,131.8,509.2,130.39z"/>
		<path fill="#1E335A" d="M528.4,121.48c-0.83-1.06-1.66-2.15-0.22-3.31c1.35-1.09,9.28-0.55,10.38,0.69
			c1.14,1.28,0.7,2.35-0.57,3.25C534.85,121.15,531.67,120.57,528.4,121.48z"/>
		<path fill="#1E335A" d="M500.79,122.11c-2.21-2.29-1-3.56,1.42-4.06c1.92-0.39,3.94-0.42,5.91-0.39c1.22,0.02,3.01-0.28,3.2,1.51
			c0.25,2.4-2,1.53-3.2,2.03C505.61,121.02,503.16,121.26,500.79,122.11z"/>
		<path fill="#EE7B5D" d="M379.56,143.78c0.45-0.85,1.1-1.03,1.94-0.57C381.22,144.63,380.59,144.87,379.56,143.78z"/>
		<path fill="#EE7B5D" d="M383.38,143.23c0.14-0.27,0.36-0.35,0.64-0.25C384.02,143.63,383.81,143.71,383.38,143.23z"/>
		<path fill="#020E2C" d="M245.57,437.72c-0.09,5.35-0.18,10.71-0.28,16.06c-10.08,0.61-20.17,1.71-30.25,1.68
			c-7.37-0.02-14.86-0.02-22.18-1.59c-0.83-9.45-0.83-9.45,5.69-10.53c2.36,0.47,4.65,0.14,6.91-0.55c0.66-0.03,1.33-0.05,1.99-0.08
			c11.58-0.08,22.88-2.38,34.22-4.35C242.98,438.13,244.27,437.93,245.57,437.72z"/>
		<path fill="#B4DCEF" d="M287.44,450.72c0.54-4.22-1.41-5.44-5.52-6.12c-9.43-1.56-18.64-4.29-27.73-7.3
			c-0.36-0.12-0.55-0.77-0.82-1.17c0.87-0.52,1.74-1.04,2.61-1.57c4.03,2.57,8.54,2.21,13.01,2.2c6.81-0.01,13.61,0.05,20.42,0.08
			c0.05,0.33,0.18,0.63,0.38,0.9c-0.51,4.29-1.02,8.58-1.53,12.88c0,0,0.05-0.07,0.05-0.07
			C287.99,450.56,287.71,450.62,287.44,450.72z"/>
		<path fill="#274DBF" d="M237.51,291.14c1.55,1.21,1.82,2.64,1.9,4.18c0.6,12.41-0.23,24.55-6.24,35.82
			c-3.13,5.87-5.25,12.07-5.75,18.77c-0.08,1.12,0.11,2.66-1.58,2.52c-1.6-0.14-1.28-1.68-1.33-2.79
			c-0.19-4.78,1.33-9.28,3.31-13.41c6.35-13.2,10.17-26.83,8.66-41.62c-0.08-0.81,0.04-1.66,0.16-2.48
			C236.68,291.86,237.04,291.66,237.51,291.14z"/>
		<path fill="#274DBF" d="M255.67,280.15c-0.13,0.86-0.25,1.72-0.38,2.57c-5.97-8.87-11.94-17.73-17.93-26.59
			c-0.51-0.75-0.91-1.63,0.08-2.05c1.29-0.56,2.14,0.38,2.83,1.4c3.23,4.78,6.65,9.45,9.63,14.37
			C251.94,273.2,254.89,276.09,255.67,280.15z"/>
		<path fill="#274DBF" d="M255.33,286.85c0.17,0.26,0.18,0.53,0.02,0.79c-0.12-0.19-0.25-0.37-0.33-0.57
			C255.01,287.05,255.22,286.93,255.33,286.85z"/>
		<path fill="#F9A584" d="M187.59,143.8c-2.09,1.83-4.3,0.95-6.6,0.43c-5.5-1.24-11.09-2.9-16.33,0.89
			c-1.56,1.13-2.19-0.13-2.56-1.15c-3.02-8.27-6.55-16.52-2.31-25.44c0.87-1.84,1.31-3.64,1.17-5.75c-0.32-4.85,2.83-8.43,7.75-8.32
			c5.95,0.14,11.34-0.99,16.89-3.34c9.36-3.96,19.27,1.68,21.75,11.57c0.2,0.8,0.27,1.91,0.81,2.3c3.48,2.46,3.88,5.92,3.57,9.73
			c-0.54,6.65-0.84,13.34-5.17,18.95c-0.56,0.73-1.04,2.15-2.18,1.28c-5.43-4.12-11.21-1.41-16.88-1.09
			c0.02-0.63,0.04-1.27,0.06-1.9c-3.91-0.12-2.96-3.03-3.17-5.38c-0.24-2.72,0.87-5.67-1.27-8.93c-1.12,4.16-0.41,7.62-0.72,11.01
			C182.04,142.56,183.73,144.23,187.59,143.8z M166.39,122.58c3.27-0.61,6.72-0.95,10.2-0.73c1.53,0.1,2.58-0.4,2.73-2.09
			c0.14-1.55-0.96-1.9-2.13-2.21c-4-1.09-7.87-0.2-11.7,0.86c-1.48,0.41-2.03,1.63-1.68,3.13
			C164.14,122.87,165.26,122.6,166.39,122.58z M202.67,121.79c1.03,0.58,2.4,1.55,2.85-0.21c0.35-1.39,0.16-2.77-1.45-3.18
			c-3.82-0.99-7.65-2-11.64-0.82c-1.2,0.35-2.15,0.83-1.98,2.33c0.17,1.43,1.07,1.9,2.39,1.89
			C196.12,121.78,199.39,121.79,202.67,121.79z M197.39,132.72c1.64-0.63,1.93-2.01,1.71-3.54c-0.19-1.32-0.66-2.8-2.38-2.33
			c-1.79,0.5-1.58,2.24-1.47,3.67C195.36,131.72,195.85,132.72,197.39,132.72z M174.25,129.39c-0.4-1.08-0.45-2.81-2.14-2.68
			c-1.92,0.15-1.95,1.93-1.93,3.41c0.01,1.2,0.4,2.54,1.75,2.56C173.86,132.71,174.04,131.03,174.25,129.39z"/>
		<path fill="#F9A584" d="M184.31,147.37c3.3-0.33,6.59-0.96,9.89,0.2c2.23,0.78,3.74,2.07,4.16,4.48c0.41,2.38-1.03,3.66-2.74,4.87
			c-7.38,5.22-16.2,4.97-23.1-0.7c-3.53-2.89-2.94-6.66,1.42-8.22C177.28,146.8,180.8,146.9,184.31,147.37z M184.18,148.94
			c0-0.01,0-0.01,0-0.02c-1.99,0-3.99,0.05-5.98-0.01c-3.49-0.12-3.46,1.48-2.17,4.01c2.99,5.89,12.14,6.85,15.88,1.56
			c0.92-1.31,2.19-2.82,1.32-4.54c-0.84-1.66-2.67-0.89-4.08-0.98C187.51,148.86,185.85,148.94,184.18,148.94z"/>
		<path fill="#F7FAFC" d="M198.56,443.33c-6.53,1.08-6.53,1.08-5.69,10.53c-0.6,5.61-0.25,11.23,0.03,16.84
			c-3.43,1.49-6.95,0.5-10.44,0.39c-0.66-0.16-1.33-0.32-1.99-0.49c0,0-0.28-0.27-0.28-0.27s-0.38,0.03-0.38,0.03
			c-0.18-1.55-0.37-3.1-0.55-4.65c0.12-6.12,0.12-12.25,0.42-18.36c0.14-2.92-0.98-3.63-3.71-3.61c-3.79,0.02-7.62,0.01-11.35-0.98
			c0.32-3.01,0.64-6.02,0.96-9.03c1.68-2.17,0.74-4.64,0.84-7c0,0,0.01-0.04,0.01-0.04c5.5,0.38,10.83-0.45,16.17-1.75
			c5.6-1.37,11.27-2.61,17.12-2.16C199.33,429.64,198.94,436.49,198.56,443.33z"/>
		<path fill="#FCFDFD" d="M209.57,200.94c-0.76,4.61-1.52,9.22-2.28,13.82c-1.59,1.16-3.42,1.08-5.24,1.01
			c-7.47-0.28-14.71,1.22-21.99,2.59c-4.76,0.89-9.6,2.86-14.49,0.39c-0.06-0.6-0.13-1.2-0.19-1.81c0.04-0.12,0.12-0.25,0.1-0.36
			c-0.05-0.24-0.16-0.47-0.24-0.7c-0.1-0.74-0.19-1.48-0.29-2.22c0.77-1.03,0.79-1.99-0.28-2.84c-0.09-0.66-0.18-1.33-0.27-1.99
			c-0.48-4.42,0.88-6.62,5.94-6.26c3.2,0.23,6.53-0.84,9.75-1.56c8.31-1.86,16.69-2.74,25.2-2.25
			C207.03,198.85,209.11,198.3,209.57,200.94z"/>
		<path fill="#FCFDFD" d="M204.43,266.75c0.04,0.94,0.08,1.87,0.12,2.81c0.03,0.52,0.06,1.04,0.09,1.56
			c0.72,4.16,0.86,8.34,0.48,12.54c-2.55-0.8-5.18-1.23-7.81-0.79c-8.26,1.38-16.5,2.84-24.73,4.38c-2.96,0.55-5.84,1.3-8.15-1.46
			c0.07-2.03,0.13-4.05,0.2-6.08c1.22-1.21,1.12-2.51,0.26-3.86c-0.24-2.06-0.12-4.09,0.64-6.05c3.13-0.24,6.24-0.08,9.41-0.6
			c9.45-1.57,18.79-4.24,28.53-3.48C203.79,266.06,204.11,266.4,204.43,266.75z"/>
		<path fill="#FCFDFD" d="M205.15,288.84c0.29,4.03,0.31,8.04-0.39,12.04c-0.06,0.72-0.11,1.44-0.17,2.15
			c-0.04,0.57-0.08,1.13-0.12,1.7c-4.88,2.37-10.17,0.33-15.24,1.52c-7.87,1.85-15.76,4.01-24,3.59c-0.12-1.06-0.23-2.12-0.35-3.18
			c0.86-1.33,0.94-2.62-0.21-3.84c-0.09-2.02-0.18-4.05-0.26-6.07c1.09-2.7,2.45-4.88,6.01-4.07c0.89,0.2,1.94-0.23,2.91-0.4
			C183.87,290.42,194.28,287.5,205.15,288.84z"/>
		<path fill="#FCFDFD" d="M205.57,226.93c-0.37,3.61-0.74,7.21-1.11,10.82c-8.67,0.91-17.36,1.51-25.93,3.36
			c-3.53,0.76-7.23,2.75-11.02,0.65c-0.07-1.24-0.14-2.49-0.2-3.73c-0.02-0.38-0.04-0.75-0.06-1.13c-0.15-2.07-0.3-4.14-0.44-6.2
			c0.9-1.03,0.89-2-0.2-2.89c-0.06-0.69-0.13-1.37-0.19-2.06c2.85-1.78,6.14-0.9,9.2-1.41c7.75-1.29,15.39-3.25,23.31-3.66
			C203.83,220.41,206.13,221.87,205.57,226.93z"/>
		<path fill="#FCFDFD" d="M203.74,313.2c-0.11,4.55-0.36,9.09-1.39,13.55c-3.68,1.6-7.71,1.23-11.54,1.99
			c-7.52,1.49-15.06,2.86-22.6,4.29c0,0,0.02-0.11,0.02-0.11c0.32-1.16,0.44-2.27-0.62-3.16c-0.43-3.28-0.85-6.55-1.28-9.83
			c-0.33-3.91,1.15-5.89,5.37-5.23c0.92,0.14,1.93-0.37,2.91-0.49c8.19-0.96,16.03-4.26,24.48-3.49
			C201.07,310.9,203.22,310.42,203.74,313.2z"/>
		<path fill="#FCFDFD" d="M166.44,261.77c0.36-3.67,0.73-7.33,1.09-11c0.94-2.03,2.4-3.18,4.75-3.47
			c10.37-1.28,20.48-4.75,31.14-3.53c-0.01,5.65-0.02,11.3-0.04,16.95c-6.55,0.09-13.1-0.13-19.54,1.72
			c-3.91,1.12-8,1.78-12.05,2.24C169.62,264.92,166.48,265.89,166.44,261.77z"/>
		<path fill="#FCFDFD" d="M200.54,412.9c-0.05,0.62-0.1,1.23-0.14,1.85c-1.13,1.23-1.35,3.27-3.91,3.09
			c-4.15-0.29-8.14,1.29-12.22,1.68c-5.79,0.56-11.42,3.88-17.44,1.27c0.27-3.35,0.55-6.71,0.82-10.06
			c1.46-1.89,0.77-4.02,0.67-6.08c0,0-0.02-0.03-0.02-0.03c1.83,0.12,3.61-0.22,5.42-0.39c9.21-0.85,18.06-4.54,27.51-3.4
			c0.29,3.36,0.24,6.71-0.46,10.03C200.69,411.55,200.62,412.23,200.54,412.9z"/>
		<path fill="#FCFDFD" d="M201.29,377.81c0.52,5.96,0.56,11.93,0.03,17.89c-8.99-0.89-17.62,1.55-26.27,3.24
			c-4.23,0.83-5.85-0.2-6.24-4.14c0.24-3.68,0.47-7.35,0.71-11.03c0.73-0.63,1.43-1.75,2.21-1.82
			C181.66,381.09,191.19,377.41,201.29,377.81z"/>
		<path fill="#FCFDFD" d="M201.4,333.76c0.17,3.04-0.13,6.04-0.9,8.99c-1.66,1.45-0.92,3.41-1.03,5.15
			c-0.11,1.74-0.59,2.98-2.57,2.83c-6.58-0.5-12.7,1.84-19.03,2.93c-6.65,1.15-6.83,0.88-7.42-5.65c-0.07-0.77-0.54-1.5-0.83-2.25
			c-0.24-2.02-0.48-4.03-0.73-6.05c0.85-1.5,2.06-2.63,3.79-2.84C182.24,335.75,191.6,332.74,201.4,333.76z"/>
		<path fill="#DCE0E6" d="M169.6,345.76c0.29,0.75,0.76,1.48,0.83,2.25c0.59,6.54,0.78,6.8,7.42,5.65
			c6.33-1.09,12.45-3.43,19.03-2.93c1.98,0.15,2.46-1.09,2.57-2.83c0.11-1.74-0.62-3.71,1.03-5.15c0,8.34-0.01,16.68-0.01,25.03
			c-2.02-2.49-0.99-5.44-0.99-8.14c0-3.09-1.13-4.06-4.11-3.93c-4.66,0.19-9.17,1.17-13.66,2.2c-11.74,2.68-11.64,2.75-11.28,15.21
			c0.1,3.24,1.04,3.76,4.21,3.22c8.76-1.49,17.4-4.02,26.42-3.66c0.53,1.7,0.47,3.42,0.2,5.15c-10.1-0.4-19.63,3.28-29.57,4.14
			c-0.78,0.07-1.48,1.19-2.21,1.82C169.54,371.1,169.57,358.43,169.6,345.76z"/>
		<path fill="#DCE0E6" d="M209.57,200.94c-0.46-2.64-2.54-2.09-4.3-2.19c-8.51-0.49-16.89,0.39-25.2,2.25
			c-3.22,0.72-6.55,1.79-9.75,1.56c-5.06-0.36-6.41,1.85-5.94,6.26c-1.52-3.87-1.3-7.99-1.71-12.02c5.27,2.46,10.49,0.44,15.54-0.58
			c9.13-1.85,18.25-2.96,27.57-2.5c1.69,0.08,3.29,0.28,4.79,1.08C210.58,196.91,210.65,199.02,209.57,200.94z"/>
		<path fill="#DCE0E6" d="M205.15,288.84c-10.87-1.34-21.29,1.57-31.81,3.43c-0.97,0.17-2.02,0.6-2.91,0.4
			c-3.55-0.81-4.92,1.37-6.01,4.07c-0.76-3.65-0.27-7.31,0.01-10.96c2.31,2.76,5.19,2.02,8.15,1.46c8.23-1.54,16.47-3,24.73-4.38
			c2.63-0.44,5.26-0.01,7.81,0.79C205.13,285.39,205.14,287.12,205.15,288.84z"/>
		<path fill="#DCE0E6" d="M205.57,226.93c0.57-5.05-1.74-6.52-6.65-6.26c-7.92,0.41-15.56,2.38-23.31,3.66
			c-3.06,0.51-6.35-0.37-9.2,1.41c-1.03-2.24-0.92-4.62-0.85-6.99c4.89,2.47,9.73,0.51,14.49-0.39c7.28-1.37,14.52-2.86,21.99-2.59
			c1.82,0.07,3.65,0.15,5.24-1.01C206.92,218.85,206.9,222.98,205.57,226.93z"/>
		<path fill="#DCE0E6" d="M203.74,313.2c-0.52-2.78-2.68-2.3-4.65-2.48c-8.45-0.77-16.29,2.53-24.48,3.49
			c-0.98,0.12-1.99,0.63-2.91,0.49c-4.22-0.66-5.69,1.32-5.37,5.23c-1.38-3.25-0.99-6.7-1.09-10.09c8.24,0.42,16.12-1.74,24-3.59
			c5.07-1.19,10.36,0.85,15.24-1.52C204.43,307.57,204.94,310.46,203.74,313.2z"/>
		<path fill="#DCE0E6" d="M166.44,261.77c0.05,4.12,3.18,3.16,5.35,2.91c4.05-0.47,8.14-1.12,12.05-2.24
			c6.44-1.85,12.99-1.63,19.54-1.72c0.03,1.67,0.06,3.34,0.09,5.01c-9.74-0.77-19.08,1.91-28.53,3.48c-3.17,0.53-6.28,0.36-9.41,0.6
			C165.53,267.09,165.13,264.33,166.44,261.77z"/>
		<path fill="#DCE0E6" d="M203.41,243.76c-10.65-1.22-20.77,2.25-31.14,3.53c-2.35,0.29-3.81,1.44-4.75,3.47
			c0-3-0.01-6.01-0.01-9.01c3.79,2.1,7.49,0.12,11.02-0.65c8.57-1.85,17.26-2.45,25.93-3.36c0,0.35,0,0.69,0,1.04
			C202.77,240.16,203.73,242.1,203.41,243.76z"/>
		<path fill="#DCE0E6" d="M201.4,333.76c-9.8-1.02-19.16,1.98-28.72,3.11c-1.73,0.2-2.94,1.34-3.79,2.84
			c-0.22-2.23-0.44-4.46-0.66-6.69c7.53-1.42,15.07-2.8,22.59-4.29c3.83-0.76,7.86-0.38,11.54-1.99
			C202.75,329.18,201.99,331.46,201.4,333.76z"/>
		<path fill="#DCE0E6" d="M166.83,420.8c6.02,2.61,11.65-0.71,17.44-1.27c4.08-0.39,8.07-1.97,12.22-1.68
			c2.56,0.18,2.78-1.87,3.91-3.09c0.25,2.72,0.37,5.43-0.68,8.04c-5.85-0.45-11.52,0.8-17.12,2.16c-5.34,1.3-10.68,2.14-16.17,1.75
			C166.56,424.74,166.7,422.77,166.83,420.8z"/>
		<path fill="#DCE0E6" d="M168.81,394.81c0.39,3.95,2.01,4.97,6.24,4.14c8.65-1.69,17.28-4.13,26.27-3.24
			c-0.03,1.71-0.06,3.42-0.08,5.14c-9.44-1.14-18.3,2.55-27.51,3.4c-1.81,0.17-3.59,0.51-5.42,0.39
			C168.47,401.36,168.64,398.08,168.81,394.81z"/>
		<path fill="#DCE0E6" d="M166.41,426.75c-0.1,2.36,0.84,4.83-0.84,7C165.47,431.37,165.14,428.96,166.41,426.75z"/>
		<path fill="#DCE0E6" d="M168.33,404.66c0.1,2.06,0.79,4.19-0.67,6.08C167.48,408.67,167.11,406.58,168.33,404.66z"/>
		<path fill="#DCE0E6" d="M164.68,302.82c1.15,1.22,1.07,2.51,0.21,3.84C164.82,305.38,164.75,304.1,164.68,302.82z"/>
		<path fill="#DCE0E6" d="M164.88,275.85c0.86,1.35,0.97,2.65-0.26,3.86C164.71,278.42,164.79,277.13,164.88,275.85z"/>
		<path fill="#DCE0E6" d="M166.61,227.8c1.1,0.89,1.1,1.86,0.2,2.89C166.74,229.73,166.68,228.77,166.61,227.8z"/>
		<path fill="#DCE0E6" d="M164.66,210.82c1.07,0.85,1.05,1.81,0.28,2.84C164.85,212.71,164.75,211.76,164.66,210.82z"/>
		<path fill="#DCE0E6" d="M167.61,329.76c1.06,0.88,0.95,2,0.62,3.16C167.27,332.02,167.36,330.9,167.61,329.76z"/>
		<path fill="#DCE0E6" d="M161.76,190.79c0.97,0.94,0.81,2.06,0.53,3.2C161.46,193.04,161.42,191.95,161.76,190.79z"/>
		<path fill="#DCE0E6" d="M165.23,215.88c0.08,0.23,0.19,0.46,0.24,0.7c0.02,0.11-0.06,0.24-0.1,0.36c-0.13-0.24-0.3-0.47-0.38-0.72
			C164.96,216.14,165.14,215.99,165.23,215.88z"/>
		<path fill="#DCE0E6" d="M167.26,236.9c0.02,0.37,0.04,0.75,0.06,1.13c-0.11-0.26-0.26-0.51-0.32-0.78
			C166.98,237.15,167.16,237.01,167.26,236.9z"/>
		<path fill="#FCFDFD" d="M201.09,372.66c-9.02-0.35-17.66,2.18-26.42,3.66c-3.18,0.54-4.12,0.02-4.21-3.22
			c-0.37-12.46-0.46-12.52,11.28-15.21c4.49-1.03,9-2,13.66-2.2c2.98-0.12,4.1,0.84,4.11,3.93c0,2.7-1.03,5.65,0.99,8.14
			c0.06,0.53,0.12,1.06,0.18,1.59c-0.04,0.16-0.16,0.34-0.12,0.47c0.08,0.31,0.23,0.6,0.35,0.89
			C200.96,371.37,201.02,372.02,201.09,372.66z"/>
		<path fill="#B4DCEF" d="M203.41,243.76c0.32-1.67-0.64-3.6,1.05-4.98c-0.01,9.32-0.02,18.64-0.03,27.96
			c-0.32-0.34-0.65-0.68-0.97-1.03c-0.03-1.67-0.06-3.34-0.09-5.01C203.39,255.06,203.4,249.41,203.41,243.76z"/>
		<path fill="#DCE0E6" d="M204.59,303.03c0.06-0.72,0.11-1.44,0.17-2.15C205.27,301.64,205.14,302.35,204.59,303.03z"/>
		<path fill="#DCE0E6" d="M200.54,412.9c0.08-0.68,0.15-1.35,0.23-2.03C201.29,411.62,201.08,412.28,200.54,412.9z"/>
		<path fill="#DCE0E6" d="M204.64,271.12c-0.03-0.52-0.06-1.04-0.09-1.56C205.09,270.05,205.14,270.57,204.64,271.12z"/>
		<path fill="#DCE0E6" d="M200.9,370.73c-0.12-0.3-0.28-0.58-0.35-0.89c-0.04-0.14,0.08-0.31,0.12-0.47
			C200.74,369.82,200.82,370.28,200.9,370.73z"/>
		<path fill="#18315B" d="M179.26,465.72c0.18,1.55,0.37,3.1,0.55,4.65c-9.96,1.08-19.95,0.26-29.92,0.47
			c-5.33,0.11-10.66,0.01-15.99,0.01c-6.9-0.01-7.1,0-7.25-6.75c-0.16-7.14,0.11-14.3,0.19-21.44c15.54,4.63,31.36,7.97,47.44,9.92
			c3.61,0.44,4.37,1.63,4.31,4.85C178.54,460.18,177.75,463.07,179.26,465.72z"/>
		<path fill="#036BDE" d="M82.5,405.22c-1.13,0.17-1.01-0.7-1.14-1.37C82.13,403.98,82.45,404.49,82.5,405.22z"/>
		<path fill="#056ADB" d="M109.39,440.76c-1.34-0.23-2.45-0.55-0.87-2.03C109.27,439.21,109.44,439.94,109.39,440.76z"/>
		<path fill="#1E335A" d="M447.76,432.82c-1.97-1.26-1.27-3.27-1.27-4.99c-0.04-29.53-0.03-59.05-0.02-88.58
			c0-2.11-0.47-4.44,2.15-5.56c0.9,1.55,0.51,3.24,0.51,4.87c0.03,29.21,0.03,58.41,0.02,87.62
			C449.14,428.49,449.51,430.89,447.76,432.82z"/>
		<path fill="#056ADB" d="M418.41,450.8c0.84,5.86,1.69,11.72,2.53,17.59c-3.25,0.49-2.15-2.01-2.51-3.59
			c-0.62-2.74,0.08-6.26-4.01-7.04c0-1,0.01-2,0.01-2.99c3.85-2.73,1.24-6.55,1.45-9.82c0.12-1.99-0.96-4.07,0.26-6.07
			c0.58,2.98,1.17,5.96,1.76,8.94c0.11,0.67,0.22,1.35,0.34,2.02c-0.09,0.11-0.26,0.25-0.24,0.31
			C418.11,450.38,418.27,450.58,418.41,450.8z"/>
		<path fill="#1E335A" d="M366.46,384.75c-0.01,6.36-7.8,13.91-14.42,13.99c-8.19,0.09-15.67-7.31-15.56-15.53
			c0.1-6.77,4.79-14.59,14.92-14.48C360.53,368.84,366.47,375.03,366.46,384.75z"/>
		<path fill="#020E2C" d="M336.3,457.79c0.03-0.68,0.07-1.36,0.1-2.04c0.01-6.01,0.02-12.02,0.03-18.03c0.13-0.3,0.2-0.62,0.24-0.95
			c10.16-0.01,20.32-0.02,30.47-0.02c0.08,0.34,0.15,0.68,0.23,1.02c0,1.99,0.01,3.99,0.01,5.98c0,3-0.01,6-0.01,9
			c0,1.67,0,3.34,0,5.01c-0.05,0.34-0.09,0.69-0.14,1.03c-10.24,0-20.49-0.01-30.73-0.01C336.43,458.44,336.37,458.11,336.3,457.79z
			"/>
		<path fill="#274DBF" d="M336.67,436.76c-0.03,0.33-0.11,0.64-0.24,0.95c-0.32,0.04-0.65,0.06-0.98,0.07
			c-3.91,0.08-7.74-1.06-10.68,3.67c-1.95,3.14-5.28,0.82-7.34-1.7c0.01-0.82-0.16-1.56-0.98-1.96c-8.66,0.01-17.33,0.03-25.99,0.04
			c-0.23-0.04-0.46-0.07-0.69-0.09c-0.2-0.27-0.32-0.57-0.38-0.9C305.15,436.82,320.91,436.79,336.67,436.76z"/>
		<path fill="#056ADB" d="M367.37,437.76c-0.07-0.34-0.15-0.68-0.23-1.02c15.74,0.07,31.48,0.15,47.22,0.22
			c-1.58,1.37-3.49,0.76-5.25,0.77C395.2,437.78,381.29,437.76,367.37,437.76z"/>
		<path fill="#18315B" d="M336.5,458.76c10.24,0,20.49,0.01,30.74,0.01c0.39-0.09,0.78-0.17,1.17-0.26
			c1.71,0.01,3.43,0.02,5.14,0.03c2.61,0,5.22,0.01,7.84,0.01c0.7,0.06,1.39,0.13,2.09,0.19c4.6,2.22,7.46,5.56,7.11,10.98
			c-0.38,0.42-0.75,0.84-1.13,1.26c-25.32,0.01-50.65,0.02-75.97,0.02c-0.3-0.15-0.62-0.24-0.95-0.28c-1.27-4.6,1.43-7.73,4.03-10.9
			c0,0-0.06,0.03-0.06,0.03c0.86-0.02,1.59-0.3,2.07-1.06c5.65-0.12,11.31-0.25,16.96-0.37
			C335.85,458.55,336.17,458.66,336.5,458.76z"/>
		<path fill="#18315B" d="M461.4,470.78c0.17-1.69,0.33-3.37,0.5-5.06c2.99-4.85,1.61-9.9,0.67-14.92c0.01-0.36,0.03-0.71,0.04-1.07
			c11.39,2.12,22.68,4.73,34.16,6.39c7.75,1.12,7.67,1.47,6.78,9.58c-0.18,1.65-0.08,3.33-0.11,4.99c-3.13,0.06-6.26,0.09-9.38,0.18
			c-10.52,0.3-21.06-0.65-31.57,0.49C462.13,471.17,461.77,470.98,461.4,470.78z"/>
		<path fill="#F7FAFC" d="M515.14,447.86c4.26-0.53,8.53-0.47,12.8-0.06c0.24,3.98,0.48,7.96,0.71,11.94
			c0.2,3.81,0.4,7.63,0.6,11.44c-0.35,0.01-0.6,0.17-0.75,0.47c-4.89-0.76-9.88,0.55-14.74-0.76c0.59-4.35,0.88-8.71,0.54-13.09
			C514.58,454.49,514.86,451.18,515.14,447.86z"/>
		<path fill="#056ADB" d="M182.46,471.1c3.49,0.1,7.01,1.1,10.44-0.4c16.86-0.02,33.72-0.04,50.58-0.06l0.43,0.07l0.38-0.21
			c0.28,0.1,0.56,0.18,0.84,0.24c4.88,1.49,9.88,0.56,14.81,0.63c8.13,0.11,16.27-0.15,24.41-0.25c-1.93,3.03-5.02,2.62-7.94,2.63
			c-27.52,0.06-55.02-1.7-82.55-0.98c-2.63,0.07-5.27-0.35-7.88,0.63C184.01,474.15,182.82,473.11,182.46,471.1z"/>
		<path fill="#056ADB" d="M313.47,471.02c25.32-0.01,50.65-0.02,75.97-0.02c-0.56,2.41-2.53,1.74-4.06,1.74
			c-22.61,0.03-45.22,0.03-67.84,0C316.02,472.73,314.05,473.42,313.47,471.02z"/>
		<path fill="#056ADB" d="M581.57,470.77c8.32,1.45,16.71,0.37,25.06,0.6c-2.71,2.31-6.28,2.38-9.31,2.24
			c-21.41-0.96-42.82-0.84-64.24-0.86c-1.03,0-1.99-0.14-2.64-1.07c1.42-1.5,3.34-0.5,4.97-0.99c1.04,0.03,2.08,0.06,3.12,0.1
			C552.88,470.79,567.22,470.78,581.57,470.77z"/>
		<path fill="#056ADB" d="M513.76,470.9c4.86,1.31,9.85,0,14.74,0.76c-1.23,1.62-3.01,1.08-4.6,1.08
			c-19.03,0.03-38.06,0.04-57.09-0.01c-1.51,0-3.43,0.78-4.32-1.37c10.51-1.14,21.05-0.18,31.57-0.49c3.13-0.09,6.26-0.12,9.38-0.18
			c1.34-0.01,2.68-0.01,4.02-0.02C509.57,470.75,511.67,470.82,513.76,470.9z"/>
		<path fill="#274DBF" d="M390.47,441.75c0.06,2.87,0.31,5.94-3.36,6.84c-2.13,0.52-4.45,0.49-5.81-1.72
			c-1.31-2.12-1.6-4.8-0.05-6.55c1.87-2.12,4.67-2.22,7.23-0.57C388.85,440.71,389.52,441.37,390.47,441.75z"/>
		<path fill="#274DBF" d="M414.44,454.76c0,1-0.01,2-0.01,2.99c-0.58,1.04-2.09,1.44-2.01,2.93c-1.32,0.04-2.64,0.08-3.97,0.11
			c-2.99-0.54-4.14-2.45-3.99-5.35c0.13-2.5,1.62-4.13,3.85-4.52C411.27,450.41,413.35,451.97,414.44,454.76z"/>
		<path fill="#274DBF" d="M301.45,452.9c-3.12-0.69-4.49-2.69-3.88-5.76c0.49-2.42,2.28-3.36,4.72-3.44
			c2.92-0.1,4.27,1.23,4.32,4.06c-0.04,1-0.07,2-0.11,3c-0.37,0.63-0.73,1.26-1.1,1.9C304.09,452.74,302.77,452.82,301.45,452.9z"/>
		<path fill="#1E335A" d="M535.41,470.7c-1.63,0.48-3.54-0.51-4.97,0.99c-0.4-0.16-0.8-0.33-1.19-0.5c-0.2-3.82-0.4-7.63-0.6-11.45
			c6.73,0.2,6.73,0.2,6.76,6.99C535.41,468.06,535.41,469.38,535.41,470.7z"/>
		<path fill="#056ADB" d="M390.58,469.73c0.34-5.42-2.51-8.77-7.11-10.98c4.07-2.18,8.09-1.41,10.24,2.25
			C395.57,464.18,393.73,467.55,390.58,469.73z"/>
		<path fill="#056ADB" d="M421.55,471.12c11.16,0.11,22.31,0.2,33.47,0.33c1.83,0.02,3.65,0.14,5.48,0.22
			c-9.52,2.29-19.21,3-28.82,1.44C428.35,472.57,424.28,474.79,421.55,471.12z"/>
		<path fill="#056ADB" d="M316.55,459.84c-2.6,3.17-5.3,6.3-4.03,10.9c-5.54-0.68-3.75-5.5-4.52-8.6c-0.49-1.98,1.69-0.28,2.53-0.69
			C312.43,460.51,314.24,459.25,316.55,459.84z"/>
		<path fill="#274DBF" d="M284.43,470.7c0.64-5.17,1.26-10.35,2.81-15.35c0.12,0.47,0.23,0.94,0.35,1.4
			c-0.02,1.01-0.04,2.01-0.05,3.02c-0.04,0.32-0.03,0.64,0.03,0.96c0.01,0.67,0.01,1.35,0.01,2.02c-0.02,0.67-0.04,1.34-0.06,2
			C286.97,466.99,286.22,469.12,284.43,470.7z"/>
		<path fill="#274DBF" d="M367.37,452.74c0-3,0.01-6,0.01-9C371.78,446.78,371.78,450.43,367.37,452.74z"/>
		<path fill="#056ADB" d="M289.77,437.74c0.23,0.02,0.46,0.05,0.69,0.09c0,3.1,0.02,6.21-0.02,9.31c-0.02,1.58,0.35,3.48-2.21,3.47
			C288.75,446.32,289.26,442.03,289.77,437.74z"/>
		<path fill="#056ADB" d="M335.45,437.78c0.33,0,0.65-0.02,0.98-0.07c-0.01,6.01-0.02,12.02-0.03,18.03
			C334.27,449.85,336.01,443.75,335.45,437.78z"/>
		<path fill="#056ADB" d="M301.45,452.9c1.32-0.08,2.64-0.16,3.96-0.24c-0.02,1.63,0.24,3.71-2.08,3.67
			C301.42,456.29,301.5,454.38,301.45,452.9z"/>
		<path fill="#056ADB" d="M408.46,460.8c1.32-0.04,2.65-0.07,3.97-0.11c-0.08,1.1,0.35,2.59-1.23,2.83
			C409.29,463.81,408.64,462.45,408.46,460.8z"/>
		<path fill="#056ADB" d="M287.59,456.75c-0.12-0.47-0.23-0.94-0.35-1.4c0.07-1.54,0.13-3.09,0.2-4.63c0.27-0.1,0.56-0.16,0.85-0.17
			C287.43,452.55,291.62,455.11,287.59,456.75z"/>
		<path fill="#056ADB" d="M381.38,458.56c-2.61,0-5.22,0-7.84-0.01C376.15,457.3,378.77,457.29,381.38,458.56z"/>
		<path fill="#056ADB" d="M306.5,450.76c0.04-1,0.07-2,0.11-3c0.79,0.15,1.59,0.32,1.67,1.32
			C308.39,450.35,307.49,450.62,306.5,450.76z"/>
		<path fill="#056ADB" d="M373.26,440.84c-0.57,0.34-0.91,0.71-1.28,0.73c-0.68,0.04-1.24-0.36-1-1.1c0.09-0.27,0.77-0.5,1.15-0.47
			C372.46,440.02,372.76,440.45,373.26,440.84z"/>
		<path fill="#056ADB" d="M390.47,441.75c-0.95-0.38-1.62-1.04-1.99-2C389.51,440.06,391.81,439.09,390.47,441.75z"/>
		<path fill="#056ADB" d="M287.52,464.76c0.02-0.67,0.04-1.34,0.06-2c0.49,0.27,1.32,0.47,1.39,0.82
			C289.17,464.6,288.23,464.62,287.52,464.76z"/>
		<path fill="#056ADB" d="M318.56,458.8c-0.48,0.77-1.21,1.04-2.07,1.06C316.88,458.91,317.68,458.78,318.56,458.8z"/>
		<path fill="#056ADB" d="M420.83,468.48c0.8,0.59,0.73,1.44,0.69,2.29C420.56,470.23,420.47,469.42,420.83,468.48z"/>
		<path fill="#056ADB" d="M316.46,437.79c0.82,0.41,0.98,1.14,0.98,1.96C316.65,439.32,316.48,438.59,316.46,437.79z"/>
		<path fill="#056ADB" d="M336.5,458.76c-0.32-0.11-0.65-0.22-0.97-0.33c0.26-0.22,0.52-0.43,0.78-0.65
			C336.37,458.11,336.43,458.44,336.5,458.76z"/>
		<path fill="#056ADB" d="M368.4,458.52c-0.39,0.09-0.78,0.17-1.17,0.26c0.05-0.34,0.09-0.69,0.14-1.03
			C367.71,458,368.06,458.26,368.4,458.52z"/>
		<path fill="#056ADB" d="M287.56,460.74c-0.06-0.32-0.07-0.64-0.03-0.96c0.12,0.23,0.27,0.44,0.35,0.68
			C287.9,460.51,287.68,460.64,287.56,460.74z"/>
		<path fill="#020E2C" d="M535.41,470.7c0-1.32,0-2.64,0-3.97c-0.03-6.79-0.03-6.79-6.76-6.99c-0.24-3.98-0.48-7.96-0.71-11.94
			c17.65-0.36,34.96-3.27,52.2-6.79c0.33,6.58,0.66,13.15,0.99,19.73c-10.92,0.09-21.76,1.44-32.78,0.27
			c-9.82-1.04-9.9-0.28-9.82,9.78C537.49,470.76,536.45,470.73,535.41,470.7z"/>
		<path fill="#020E2C" d="M507.47,470.67c-1.34,0.01-2.68,0.01-4.02,0.02c0.03-1.67-0.07-3.35,0.11-4.99
			c0.89-8.11,0.96-8.46-6.78-9.58c-11.49-1.66-22.78-4.27-34.16-6.39c0.21-2.89,0.42-5.78,0.63-8.67c9.91,1.59,19.67,4.15,29.7,5
			c7.4,0.62,14.8,1.2,22.2,1.8c-0.28,3.32-0.56,6.63-0.84,9.95c-6.79,0.47-6.79,0.47-6.82,7.97
			C507.47,467.41,507.47,469.04,507.47,470.67z"/>
		<path fill="#274DBF" d="M553.32,397.66c-20.79-1.65-38.91-9.86-55.02-22.7c-5.16-4.11-10.89-7.7-14.75-13.24
			c-0.67-0.97-3.01-2.23-1.06-3.61c1.42-1.01,2.01,1.19,2.91,2.03c13.16,12.36,27.19,23.51,44.4,29.67c7.61,2.72,15.51,4.81,23.75,5
			c1.47,0.03,3.53-1.04,4.33,1.17C558.28,397.09,556.27,397.85,553.32,397.66z"/>
		<path fill="#274DBF" d="M549.73,384.44c-6.8,0.85-11.94-1.51-17.11-3.53c-9.01-3.51-17.41-8.11-24.8-14.41
			c-0.9-0.77-2.75-1.68-1.69-3.09c1.09-1.44,2.37,0.05,3.37,0.82c8.54,6.61,17.72,12.01,27.97,15.64
			C541.25,381.22,545.83,380.18,549.73,384.44z"/>
		<path fill="#B4DCEF" d="M459.38,439.77c0,0-0.46,0.06-0.46,0.06s-0.39-0.25-0.39-0.25C458.81,439.65,459.1,439.71,459.38,439.77z"
			/>
		<path fill="#18315B" d="M538.53,470.8c-0.08-10.06,0-10.82,9.82-9.78c11.02,1.17,21.86-0.18,32.78-0.27
			c0.15,3.34,0.29,6.68,0.44,10.03C567.22,470.78,552.88,470.79,538.53,470.8z"/>
		<path fill="#F7FAFC" d="M352.78,155.35c-1.53-0.27-3.38-0.16-4.74-0.94c-2.42-1.39-4.83-3.42-4.47-6.51
			c0.38-3.31,3.4-1.73,5.26-1.88c3.13-0.24,6.3-0.02,9.44-0.09c3.34-0.07,3.62,1.56,2.41,4.1
			C359.12,153.32,356.5,155.07,352.78,155.35z"/>
		<path fill="#1E335A" d="M332.23,119.09c3.82-4.35,8.23-2.93,12.15-3.39c0.69-0.08,1.32,0.29,1.3,1.12
			c-0.03,1.07-0.87,1.33-1.7,1.4C340.38,118.5,336.79,118.75,332.23,119.09z"/>
		<path fill="#1E335A" d="M372.53,119.02c-4.32-0.26-7.87-0.45-11.43-0.7c-0.81-0.06-1.91-0.22-1.79-1.23
			c0.08-0.61,1.35-1.69,1.53-1.58C364.26,117.44,369.01,114.89,372.53,119.02z"/>
		<path fill="#EE7B5D" d="M356.31,139.87c-3.72,1.34-6.19,1.37-5.93-3.29c0.19-3.38,0.04-6.78,0.77-10.16
			c2.07,2.47-0.08,5.05,0.27,7.59C351.84,136.99,350.66,140.76,356.31,139.87z"/>
		<path fill="#1E335A" d="M367.43,126.16c-0.09,1.35-0.13,2.93-1.92,2.94c-1.75,0.01-2.01-1.5-2-2.88c0.01-1.38,0.26-2.94,1.94-2.97
			C367.19,123.21,367.32,124.8,367.43,126.16z"/>
		<path fill="#1E335A" d="M339.49,129.19c-1.84-0.56-1.96-2.04-1.84-3.52c0.11-1.37,0.68-2.77,2.33-2.38
			c1.44,0.34,1.69,1.82,1.61,3.18C341.5,127.84,341.15,129.04,339.49,129.19z"/>
		<path fill="#EE7B5D" d="M356.39,157.3c-1.38,3.12-3.58,2.33-5.42,2.42c-0.98,0.05-2.28-0.06-2.24-1.32
			c0.06-2.07,1.48-0.89,2.5-0.85C352.78,157.59,354.34,157.41,356.39,157.3z"/>
		<path fill="#1E335A" d="M534.11,130.34c-0.2,1.37-0.44,2.98-2,3.01c-2.02,0.04-2.01-1.82-2.04-3.26
			c-0.03-1.34,0.32-2.99,1.87-2.99C533.8,127.1,533.93,128.9,534.11,130.34z"/>
		<path fill="#1E335A" d="M509.2,130.39c-0.17,1.41-0.56,2.92-2.1,2.95c-1.99,0.04-2.07-1.74-2.12-3.23
			c-0.05-1.41,0.35-2.92,1.94-2.92C508.79,127.19,509,128.93,509.2,130.39z"/>
		<path fill="#18315B" d="M243.47,470.64c-16.86,0.02-33.72,0.04-50.58,0.06c-0.28-5.61-0.63-11.23-0.03-16.84
			c7.31,1.58,14.8,1.58,22.18,1.6c10.08,0.03,20.17-1.07,30.25-1.68c-0.09,4.31-0.17,8.61-0.26,12.92
			c-1.75-3.43,0.18-7.27-1.56-12.17C243.47,460.85,243.47,465.75,243.47,470.64z"/>
		<path fill="#020E2C" d="M243.47,470.64c0-4.9,0-9.8,0-16.12c1.74,4.9-0.19,8.74,1.56,12.17c-0.02,0.72-0.04,1.43-0.06,2.15
			c-0.23,0.55-0.46,1.11-0.68,1.66l-0.38,0.21L243.47,470.64z"/>
		<path fill="#18315B" d="M244.29,470.5c0.23-0.55,0.46-1.11,0.68-1.66c0.05,0.63,0.11,1.27,0.16,1.9
			C244.84,470.68,244.56,470.6,244.29,470.5z"/>
		<path fill="#1E335A" d="M166.39,122.58c-1.13,0.03-2.25,0.29-2.57-1.05c-0.36-1.49,0.2-2.72,1.68-3.13
			c3.83-1.06,7.7-1.94,11.7-0.86c1.16,0.32,2.26,0.66,2.13,2.21c-0.15,1.69-1.2,2.19-2.73,2.09
			C173.1,121.62,169.66,121.97,166.39,122.58z"/>
		<path fill="#1E335A" d="M202.67,121.79c-3.28,0-6.55-0.01-9.83,0c-1.32,0.01-2.22-0.47-2.39-1.89c-0.18-1.49,0.78-1.97,1.98-2.33
			c3.99-1.18,7.82-0.17,11.64,0.82c1.6,0.42,1.8,1.8,1.45,3.18C205.07,123.34,203.69,122.37,202.67,121.79z"/>
		<path fill="#EE7B5D" d="M187.59,143.8c-3.86,0.43-5.55-1.24-5.19-5.15c0.31-3.39-0.4-6.86,0.72-11.01
			c2.14,3.26,1.03,6.21,1.27,8.93c0.21,2.35-0.75,5.26,3.17,5.38c-0.02,0.63-0.04,1.27-0.06,1.9
			C187.5,143.85,187.59,143.8,187.59,143.8z"/>
		<path fill="#1E335A" d="M197.39,132.72c-1.54,0-2.04-1-2.13-2.2c-0.12-1.43-0.32-3.17,1.47-3.67c1.72-0.48,2.19,1,2.38,2.33
			C199.32,130.71,199.03,132.09,197.39,132.72z"/>
		<path fill="#1E335A" d="M174.25,129.39c-0.22,1.63-0.39,3.32-2.32,3.29c-1.35-0.02-1.74-1.36-1.75-2.56
			c-0.02-1.49,0.01-3.27,1.93-3.41C173.8,126.59,173.86,128.32,174.25,129.39z"/>
		<path fill="#F7FAFC" d="M184.18,148.94c1.66,0,3.33-0.08,4.98,0.03c1.41,0.09,3.24-0.68,4.08,0.98c0.87,1.72-0.4,3.23-1.32,4.54
			c-3.74,5.3-12.89,4.33-15.88-1.56c-1.29-2.53-1.32-4.13,2.17-4.01c1.99,0.07,3.99,0.01,5.98,0.01
			C184.18,148.93,184.18,148.94,184.18,148.94z"/>
		<path fill="#020E2C" d="M462.57,450.8c0.94,5.03,2.33,10.07-0.67,14.92C462.13,460.75,462.35,455.78,462.57,450.8z"/>
		<path fill="#B4DCEF" d="M418.41,450.8c-0.14-0.21-0.31-0.42-0.41-0.65c-0.03-0.06,0.15-0.21,0.24-0.31
			c0.1,0.21,0.22,0.41,0.28,0.63C418.55,450.56,418.45,450.68,418.41,450.8z"/>
		<path fill="#1E335A" d="M507.47,470.67c0-1.63-0.01-3.26,0-4.89c0.03-7.5,0.04-7.5,6.82-7.97c0.34,4.39,0.05,8.74-0.54,13.09
			C511.67,470.82,509.57,470.75,507.47,470.67z"/>
	</g>
</g>
</svg>
