<?xml version="1.0" encoding="utf-8"?>
<!-- Generator: Adobe Illustrator 23.0.5, SVG Export Plug-In . SVG Version: 6.00 Build 0)  -->
<svg version="1.1" id="Layer_1" xmlns="http://www.w3.org/2000/svg" xmlns:xlink="http://www.w3.org/1999/xlink" x="0px" y="0px"
	 viewBox="0 0 500 200" enable-background="new 0 0 500 200" xml:space="preserve">
<g>
	<g>
		<g>
			<path fill="#9AE5FC" d="M276.1,44.82v19.95c0,2.54,1.75,4.73,4.2,5.34l40.96,10.24c0.09,0,0.26,0.09,0.35,0.09
				c3.5,1.14,4.38,1.14,5.51-0.09c3.33-3.5-1.93-16.8-9.45-25.47c-0.18-0.26-0.44-0.44-0.61-0.61c-1.75-1.49-10.59-8.58-23.63-13.48
				c-3.06-1.14-6.13-2.36-7.44-2.8c-0.44-0.18-0.88-0.26-1.23-0.35l-2.1-0.44c-3.41-0.61-6.56,2.01-6.56,5.43V44.82L276.1,44.82z"/>
			<g>
				<circle fill="none" stroke="#4E4868" stroke-width="12" stroke-miterlimit="10" cx="274.61" cy="154.03" r="23.98"/>
				<circle fill="none" stroke="#4E4868" stroke-width="12" stroke-miterlimit="10" cx="78.23" cy="154.03" r="23.98"/>
				<path fill="#4E4868" d="M115.69,154.03h118.93c1.58,0,2.89-1.23,2.89-2.89v-4.9c0-1.58-1.31-2.89-2.89-2.89H116.04
					c-1.58,0-2.89,1.23-2.89,2.89v5.16C113.15,152.89,114.38,154.03,115.69,154.03z"/>
				<path fill="#4E4868" d="M6.82,154.03h31.59c1.66,0,2.98-1.14,2.98-2.63v-5.34c0-1.49-1.31-2.63-2.98-2.63H6.82
					c-1.66,0-2.98,1.14-2.98,2.63v5.34C3.85,152.89,5.16,154.03,6.82,154.03z"/>
				<path fill="none" stroke="#4E4868" stroke-width="12" stroke-miterlimit="10" d="M309.88,136.53c11.46,0,23.02,0,34.57,0
					c2.45,0,4.64-1.84,4.81-4.29c1.05-9.1,1.49-20.48-0.61-33.25c-4.73-29.49-19.25-50.32-28.62-61.26
					c-1.75-2.1-4.46-3.33-7.18-3.33h-58.81c-1.93,0-3.41,1.58-3.41,3.41v82.87c0,1.4,1.49,2.28,2.71,1.58
					c5.34-2.89,17.33-7.96,31.68-4.2C300.43,122.18,308.22,133.82,309.88,136.53z"/>
				<path fill="none" stroke="#0F0F0F" stroke-width="6" stroke-miterlimit="10" d="M329.48,105.37"/>
				<path fill="none" stroke="#4E4868" stroke-width="12" stroke-miterlimit="10" d="M270.94,38.87v36.32
					c0,3.59,2.54,6.74,6.04,7.53l46.99,10.24c2.45,0.53,4.2,2.54,4.64,4.99l0.96,7.53"/>
			</g>
			<path fill="#4E4868" stroke="#4E4868" stroke-width="2" stroke-miterlimit="10" d="M64.58,154.03
				c-0.09-7.53,6.04-13.56,13.65-13.56c7.44,0,13.56,6.04,13.65,13.21c0.18,7.79-5.78,13.91-13.56,14
				C70.62,167.86,64.58,161.91,64.58,154.03z M78.15,158.67c2.45,0,4.55-2.01,4.64-4.55s-1.84-4.55-4.46-4.64
				c-2.71-0.09-4.81,2.01-4.73,4.64C73.51,156.57,75.7,158.67,78.15,158.67z"/>
			<path fill="#4E4868" stroke="#4E4868" stroke-width="2" stroke-miterlimit="10" d="M261.14,153.59
				c-0.09-7.53,6.04-13.56,13.65-13.56c7.44,0,13.56,6.04,13.65,13.21c0.18,7.79-5.78,13.91-13.56,14
				C267.09,167.42,261.14,161.47,261.14,153.59z M274.7,158.23c2.45,0,4.55-2.01,4.64-4.55s-1.84-4.55-4.46-4.64
				s-4.81,2.01-4.73,4.64C270.06,156.13,272.25,158.23,274.7,158.23z"/>
			<path fill="#9AE5FC" d="M13.91,82.18c10.5,0,21,0,31.5,0c3.94,0,6.56,2.54,6.48,5.95c-0.09,3.24-2.63,5.43-6.48,5.51
				c-0.61,0-1.23,0-1.93,0c-9.89,0-19.69,0-29.58,0C13.56,89.89,13.56,86.03,13.91,82.18z"/>
			<path fill="#DBDAE1" d="M234.88,39.93c-3.5,0-6.13-2.45-5.95-6.3c0.09-2.71-0.61-3.85-3.59-3.76c-4.03,0.09-6.39-2.36-6.39-5.95
				c0-3.15,2.54-5.51,6.39-5.34c2.89,0.09,3.59-0.88,3.59-3.76c-0.09-3.76,2.71-6.91,5.6-6.91c3.5,0,6.48,3.15,6.48,7
				c0,2.36,0.09,3.5,3.24,3.15c4.2-0.35,6.65,2.1,6.74,5.51c0.09,3.76-2.19,6.13-6.56,6.21c-2.8,0.09-3.33,1.4-3.33,3.85
				C240.92,37.57,238.47,39.93,234.88,39.93z"/>
			<path fill="#EAE9ED" d="M210.12,44.73c0,9.28-6.39,14.96-15.93,15.49c-9.19,0.44-15.66-8.31-15.58-16.01
				c0.09-7.09,6.48-16.19,16.54-15.58C203.99,29.24,210.12,35.36,210.12,44.73z M198.74,44.38c-0.7-2.19-1.58-4.38-4.46-4.2
				c-2.63,0.18-3.76,2.28-3.85,4.46c-0.09,2.63,2.19,3.85,4.38,3.59C196.81,48.23,198.65,47,198.74,44.38z"/>
			<path fill="#4E4868" d="M130.3,192.1H33.17c-2.28,0-4.2-2.28-4.2-5.08l0,0c0-2.8,1.84-5.08,4.2-5.08h97.14
				c2.28,0,4.2,2.28,4.2,5.08l0,0C134.51,189.91,132.58,192.1,130.3,192.1z"/>
			<path fill="#EFDD03" d="M343.92,131.02v-20.65c-3.76,0.26-6.65,1.23-8.49,1.93c-2.28,0.96-7.88,4.03-11.9,11.81
				c-1.49,2.8-2.01,5.34-2.28,6.83"/>
			<path fill="#4E4868" d="M332.11,192.1H215.19c-2.8,0-5.08-2.28-5.08-5.08l0,0c0-2.8,2.28-5.08,5.08-5.08h116.92
				c2.8,0,5.08,2.28,5.08,5.08l0,0C337.1,189.91,334.91,192.1,332.11,192.1z"/>
			<path fill="#4E4868" d="M20.13,192.1H8.92c-2.8,0-5.08-2.28-5.08-5.08l0,0c0-2.8,2.28-5.08,5.08-5.08h11.29
				c2.8,0,5.08,2.28,5.08,5.08l0,0C25.29,189.91,23.01,192.1,20.13,192.1z"/>
		</g>
		<path fill="none" stroke="#4E4868" stroke-width="12" stroke-miterlimit="10" d="M14.35,77.9h220.62v40.26H8.92V83.23
			C8.92,80.26,11.38,77.9,14.35,77.9z"/>
	</g>
	<rect x="14.87" y="99.41" fill="#EAE9ED" width="214.08" height="10.5"/>
	<path fill="#4E4868" d="M346.2,154.39h-35.18c-2.19,0-3.94-1.75-3.94-3.94v-2.71c0-2.19,1.75-3.94,3.94-3.94h35.18
		c2.19,0,3.94,1.75,3.94,3.94v2.71C350.14,152.64,348.39,154.39,346.2,154.39z"/>
	<g>
		<path d="M371.23,109.26c-0.72,0-1.27-0.2-1.66-0.59c-0.38-0.4-0.58-0.95-0.58-1.67v-4.82h-4.72c-0.7,0-1.23-0.18-1.6-0.54
			c-0.37-0.36-0.56-0.89-0.56-1.58c0-0.7,0.19-1.22,0.56-1.58c0.37-0.36,0.91-0.54,1.6-0.54H369v-4.64c0-0.72,0.19-1.27,0.58-1.66
			c0.38-0.38,0.95-0.58,1.69-0.58c0.72,0,1.27,0.19,1.64,0.58c0.37,0.38,0.56,0.94,0.56,1.66v4.64h4.72c0.7,0,1.23,0.18,1.6,0.54
			c0.37,0.36,0.56,0.89,0.56,1.58c0,0.7-0.19,1.22-0.56,1.58c-0.37,0.36-0.91,0.54-1.6,0.54h-4.72v4.82c0,0.72-0.19,1.28-0.56,1.67
			C372.53,109.06,371.97,109.26,371.23,109.26z"/>
		<path d="M393.62,110.7c-1.06,0-1.87-0.29-2.45-0.88c-0.58-0.59-0.86-1.41-0.86-2.47V90.4h-5.65c-0.89,0-1.57-0.23-2.03-0.7
			s-0.7-1.13-0.7-2c0-0.89,0.23-1.56,0.7-2.02s1.15-0.68,2.03-0.68h17.93c0.89,0,1.57,0.23,2.03,0.68s0.7,1.13,0.7,2.02
			c0,0.86-0.23,1.53-0.7,2s-1.15,0.7-2.03,0.7h-5.65v16.96c0,1.06-0.28,1.88-0.83,2.47C395.55,110.41,394.73,110.7,393.62,110.7z"/>
		<path d="M407.52,110.7c-1.06,0-1.87-0.28-2.43-0.83s-0.85-1.36-0.85-2.41V95.54c0-1.03,0.27-1.82,0.81-2.38
			c0.54-0.55,1.31-0.83,2.32-0.83s1.78,0.28,2.3,0.83c0.53,0.55,0.79,1.34,0.79,2.38v1.48h-0.36c0.24-1.44,0.86-2.58,1.85-3.42
			s2.24-1.28,3.73-1.33c0.7-0.02,1.22,0.15,1.57,0.52s0.53,1.06,0.56,2.07c0,0.86-0.18,1.55-0.54,2.05c-0.36,0.5-1.04,0.8-2.05,0.9
			l-0.83,0.07c-1.27,0.12-2.2,0.47-2.77,1.06s-0.86,1.46-0.86,2.61v5.9c0,1.06-0.28,1.86-0.83,2.41S408.57,110.7,407.52,110.7z"/>
		<path d="M425.84,110.77c-1.37,0-2.57-0.25-3.62-0.76s-1.86-1.19-2.45-2.07s-0.88-1.88-0.88-3.01c0-1.3,0.34-2.32,1.01-3.06
			c0.67-0.74,1.75-1.28,3.24-1.6c1.49-0.32,3.47-0.49,5.94-0.49h1.98v3.02h-1.98c-0.94,0-1.71,0.07-2.32,0.2
			c-0.61,0.13-1.06,0.34-1.35,0.61c-0.29,0.28-0.43,0.63-0.43,1.06c0,0.55,0.2,1.01,0.59,1.37c0.4,0.36,0.97,0.54,1.71,0.54
			c0.6,0,1.13-0.13,1.6-0.4c0.47-0.26,0.85-0.63,1.13-1.1c0.29-0.47,0.43-1.01,0.43-1.64v-4.18c0-0.86-0.22-1.48-0.67-1.84
			s-1.21-0.54-2.29-0.54c-0.58,0-1.22,0.07-1.94,0.2c-0.72,0.13-1.52,0.37-2.41,0.7c-0.65,0.24-1.2,0.28-1.66,0.11
			c-0.46-0.17-0.81-0.46-1.06-0.86s-0.37-0.85-0.36-1.33c0.01-0.48,0.17-0.94,0.47-1.37c0.3-0.43,0.76-0.77,1.39-1.01
			c1.15-0.43,2.21-0.72,3.19-0.86c0.97-0.14,1.87-0.22,2.68-0.22c1.97,0,3.59,0.28,4.88,0.85c1.28,0.56,2.24,1.43,2.88,2.59
			c0.63,1.16,0.95,2.66,0.95,4.48v7.27c0,1.06-0.25,1.86-0.76,2.41s-1.24,0.83-2.2,0.83c-0.98,0-1.73-0.28-2.25-0.83
			c-0.52-0.55-0.77-1.36-0.77-2.41v-0.94l0.22,0.5c-0.12,0.77-0.4,1.43-0.83,1.98c-0.43,0.55-1,0.98-1.69,1.3
			C427.52,110.62,426.73,110.77,425.84,110.77z"/>
		<path d="M443.3,89.79c-1.13,0-2-0.26-2.61-0.79c-0.61-0.53-0.92-1.3-0.92-2.3c0-0.98,0.31-1.74,0.92-2.27
			c0.61-0.53,1.48-0.79,2.61-0.79c1.18,0,2.06,0.26,2.66,0.79c0.6,0.53,0.9,1.28,0.9,2.27c0,1.01-0.3,1.78-0.9,2.3
			C445.37,89.52,444.48,89.79,443.3,89.79z M443.3,110.7c-1.01,0-1.79-0.3-2.34-0.9c-0.55-0.6-0.83-1.46-0.83-2.59V95.83
			c0-1.13,0.28-1.99,0.83-2.59c0.55-0.6,1.33-0.9,2.34-0.9c1.03,0,1.83,0.3,2.39,0.9c0.56,0.6,0.85,1.46,0.85,2.59v11.38
			c0,1.13-0.28,1.99-0.83,2.59C445.16,110.4,444.36,110.7,443.3,110.7z"/>
		<path d="M456.98,110.77c-2.3,0-4-0.62-5.09-1.85c-1.09-1.24-1.64-3.1-1.64-5.6V87.91c0-1.06,0.28-1.86,0.83-2.41
			c0.55-0.55,1.33-0.83,2.34-0.83c1.03,0,1.83,0.28,2.39,0.83c0.56,0.55,0.85,1.36,0.85,2.41v15.19c0,0.89,0.17,1.54,0.52,1.94
			c0.35,0.41,0.8,0.61,1.35,0.61c0.17,0,0.34-0.02,0.52-0.05c0.18-0.04,0.38-0.07,0.59-0.09c0.41,0,0.71,0.16,0.92,0.47
			c0.2,0.31,0.31,0.95,0.31,1.91c0,0.84-0.17,1.47-0.5,1.89c-0.34,0.42-0.85,0.69-1.55,0.81c-0.19,0.02-0.47,0.06-0.83,0.11
			C457.63,110.75,457.29,110.77,456.98,110.77z"/>
		<path d="M472.25,110.77c-2.16,0-4.03-0.38-5.6-1.13c-1.57-0.76-2.78-1.83-3.62-3.22c-0.84-1.39-1.26-3.04-1.26-4.93
			c0-1.82,0.4-3.43,1.21-4.81c0.8-1.38,1.91-2.46,3.31-3.24c1.4-0.78,3.01-1.17,4.81-1.17c1.32,0,2.52,0.21,3.6,0.63
			s2,1.03,2.77,1.84c0.77,0.8,1.35,1.77,1.75,2.9c0.4,1.13,0.59,2.39,0.59,3.78c0,0.48-0.13,0.83-0.4,1.06
			c-0.26,0.23-0.68,0.34-1.26,0.34h-11.02v-3.02h7.99l-0.58,0.47c0-0.89-0.12-1.61-0.36-2.16s-0.59-0.97-1.06-1.26
			c-0.47-0.29-1.05-0.43-1.75-0.43c-0.74,0-1.39,0.17-1.93,0.52c-0.54,0.35-0.95,0.86-1.24,1.53c-0.29,0.67-0.43,1.51-0.43,2.52
			v0.32c0,1.7,0.38,2.92,1.13,3.65c0.76,0.73,1.93,1.1,3.51,1.1c0.53,0,1.13-0.07,1.82-0.2c0.68-0.13,1.34-0.32,1.96-0.56
			c0.62-0.24,1.16-0.28,1.62-0.13c0.46,0.16,0.81,0.42,1.06,0.79s0.39,0.79,0.41,1.26c0.02,0.47-0.08,0.92-0.32,1.37
			c-0.24,0.44-0.64,0.79-1.19,1.03c-0.84,0.38-1.73,0.67-2.68,0.86C474.16,110.68,473.21,110.77,472.25,110.77z"/>
		<path d="M485.85,110.7c-1.06,0-1.87-0.28-2.43-0.83s-0.85-1.36-0.85-2.41V95.54c0-1.03,0.27-1.82,0.81-2.38
			c0.54-0.55,1.31-0.83,2.32-0.83s1.78,0.28,2.3,0.83c0.53,0.55,0.79,1.34,0.79,2.38v1.48h-0.36c0.24-1.44,0.86-2.58,1.85-3.42
			s2.24-1.28,3.73-1.33c0.7-0.02,1.22,0.15,1.57,0.52s0.53,1.06,0.56,2.07c0,0.86-0.18,1.55-0.54,2.05c-0.36,0.5-1.04,0.8-2.05,0.9
			l-0.83,0.07c-1.27,0.12-2.2,0.47-2.77,1.06s-0.86,1.46-0.86,2.61v5.9c0,1.06-0.28,1.86-0.83,2.41S486.91,110.7,485.85,110.7z"/>
	</g>
</g>
</svg>
